<svg focusable="false" xmlns="http://www.w3.org/2000/svg" width="24" height="24" viewBox="0 0 24 24"><title>Icons / Utility / access</title><g fill="none" fill-rule="evenodd"><path d="M0 0h24v24H0z"/><path fill="currentColor" fill-rule="nonzero" d="M11.629 3.691a5.832 5.832 0 1 1 1.193 9.168l-2.958 2.957 1.836 2.987-3.02 3.02-2.99-1.834-.668.668a1 1 0 0 1-1.414 0l-.698-.697a1 1 0 0 1 0-1.415l7.8-7.798a5.834 5.834 0 0 1 .919-7.056zm2.25 2.25a2.65 2.65 0 1 0 3.748 3.749 2.65 2.65 0 0 0-3.749-3.75z"/></g></svg>
