<svg focusable="false" xmlns="http://www.w3.org/2000/svg" width="40" height="40" viewBox="0 0 40 40"><title>accruals-40</title><g fill="none" fill-rule="evenodd"><path d="M0 0h40v40H0z"/><path fill="var(--ukg_sys_color_featureIcon_light, #30CEBB)" fill-rule="nonzero" d="m21 13 .001 9.1A5.002 5.002 0 0 1 20 32a5 5 0 0 1-1-9.9V13h2Z"/><path fill="var(--ukg_sys_color_featureIcon_dark, #005151)" fill-rule="nonzero" d="M19.783 4.005A5 5 0 0 0 15 9l-.001 10.515A9 9 0 1 0 29 27l-.005-.304A8.997 8.997 0 0 0 25 19.516V9a5 5 0 0 0-5-5l-.217.005ZM20 6a3 3 0 0 1 3 3l.001 11.071a1 1 0 0 0 .5.865 7 7 0 1 1-7 0A1 1 0 0 0 17 20.07V9a3 3 0 0 1 3-3Zm11 10a1 1 0 0 1 0 2h-4a1 1 0 0 1 0-2h4Zm-2-4a1 1 0 0 1 0 2h-2a1 1 0 0 1 0-2h2Zm2-4a1 1 0 0 1 0 2h-4a1 1 0 0 1 0-2h4Z"/></g></svg>
