<svg focusable="false" xmlns="http://www.w3.org/2000/svg" width="40" height="40" viewBox="0 0 40 40"><title>announcements-40</title><g fill="none" fill-rule="evenodd"><path d="M0 0h40v40H0z"/><path fill="var(--ukg_sys_color_featureIcon_light, #30CEBB)" fill-rule="nonzero" d="m13.89 18.89 6.22 6.22a19.83 19.83 0 0 0-1.77 1.55l-2.63 2.63A2.41 2.41 0 0 1 14 30l-.192-.007a2.41 2.41 0 0 1-1.518-.703l-2.58-2.58a2.41 2.41 0 0 1 0-3.42l2.63-2.63a19.83 19.83 0 0 0 1.55-1.77zM32 13.25a.75.75 0 1 1 0 1.5h-3a.75.75 0 1 1 0-1.5zm-2.58-4.78a.75.75 0 1 1 1.06 1.06l-2 1.95a.77.77 0 0 1-.53.22.79.79 0 0 1-.53-.22.75.75 0 0 1 0-1.06zm-4.528-2.271L25 6.2a.75.75 0 0 1 .7.8v3a.75.75 0 1 1-1.5 0V7a.74.74 0 0 1 .8-.8z"/><path fill="var(--ukg_sys_color_featureIcon_dark, #005151)" fill-rule="nonzero" d="M32 20a20.14 20.14 0 0 0-14.36 6L15 28.59a1.48 1.48 0 0 1-2 0l-.76-.77 1.29-1.29a.75.75 0 0 0-1.06-1.06l-1.29 1.29-.77-.76a1.42 1.42 0 0 1 0-2l2.64-2.64a20.12 20.12 0 0 0 5.81-12.08l9.43 9.43A1 1 0 0 0 29 19a1 1 0 0 0 .71-1.71l-11-11a1 1 0 0 0-.33-.21 1 1 0 0 0-.76 0 1 1 0 0 0-.54.54A1 1 0 0 0 17 7a18.19 18.19 0 0 1-5.36 13L9 22.59A3.36 3.36 0 0 0 8 25c.001.178.018.355.05.53l-1.4 1.41a2.2 2.2 0 0 0 0 3.12l2.29 2.29a2.2 2.2 0 0 0 3.12 0L13.47 31c.176.015.354.015.53 0a3.34 3.34 0 0 0 2-.63l.5.51A10.61 10.61 0 0 0 24 34h2a1 1 0 0 0 1-1v-4a1 1 0 0 0-1-1h-2.18a2.81 2.81 0 0 1-2.77-2.34A18.17 18.17 0 0 1 32 22a1 1 0 0 0 0-2zM10.35 30.94l-2.29-2.29a.22.22 0 0 1 0-.3l.94-.94L11.59 30l-.94.94a.24.24 0 0 1-.3 0zM23.82 30H25v2h-1a8.58 8.58 0 0 1-6.12-2.54l-.47-.46 1.64-1.64c.11-.1.22-.19.33-.3A4.83 4.83 0 0 0 23.82 30z"/></g></svg>
