<svg focusable="false" xmlns="http://www.w3.org/2000/svg" width="40" height="40" viewBox="0 0 40 40"><title>apple-40</title><g fill="none" fill-rule="evenodd"><path d="M0 0h40v40H0z"/><path fill="var(--ukg_sys_color_featureIcon_light, #30CEBB)" fill-rule="nonzero" d="M14.506 16.004a3.5 3.5 0 1 1 0 7 3.5 3.5 0 0 1 0-7zm14.5-10a1 1 0 0 1 1 1v2a8 8 0 0 1-8 8h-2v-1a7.71 7.71 0 0 0-.72-4 8 8 0 0 1 7.72-6z"/><path fill="var(--ukg_sys_color_featureIcon_dark, #005151)" fill-rule="nonzero" d="M32.126 14.174a1 1 0 0 0-1.55 1.26 6.45 6.45 0 0 1 1.43 4.07 6.52 6.52 0 0 1-.5 2.5l-3 7.2a4.55 4.55 0 0 1-7.42 1.47l-.37-.38a1 1 0 0 0-1.42 0l-.37.38a4.55 4.55 0 0 1-7.42-1.47l-3-7.2a6.5 6.5 0 0 1 6-9h.23a6.48 6.48 0 0 1 3.6 1.09l.67.44v1.47a1 1 0 0 0 1.71.71l5-5a1.004 1.004 0 1 0-1.42-1.42l-3.29 3.32a10.86 10.86 0 0 0-3.3-7.33 1.004 1.004 0 0 0-1.4 1.44 8.77 8.77 0 0 1 2.47 4.33 8.39 8.39 0 0 0-4-1.05h-.27a8.51 8.51 0 0 0-7.85 11.77l3 7.2a6.54 6.54 0 0 0 6 4 6.46 6.46 0 0 0 4.35-1.59 6.46 6.46 0 0 0 4.3 1.62 6.54 6.54 0 0 0 6.05-4l3-7.2a8.52 8.52 0 0 0-1.23-8.6v-.03z"/></g></svg>
