<svg focusable="false" xmlns="http://www.w3.org/2000/svg" width="40" height="40" viewBox="0 0 40 40"><title>armchair-40</title><g fill="none" fill-rule="evenodd"><path d="M0 0h40v40H0z"/><path fill="var(--ukg_sys_color_featureIcon_light, #30CEBB)" fill-rule="nonzero" d="m14.83 17.18-.66-7.36a2 2 0 0 0-2-1.82H11l.67 9.73A4.58 4.58 0 0 0 16.28 22H27v-1a2 2 0 0 0-2-2h-8.17a2 2 0 0 1-2-1.82z"/><path fill="var(--ukg_sys_color_featureIcon_dark, #005151)" fill-rule="nonzero" d="M33.87 28.5a1 1 0 0 0-1.37-.37l-1.79 1c-.44.26-.89.49-1.35.71l-2.9-4.41a1 1 0 1 0-1.67 1.1l2.7 4.1a21.45 21.45 0 0 1-15 0l5-7.65h9.63a1 1 0 0 1 .71.29l.41.42a1 1 0 0 0 1.42 0 1 1 0 0 0 0-1.42l-.42-.41a3 3 0 0 0-2.07-.86H21v-6h3.17c.265.004.518.107.71.29l.41.42a1 1 0 0 0 1.42 0 1 1 0 0 0 0-1.42l-.42-.41a3 3 0 0 0-2.12-.88h-12l-.42-4.51A2.74 2.74 0 0 0 9 6a1 1 0 0 0 0 2 .75.75 0 0 1 .75.68l.83 8.88a6 6 0 0 0 4.67 5.29l-4.61 7c-.46-.22-.91-.45-1.35-.71l-1.79-1a1.003 1.003 0 0 0-1 1.74l1.79 1a23.6 23.6 0 0 0 23.42 0l1.79-1a1 1 0 0 0 .37-1.38zm-21.3-11.13L12.35 15H19v6h-2.45a4 4 0 0 1-3.98-3.63z"/></g></svg>
