<svg focusable="false" xmlns="http://www.w3.org/2000/svg" width="24" height="24" viewBox="0 0 24 24"><title>Icon / Utility / arrow-merge</title><g fill="none" fill-rule="evenodd"><path d="M24 0v24H0V0z"/><path fill="currentColor" fill-rule="nonzero" d="M4.3 17.7c.39.39 1.02.39 1.41 0l2.7-2.7L7 13.59l-2.7 2.7a.996.996 0 0 0 0 1.41zM16 8.71V11h-5.59l-4.7-4.71A.996.996 0 1 0 4.3 7.7L9 12.41c.38.38.88.59 1.41.59H16v2.29c0 .45.54.67.85.35l3.29-3.29c.2-.2.2-.51 0-.71l-3.29-3.29a.5.5 0 0 0-.85.36z"/></g></svg>
