<svg focusable="false" xmlns="http://www.w3.org/2000/svg" width="40" height="40" viewBox="0 0 40 40"><title>arrow-circle-up-settings-40</title><g fill="none" fill-rule="evenodd"><path d="M0 0h40v40H0z"/><path fill="var(--ukg_sys_color_featureIcon_light, #30CEBB)" fill-rule="nonzero" d="M27 26.49a1.5 1.5 0 1 1 0 3 1.5 1.5 0 0 1 0-3zM17 11a7 7 0 1 1 0 14 7 7 0 0 1 0-14z"/><path fill="var(--ukg_sys_color_featureIcon_dark, #005151)" fill-rule="nonzero" d="M17 7c6.075 0 11 4.925 11 11a1 1 0 0 1-2 0 9 9 0 1 0-9 9 1 1 0 0 1 0 2c-6.075 0-11-4.925-11-11S10.925 7 17 7zm0 5.994a1 1 0 0 1 .71.296l4 4a1 1 0 1 1-1.41 1.42l-2.3-2.3V22a1 1 0 0 1-2 0v-5.59l-2.3 2.3a1 1 0 1 1-1.41-1.42l4-4a1 1 0 0 1 .71-.296zM33 27h-1.11a5.07 5.07 0 0 0-.73-1.74l.79-.79A1 1 0 0 0 32 23a1 1 0 0 0-1.41 0l-.8.79a5.05 5.05 0 0 0-1.79-.68V22a1 1 0 0 0-2 0v1.12a5.05 5.05 0 0 0-1.74.72l-.8-.79a1 1 0 1 0-1.41 1.42l.79.79a5.07 5.07 0 0 0-.73 1.74H21a1 1 0 0 0 0 2h1.11a5 5 0 0 0 .73 1.75l-.79.79a1 1 0 0 0 .71 1.71 1 1 0 0 0 .7-.3l.8-.79a4.88 4.88 0 0 0 1.74.73V34a1 1 0 0 0 2 0v-1.12a4.88 4.88 0 0 0 1.74-.73l.8.79a1 1 0 0 0 .7.3 1 1 0 0 0 .76-1.71l-.79-.79a5 5 0 0 0 .68-1.74H33a1 1 0 0 0 0-2zm-6 4a3 3 0 1 1 0-6 3 3 0 0 1 0 6z"/></g></svg>
