<svg focusable="false" xmlns="http://www.w3.org/2000/svg" width="24" height="24" viewBox="0 0 24 24"><title>Icon / Utility / arrow-split</title><g fill="none" fill-rule="evenodd"><path d="M24 0v24H0V0z"/><path fill="currentColor" fill-rule="nonzero" d="m19.15 14.85-1.44 1.44-2.88-2.88-1.42 1.42 2.88 2.88-1.44 1.44a.5.5 0 0 0 .36.85h4.29c.28 0 .5-.22.5-.5v-4.29a.5.5 0 0 0-.85-.36zM20 4.5c0-.28-.22-.5-.5-.5h-4.29c-.45 0-.67.54-.35.85l1.44 1.44L11.6 11H5c-.55 0-1 .45-1 1s.45 1 1 1h7c.26 0 .52-.11.71-.29l5.01-5 1.44 1.44c.3.31.84.09.84-.36V4.5z"/></g></svg>
