<svg focusable="false" xmlns="http://www.w3.org/2000/svg" width="40" height="40" viewBox="0 0 40 40"><title>arrow-circle-up-down-40</title><g fill="none" fill-rule="evenodd"><path d="M0 0h40v40H0z"/><path fill="var(--ukg_sys_color_featureIcon_light, #30CEBB)" fill-rule="nonzero" d="M8.097 11.164A7.89 7.89 0 0 1 22.64 13l1.07-.25A9.25 9.25 0 0 1 24 15a8.65 8.65 0 0 1-.27 2.08 8 8 0 0 0-6.34 5.42 7.89 7.89 0 0 1-9.293-11.336zM30 13.25a.75.75 0 1 1 0 1.5h-3a.75.75 0 1 1 0-1.5zm-2.53-4.78a.75.75 0 0 1 1.06 1.06l-2 2a.75.75 0 0 1-1.06-1.06z"/><path fill="var(--ukg_sys_color_featureIcon_dark, #005151)" fill-rule="nonzero" d="M13.499 6.127A9 9 0 0 1 23.72 12.75a1.002 1.002 0 0 1-1.94.5A7 7 0 1 0 15 22a7.15 7.15 0 0 0 1.6-.2A9 9 0 0 1 25 16a9 9 0 0 1 7.73 13.55 1 1 0 0 1-1.73-1 7 7 0 1 0-2.43 2.47 1 1 0 0 1 1 1.73A9 9 0 0 1 16 25a9.63 9.63 0 0 1 .07-1.08A9.45 9.45 0 0 1 15 24a9 9 0 0 1-1.501-17.873zM25 20.25a.76.76 0 0 1 .75.75v6.19l2.72-2.72a.75.75 0 0 1 1.06 1.06l-4 4a.75.75 0 0 1-1.06 0l-4-4a.75.75 0 0 1 1.06-1.06l2.72 2.72V21a.76.76 0 0 1 .75-.75zm-10.53-9.78a.75.75 0 0 1 1.06 0l4 4a.75.75 0 0 1-1.06 1.06l-2.72-2.72V19a.76.76 0 0 1-.75.75.76.76 0 0 1-.75-.75v-6.19l-2.72 2.72a.75.75 0 0 1-1.06-1.06z"/></g></svg>
