<svg focusable="false" xmlns="http://www.w3.org/2000/svg" width="24" height="24" viewBox="0 0 24 24"><title>Icon / Utility / arrow-cross</title><g fill="none" fill-rule="evenodd"><path d="M0 0h24v24H0z"/><path fill="currentColor" fill-rule="nonzero" d="M10.182 9.17 5.712 4.7a.996.996 0 1 0-1.41 1.41l4.46 4.46 1.42-1.4zm4.76-4.32 1.19 1.19-11.84 11.84a.996.996 0 1 0 1.41 1.41l11.85-11.83 1.19 1.19a.5.5 0 0 0 .85-.36V4.5c0-.28-.22-.5-.5-.5h-3.79a.5.5 0 0 0-.36.85zm-.52 8.56-1.41 1.41 3.13 3.13-1.2 1.2a.5.5 0 0 0 .36.85h3.79c.28 0 .5-.22.5-.5v-3.79c0-.45-.54-.67-.85-.35l-1.19 1.19-3.13-3.14z"/></g></svg>
