<svg focusable="false" xmlns="http://www.w3.org/2000/svg" width="40" height="40" viewBox="0 0 40 40"><title>arrow-right-left-40</title><g fill="none" fill-rule="evenodd"><path d="M0 0h40v40H0z"/><path fill="var(--ukg_sys_color_featureIcon_light, #30CEBB)" fill-rule="nonzero" d="M34 21H20v-5L7 24.5 20 33v-5h13v-2.28h1z"/><path fill="var(--ukg_sys_color_featureIcon_dark, #005151)" fill-rule="nonzero" d="M20 22h13a1 1 0 0 0 0-2h-5.06l5.61-3.66a1 1 0 0 0 0-1.68l-13-8.5a1 1 0 0 0-1 0A1 1 0 0 0 19 7v4H7a1 1 0 0 0-1 1v7a1 1 0 0 0 1 1h2a1 1 0 0 0 0-2H8v-5h12a1 1 0 0 0 1-1V8.85l10.17 6.65-6.88 4.5H21v-4a1 1 0 0 0-.52-.88 1 1 0 0 0-1 0l-13 8.5a1 1 0 0 0 0 1.68l13 8.5a1 1 0 0 0 .52.2 1 1 0 0 0 .48-.12A1 1 0 0 0 21 33v-4h12a1 1 0 0 0 1-1v-3a1 1 0 0 0-2 0v2H20a1 1 0 0 0-1 1v3.15L8.83 24.5 19 17.85V21a1 1 0 0 0 1 1z"/></g></svg>
