<svg focusable="false" xmlns="http://www.w3.org/2000/svg" width="40" height="40" viewBox="0 0 40 40"><title>article-featured-40</title><g fill="none" fill-rule="evenodd"><path d="M0 0h40v40H0z"/><path fill="var(--ukg_sys_color_featureIcon_light, #30CEBB)" d="M27.278 5a1 1 0 0 1 1 1v3.485a1 1 0 0 1-1 1H10.447l.047 17.449a1.002 1.002 0 0 1-1 1.003H7a1 1 0 0 1-1-1V6a1 1 0 0 1 1-1h20.278Zm-7.754 9.115a1 1 0 0 1 1 1v4.136a1 1 0 0 1-1 1h-5.152a1 1 0 0 1-1-1v-4.136a1 1 0 0 1 1-1h5.152Z"/><path fill="var(--ukg_sys_color_featureIcon_dark, #005151)" d="M30.387 9.197a1 1 0 0 1 1 1v12.199a1 1 0 0 1-2 0v-11.2H11.468v19.937h12.895l.003-.156a6.025 6.025 0 1 1 .312 2.156h-14.21a1 1 0 0 1-1-1V10.197a1 1 0 0 1 1-1h19.919Zm.022 18.122-1.173 2.33-2.585.353 1.853 1.836-.462 2.567 2.318-1.195 2.299 1.233-.42-2.574 1.883-1.805-2.578-.397-1.135-2.348Zm-6.981-1.18a1 1 0 1 1 0 2H14.46a1 1 0 1 1 0-2h8.968Zm2.985-3.987a1 1 0 1 1 0 2H14.46a1 1 0 0 1 0-2h11.954Zm0-3.986a1 1 0 1 1 0 2h-2.985a1 1 0 1 1 0-2h2.985Zm0-3.986a1 1 0 1 1 0 2h-2.985a1 1 0 1 1 0-2h2.985Z"/></g></svg>
