<svg focusable="false" xmlns="http://www.w3.org/2000/svg" width="40" height="40" viewBox="0 0 40 40"><title>article-40</title><g fill="none" fill-rule="evenodd"><path d="M0 0h40v40H0z"/><path fill="var(--ukg_sys_color_featureIcon_light, #30CEBB)" d="M30.227 5a1 1 0 0 1 1 1v3.819a1 1 0 0 1-1 1H11.682l.051 19.222a.997.997 0 0 1-1 1.003H8a1 1 0 0 1-1-1V6a1 1 0 0 1 1-1h22.227Zm-8.499 9.99a1 1 0 0 1 1 1v4.533a1 1 0 0 1-1 1H16.08a1 1 0 0 1-1-1V15.99a1 1 0 0 1 1-1h5.648Z"/><path fill="var(--ukg_sys_color_featureIcon_dark, #005151)" d="M33.634 9.6a1 1 0 0 1 1 1v17.513a1 1 0 1 1-2 0V11.6H12.802v22.044h19.832V31.91a1 1 0 1 1 2 0v2.734a1 1 0 0 1-1 1H11.802a1 1 0 0 1-1-1V10.6a1 1 0 0 1 1-1h21.832Zm-4.356 18.569a1 1 0 1 1 0 2H16.176a1 1 0 1 1 0-2h13.102Zm0-4.37a1 1 0 1 1 0 2H16.176a1 1 0 1 1 0-2h13.102Zm0-4.368a1 1 0 1 1 0 2h-3.272a1 1 0 1 1 0-2h3.272Zm0-4.37a1 1 0 1 1 0 2h-3.272a1 1 0 1 1 0-2h3.272Z"/></g></svg>
