<svg focusable="false" xmlns="http://www.w3.org/2000/svg" width="24" height="24" viewBox="0 0 24 24"><title>Icons / Utility / articles</title><g fill="none" fill-rule="evenodd"><path d="M0 0h24v24H0z"/><path fill="currentColor" fill-rule="nonzero" d="M17 4a2 2 0 0 1 2 2v16a2 2 0 0 1-2 2H3a2 2 0 0 1-2-2V6a2 2 0 0 1 2-2h14zm0 2H3v16h14V6zm-2.875 12.5a.875.875 0 1 1 0 1.75h-8.25a.875.875 0 1 1 0-1.75h8.25zM21 0a2 2 0 0 1 2 2v16a2 2 0 0 1-2 2V2H5a2 2 0 0 1 2-2h14zM9 11.33v5.5H5v-5.5h4zm5.125 3.587a.875.875 0 1 1 0 1.75h-2.25a.875.875 0 0 1 0-1.75h2.25zm0-3.584a.875.875 0 0 1 0 1.75h-2.25a.875.875 0 1 1 0-1.75h2.25zm0-3.583a.875.875 0 1 1 0 1.75h-8.25a.875.875 0 1 1 0-1.75h8.25z"/></g></svg>
