<svg focusable="false" xmlns="http://www.w3.org/2000/svg" width="24" height="24" viewBox="0 0 24 24"><title>Icons / Utility / attach</title><g fill="none" fill-rule="evenodd"><path d="M0 0h24v24H0z"/><path fill="currentColor" fill-rule="nonzero" d="M9 6v10.5a3.5 3.5 0 0 0 6.995.192L16 16.5V9a1 1 0 0 1 1.993-.117L18 9v7.5a5.5 5.5 0 0 1-11 0V6h2zm4 0h2v9.5a2.5 2.5 0 1 1-5 0V7a1 1 0 0 1 1.993-.117L12 7v8.5a.5.5 0 0 0 .992.09L13 15.5V6zm-2-4a4 4 0 0 1 3.995 3.8L15 6h-2l-.005-.15a2 2 0 0 0-3.99 0L9 6H7a4 4 0 0 1 4-4z"/></g></svg>
