<svg focusable="false" xmlns="http://www.w3.org/2000/svg" width="40" height="40" viewBox="0 0 40 40"><title>attendance-40</title><g fill="none" fill-rule="evenodd"><path d="M0 0h40v40H0z"/><path fill="var(--ukg_sys_color_featureIcon_dark, #005151)" fill-rule="nonzero" d="M21 6.982a3 3 0 0 1 2.777 1.86A3 3 0 0 1 28 11.583v.37a3 3 0 0 1 4 2.83v13.2a7 7 0 0 1-7 7h-5.46a7 7 0 0 1-4.94-2l-7.75-7.8a3.13 3.13 0 0 1 0-4.41 3.09 3.09 0 0 1 1.994-.904l.206-.006a3.09 3.09 0 0 1 2.2.91l4.51 4.5a1.004 1.004 0 1 1-1.42 1.42l-4.5-4.5a1.07 1.07 0 0 0-.79-.33 1 1 0 0 0-.79.33 1.11 1.11 0 0 0 0 1.58l7.74 7.75a5 5 0 0 0 3.54 1.46H25a5 5 0 0 0 5-5v-13.2a1 1 0 1 0-2 0v5.2a1 1 0 1 1-2 0v-8.4a1 1 0 1 0-2 0v8.4a1 1 0 0 1-2 0v-10a1 1 0 1 0-2 0v10a1 1 0 0 1-2 0v-8.4a1 1 0 1 0-2 0v9.4a1 1 0 1 1-2 0v-9.4a3 3 0 0 1 4.225-2.74A2.997 2.997 0 0 1 21 6.983z"/><path fill="var(--ukg_sys_color_featureIcon_light, #30CEBB)" fill-rule="nonzero" d="M21.06 28.982a1 1 0 0 1-.7-.28l-2.07-2a1 1 0 1 1 1.42-1.41l1.29 1.28 3.3-3.29a1 1 0 0 1 1.43 1.4l-4 4a1 1 0 0 1-.67.3z"/></g></svg>
