<svg focusable="false" xmlns="http://www.w3.org/2000/svg" width="40" height="40" viewBox="0 0 40 40"><title>award-40</title><g fill="none" fill-rule="evenodd"><path d="M0 0h40v40H0z"/><path fill="var(--ukg_sys_color_featureIcon_light, #30CEBB)" fill-rule="nonzero" d="M20 19a6 6 0 1 1 0 12 6 6 0 0 1 0-12zm10.29-8.71 1.42 1.42-6.19 6.19a9 9 0 0 0-1.76-1.07l6.53-6.54zm-22 1.42c-.39-.42 1.02-1.81 1.42-1.42l6.53 6.54-1.76 1.07zM28 8l-8 8-8-8h16z"/><path fill="var(--ukg_sys_color_featureIcon_dark, #005151)" fill-rule="nonzero" d="m16.46 23.88 1.47 1.69v2.51L20.01 27l2.07 1.08v-2.51l1.47-1.69-2.32-.6-1.22-1.99-1.23 1.99-2.32.6zM33 11.59l-4.29-4.3h-.05a1.07 1.07 0 0 0-.22-.15h-.09A1 1 0 0 0 28 7H12a1 1 0 0 0-.34.07h-.09a1.07 1.07 0 0 0-.22.15h-.05L7 11.59A3.38 3.38 0 0 0 6 14a3.44 3.44 0 0 0 1 2.42l4.09 4.08A9.87 9.87 0 0 0 10 25a10 10 0 1 0 12.17-9.76L28 9.41 31.58 13a1.4 1.4 0 0 1 0 2l-1.72 1.72a1.004 1.004 0 0 0 1.42 1.42L33 16.42A3.48 3.48 0 0 0 34 14a3.38 3.38 0 0 0-1-2.41zM8.42 15a1.4 1.4 0 0 1 0-2L12 9.42l5.83 5.83a10 10 0 0 0-5.64 3.52L8.42 15zM28 25a8 8 0 1 1-16 0 8 8 0 0 1 16 0zm-8-10.41L14.41 9h11.18L20 14.59z"/></g></svg>
