<svg focusable="false" xmlns="http://www.w3.org/2000/svg" width="40" height="40" viewBox="0 0 40 40"><title>bank-dollar-40</title><g fill="none" fill-rule="evenodd"><path d="M0 0h40v40H0z"/><path fill="var(--ukg_sys_color_featureIcon_light, #30CEBB)" fill-rule="nonzero" d="M19 16v11h-5V16h5zm-8 0v11H6V16h5zm16 0v5.294A7 7 0 0 0 22.08 27H22V16h5zM16 5l13 7H3l13-7z"/><path fill="var(--ukg_sys_color_featureIcon_dark, #005151)" d="M5 30v-1c0-.551.448-1 1-1h16c0 .692.097 1.359.263 2H5zm6-6a1 1 0 0 0 1-1v-6h2v9H8v-9h2v6a1 1 0 0 0 1 1zm-6-9v-2h24v2H5zm12-8.864L26.033 11H7.967L17 6.136zM19 24a1 1 0 0 0 1-1v-6h2v9h-6v-9h2v6a1 1 0 0 0 1 1zM16.526 4.12a.996.996 0 0 1 .948 0l13 7c.321.172.507.5.518.851L31 12v4a1 1 0 0 1-1 1h-2v1a1 1 0 1 1-2 0v-1h-2v5.726A7.976 7.976 0 0 1 30 20c4.411 0 8 3.589 8 8a8.006 8.006 0 0 1-.963 3.807 1 1 0 0 1-1.758-.953A6.002 6.002 0 0 0 30 22c-3.309 0-6 2.691-6 6a6.006 6.006 0 0 0 8.854 5.279 1 1 0 1 1 .953 1.759A8.023 8.023 0 0 1 30 36c-2.953 0-5.532-1.613-6.918-4H4a1 1 0 0 1-1-1v-2c0-1.654 1.346-3 3-3v-9H4a1 1 0 0 1-1-1v-4c0-.012.007-.018.008-.03a.993.993 0 0 1 .518-.85zM30 23.25a.75.75 0 0 1 .75.75l.001.267a2.24 2.24 0 0 1 1.31.642.75.75 0 0 1-.977 1.134L31 25.97a.744.744 0 0 0-.53-.22h-.97a.75.75 0 0 0 0 1.5h1c1.24 0 2.25 1.009 2.25 2.25 0 1.156-.876 2.11-1.999 2.236L30.75 32a.75.75 0 0 1-1.5 0v-.267a2.235 2.235 0 0 1-1.311-.642A.75.75 0 1 1 29 30.03c.142.142.33.22.53.22h.97a.75.75 0 0 0 0-1.5h-1a2.253 2.253 0 0 1-2.25-2.25c0-1.156.877-2.111 2-2.236V24a.75.75 0 0 1 .75-.75z"/></g></svg>
