<svg focusable="false" xmlns="http://www.w3.org/2000/svg" width="40" height="40" viewBox="0 0 40 40"><title>biometric-touch-40</title><g fill="none" fill-rule="evenodd"><path d="M0 0h40v40H0z"/><path fill="var(--ukg_sys_color_featureIcon_light, #30CEBB)" fill-rule="nonzero" d="M15.077 4.02a5 5 0 0 0-2 9.59v-4.8a2 2 0 1 1 4 0v4.79a5 5 0 0 0-2-9.58z"/><path fill="var(--ukg_sys_color_featureIcon_dark, #005151)" fill-rule="nonzero" d="M31.077 24.02a6 6 0 0 0-6 6h-4.75a9.17 9.17 0 0 1-6.54-2.71l-6.38-6.38a1.12 1.12 0 1 1 1.58-1.58l3.38 3.38a1 1 0 0 0 1.71-.71V8.81a1 1 0 0 1 2 0v9.21a1 1 0 0 0 2 0v-2.73a1.09 1.09 0 0 1 .83-1.1 1 1 0 0 1 1.17 1v2.83a1 1 0 0 0 2 0v-1.73a1.09 1.09 0 0 1 .82-1.1 1 1 0 0 1 .83.23 1 1 0 0 1 .35.76v1.84a1 1 0 0 0 2 0v-.73a1.09 1.09 0 0 1 .83-1.1 1 1 0 0 1 1.17 1v3.83a1 1 0 0 0 2 0v-3.84a3 3 0 0 0-3.5-3 2.82 2.82 0 0 0-1 .36 2.92 2.92 0 0 0-.58-.69 3 3 0 0 0-2.44-.67 2.82 2.82 0 0 0-1 .36 3.17 3.17 0 0 0-.58-.69 3 3 0 0 0-2.94-.54v-3.5a3 3 0 1 0-6 0v10.8l-1.67-1.68a3.13 3.13 0 0 0-4.42 4.42l6.38 6.38a11.2 11.2 0 0 0 8 3.29h5.1a6 6 0 1 0 5.65-8zm3 6.75h-2.25v2.25a.75.75 0 1 1-1.5 0v-2.25h-2.25a.75.75 0 0 1 0-1.5h2.25v-2.25a.75.75 0 0 1 1.5 0v2.25h2.25a.75.75 0 1 1 0 1.5z"/></g></svg>
