<svg focusable="false" xmlns="http://www.w3.org/2000/svg" width="24" height="24" viewBox="0 0 24 24"><title>Icon / Utility / bolt-empty</title><g fill="none" fill-rule="evenodd"><path d="M0 0h24v24H0z"/><path fill="currentColor" fill-rule="nonzero" d="M15.313 3.25h-5.81a1.25 1.25 0 0 0-1.139.737L4.868 11.75a1.25 1.25 0 0 0-.11.513l.006.128a1.25 1.25 0 0 0 1.244 1.122l3.585-.002-1.531 5.64a1.25 1.25 0 0 0 2.161 1.134l7.715-9.137a1.25 1.25 0 0 0 .295-.806l-.006-.128a1.25 1.25 0 0 0-1.244-1.122l-2.368-.001 1.838-4.078a1.25 1.25 0 0 0-1.14-1.763Zm-5.649 1.5h5.262l-2.63 5.84 4.149.001-6.64 7.864 1.75-6.443H6.394l3.27-7.262Z"/></g></svg>
