<svg focusable="false" xmlns="http://www.w3.org/2000/svg" width="40" height="40" viewBox="0 0 40 40"><title>book-40</title><g fill="none" fill-rule="evenodd"><path d="M0 0h40v40H0z"/><path fill="var(--ukg_sys_color_featureIcon_light, #30CEBB)" fill-rule="nonzero" d="M15 28a6.71 6.71 0 0 1 5 2.18A6.71 6.71 0 0 1 25 28h9v2a1 1 0 0 1-1 1h-8.17a2 2 0 0 0-1.42.59l-.82.82a2 2 0 0 1-1.42.59h-2.34a2 2 0 0 1-1.42-.59l-.82-.82a2 2 0 0 0-1.42-.59H7a1 1 0 0 1-1-1v-2zm1-6a1 1 0 0 1 0 2h-5a1 1 0 0 1 0-2zm13 0a1 1 0 0 1 0 2h-5a1 1 0 0 1 0-2zm-13-4a1 1 0 0 1 0 2h-5a1 1 0 0 1 0-2zm13 0a1 1 0 0 1 0 2h-5a1 1 0 0 1 0-2zm-13-4a1 1 0 0 1 0 2h-5a1 1 0 0 1 0-2zm13 0a1 1 0 0 1 0 2h-5a1 1 0 0 1 0-2z"/><path fill="var(--ukg_sys_color_featureIcon_dark, #005151)" fill-rule="nonzero" d="M33 23a1 1 0 0 0 1-1V10a1 1 0 0 0-1-1h-8.17A7.76 7.76 0 0 0 20 10.67 7.76 7.76 0 0 0 15.17 9H7a1 1 0 0 0-1 1v18a1 1 0 0 0 1 1h8.17a5.79 5.79 0 0 1 4.12 1.71 1 1 0 0 0 .3.19 1 1 0 0 0 .41.1 1 1 0 0 0 .71-.29A5.79 5.79 0 0 1 24.83 29H33a1 1 0 0 0 1-1v-2a1 1 0 0 0-2 0v1h-7.17A7.79 7.79 0 0 0 21 28V12.43A5.83 5.83 0 0 1 24.83 11H32v11a1 1 0 0 0 1 1zM8 27V11h7.17A5.83 5.83 0 0 1 19 12.43V28a7.81 7.81 0 0 0-3.83-1H8z"/></g></svg>
