<svg focusable="false" xmlns="http://www.w3.org/2000/svg" width="40" height="40" viewBox="0 0 40 40"><title>brainstorming-40</title><g fill="none" fill-rule="evenodd"><path d="M0 0h40v40H0z"/><path fill="var(--ukg_sys_color_featureIcon_light, #30CEBB)" fill-rule="nonzero" d="M26.4 29a3.72 3.72 0 0 0 7.19 0l.223.139a7 7 0 0 1 3.182 5.598L37 35v1H23v-1a7 7 0 0 1 3.4-6zm-13.47-.35.245.119A7 7 0 0 1 17 35v1H3v-1a7 7 0 0 1 4.08-6.35 3 3 0 0 0 5.85 0zm14.82-.28a7 7 0 0 1 4.49 0 .43.43 0 0 0-.05.12 2.25 2.25 0 0 1-4.39 0 .43.43 0 0 0-.05-.12zM23 20v3.35A1.65 1.65 0 0 1 21.35 25h-2.69A1.65 1.65 0 0 1 17 23.35V20h6zm10-8.75a.75.75 0 1 1 0 1.5h-3a.75.75 0 1 1 0-1.5zm-23 0a.75.75 0 1 1 0 1.5H7a.75.75 0 1 1 0-1.5zm12.56 0a.75.75 0 1 1 0 1.5h-5.11a.75.75 0 1 1 0-1.5zm9.53-6.004c.2 0 .39.081.53.224a.75.75 0 0 1 0 1.06l-2 2a.79.79 0 0 1-.53.22.75.75 0 0 1-.53-.22.74.74 0 0 1 0-1.06l2-2a.74.74 0 0 1 .53-.224zm-24.16 0c.2 0 .39.081.53.224l2 2a.75.75 0 0 1 0 1.06.79.79 0 0 1-.53.22.77.77 0 0 1-.53-.22l-2-2a.75.75 0 0 1 0-1.06.74.74 0 0 1 .53-.224z"/><path fill="var(--ukg_sys_color_featureIcon_dark, #005151)" fill-rule="nonzero" d="M24 23v-2.55a3.06 3.06 0 0 1 1.14-2.35A8 8 0 0 0 19.86 4 8.08 8.08 0 0 0 12 11.7a7.94 7.94 0 0 0 2.81 6.37A3.16 3.16 0 0 1 16 20.46V23a3 3 0 0 0 3 3 1 1 0 0 0 2 0 3 3 0 0 0 3-3zm-14 4a8 8 0 0 1 8 8 1 1 0 0 1-2 0 6 6 0 1 0-12 0 1 1 0 0 1-2 0 8 8 0 0 1 8-8zm20 0a8 8 0 0 1 8 8 1 1 0 0 1-2 0 6 6 0 1 0-12 0 1 1 0 0 1-2 0 8 8 0 0 1 8-8zm.02-11a1.5 1.5 0 0 1 1.5 1.5 1.45 1.45 0 0 1-.21.74 4 4 0 1 1-2.59-.01 1.4 1.4 0 0 1-.2-.73 1.5 1.5 0 0 1 1.5-1.5zM10 18a4 4 0 1 1-4 3.91 3.86 3.86 0 0 1 .37-1.6A2.59 2.59 0 0 1 6 19a1 1 0 0 1 1-1zM20 6a6 6 0 0 1 3.86 10.57A5.07 5.07 0 0 0 22 20.45V23a1 1 0 0 1-1 1h-2a1 1 0 0 1-1-1v-2.54a5.18 5.18 0 0 0-1.89-3.91A6 6 0 0 1 14 11.77 6.06 6.06 0 0 1 19.9 6h.1zm10 14.22a2 2 0 0 1-1.73 1.03h-.12A2.09 2.09 0 0 0 28 22a2 2 0 1 0 4 0 1.9 1.9 0 0 0-.15-.78h-.11a2 2 0 0 1-1.74-1zm-18.308 1.142A.81.81 0 0 0 11 21.21l-1.9.38a2.35 2.35 0 0 1-.52.05 2.79 2.79 0 0 1-.58-.07l.048.008-.023.134a2.45 2.45 0 0 0-.017.144L8 22a2 2 0 1 0 4 0l-.007-.106a.81.81 0 0 0-.3-.532z"/></g></svg>
