<svg focusable="false" xmlns="http://www.w3.org/2000/svg" width="40" height="40" viewBox="0 0 40 40"><title>briefcase-40</title><g fill="none" fill-rule="evenodd"><path d="M0 0h40v40H0z"/><path fill="var(--ukg_sys_color_featureIcon_light, #30CEBB)" fill-rule="nonzero" d="M22.077 22.02v3a2 2 0 0 1-1.85 1.995l-.15.005a2 2 0 0 1-2-2v-3h4zm2-15a2 2 0 0 1 2 2v1h-12v-1a2 2 0 0 1 2-2h8z"/><path fill="var(--ukg_sys_color_featureIcon_dark, #005151)" fill-rule="nonzero" d="M31.077 12.02h-4v-3a3 3 0 0 0-3-3h-8a3 3 0 0 0-3 3v3h-4a3 3 0 0 0-3 3v4a1 1 0 0 0 .74 1h.26v11a3 3 0 0 0 3 3h20a3 3 0 0 0 3-3v-8a1 1 0 1 0-2 0v8a1 1 0 0 1-1 1h-20a1 1 0 0 1-1-1V20.6l8 2.18v2.24a3 3 0 0 0 6 0v-2.24l10.26-2.76a1 1 0 0 0 .74-1v-4a3 3 0 0 0-3-3zm-16-3a1 1 0 0 1 1-1h8a1 1 0 0 1 1 1v3h-10v-3zm6 16a1 1 0 1 1-2 0v-2h2v2zm11-6.76-10.13 2.76h-3.74l-10.13-2.76v-3.24a1 1 0 0 1 1-1h22a1 1 0 0 1 1 1v3.24z"/></g></svg>
