<svg focusable="false" xmlns="http://www.w3.org/2000/svg" width="40" height="40" viewBox="0 0 40 40"><title>buffalo-40</title><g fill="none" fill-rule="evenodd"><path d="M0 0h40v40H0z"/><path fill="var(--ukg_sys_color_featureIcon_light, #30CEBB)" fill-rule="nonzero" d="M18 20.98v6.09h-6.97l1.96-6.09H18zm9-5.228A4.23 4.23 0 0 1 30 17l1 1 .36.38h-1.74A1.62 1.62 0 0 0 28 20v1h-2v-1a1.63 1.63 0 0 0-1.62-1.62H23V18l1-1a4.23 4.23 0 0 1 3-1.248z"/><path fill="var(--ukg_sys_color_featureIcon_dark, #005151)" fill-rule="nonzero" d="M28 21h-2a1 1 0 0 0 2 0v-.07.07zm5.9 9.55-2-4a1 1 0 0 0-1.78.9L31.38 30h-1.76l-2.28-4.56 1.88-.94A5 5 0 0 0 32 20v-1h1a1 1 0 0 0 0-2h-.54a2.47 2.47 0 0 0 .12-2.92 1 1 0 0 0-1.67 1.1c.06.081.09.18.09.28a.51.51 0 0 1-.15.36.47.47 0 0 1-.36.15h-.14a5.23 5.23 0 0 0-6.72 0h-.13a.47.47 0 0 1-.36-.15.51.51 0 0 1-.15-.36c0-.1.03-.199.09-.28a1 1 0 0 0-1.67-1.1 2.5 2.5 0 0 0-.41 1.35 2.47 2.47 0 0 0 .53 1.57H21a1 1 0 0 0 0 2h1v1.23a5 5 0 0 0 2.57 4.37l-3 1.51a1 1 0 0 0-.44 1.34L22.38 30h-1.77L19 26.76V22a1 1 0 0 0-2 0v4h-4a7.82 7.82 0 0 0 1-3.83V22a1 1 0 0 0-2 0v.17a5.79 5.79 0 0 1-1.71 4.12 1 1 0 0 0-.19 1.16L11.38 30H9.61L8 26.76v-8.21l8.45-5.38a7.57 7.57 0 0 1 4-1.17 7.47 7.47 0 0 1 4 1.15 1 1 0 1 0 1.07-1.69A9.54 9.54 0 0 0 20.48 10a9.4 9.4 0 0 0-5.1 1.49L8 16.18v-1.26a1.24 1.24 0 0 1 .59-1.05l2.52-1.54a3.23 3.23 0 0 0 .6-5 1 1 0 1 0-1.41 1.42 1.21 1.21 0 0 1-.23 1.9l-2.53 1.51A3.27 3.27 0 0 0 6 14.92V27a1 1 0 0 0 .11.45l2 4A1 1 0 0 0 9 32h4a1 1 0 0 0 .89-1.45L12.61 28h4.77l1.72 3.45a1 1 0 0 0 .9.55h4a1 1 0 0 0 .34-.07h.07a.13.13 0 0 0 .07 0 1 1 0 0 0 .38-1.29l-1.56-3.1 2.22-1.11 2.56 5.11A1 1 0 0 0 29 32h4a1 1 0 0 0 .9-1.45zm-8-7.51a3 3 0 0 1-2-2.81v-1.82l.72-.72a3.24 3.24 0 0 1 4.56 0l.72.72V20a3 3 0 0 1-1.66 2.68l-1.4.7-.94-.34z"/></g></svg>
