<svg focusable="false" xmlns="http://www.w3.org/2000/svg" width="24" height="24" viewBox="0 0 24 24"><title>Icons / Utility / build</title><g fill="none" fill-rule="evenodd"><path d="M0 0h24v24H0z"/><path fill="currentColor" fill-rule="nonzero" d="M12.446 3.78a6.12 6.12 0 0 0-5.32-1.699.975.975 0 0 0-.794.712c-.088.352-.063.653.272.986l2.253 2.246a.933.933 0 0 1 0 1.324L7.359 8.842a.924.924 0 0 1-1.328 0l-2.247-2.24a1.032 1.032 0 0 0-1.082-.225c-.263.114-.559.335-.628.779a6.068 6.068 0 0 0 1.715 5.254c1.752 1.747 4.314 2.207 6.49 1.39l7.498 7.475c.97.967 2.534.967 3.495 0a2.45 2.45 0 0 0 0-3.484l-7.46-7.447a6.097 6.097 0 0 0-1.366-6.563z"/></g></svg>
