<svg focusable="false" xmlns="http://www.w3.org/2000/svg" width="40" height="40" viewBox="0 0 40 40"><title>calculator-40</title><g fill="none" fill-rule="evenodd"><path d="M0 0h40v40H0z"/><path fill="var(--ukg_sys_color_featureIcon_light, #30CEBB)" fill-rule="nonzero" d="M30 21v6h1v4h-1v.13A1.9 1.9 0 0 1 28.06 33H23V21h7zM28 8a1 1 0 0 1 1 1v7H10V9a1 1 0 0 1 1-1z"/><path fill="var(--ukg_sys_color_featureIcon_dark, #005151)" fill-rule="nonzero" d="M30 28a1 1 0 0 0 1-1V9a3 3 0 0 0-3-3H11a3 3 0 0 0-3 3v22a3 3 0 0 0 3 3h17a3 3 0 0 0 3-3 1 1 0 0 0-2 0 1 1 0 0 1-1 1h-4V22h5v5a1 1 0 0 0 1 1zm-15 4h-4a1 1 0 0 1-1-1v-3h5v4zm0-6h-5v-4h5v4zm0-6h-5v-4h5v4zm7 12h-5v-4h5v4zm0-6h-5v-4h5v4zm0-6h-5v-4h5v4zm-12-6V9a1 1 0 0 1 1-1h17a1 1 0 0 1 1 1v5H10zm19 2v4h-5v-4h5zm-2.5-6a1 1 0 1 1 0 2 1 1 0 0 1 0-2zM23 10a1 1 0 1 1 0 2 1 1 0 0 1 0-2zm-3.5 0a1 1 0 1 1 0 2 1 1 0 0 1 0-2zM16 10a1 1 0 1 1 0 2 1 1 0 0 1 0-2z"/></g></svg>
