<svg focusable="false" xmlns="http://www.w3.org/2000/svg" width="40" height="40" viewBox="0 0 40 40"><title>calculate-40</title><g fill="none" fill-rule="evenodd"><path d="M0 0h40v40H0z"/><path fill="var(--ukg_sys_color_featureIcon_light, #30CEBB)" fill-rule="nonzero" d="M20 20.006v9h-1v4.19h1v.81h11a3 3 0 0 0 3-3v-11H20z"/><path fill="var(--ukg_sys_color_featureIcon_dark, #005151)" fill-rule="nonzero" d="M31 6.006H9a3 3 0 0 0-3 3v22a3 3 0 0 0 3 3h11a1 1 0 1 0 0-2H9a1 1 0 0 1-1-1v-10h11v8a1 1 0 1 0 2 0v-8h12a1 1 0 0 0 1-1v-11a3 3 0 0 0-3-3zm-12 13H8v-10a1 1 0 0 1 1-1h10v11zm10.32 5.1a.76.76 0 0 1 1.07 1.07l-5 5a.74.74 0 0 1-.53.22.75.75 0 0 1-.54-1.28l5-5zm-.32 4.12a1 1 0 0 1 1.09.22 1 1 0 0 1-1.09 1.63 1 1 0 0 1-.32-.22 1 1 0 0 1 0-1.41.87.87 0 0 1 .32-.22zm-16 .25a.77.77 0 0 1 1.06 0 .75.75 0 1 1-1.06 0zm3-2.72a.76.76 0 0 1 .75.75.76.76 0 0 1-.75.75h-5a.75.75 0 0 1 0-1.5zm8.65-1.31a1 1 0 0 1 1.41 0 1 1 0 0 1 0 1.41 1 1 0 0 1-.7.29 1.07 1.07 0 0 1-.39-.07 1 1 0 0 1-.32-.22 1 1 0 0 1 0-1.41zm-11.71-.97a.77.77 0 0 1 1.06 0 .75.75 0 0 1 0 1.06.75.75 0 1 1-1.06-1.06zM31 8.006a1 1 0 0 1 1 1v10H21v-11h10zm-17.5 2.25a.75.75 0 0 1 .75.75v1.75H16a.75.75 0 0 1 0 1.5h-1.75v1.75a.75.75 0 1 1-1.5 0v-1.75H11a.75.75 0 0 1 0-1.5h1.75v-1.75a.75.75 0 0 1 .75-.75zm14.5.75-1.5 1.44-1.5-1.44a.75.75 0 0 0-1 1l1.47 1.47-1.47 1.53a.75.75 0 0 0 0 1 .75.75 0 0 0 1 0l1.47-1.47 1.53 1.47a.75.75 0 0 0 1 0 .75.75 0 0 0 0-1l-1.44-1.5 1.44-1.5a.75.75 0 0 0 0-1 .75.75 0 0 0-1 0z"/></g></svg>
