<svg focusable="false" xmlns="http://www.w3.org/2000/svg" width="40" height="40" viewBox="0 0 40 40"><title>calculate-clock-40</title><g fill="none" fill-rule="evenodd"><path d="M0 0h40v40H0z"/><path fill="var(--ukg_sys_color_featureIcon_light, #30CEBB)" fill-rule="nonzero" d="M30 19.982v6.1a5 5 0 0 0-3.9 5.9H22v-12h8zm-3-14a2 2 0 0 1 2 2v6H8v-6a2 2 0 0 1 2-2z"/><path fill="var(--ukg_sys_color_featureIcon_dark, #005151)" fill-rule="nonzero" d="M14.99 11.002a1.01 1.01 0 1 0 0-2.02 1.01 1.01 0 0 0 0 2.02zM31 24.982a6 6 0 0 0-6 6h-2v-10h5v1a1 1 0 0 0 2 0v-14a3 3 0 0 0-3-3H10a3 3 0 0 0-3 3v22a3 3 0 0 0 3 3h15.35a6 6 0 1 0 5.65-8zm-3-6h-5v-4h5v4zm-14 12h-4a1 1 0 0 1-1-1v-3h5v4zm0-6H9v-4h5v4zm0-6H9v-4h5v4zm7 12h-5v-4h5v4zm0-6h-5v-4h5v4zm0-6h-5v-4h5v4zm-6-6H9v-5a1 1 0 0 1 1-1h17a1 1 0 0 1 1 1v5H15zm16 14.25a.75.75 0 0 1 .75.75v2.69l1.78 1.78a.75.75 0 0 1-1.06 1.06l-2-2a.78.78 0 0 1-.22-.53v-3a.75.75 0 0 1 .75-.75zm-5.5-18.25a1.01 1.01 0 1 1 0 2.02 1.01 1.01 0 0 1 0-2.02zm-7 0a1.01 1.01 0 1 1 0 2.02 1.01 1.01 0 0 1 0-2.02zm3.5 0a1.01 1.01 0 1 1 0 2.02 1.01 1.01 0 0 1 0-2.02z"/></g></svg>
