<svg focusable="false" xmlns="http://www.w3.org/2000/svg" width="40" height="40" viewBox="0 0 40 40"><title>calculate-tax-40</title><g fill="none" fill-rule="evenodd"><path d="M0 0h40v40H0z"/><path fill="var(--ukg_sys_color_featureIcon_light, #30CEBB)" fill-rule="nonzero" d="m26 19-.001 3.256A6.992 6.992 0 0 0 23 28a6.97 6.97 0 0 0 .674 3H18V19h8zM22.93 5.01a2 2 0 0 1 2 2v6H4.09v-6a2 2 0 0 1 1.98-2h16.86z"/><path fill="var(--ukg_sys_color_featureIcon_dark, #005151)" fill-rule="nonzero" d="M33.012 24.988a.75.75 0 0 1 .018 1.042l-5 5a.74.74 0 0 1-.53.22.75.75 0 0 1-.53-1.28l5-5a.75.75 0 0 1 1.042.018zm-.302 4.302c.183.192.286.445.29.71a1 1 0 0 1-.29.71A1.05 1.05 0 0 1 32 31a1 1 0 0 1-.38-.08 1.15 1.15 0 0 1-.33-.21A1 1 0 0 1 31 30a1.05 1.05 0 0 1 .29-.71 1.15 1.15 0 0 1 .33-.21 1 1 0 0 1 1.09.21zM28 24.994a1 1 0 0 1 .71.296c.088.097.16.209.21.33a.94.94 0 0 1 0 .76 1.15 1.15 0 0 1-.21.33A1.05 1.05 0 0 1 28 27a1.05 1.05 0 0 1-.71-.29 1.15 1.15 0 0 1-.21-.33.94.94 0 0 1 0-.76 1.15 1.15 0 0 1 .21-.33 1 1 0 0 1 .71-.296zM22.34 8.448a1 1 0 0 1-.13 1.262 1.05 1.05 0 0 1-.71.29 1 1 0 1 1 .84-1.552zm-3.5 0a1 1 0 0 1-.13 1.262A1.05 1.05 0 0 1 18 10a1 1 0 1 1 .84-1.552zm-3.5 0a1 1 0 0 1-.13 1.262 1.05 1.05 0 0 1-.71.29 1 1 0 1 1 .84-1.552zm-3.5 0a1 1 0 0 1-.13 1.262A1.05 1.05 0 0 1 11 10a1 1 0 1 1 .84-1.552zM30 20a8 8 0 0 0-8 8 8.24 8.24 0 0 0 .26 2H19V20h6a1 1 0 0 0 1-1V7a3 3 0 0 0-3-3H6a3 3 0 0 0-3 3v22a3 3 0 0 0 3 3h17.08a8 8 0 0 0 10.73 3 1.012 1.012 0 0 0-1-1.76 6 6 0 1 1 2.43-2.43 1.012 1.012 0 0 0 1.76 1A8 8 0 0 0 30 20zm-6-2h-5v-4h5v4zM10 30H6a1 1 0 0 1-1-1v-3h5v4zm0-6H5v-4h5v4zm0-6H5v-4h5v4zm7 12h-5v-4h5v4zm0-6h-5v-4h5v4zm0-6h-5v-4h5v4zm-6-6H5V7a1 1 0 0 1 1-1h17a1 1 0 0 1 1 1v5H11z"/></g></svg>
