<svg focusable="false" xmlns="http://www.w3.org/2000/svg" width="40" height="40" viewBox="0 0 40 40"><title>calendar-person-leave-40</title><g fill="none" fill-rule="evenodd"><path d="M0 0h40v40H0z"/><path fill="var(--ukg_sys_color_featureIcon_light, #30CEBB)" fill-rule="nonzero" d="M27.4 29.982a3.73 3.73 0 0 0 7.2 0l.223.139a7 7 0 0 1 3.173 5.598l.005.263v1H24v-1a7 7 0 0 1 3.4-6zm3.6-1a7.27 7.27 0 0 1 2.2.34.54.54 0 0 0 0 .11 2.25 2.25 0 0 1-4.41 0 .22.22 0 0 0-.03-.08 6.92 6.92 0 0 1 2.24-.37zm-2-20a2 2 0 0 1 2 2v4H5v-4a2 2 0 0 1 2-2z"/><path fill="var(--ukg_sys_color_featureIcon_dark, #005151)" fill-rule="nonzero" d="M25 4.982a1 1 0 0 1 1 1v2h3a3 3 0 0 1 3 3v5a1 1 0 1 1-2 0v-5a1 1 0 0 0-1-1h-3v2a1 1 0 1 1-2 0v-2H12v2a1 1 0 1 1-2 0v-2H7a1 1 0 0 0-1 1v18a1 1 0 0 0 1 1h18.73a8 8 0 0 1 5.27-2 8 8 0 0 1 8 8 1 1 0 1 1-2 0 6 6 0 1 0-12 0 1 1 0 1 1-2 0 8 8 0 0 1 1.08-4H7a3 3 0 0 1-3-3v-18a3 3 0 0 1 3-3h3v-2a1 1 0 0 1 2 0v2h12v-2a1 1 0 0 1 1-1zm-4.5 19a1.5 1.5 0 1 1 0 3 1.5 1.5 0 0 1 0-3zm-5 0a1.5 1.5 0 1 1 0 3 1.5 1.5 0 0 1 0-3zm-5 0a1.5 1.5 0 1 1 0 3 1.5 1.5 0 0 1 0-3zm11.584-7.393a.75.75 0 0 1 .917-.137l2.5 2.5a.78.78 0 0 1 .16.24.73.73 0 0 1 0 .58.78.78 0 0 1-.16.24l-2.5 2.5h.06a.75.75 0 0 1-1.06-1.06l1.19-1.22H10a.75.75 0 0 1 0-1.5h13.22L22 17.512a.75.75 0 0 1 .083-.923zm5.367 4.603c-.95 1.9-2.15 4.35-2.15 4.35a1 1 0 0 0 .05 1 1 1 0 0 0 .85.47h9.6a1 1 0 0 0 .85-.47 1 1 0 0 0 .05-1s-1.2-2.45-2.14-4.35a4 4 0 0 0-7.11 0zm4.8 1h.58a2 2 0 0 1 .17.79 2 2 0 1 1-4 0 2.09 2.09 0 0 1 .15-.71h.6a1.25 1.25 0 0 0 1.25-1.29c0 .69.56 1.25 1.25 1.25v-.04z"/></g></svg>
