<svg focusable="false" xmlns="http://www.w3.org/2000/svg" width="40" height="40" viewBox="0 0 40 40"><title>calendar-edit-40</title><g fill="none" fill-rule="evenodd"><path d="M0 0h40v40H0z"/><path fill="var(--ukg_sys_color_featureIcon_light, #30CEBB)" fill-rule="nonzero" d="M15 21.982a.75.75 0 0 1 1.06 1l-1 1 .94 1a.75.75 0 0 1 0 1 .75.75 0 0 1-1 0l-1-1-1 1a.75.75 0 0 1-1 0 .75.75 0 0 1 0-1l1-1-1-1a.75.75 0 0 1 1-1l1 1zm5.47-5.54a.75.75 0 0 1 1.06 1.06l-1 1 1 1a.75.75 0 0 1-1.06 1.06l-1-1-1 1a.75.75 0 0 1-1.06-1.06l1-1-1-1a.75.75 0 0 1 1.06-1.06l1 1zM28 9.982a2 2 0 0 1 2 2v3H9v-3a2 2 0 0 1 2-2z"/><path fill="var(--ukg_sys_color_featureIcon_dark, #005151)" fill-rule="nonzero" d="M19.5 22.472a1.5 1.5 0 1 1 0 3 1.5 1.5 0 0 1 0-3zm5.48-5.49a1.5 1.5 0 1 1 .02 3 1.5 1.5 0 0 1-.02-3zM14 16.972a1.5 1.5 0 1 1 0 3 1.5 1.5 0 0 1 0-3zm21.71 3.3-3-3a1 1 0 0 0-1.42 0l-.29.29v-5.58a3 3 0 0 0-3-3h-2v-1a1 1 0 1 0-2 0v1h-9v-1a1 1 0 1 0-2 0v1h-2a3 3 0 0 0-3 3v15a3 3 0 0 0 3 3h5a1 1 0 1 0 0-2h-5a1 1 0 0 1-1-1v-15a1 1 0 0 1 1-1h2v1a1 1 0 0 0 2 0v-1h9v1a1 1 0 0 0 2 0v-1h2a1 1 0 0 1 1 1v7.58l-9.72 9.72a1 1 0 0 0-.26.46l-1 4a1 1 0 0 0 .98 1.24h.24l4-1c.178-.048.34-.141.47-.27l12-12a1 1 0 0 0 0-1.41v-.03zm-13.22 11.8-2.12.53.52-2.1L32 19.392l1.59 1.59-11.1 11.09z"/></g></svg>
