<svg focusable="false" xmlns="http://www.w3.org/2000/svg" width="40" height="40" viewBox="0 0 40 40"><defs><clipPath id="a"><path d="M24 0a2 2 0 0 1 2 2v4H0V2a2 2 0 0 1 2-2Z"/></clipPath><clipPath id="b"><path d="M21 0a1 1 0 0 1 1 1v2h3a3 3 0 0 1 3 3l-.001 5L28 15a1 1 0 0 1-2 0V6a1 1 0 0 0-1-1h-3v2a1 1 0 0 1-2 0V5H8v2a1 1 0 1 1-2 0V5H3a1 1 0 0 0-1 1v18a1 1 0 0 0 1 1l16.005.017c-.011-.434-.006-.818-.006-.999h.07a8 8 0 0 1 7.93-7 8 8 0 0 1 7 11.81 1.012 1.012 0 0 1-1.76-1 6 6 0 1 0-2.43 2.43 1.012 1.012 0 1 1 1 1.76 8 8 0 0 1-11.544-5L3 27a3 3 0 0 1-3-3V6a3 3 0 0 1 3-3h3V1a1 1 0 1 1 2 0v2h12V1a1 1 0 0 1 1-1Zm9.01 22.007a.75.75 0 0 1 .02 1.041l-5 5a.74.74 0 0 1-.53.22.75.75 0 0 1-.53-1.28l5-5a.75.75 0 0 1 1.04.019Zm-.3 4.301c.182.192.286.446.29.71a1 1 0 0 1-2 0 1 1 0 0 1 .62-.92 1 1 0 0 1 1.09.21ZM25 22.018a1 1 0 1 1 0 2 1 1 0 0 1 0-2ZM11.5 19a1.5 1.5 0 1 1 0 3 1.5 1.5 0 0 1 0-3Zm5 0a1.5 1.5 0 1 1 0 3 1.5 1.5 0 0 1 0-3Zm-10 0a1.5 1.5 0 1 1 0 3 1.5 1.5 0 0 1 0-3Zm15-6a1.5 1.5 0 1 1 0 3 1.5 1.5 0 0 1 0-3Zm-5 0a1.5 1.5 0 1 1 0 3 1.5 1.5 0 0 1 0-3Zm-5 0a1.5 1.5 0 1 1 0 3 1.5 1.5 0 0 1 0-3Zm-5 0a1.5 1.5 0 1 1 0 3 1.5 1.5 0 0 1 0-3Z"/></clipPath></defs><g clip-path="url(#a)" transform="translate(4 7.982)"><path fill="var(--ukg_sys_color_featureIcon_light, #30CEBB)" d="M0 0h26v6H0V0z"/></g><g clip-path="url(#b)" transform="translate(3 3.982)"><path fill="var(--ukg_sys_color_featureIcon_dark, #005151)" d="M0 0h34.965v32.982H0V0z"/></g></svg>
