<svg focusable="false" xmlns="http://www.w3.org/2000/svg" width="40" height="40" viewBox="0 0 40 40"><title>calendar-chart-pie-40</title><g fill="none" fill-rule="evenodd"><path d="M0 0h40v40H0z"/><path fill="var(--ukg_sys_color_featureIcon_light, #30CEBB)" fill-rule="nonzero" d="M31 8.982H7a1 1 0 0 0-1 1v5h26v-5a1 1 0 0 0-1-1z"/><path fill="var(--ukg_sys_color_featureIcon_dark, #005151)" fill-rule="nonzero" d="M26 4.982a1 1 0 0 1 1 1v2h3a3 3 0 0 1 3 3v9a1 1 0 1 1-2 0v-9a1 1 0 0 0-1-1h-3v2a1 1 0 1 1-2 0v-2H13v2a1 1 0 1 1-2 0v-2H8a1 1 0 0 0-1 1v18a1 1 0 0 0 1 1h16a4.19 4.19 0 0 1 0-.5 6.49 6.49 0 0 1 5.75-6.45v6.45a.73.73 0 0 0 .17.5l4.08 5a6.49 6.49 0 0 1-9.5-3H8a3 3 0 0 1-3-3v-18a3 3 0 0 1 3-3h3v-2a1 1 0 0 1 2 0v2h12v-2a1 1 0 0 1 1-1zm11 24.5a6.45 6.45 0 0 1-1.84 4.5l-3.69-4.5zm-5.75-6.45a6.49 6.49 0 0 1 5.57 4.95h-5.57zm-9.75.95a1.5 1.5 0 1 1 0 3 1.5 1.5 0 0 1 0-3zm-5 0a1.5 1.5 0 1 1 0 3 1.5 1.5 0 0 1 0-3zm-5 0a1.5 1.5 0 1 1 0 3 1.5 1.5 0 0 1 0-3zm15-6a1.5 1.5 0 1 1 0 3 1.5 1.5 0 0 1 0-3zm-5 0a1.5 1.5 0 1 1 0 3 1.5 1.5 0 0 1 0-3zm-5 0a1.5 1.5 0 1 1 0 3 1.5 1.5 0 0 1 0-3zm-5 0a1.5 1.5 0 1 1 0 3 1.5 1.5 0 0 1 0-3z"/></g></svg>
