<svg focusable="false" xmlns="http://www.w3.org/2000/svg" width="40" height="40" viewBox="0 0 40 40"><title>calendar-person-40</title><g fill="none" fill-rule="evenodd"><path d="M0 0h40v40H0z"/><path fill="var(--ukg_sys_color_featureIcon_light, #30CEBB)" fill-rule="nonzero" d="M26.4 28.982a3.73 3.73 0 0 0 7.2 0l.223.139a7 7 0 0 1 3.173 5.598l.005.263v1H23v-1a7 7 0 0 1 3.4-6zm3.6-1a7.27 7.27 0 0 1 2.2.34.54.54 0 0 0 0 .11 2.25 2.25 0 0 1-4.41 0 .22.22 0 0 0-.03-.08 6.92 6.92 0 0 1 2.24-.37zm-19-3a1 1 0 1 1 0 2H9a1 1 0 0 1 0-2zm11-4a1 1 0 1 1 0 2h-2a1 1 0 0 1 0-2zm-11-4a1 1 0 1 1 0 2H9a1 1 0 0 1 0-2zm18-8v5H5v-5h24z"/><path fill="var(--ukg_sys_color_featureIcon_dark, #005151)" fill-rule="nonzero" d="M24 3.982a1 1 0 0 1 1 1v2h3a3 3 0 0 1 3 3v5a1 1 0 1 1-2 0v-5a1 1 0 0 0-1-1h-3v2a1 1 0 1 1-2 0v-2H11v2a1 1 0 1 1-2 0v-2H6a1 1 0 0 0-1 1v18a1 1 0 0 0 1 1h18.73a8 8 0 0 1 5.27-2 8 8 0 0 1 8 8 1 1 0 1 1-2 0 6 6 0 1 0-12 0 1 1 0 1 1-2 0 8 8 0 0 1 1.08-4H6a3 3 0 0 1-3-3v-18a3 3 0 0 1 3-3h3v-2a1 1 0 1 1 2 0v2h12v-2a1 1 0 0 1 1-1zm-4 21a1 1 0 1 1 0 2h-5a1 1 0 0 1 0-2zm-4-4a1 1 0 1 1 0 2H9a1 1 0 0 1 0-2zm8-4a1 1 0 1 1 0 2h-9a1 1 0 0 1 0-2zm2.45 3.21c-.95 1.9-2.15 4.35-2.15 4.35a1 1 0 0 0 .05 1 1 1 0 0 0 .85.47h9.6a1 1 0 0 0 .85-.47 1 1 0 0 0 .05-1s-1.2-2.45-2.14-4.35a4 4 0 0 0-7.11 0zm4.8 1h.58a2 2 0 0 1 .17.79 2 2 0 1 1-4 0 2.09 2.09 0 0 1 .15-.71h.6a1.25 1.25 0 0 0 1.25-1.29c0 .69.56 1.25 1.25 1.25v-.04z"/></g></svg>
