<svg focusable="false" xmlns="http://www.w3.org/2000/svg" width="40" height="40" viewBox="0 0 40 40"><title>calendar-stopwatch-40</title><g fill="none" fill-rule="evenodd"><path d="M0 0h40v40H0z"/><path fill="var(--ukg_sys_color_featureIcon_light, #30CEBB)" fill-rule="nonzero" d="M31 8.982H7a1 1 0 0 0-1 1v5h26v-5a1 1 0 0 0-1-1z"/><path fill="var(--ukg_sys_color_featureIcon_dark, #005151)" fill-rule="nonzero" d="M26 4.982a1 1 0 0 1 1 1v2h3a3 3 0 0 1 3 3v8a1 1 0 1 1-2 0v-8a1 1 0 0 0-1-1h-3v2a1 1 0 1 1-2 0v-2H13v2a1 1 0 1 1-2 0v-2H8a1 1 0 0 0-1 1v18a1 1 0 0 0 1 1h17.09a6 6 0 0 1 4.91-4.91v-1.09h-.5a1 1 0 0 1 0-2h3a1 1 0 1 1 0 2H32v1.09a6 6 0 1 1-6.91 6.91H8a3 3 0 0 1-3-3v-18a3 3 0 0 1 3-3h3v-2a1 1 0 0 1 2 0v2h12v-2a1 1 0 0 1 1-1zm5 22.25a.75.75 0 0 0-.75.75v3a.75.75 0 0 0 .22.53l2 2c.14.141.332.22.53.22a.73.73 0 0 0 .53-.22.74.74 0 0 0 0-1.06l-1.78-1.78v-2.69a.75.75 0 0 0-.75-.75zm-9.5-3.25a1.5 1.5 0 1 1 0 3 1.5 1.5 0 0 1 0-3zm-5 0a1.5 1.5 0 1 1 0 3 1.5 1.5 0 0 1 0-3zm-5 0a1.5 1.5 0 1 1 0 3 1.5 1.5 0 0 1 0-3zm15-6a1.5 1.5 0 1 1 0 3 1.5 1.5 0 0 1 0-3zm-5 0a1.5 1.5 0 1 1 0 3 1.5 1.5 0 0 1 0-3zm-5 0a1.5 1.5 0 1 1 0 3 1.5 1.5 0 0 1 0-3zm-5 0a1.5 1.5 0 1 1 0 3 1.5 1.5 0 0 1 0-3z"/></g></svg>
