<svg focusable="false" xmlns="http://www.w3.org/2000/svg" width="40" height="40" viewBox="0 0 40 40"><title>calendar-controls-40</title><g fill="none" fill-rule="evenodd"><path d="M0 0h40v40H0z"/><path fill="var(--ukg_sys_color_featureIcon_light, #30CEBB)" fill-rule="nonzero" d="M27 18.982a1 1 0 0 1 1 1v9a1 1 0 1 1-2 0v-9a1 1 0 0 1 1-1zm-7 0a1 1 0 0 1 1 1v9a1 1 0 1 1-2 0v-9a1 1 0 0 1 1-1zm-7 0a1 1 0 0 1 1 1v9a1 1 0 1 1-2 0v-9a1 1 0 0 1 1-1zm18-8a2 2 0 0 1 2 2v4H7v-4a2 2 0 0 1 2-2z"/><path fill="var(--ukg_sys_color_featureIcon_dark, #005151)" fill-rule="nonzero" d="M27 6.982a1 1 0 0 1 1 1v2h3a3 3 0 0 1 3 3v14a1 1 0 1 1-2 0v-14a1 1 0 0 0-1-1h-3v2a1 1 0 1 1-2 0v-2H14v2a1 1 0 1 1-2 0v-2H9a1 1 0 0 0-1 1v18a1 1 0 0 0 1 1h22a1 1 0 0 0 1-1 1 1 0 1 1 2 0 3 3 0 0 1-3 3H9a3 3 0 0 1-3-3v-18a3 3 0 0 1 3-3h3v-2a1 1 0 0 1 2 0v2h12v-2a1 1 0 0 1 1-1zm-14 19a2 2 0 1 1 0 4 2 2 0 0 1 0-4zm14-3.5a2 2 0 1 1 0 4 2 2 0 0 1 0-4zm-7-3.5a2 2 0 1 1 0 4 2 2 0 0 1 0-4z"/></g></svg>
