<svg focusable="false" xmlns="http://www.w3.org/2000/svg" width="40" height="40" viewBox="0 0 40 40"><title>calendar-week-40</title><g fill="none" fill-rule="evenodd"><path d="M0 0h40v40H0z"/><path fill="var(--ukg_sys_color_featureIcon_light, #30CEBB)" fill-rule="nonzero" d="M27.5 19.732v1.5h-15v-1.5h15zm3.5-9.75a2 2 0 0 1 2 2v4H7v-4a2 2 0 0 1 2-2z"/><path fill="var(--ukg_sys_color_featureIcon_dark, #005151)" fill-rule="nonzero" d="M27 5.982a1 1 0 0 1 1 1v2h3a3 3 0 0 1 3 3v14a1 1 0 1 1-2 0v-14a1 1 0 0 0-1-1h-3v2a1 1 0 1 1-2 0v-2H14v2a1 1 0 1 1-2 0v-2H9a1 1 0 0 0-1 1v18a1 1 0 0 0 1 1h22a1 1 0 0 0 1-1 1 1 0 1 1 2 0 3 3 0 0 1-3 3H9a3 3 0 0 1-3-3v-18a3 3 0 0 1 3-3h3v-2a1 1 0 0 1 2 0v2h12v-2a1 1 0 0 1 1-1zm.5 19a1.5 1.5 0 1 1 0 3 1.5 1.5 0 0 1 0-3zm-5 0a1.5 1.5 0 1 1 0 3 1.5 1.5 0 0 1 0-3zm-5 0a1.5 1.5 0 1 1 0 3 1.5 1.5 0 0 1 0-3zm-5 0a1.5 1.5 0 1 1 0 3 1.5 1.5 0 0 1 0-3zm15-6a1.5 1.5 0 1 1 0 3 1.5 1.5 0 0 1 0-3zm-15 0a1.5 1.5 0 1 1 0 3 1.5 1.5 0 0 1 0-3z"/></g></svg>
