<svg focusable="false" xmlns="http://www.w3.org/2000/svg" width="40" height="40" fill="none" viewBox="0 0 40 40"><path fill="var(--ukg_sys_color_featureIcon_light, #30CEBB)" d="M25 20a5 5 0 1 1-10 0 5 5 0 0 1 10 0Z"/><path fill="var(--ukg_sys_color_featureIcon_dark, #005151)" fill-rule="evenodd" d="M23.837 9.136a4 4 0 1 0-7.673 0l-3.357 2.014a4.003 4.003 0 0 0-6.27.85A4 4 0 0 0 9 17.873v4.254a4 4 0 1 0 3.807 6.724l3.356 2.013a4 4 0 1 0 7.673 0l3.357-2.014a4.003 4.003 0 0 0 6.27-.85A4 4 0 0 0 31 22.127v-4.254A4.002 4.002 0 0 0 33.464 12a4 4 0 0 0-6.27-.85l-3.357-2.014ZM20 10a2 2 0 1 0 0-4 2 2 0 0 0 0 4Zm2.807.85A3.987 3.987 0 0 1 20 12a3.987 3.987 0 0 1-2.807-1.15l-3.358 2.015c.3 1.015.2 2.146-.372 3.135A3.987 3.987 0 0 1 11 17.872v4.256A3.987 3.987 0 0 1 13.463 24c.571.989.672 2.12.372 3.135l3.358 2.015A3.987 3.987 0 0 1 20 28c1.093 0 2.084.439 2.807 1.15l3.358-2.015c-.3-1.015-.2-2.146.372-3.135A3.987 3.987 0 0 1 29 22.128v-4.256A3.987 3.987 0 0 1 26.537 16a3.988 3.988 0 0 1-.372-3.135l-3.358-2.015ZM20 34a2 2 0 1 0 0-4 2 2 0 0 0 0 4Zm11-18.268a2 2 0 1 1-2-3.464 2 2 0 0 1 2 3.463ZM11.732 15a2 2 0 1 0-3.464-2 2 2 0 0 0 3.463 2ZM31 24.268a2 2 0 1 1-2 3.464 2 2 0 0 1 2-3.463ZM8.269 27a2 2 0 1 0 3.463-2 2 2 0 0 0-3.463 2ZM20 16a4 4 0 1 0 1.46 7.725 1 1 0 0 1 .731 1.862 6 6 0 1 1 3.395-3.393 1 1 0 0 1-1.861-.731A4 4 0 0 0 20 16Z" clip-rule="evenodd"/></svg>
