<svg focusable="false" xmlns="http://www.w3.org/2000/svg" width="40" height="40" viewBox="0 0 40 40"><title>certification-40</title><g fill="none" fill-rule="evenodd"><path d="M0 0h40v40H0z"/><path fill="var(--ukg_sys_color_featureIcon_light, #30CEBB)" fill-rule="nonzero" d="M17.67 30 20 32l2.33-2H23v4h-6v-4h.67zM20 22a3 3 0 1 1 0 6 3 3 0 0 1 0-6zm-4-7a1 1 0 0 1 0 2h-3a1 1 0 0 1 0-2zm3-4a1 1 0 0 1 0 2h-6a1 1 0 0 1 0-2z"/><path fill="var(--ukg_sys_color_featureIcon_dark, #005151)" fill-rule="nonzero" d="m31.71 14.29-8-8A1.05 1.05 0 0 0 23 6H9a1 1 0 0 0-1 1v26a1 1 0 0 0 1 1h5a1 1 0 0 0 0-2h-4V8h12v7a1 1 0 0 0 1 1h7v16h-4a1 1 0 0 0 0 2h5a1 1 0 0 0 1-1V15a1.05 1.05 0 0 0-.29-.71zm-11.06 2.95L22.7 19H25a1 1 0 0 1 1 1v2.3l1.76 2.05a1 1 0 0 1 0 1.3L26 27.7V30a1 1 0 0 1-1 1h-2.3l-2.05 1.76a1 1 0 0 1-1.3 0L17.3 31H15a1 1 0 0 1-1-1v-2.3l-1.76-2.05a1 1 0 0 1 0-1.3L14 22.3V20a1 1 0 0 1 1-1h2.3l2.05-1.76a1 1 0 0 1 1.3 0zM20 19.32l-1.68 1.44a1 1 0 0 1-.65.24H16v1.67a1 1 0 0 1-.24.65L14.32 25l1.44 1.68a1 1 0 0 1 .24.65V29h1.67a1 1 0 0 1 .65.24L20 30.68l1.68-1.44a1 1 0 0 1 .65-.24H24v-1.67a1 1 0 0 1 .24-.65L25.68 25l-1.44-1.68a1 1 0 0 1-.24-.65V21h-1.67a1 1 0 0 1-.65-.24L20 19.32zm4-9.91L28.59 14H24V9.41z"/></g></svg>
