<svg focusable="false" xmlns="http://www.w3.org/2000/svg" width="40" height="40" viewBox="0 0 40 40"><title>chart-area-dollar-40</title><g fill="none" fill-rule="evenodd"><path d="M0 0h40v40H0z"/><path fill="var(--ukg_sys_color_featureIcon_light, #30CEBB)" fill-rule="nonzero" d="M24 30.006a7 7 0 0 1 7-7 6.8 6.8 0 0 1 1 .08v-4.08l-4.31-4.29a2.43 2.43 0 0 0-3.43 0l-7.55 7.57a2.44 2.44 0 0 1-3.43 0l-1.6-1.59a2.42 2.42 0 0 0-3.42 0L5 24.006v9h19.71a7 7 0 0 1-.71-3z"/><path fill="var(--ukg_sys_color_featureIcon_dark, #005151)" fill-rule="nonzero" d="M26 6a1 1 0 0 1 .71.296l5 5a1.004 1.004 0 1 1-1.42 1.42L26 8.416l-10.29 10.3a1 1 0 0 1-1.42 0l-4.29-4.3-4 4v13.59h17.26a8.24 8.24 0 0 1-.26-2 8 8 0 0 1 8-8 8 8 0 0 1 7 11.81 1.012 1.012 0 1 1-1.76-1 6 6 0 1 0-2.43 2.43 1.012 1.012 0 0 1 1 1.76 8 8 0 0 1-10.73-3H5a1 1 0 0 1-1-1v-26a1 1 0 1 1 2 0v8.59l3.29-3.31a1 1 0 0 1 1.42 0l4.29 4.3 10.29-10.29A1 1 0 0 1 26 6zm5 19.256a.75.75 0 0 1 .75.75v.31a2.22 2.22 0 0 1 1.31.63.75.75 0 0 1-1.06 1.06.75.75 0 0 0-.5-.25h-1a.75.75 0 0 0 0 1.5h1a2.24 2.24 0 0 1 .25 4.47v.28a.76.76 0 0 1-.75.75.76.76 0 0 1-.75-.75v-.31a2.22 2.22 0 0 1-1.31-.63.75.75 0 1 1 1.06-1.06.75.75 0 0 0 .5.25h1a.75.75 0 1 0 0-1.5h-1a2.25 2.25 0 0 1-.25-4.48v-.27a.75.75 0 0 1 .75-.75z"/></g></svg>
