<svg focusable="false" xmlns="http://www.w3.org/2000/svg" width="40" height="40" viewBox="0 0 40 40"><title>chart-tree-people-40</title><g fill="none" fill-rule="evenodd"><path d="M0 0h40v40H0z"/><path fill="var(--ukg_sys_color_featureIcon_light, #30CEBB)" fill-rule="nonzero" d="M16.077 23.02a2 2 0 0 1 2 2v7a2 2 0 0 1-2 2h-8a2 2 0 0 1-2-2v-7a2 2 0 0 1 2-2h8zm16 0a2 2 0 0 1 2 2v7a2 2 0 0 1-2 2h-8a2 2 0 0 1-2-2v-7a2 2 0 0 1 2-2h8zm-8-17.02a2 2 0 0 1 2 2v7a2 2 0 0 1-2 2h-8a2 2 0 0 1-2-2V8a2 2 0 0 1 2-2h8z"/><path fill="var(--ukg_sys_color_featureIcon_dark, #005151)" fill-rule="nonzero" d="M12.077 29.22a4.2 4.2 0 0 1 4.2 4.2v.6h-8.4v-.6a4.2 4.2 0 0 1 4.2-4.2zm16 0a4.2 4.2 0 0 1 4.2 4.2v.6h-8.4v-.6a4.2 4.2 0 0 1 4.2-4.2zm-16-4.8a1.8 1.8 0 1 1 0 3.6 1.8 1.8 0 0 1 0-3.6zm16 0a1.8 1.8 0 1 1 0 3.6 1.8 1.8 0 0 1 0-3.6zm-8-12.18a4.2 4.2 0 0 1 4.2 4.2v.58h-3.2v2h7a1 1 0 0 1 1 1v3h-2v-2h-14v2h-2v-3a1 1 0 0 1 1-1h7v-2h-3.2v-.58a4.2 4.2 0 0 1 4.2-4.2zm0-4.83a1.8 1.8 0 1 1 0 3.6 1.8 1.8 0 0 1 0-3.6z"/></g></svg>
