<svg focusable="false" xmlns="http://www.w3.org/2000/svg" width="40" height="40" viewBox="0 0 40 40"><title>chart-pie-40</title><g fill="none" fill-rule="evenodd"><path d="M0 0h40v40H0z"/><path fill="var(--ukg_sys_color_featureIcon_light, #30CEBB)" fill-rule="nonzero" d="M20.003 20.58V9h-1a12.001 12.001 0 0 0-5.973 22.39 11.995 11.995 0 0 0 14.471-1.89l.71-.73-8.208-8.19z"/><path fill="var(--ukg_sys_color_featureIcon_dark, #005151)" fill-rule="nonzero" d="M26.771 28.78a10.996 10.996 0 0 1-13.276 1.744A11.001 11.001 0 0 1 19.003 10a1 1 0 0 0 0-2A13.001 13.001 0 0 0 12.5 32.259a12.995 12.995 0 0 0 15.691-2.069 1 1 0 1 0-1.42-1.41zM23.002 18H33a1 1 0 0 0 1-1c0-6.075-4.924-11-10.998-11a1 1 0 0 0-1 1v10a1 1 0 0 0 1 1zM33 20a1 1 0 0 1 1 1 8.931 8.931 0 0 1-2.63 6.36 1 1 0 0 1-.71.3 1 1 0 0 1-.71-.3l-5.648-5.65a1 1 0 0 1 .7-1.71zM24.002 8.06A8.999 8.999 0 0 1 32 16h-7.998V8.06z"/></g></svg>
