<svg focusable="false" xmlns="http://www.w3.org/2000/svg" width="40" height="40" viewBox="0 0 40 40"><title>chart-bar-clock-40</title><g fill="none" fill-rule="evenodd"><path d="M0 0h40v40H0z"/><path fill="var(--ukg_sys_color_featureIcon_light, #30CEBB)" fill-rule="nonzero" d="M12 21.982v6h1v4.05H5.98v-10.05H12zm20-16v16h1v4.48a5 5 0 0 0-2-.43c-1.65 0-4 .82-4.95 2.06V5.982H32z"/><path fill="var(--ukg_sys_color_featureIcon_dark, #005151)" fill-rule="nonzero" d="M31 24.982a5.93 5.93 0 0 0-4 1.54V6.982h4v15a1 1 0 0 0 2 0v-16a1 1 0 0 0-1-1h-6a1 1 0 0 0-1 1v25h-8v-16h4v13a1 1 0 0 0 2 0v-14a1 1 0 0 0-1-1h-6a1 1 0 0 0-1 1v17H7v-8h4v5a1 1 0 0 0 2 0v-6a1 1 0 0 0-1-1H6a1 1 0 0 0-1 1v10a1 1 0 0 0 1 1h19.35a6 6 0 1 0 5.65-8zm2.53 8.53a.75.75 0 0 1-1.06 0l-2-2a.78.78 0 0 1-.22-.53v-3a.75.75 0 0 1 1.5 0v2.69l1.78 1.78a.75.75 0 0 1 0 1.06z"/></g></svg>
