<svg focusable="false" xmlns="http://www.w3.org/2000/svg" width="40" height="40" viewBox="0 0 40 40"><title>charts-40</title><g fill="none" fill-rule="evenodd"><path d="M0 0h40v40H0z"/><path fill="var(--ukg_sys_color_featureIcon_light, #30CEBB)" fill-rule="nonzero" d="M23 28v5h-5v-5h5zm10-10v11h1v4h-6V18h5zM20 7v13H7c0-7.18 5.82-13 13-13z"/><path fill="var(--ukg_sys_color_featureIcon_dark, #005151)" fill-rule="nonzero" d="M33 30a1 1 0 0 0 1-1V18a1 1 0 0 0-1-1h-5a1 1 0 0 0-1 1v4h-4a1 1 0 0 0-1 1v4h-4a1 1 0 0 0-1 1v5a1 1 0 0 0 1 1h15a1 1 0 0 0 0-2h-4V19h3v10a1 1 0 0 0 1 1zm-11-1v3h-3v-3h3zM17.77 6.177a14 14 0 0 1 14.65 7.363 1 1 0 1 1-1.77.92A12 12 0 0 0 8 20h12l-8.54 8.48a12.29 12.29 0 0 0 3 2.17 1 1 0 0 1-.46 1.89 1 1 0 0 1-.46-.12 14 14 0 0 1 4.23-26.243zM27 24v8h-3v-8h3z"/></g></svg>
