<svg focusable="false" xmlns="http://www.w3.org/2000/svg" width="40" height="40" viewBox="0 0 40 40"><title>chart-bar-40</title><g fill="none" fill-rule="evenodd"><path d="M0 0h40v40H0z"/><path fill="var(--ukg_sys_color_featureIcon_light, #30CEBB)" fill-rule="nonzero" d="M34 22v11h-7V22h7zm-20 5v6H7v-6h7zm10-2.5V33h-7v-8.5h7z"/><path fill="var(--ukg_sys_color_featureIcon_dark, #005151)" fill-rule="nonzero" d="M33 30a1 1 0 0 0 1-1V7a1 1 0 0 0-1-1h-6a1 1 0 0 0-1 1v25h-8V16h4v13a1 1 0 0 0 2 0V15a1 1 0 0 0-1-1h-6a1 1 0 0 0-1 1v17H8v-8h4v5a1 1 0 0 0 2 0v-6a1 1 0 0 0-1-1H7a1 1 0 0 0-1 1v10a1 1 0 0 0 1 1h26a1 1 0 0 0 0-2h-5V8h4v21a1 1 0 0 0 1 1z"/></g></svg>
