<svg focusable="false" xmlns="http://www.w3.org/2000/svg" width="40" height="40" viewBox="0 0 40 40"><title>chart-bar-profit-40</title><g fill="none" fill-rule="evenodd"><path d="M0 0h40v40H0z"/><path fill="var(--ukg_sys_color_featureIcon_light, #30CEBB)" fill-rule="nonzero" d="M34 21.006v12h-6v-12h6zm-10 3v9h-6v-9h6zm-10 3v5H8v-5h6zm15.63-19.93a1 1 0 1 1 .74 1.86l-20 8a1 1 0 1 1-.74-1.86z"/><path fill="var(--ukg_sys_color_featureIcon_dark, #005151)" fill-rule="nonzero" d="M33 13.006a1 1 0 0 1 1 1v15a1 1 0 1 1-2 0v-14h-4v17h5a1 1 0 1 1 0 2H7a1 1 0 0 1-1-1v-11a1 1 0 0 1 1-1h6a1 1 0 0 1 1 1v7a1 1 0 1 1-2 0v-6H8v9h8v-14a1 1 0 0 1 1-1h6a1 1 0 0 1 1 1v11a1 1 0 1 1-2 0v-10h-4v13h8v-18a1 1 0 0 1 1-1zm-23 1a2 2 0 1 1 0 4 2 2 0 0 1 0-4zm10-4a2 2 0 1 1 0 4 2 2 0 0 1 0-4zm10-4a2 2 0 1 1 0 4 2 2 0 0 1 0-4z"/></g></svg>
