<svg focusable="false" xmlns="http://www.w3.org/2000/svg" width="40" height="40" viewBox="0 0 40 40"><title>chart-bar-statistics-40</title><g fill="none" fill-rule="evenodd"><path d="M0 0h40v40H0z"/><path fill="var(--ukg_sys_color_featureIcon_light, #30CEBB)" fill-rule="nonzero" d="M14.004 24v9h-7v-9h7zm20 0v9h-7v-9h7zm-10 5v4h-7v-4h7zm7-22.95a1 1 0 0 1 1 1v5a1 1 0 1 1-2 0V9.46l-9.29 9.25a1 1 0 0 1-.71.29 1 1 0 0 1-.71-.29l-7.29-7.3-4.28 4.3h-.01a1.004 1.004 0 1 1-1.42-1.42l5-5a1 1 0 0 1 1.42 0l7.29 7.3 8.58-8.54h-2.58a1 1 0 0 1 0-2z"/><path fill="var(--ukg_sys_color_featureIcon_dark, #005151)" fill-rule="nonzero" d="M13.004 18a1 1 0 0 1 1 1v10a1 1 0 1 1-2 0v-9h-4v12h5a1 1 0 1 1 0 2h-6a1 1 0 0 1-1-1V19a1 1 0 0 1 1-1zm10 6a1 1 0 0 1 1 1v4a1 1 0 1 1-2 0v-3h-4v6h5a1 1 0 1 1 0 2h-6a1 1 0 0 1-1-1v-8a1 1 0 0 1 1-1zm10-6a1 1 0 0 1 1 1v10a1 1 0 1 1-2 0v-9h-4v12h5a1 1 0 1 1 0 2h-6a1 1 0 0 1-1-1V19a1 1 0 0 1 1-1zm-13-2a2 2 0 1 1 0 4 2 2 0 0 1 0-4zm-8-8a2 2 0 1 1 0 4 2 2 0 0 1 0-4z"/></g></svg>
