<svg focusable="false" xmlns="http://www.w3.org/2000/svg" width="40" height="40" viewBox="0 0 40 40"><title>chart-pie-finance-dollar-40</title><g fill="none" fill-rule="evenodd"><path d="M0 0h40v40H0z"/><path fill="var(--ukg_sys_color_featureIcon_light, #30CEBB)" fill-rule="nonzero" d="M22 29.725a.75.75 0 0 1 0 1.5h-4a.75.75 0 0 1 0-1.5h4zM20 5c8.284 0 15 6.716 15 15 0 2.377-.562 4.618-1.548 6.613l.029.016a1 1 0 0 1-1 1.732L19.5 20.866a1 1 0 0 1 .498-1.867v-14z"/><path fill="var(--ukg_sys_color_featureIcon_dark, #005151)" fill-rule="nonzero" d="M19.5 24.133c.31-.178.69-.178 1 0l10.255 5.921a.999.999 0 0 1 .186 1.594A15.904 15.904 0 0 1 20.001 36a15.904 15.904 0 0 1-10.942-4.35.998.998 0 0 1 .185-1.595zm2.5 5.592h-4a.75.75 0 0 0 0 1.5h4a.75.75 0 0 0 0-1.5zM20 4c8.823 0 16 7.177 16 16a15.99 15.99 0 0 1-2.154 7.995 1.002 1.002 0 0 1-1.366.364 1 1 0 0 1-.365-1.366A13.98 13.98 0 0 0 33.998 20c0-7.383-5.745-13.451-13-13.965V20a.982.982 0 0 1-.069.345.995.995 0 0 1-.223.361l-.003.003a.989.989 0 0 1-.204.157L7.52 28.36a1.002 1.002 0 0 1-1.366-.365A15.991 15.991 0 0 1 3.999 20c0-8.823 7.179-16 16-16zm-1 2.035C11.745 6.549 6 12.617 6 20c0 2.112.487 4.205 1.415 6.11L19 19.423zm-5.47 4.215a.75.75 0 0 1 .75.75v.25H15a.75.75 0 0 1 0 1.5h-1.97a.75.75 0 0 0 0 1.5h1c1.241 0 2.25 1.01 2.25 2.25a2.246 2.246 0 0 1-2 2.225V19a.75.75 0 0 1-1.5 0v-.25H12a.75.75 0 0 1 0-1.5h2.03a.75.75 0 0 0 0-1.5h-1a2.253 2.253 0 0 1-2.25-2.25c0-1.155.878-2.098 2-2.225V11a.75.75 0 0 1 .75-.75zm15.99 1.72a.749.749 0 0 1 0 1.06l-5 5a.744.744 0 0 1-.53.22.749.749 0 0 1-.53-1.28l5-5a.75.75 0 0 1 1.06 0zM28.49 16a1 1 0 1 1-.001 2 1 1 0 0 1 0-2zm-4-4a1 1 0 1 1-.001 2 1 1 0 0 1 0-2z"/></g></svg>
