<svg focusable="false" xmlns="http://www.w3.org/2000/svg" width="40" height="40" viewBox="0 0 40 40"><title>check-clock-40</title><g fill="none" fill-rule="evenodd"><path d="M0 0h40v40H0z"/><path fill="var(--ukg_sys_color_featureIcon_light, #30CEBB)" fill-rule="nonzero" d="m21.73 22.282.71.71-3.3 3.29-.7-.7-1.44 1.4-7.38-7.38a2.14 2.14 0 0 1 0-3 2.12 2.12 0 0 1 3 0l4.38 4.38 8-8a12 12 0 1 0 2.26 3.75l-5.53 5.55z"/><path fill="var(--ukg_sys_color_featureIcon_dark, #005151)" fill-rule="nonzero" d="M31.11 9.902a3.21 3.21 0 0 0-4.42 0L17 19.582l-3.67-3.67a3.19 3.19 0 0 0-4.41 0 3.11 3.11 0 0 0 0 4.41l7.38 7.38a1 1 0 0 0 .7.28 1 1 0 0 0 .71-.29l1.41-1.42a1 1 0 1 0-1.41-1.41l-.71.72-6.67-6.67a1.12 1.12 0 0 1 0-1.59 1.16 1.16 0 0 1 1.59 0l4.38 4.38a1 1 0 0 0 1.41 0l10.4-10.38a1.15 1.15 0 0 1 1.58 0 1.12 1.12 0 0 1 0 1.59l-9.13 9.13a1 1 0 1 0 1.41 1.42l9.14-9.14a3.13 3.13 0 0 0 0-4.42zM30 22.982a6 6 0 1 0 0 12 6 6 0 0 0 0-12zm2.53 8.53a.75.75 0 0 1-1.06 0l-2-2a.78.78 0 0 1-.22-.53v-3a.75.75 0 0 1 1.5 0v2.69l1.78 1.78a.75.75 0 0 1 0 1.06z"/></g></svg>
