<svg focusable="false" xmlns="http://www.w3.org/2000/svg" width="24" height="24" viewBox="0 0 24 24"><title>Icons / Navigation / clear-empty</title><g fill="none" fill-rule="evenodd"><path d="M0 0h24v24H0z"/><path fill="currentColor" fill-rule="nonzero" d="M12 2C6.47 2 2 6.47 2 12s4.47 10 10 10 10-4.47 10-10S17.53 2 12 2zm0 18c-4.41 0-8-3.59-8-8s3.59-8 8-8 8 3.59 8 8-3.59 8-8 8zm4.3-12.29a.996.996 0 0 0-1.41 0L12 10.59 9.11 7.7A.996.996 0 1 0 7.7 9.11L10.59 12 7.7 14.89a.996.996 0 1 0 1.41 1.41L12 13.41l2.89 2.89a.996.996 0 1 0 1.41-1.41L13.41 12l2.89-2.89c.38-.38.38-1.02 0-1.4z"/></g></svg>
