<svg focusable="false" xmlns="http://www.w3.org/2000/svg" width="40" height="40" viewBox="0 0 40 40"><title>clipboard-checklist-40</title><g fill="none" fill-rule="evenodd"><path d="M0 0h40v40H0z"/><path fill="var(--ukg_sys_color_featureIcon_light, #30CEBB)" fill-rule="nonzero" d="M26 13v1H14v-1h-1v17h14V13z"/><path fill="var(--ukg_sys_color_featureIcon_dark, #005151)" fill-rule="nonzero" d="M30 27a1 1 0 0 0 1-1V12a3 3 0 0 0-3-3h-4.13a4 4 0 0 0-7.74 0H12a3 3 0 0 0-3 3v19a3 3 0 0 0 3 3h16a3 3 0 0 0 3-3v-1a1 1 0 0 0-2 0v1a1 1 0 0 1-1 1H12a1 1 0 0 1-1-1V12a1 1 0 0 1 1-1h1v3a1 1 0 0 0 1 1h12a1 1 0 0 0 1-1v-3h1a1 1 0 0 1 1 1v14a1 1 0 0 0 1 1zm-5.25-.75a.75.75 0 1 1 0 1.5h-2a.75.75 0 1 1 0-1.5zm-5.53-2.78a.75.75 0 0 1 1.06-.03.74.74 0 0 1 0 1.06l-3 3a.73.73 0 0 1-.53.22.74.74 0 0 1-.53-.22l-1.5-1.5a.75.75 0 1 1 1.03-1.06l1 1zm5.53-.22a.75.75 0 1 1 0 1.5h-2a.75.75 0 1 1 0-1.5zm0-3a.75.75 0 1 1 0 1.5h-2a.75.75 0 1 1 0-1.5zm-5.53-2.78a.75.75 0 0 1 1.06 0 .74.74 0 0 1 0 1.03l-3 3a.73.73 0 0 1-.53.22.74.74 0 0 1-.53-.22l-1.5-1.5a.75.75 0 1 1 1.03-1.06l1 1zm5.53-.22a.75.75 0 1 1 0 1.5h-2a.75.75 0 1 1 0-1.5zM20 8a2 2 0 0 1 2 2 1 1 0 0 0 1 1h2v2H15v-2h2a1 1 0 0 0 1-1 2 2 0 0 1 2-2z"/></g></svg>
