<svg focusable="false" xmlns="http://www.w3.org/2000/svg" width="40" height="40" viewBox="0 0 40 40"><title>clipboard-check-40</title><g fill="none" fill-rule="evenodd"><path d="M0 0h40v40H0z"/><path fill="var(--ukg_sys_color_featureIcon_light, #30CEBB)" fill-rule="nonzero" d="M13 13h14v16H13z"/><path fill="var(--ukg_sys_color_featureIcon_dark, #005151)" fill-rule="nonzero" d="M22.47 19a.75.75 0 0 1 1.06 1l-4 4a.75.75 0 0 1-1.06 0l-2-2a.75.75 0 0 1 1.06-1L19 22.44zm-3-10.53a.77.77 0 0 1 1.06 0 .75.75 0 1 1-1.06 0zM30 26a1 1 0 0 0 1-1V11a3 3 0 0 0-3-3h-4.13a4 4 0 0 0-7.75 0H12a3 3 0 0 0-3 3v19a3 3 0 0 0 3 3h16a3 3 0 0 0 3-3v-1a1 1 0 0 0-2 0v1a1 1 0 0 1-1 1H12a1 1 0 0 1-1-1V11a1 1 0 0 1 1-1h1v3a1 1 0 0 0 1 1h12a1 1 0 0 0 1-1v-3h1a1 1 0 0 1 1 1v14a1 1 0 0 0 1 1zm-5-14H15v-2h2a1 1 0 0 0 1-1 2 2 0 1 1 4 0 1 1 0 0 0 1 1h2v2z"/></g></svg>
