<svg focusable="false" xmlns="http://www.w3.org/2000/svg" width="40" height="40" viewBox="0 0 40 40"><title>clock-reverse-40</title><g fill="none" fill-rule="evenodd"><path d="M0 0h40v40H0z"/><circle cx="20.001" cy="19.982" r="8" fill="var(--ukg_sys_color_featureIcon_light, #30CEBB)" fill-rule="nonzero"/><path fill="var(--ukg_sys_color_featureIcon_dark, #005151)" fill-rule="nonzero" d="m20 5.982.542.009a15.44 15.44 0 0 1 1.619.14 1 1 0 0 1-.16 1.99h-.15a12.7 12.7 0 0 0-1.85-.14l-.305.005C13.209 8.147 8 13.456 8 19.982a13.45 13.45 0 0 0 4 9.59l1 1v-1.59a1 1 0 0 1 2 0v4a1 1 0 0 1-1 1h-4a1 1 0 1 1 0-2h1.55l-1-1a15.48 15.48 0 0 1-4.55-11c0-7.732 6.268-14 14-14zm10 0a1 1 0 1 1 0 2h-1.55l1 1a15.48 15.48 0 0 1 4.55 11c0 7.732-6.267 14-14 14l-.43-.002a14.06 14.06 0 0 1-1.72-.138 1.011 1.011 0 0 1 .3-2 12.7 12.7 0 0 0 1.85.14l.306-.004C26.792 31.816 32 26.508 32 19.982a13.43 13.43 0 0 0-4-9.59l-1-1v1.59a1 1 0 1 1-2 0v-4a1 1 0 0 1 1-1zm-10 5a1 1 0 0 1 1 1v5.18a3 3 0 0 1 2 2.82 3 3 0 0 1-.29 1.28l3 3a1 1 0 0 1 0 1.42 1 1 0 0 1-1.42 0l-3-3a3 3 0 0 1-1.29.3 3 3 0 0 1-1-5.82v-5.18a1 1 0 0 1 1-1z"/></g></svg>
