<svg focusable="false" xmlns="http://www.w3.org/2000/svg" width="40" height="40" viewBox="0 0 40 40"><title>clock-40</title><g fill="none" fill-rule="evenodd"><path d="M0 0h40v40H0z"/><circle cx="20.024" cy="20.001" r="8" fill="var(--ukg_sys_color_featureIcon_light, #30CEBB)" fill-rule="nonzero"/><path fill="var(--ukg_sys_color_featureIcon_dark, #005151)" fill-rule="nonzero" d="M32.336 9.81a16 16 0 0 1 .398 19.88 1 1 0 1 1-1.59-1.19c4.476-5.856 3.645-14.18-1.902-19.036-5.546-4.855-13.908-4.578-19.12.635-5.213 5.213-5.49 13.574-.635 19.12 4.855 5.547 13.18 6.379 19.037 1.902a1 1 0 1 1 1.21 1.59 15.84 15.84 0 0 1-9.71 3.29A16 16 0 1 1 32.336 9.81zM20.034 9a1 1 0 0 1 1 1v7.18a3 3 0 0 1 2 2.82 3 3 0 0 1-.3 1.29l3 3a1 1 0 0 1 .01 1.41 1 1 0 0 1-1.42 0l-3-3a3 3 0 0 1-1.29.3 3 3 0 0 1-1-5.82V10a1 1 0 0 1 1-1z"/></g></svg>
