<svg focusable="false" xmlns="http://www.w3.org/2000/svg" width="40" height="40" viewBox="0 0 40 40"><title>clock-dashed-40</title><g fill="none" fill-rule="evenodd"><path d="M0 0h40v40H0z"/><path fill="var(--ukg_sys_color_featureIcon_light, #30CEBB)" fill-rule="nonzero" d="M32.963 26.017a1 1 0 0 1 .768.075 1 1 0 0 1 .44 1.36 17.31 17.31 0 0 1-1 1.59 1 1 0 1 1-1.64-1.14c.307-.447.587-.91.84-1.39a1 1 0 0 1 .592-.495zM20 11.982a8 8 0 1 1 0 16 8 8 0 0 1 0-16zm14.884 8.535.116.005a1 1 0 0 1 .92 1.06 18.57 18.57 0 0 1-.3 1.84 1 1 0 0 1-1 .79h-.22a1 1 0 0 1-.75-1.19c.11-.53.2-1.07.26-1.61a1 1 0 0 1 1.09-.89zm-.71-5.65a1.005 1.005 0 0 1 1.246.685c.17.598.308 1.206.41 1.82a1 1 0 0 1-.83 1.15h-.19a1 1 0 0 1-1-.83 14.09 14.09 0 0 0-.36-1.59l.04.01a1.005 1.005 0 0 1 .685-1.245zm-2.99-4.93a1.01 1.01 0 0 1 1.416.185c.385.487.739.998 1.06 1.53a1 1 0 0 1-.85 1.52 1 1 0 0 1-.81-.48 15.37 15.37 0 0 0-1-1.34 1.01 1.01 0 0 1 .185-1.415zm-4.208-3.845a1 1 0 0 1 1.024.03c.54.311 1.06.655 1.56 1.03a1 1 0 1 1-1.2 1.6 13.33 13.33 0 0 0-1.36-.9 1 1 0 0 1-.024-1.76zm-4.815-2.03.119.01a16.3 16.3 0 0 1 1.82.37 1.008 1.008 0 1 1-.25 2 1.07 1.07 0 0 1-.25 0 12.58 12.58 0 0 0-1.6-.32v-.05a1.01 1.01 0 0 1 .28-2z"/><path fill="var(--ukg_sys_color_featureIcon_dark, #005151)" fill-rule="nonzero" d="M17.81 4.132a1.01 1.01 0 1 1 .28 2 14 14 0 1 0 10.38 25 1 1 0 0 1 1.21 1.59 15.87 15.87 0 0 1-9.68 3.26c-8.411.002-15.389-6.51-15.966-14.903-.577-8.392 5.443-15.798 13.777-16.947zM20 8.982a1 1 0 0 1 1 1v7.18a3 3 0 0 1 2 2.82 3 3 0 0 1-.3 1.29l3.71 3.66a1 1 0 0 1 0 1.41 1 1 0 0 1-.7.3 1 1 0 0 1-.71-.3l-3.71-3.66a3 3 0 0 1-4.29-2.7 3 3 0 0 1 2-2.82v-7.18a1 1 0 0 1 1-1z"/></g></svg>
