<svg focusable="false" xmlns="http://www.w3.org/2000/svg" width="40" height="40" viewBox="0 0 40 40"><title>clock-person-40</title><g fill="none" fill-rule="evenodd"><path d="M0 0h40v40H0z"/><path fill="var(--ukg_sys_color_featureIcon_light, #30CEBB)" fill-rule="nonzero" d="M37.999 35.999V37H23.983v-1.001a7.009 7.009 0 0 1 4.074-6.366l-.01-.041a3.003 3.003 0 0 0 5.869.037A7.007 7.007 0 0 1 37.999 36zM30.99 28.99c1.011 0 1.973.214 2.841.6H28.15c.868-.386 1.83-.6 2.84-.6zM17.976 11.01a8.01 8.01 0 1 1 0 16.018 8.01 8.01 0 0 1 0-16.018z"/><path fill="var(--ukg_sys_color_featureIcon_dark, #005151)" fill-rule="nonzero" d="M30.99 27.99a8.01 8.01 0 0 0-6.597 3.474 13.796 13.796 0 0 1-6.417 1.572c-7.376-.002-13.489-5.72-13.982-13.078-.494-7.36 4.8-13.842 12.11-14.828 7.309-.987 14.132 3.86 15.608 11.086a1.021 1.021 0 0 0 2.002-.4C32.029 7.562 24.239 2.024 15.889 3.144 7.54 4.264 1.485 11.659 2.035 20.065c.55 8.406 7.517 14.95 15.94 14.973a15.899 15.899 0 0 0 5.237-.901 7.648 7.648 0 0 0-.23 1.862 1.001 1.001 0 0 0 2.002 0 6.007 6.007 0 0 1 12.014 0 1.001 1.001 0 0 0 2.002 0 8.009 8.009 0 0 0-8.01-8.01zm3.004-9.01a1 1 0 0 1 1.001 1V20a2.653 2.653 0 0 1-.37 1.322 4.004 4.004 0 1 1-7.639 1.662v-1.001a2.002 2.002 0 0 1 1.001-1.712v-.29a1 1 0 0 1 1.001-1.001zM17.986 8.007a1 1 0 0 1 1 1.001v7.188a3.003 3.003 0 0 1 2.003 2.824 3.003 3.003 0 0 1-.3 1.291l3.003 3.003c.391.388.396 1.019.01 1.412a1.001 1.001 0 0 1-1.421 0l-3.004-3.003a3.004 3.004 0 0 1-1.291.3 3.003 3.003 0 0 1-1.001-5.827V9.008a1 1 0 0 1 1-1zM29.99 22.203a.8.8 0 0 0-1.002.781l.006.15a2.002 2.002 0 0 0 1.997 1.852v.01a2.002 2.002 0 0 0 2.002-2.432 2.783 2.783 0 0 1-.57.07 2.293 2.293 0 0 1-.521-.05z"/></g></svg>
