<svg focusable="false" xmlns="http://www.w3.org/2000/svg" width="40" height="40" viewBox="0 0 40 40"><title>clock-range-40</title><g fill="none" fill-rule="evenodd"><path d="M0 0h40v40H0z"/><path fill="var(--ukg_sys_color_featureIcon_light, #30CEBB)" fill-rule="nonzero" d="M18.961 4.879a1.003 1.003 0 0 1-.856 1.13c-6.9.942-12.103 6.929-12.103 13.926 0 7.751 6.286 14.057 14.014 14.057 2.84 0 5.582-.859 7.93-2.486a1 1 0 0 1 1.393.256c.314.457.2 1.081-.255 1.398A15.873 15.873 0 0 1 20.016 36C11.185 36 4 28.793 4 19.935 4 11.938 9.948 5.096 17.835 4.018a1.005 1.005 0 0 1 1.126.86zM32.057 27.1a.998.998 0 0 1 1.372-.35c.475.284.63.9.348 1.377-.183.309-.375.609-.577.903a1 1 0 0 1-1.394.255 1.007 1.007 0 0 1-.255-1.397c.177-.257.346-.52.506-.788zM20.016 13.91c3.317 0 6.005 2.697 6.005 6.024 0 3.328-2.688 6.025-6.005 6.025-3.318 0-6.006-2.697-6.006-6.025 0-3.327 2.688-6.024 6.006-6.024zm14.756 3.06a1 1 0 0 1 1.122.865c.046.351.08.707.104 1.065a1.003 1.003 0 0 1-.935 1.067l-.066.002c-.523 0-.963-.408-.998-.94a13.557 13.557 0 0 0-.089-.933 1 1 0 0 1 .862-1.126zm-4.987-8.516a1.001 1.001 0 0 1 1.415-.018c.256.25.502.507.74.773a1.006 1.006 0 0 1-.746 1.675.995.995 0 0 1-.744-.333 13.741 13.741 0 0 0-.648-.677 1.006 1.006 0 0 1-.017-1.42zM25.508 5.88a.995.995 0 0 1 1.332-.48c.323.152.638.316.949.488a1.005 1.005 0 0 1-.487 1.882.99.99 0 0 1-.485-.127c-.27-.15-.548-.293-.83-.427a1.003 1.003 0 0 1-.479-1.336zM21.985 4l.117.006.147.02.18.029.175.027.114.02c.138.024.356.061.44.078.544.108.896.636.788 1.18a1.001 1.001 0 0 1-1.175.79 13.986 13.986 0 0 0-.505-.089c-.14-.022-.277-.045-.419-.063a1.004 1.004 0 0 1-.865-1.124 1.01 1.01 0 0 1 1.12-.868z"/><path fill="var(--ukg_sys_color_featureIcon_dark, #005151)" fill-rule="nonzero" d="M20.016 7.887c6.623 0 12.011 5.404 12.011 12.048 0 2.445-.735 4.804-2.124 6.823a1.002 1.002 0 1 1-1.649-1.142 9.97 9.97 0 0 0 1.771-5.68c0-5.537-4.49-10.041-10.01-10.041-5.519 0-10.01 4.504-10.01 10.04 0 5.537 4.491 10.04 10.01 10.04A9.897 9.897 0 0 0 25.68 28.2a1 1 0 0 1 1.393.256c.314.455.2 1.08-.255 1.397a11.897 11.897 0 0 1-6.801 2.13c-6.624 0-12.012-5.404-12.012-12.048S13.392 7.887 20.016 7.887zm0 4.016c.552 0 1 .449 1 1.004v5.3a2 2 0 0 1 1.001 1.728c0 .179-.03.349-.074.514l2.784 2.793a1.005 1.005 0 0 1-.708 1.713.997.997 0 0 1-.707-.294l-2.784-2.792a2.013 2.013 0 0 1-.512.074 2.004 2.004 0 0 1-1.001-3.737v-5.3c0-.554.448-1.003 1-1.003z"/></g></svg>
