<svg focusable="false" xmlns="http://www.w3.org/2000/svg" width="40" height="40" viewBox="0 0 40 40"><title>clock-urgent-40</title><g fill="none" fill-rule="evenodd"><path d="M0 0h40v40H0z"/><path fill="var(--ukg_sys_color_featureIcon_light, #30CEBB)" fill-rule="nonzero" d="m29 14-6-6v2a2 2 0 0 1-2 2v-1.17A6.84 6.84 0 0 0 19 6l-.14.29a14.09 14.09 0 0 1-5.23 5.55A12 12 0 0 0 8 22l.07-.07L8 22a12 12 0 1 0 21-8zm-5.2 15.03-.53-1a6.89 6.89 0 1 1 2.78-2.78l1 .53A8.1 8.1 0 0 1 23.81 29l-.01.03z"/><path fill="var(--ukg_sys_color_featureIcon_dark, #005151)" fill-rule="nonzero" d="M20 14a8 8 0 0 1 7 11.81 1.012 1.012 0 0 1-1.76-1 6 6 0 1 0-2.43 2.43 1.012 1.012 0 1 1 1 1.76A8 8 0 1 1 20 14zm0 4.25a.76.76 0 0 1 .75.75v2.69l1.78 1.78a.75.75 0 0 1-1.06 1.06l-2-2a.75.75 0 0 1-.22-.53v-3a.76.76 0 0 1 .75-.75z"/></g></svg>
