<svg focusable="false" xmlns="http://www.w3.org/2000/svg" width="40" height="40" viewBox="0 0 40 40"><title>clock-stopwatch-40</title><g fill="none" fill-rule="evenodd"><path d="M0 0h40v40H0z"/><path fill="var(--ukg_sys_color_featureIcon_light, #30CEBB)" fill-rule="nonzero" d="M23.324 11.86a1 1 0 0 1 1.037-.108v-.03a12 12 0 0 1 5.52 18 1 1 0 0 1-.83.44 1 1 0 0 1-.82-1.55 10 10 0 0 0-4.59-15 1 1 0 0 1-.317-1.751zM20 16.933a6 6 0 1 1 0 12 6 6 0 0 1 0-12z"/><path fill="var(--ukg_sys_color_featureIcon_dark, #005151)" fill-rule="nonzero" d="M22.76 6.982a1 1 0 1 1 0 2H21v3a.3.3 0 0 1 0 .16 1 1 0 0 1-1 .84c-5.522 0-10 4.477-10 10s4.478 10 10 10a9.9 9.9 0 0 0 5.66-1.82 1 1 0 0 1 1.39.26 1 1 0 0 1-.26 1.44 11.89 11.89 0 0 1-6.79 2.12c-6.627.276-12.223-4.873-12.5-11.5-.275-6.628 4.873-12.224 11.5-12.5v-2h-1.77a1 1 0 0 1 0-2zm-2.76 8a1 1 0 0 1 1 1v5.28a2 2 0 0 1 1 1.72 2.09 2.09 0 0 1-.07.51l2.78 2.78a1 1 0 0 1 0 1.42 1 1 0 0 1-1.42 0l-2.78-2.78a2.09 2.09 0 0 1-.51.07 2 2 0 0 1-2-2 2 2 0 0 1 1-1.72v-5.28a1 1 0 0 1 1-1z"/></g></svg>
