<svg focusable="false" xmlns="http://www.w3.org/2000/svg" width="40" height="40" viewBox="0 0 40 40"><title>clock-people-40</title><g fill="none" fill-rule="evenodd"><path d="M0 0h40v40H0z"/><path fill="var(--ukg_sys_color_featureIcon_light, #30CEBB)" fill-rule="nonzero" d="M21 28.982a8 8 0 0 1 5.34 2h.06a3.73 3.73 0 0 0 7.2 0 7 7 0 0 1 3.4 6v1H14v-1a7 7 0 0 1 6-6.92.24.24 0 0 1 0-.08 1 1 0 0 1 1-1zm9 1a6.88 6.88 0 0 1 2.19.38c-.05.04-.05.11-.05.11a2.24 2.24 0 0 1-4.38 0 .31.31 0 0 0 0-.1 6.68 6.68 0 0 1 2.24-.39zm-16.553-19.19a7.06 7.06 0 0 1 8.994 10.57 3.06 3.06 0 0 0-1.44-.38 3 3 0 0 0-3 2.92 7.06 7.06 0 0 1-4.554-13.11z"/><path fill="var(--ukg_sys_color_featureIcon_dark, #005151)" fill-rule="nonzero" d="M21 28.982c.385 0 .77.027 1.15.08a1 1 0 0 1 .85 1.13 1 1 0 0 1-1.16.85 6 6 0 0 0-6.84 5.94 1 1 0 1 1-2 0 8 8 0 0 1 8-8zm9 0a8 8 0 0 1 8 8 1 1 0 1 1-2 0 6 6 0 1 0-12 0 1 1 0 1 1-2 0 8 8 0 0 1 8-8zm-5-8a1 1 0 0 0-1-1h-5a1 1 0 0 0-1 1v.28a2 2 0 0 0-1 1.72v.91a4 4 0 1 0 8 .09 3.67 3.67 0 0 0-.39-1.64 2.62 2.62 0 0 0 .39-1.36zm-21.696-6.9a14 14 0 0 1 27.697 2.9 1 1 0 1 1-2 0 12 12 0 1 0-15.64 11.42 1 1 0 0 1 .64 1.26 1 1 0 0 1-1 .64.84.84 0 0 1-.31 0 14 14 0 0 1-9.387-16.22zm26.697 5.9a4 4 0 0 1 4 4v3a1 1 0 0 1-1 1h-6a1 1 0 0 1-1-1v-3a4 4 0 0 1 4-4zm-10.18 3.22 2 .41c.17.036.345.053.52.05a2.78 2.78 0 0 0 .57-.07 2 2 0 0 1-1.91 2.39 2 2 0 0 1-2-2 1.51 1.51 0 0 1 .06-.37.67.67 0 0 1 .19-.27.71.71 0 0 1 .57-.14zm10.18-.97a2 2 0 0 1-1.74 1h-.11a1.86 1.86 0 0 0-.15.75 2 2 0 1 0 4 0 1.86 1.86 0 0 0-.15-.75h-.11a2 2 0 0 1-1.74-1zM17 7.982a1 1 0 0 1 1 1v5.6a2.6 2.6 0 1 1-2 4.8l-3.29 3.31a1 1 0 1 1-1.42-1.41l3.31-3.3a2.6 2.6 0 0 1 1.4-3.4v-5.6a1 1 0 0 1 1-1z"/></g></svg>
