<svg focusable="false" xmlns="http://www.w3.org/2000/svg" width="40" height="40" viewBox="0 0 40 40"><title>cloud-operations-40</title><g fill="none" fill-rule="evenodd"><path d="M0 0h40v40H0z"/><path fill="var(--ukg_sys_color_featureIcon_light, #30CEBB)" fill-rule="nonzero" d="M20 21a1 1 0 0 1 1 1v10.5a1 1 0 0 1-2 0V22a1 1 0 0 1 1-1zm4 0a1 1 0 0 1 1 1v5h3.5a1 1 0 0 1 0 2H24a1 1 0 0 1-1-1v-6a1 1 0 0 1 1-1zm-8 0a1 1 0 0 1 1 1v6a1 1 0 0 1-1 1h-4.5a1 1 0 0 1 0-2H15v-5a1 1 0 0 1 1-1zm9.5-7.46a2 2 0 1 1 0 4 2 2 0 0 1 0-4z"/><path fill="var(--ukg_sys_color_featureIcon_dark, #005151)" fill-rule="nonzero" d="M19.99 31a2 2 0 1 1 0 4 2 2 0 0 1 0-4zM30 26a2 2 0 1 1 0 4 2 2 0 0 1 0-4zm-20 0a2 2 0 1 1 0 4 2 2 0 0 1 0-4zm4.568-18.602a8 8 0 0 1 8.942 2.972 5.24 5.24 0 0 1 1.95-.37A5.55 5.55 0 0 1 31 15.14 4 4 0 0 1 30 23a1 1 0 0 1 0-2 2 2 0 1 0 0-4 1 1 0 0 1-1-1v-.46A3.55 3.55 0 0 0 25.46 12a3.5 3.5 0 0 0-1.8.51 1 1 0 0 1-1.39-.38A6 6 0 0 0 11 15v1a1 1 0 0 1-1 1 2 2 0 1 0 0 4h16a1 1 0 0 1 0 2H10a4 4 0 0 1-1-7.87V15a8 8 0 0 1 5.568-7.602zM21 16a1 1 0 0 0 0-2h-.63a3.53 3.53 0 0 0-.82-1.43l.41-.71a1 1 0 1 0-1.73-1l-.41.7a3.49 3.49 0 0 0-1.66 0l-.4-.7a1 1 0 0 0-1.37-.37 1 1 0 0 0-.39 1.37l.4.7a3.5 3.5 0 0 0-.79 1.44H13a1 1 0 0 0 0 2h.62a3.5 3.5 0 0 0 .82 1.44l-.4.7a1 1 0 1 0 1.73 1l.4-.7a3.49 3.49 0 0 0 1.66 0l.41.7a1 1 0 1 0 1.73-1l-.41-.71a3.53 3.53 0 0 0 .81-1.43H21zm-4 .54a1.54 1.54 0 1 1-.02-3.08 1.54 1.54 0 0 1 .02 3.08z"/></g></svg>
