<svg focusable="false" xmlns="http://www.w3.org/2000/svg" width="24" height="24" viewBox="0 0 24 24"><title>Icons / Text Formatting / code</title><g fill="none" fill-rule="evenodd"><path d="M0 0h24v24H0z"/><path fill="currentColor" fill-rule="nonzero" d="M13.692 4.034a1 1 0 0 1 .707 1.225l-3.623 13.523a1 1 0 0 1-1.932-.518l3.623-13.523a1 1 0 0 1 1.225-.707zM6.828 8.02a1 1 0 0 1 0 1.414L4 12.262l2.828 2.828a1 1 0 0 1-1.414 1.414l-2.828-2.828-.102-.11a2 2 0 0 1-.005-2.603l.107-.115 2.828-2.829a1 1 0 0 1 1.414 0zm9.586 0a1 1 0 0 1 1.414 0l2.829 2.829.106.115a2 2 0 0 1-.004 2.604l-.102.109-2.829 2.828a1 1 0 1 1-1.414-1.414l2.828-2.829-2.828-2.828a1 1 0 0 1 0-1.414z"/></g></svg>
