<svg focusable="false" xmlns="http://www.w3.org/2000/svg" width="24" height="24" viewBox="0 0 24 24"><title>Icons / Utility / color-empty</title><g fill="none" fill-rule="evenodd"><path d="M0 0h24v24H0z"/><path fill="currentColor" fill-rule="nonzero" d="m12 2 5.66 5.66c3.12 3.12 3.12 8.19 0 11.31A7.98 7.98 0 0 1 12 21.31c-2.05 0-4.1-.78-5.66-2.34-3.054-3.054-3.119-7.975-.195-11.108l.195-.202L12 2zm4.24 15.56A5.945 5.945 0 0 0 18 13.32c0-1.6-.62-3.11-1.76-4.24L12 4.83 7.76 9.08A5.928 5.928 0 0 0 6 13.32c0 1.6.62 3.1 1.76 4.24a5.92 5.92 0 0 0 3.959 1.754l.281.006c1.6 0 3.11-.62 4.24-1.76z"/></g></svg>
