<svg focusable="false" xmlns="http://www.w3.org/2000/svg" width="24" height="24" viewBox="0 0 24 24"><title>Icons / Utility / comment-add</title><g fill="none" fill-rule="evenodd"><path d="M0 0h24v24H0z"/><path fill="currentColor" fill-rule="nonzero" d="M20 3a2 2 0 0 1 2 2v12a2 2 0 0 1-2 2h-6l-5.419 3.87a1 1 0 0 1-1.574-.697L7 22.057V19H4a2 2 0 0 1-2-2V5a2 2 0 0 1 2-2h16zm0 2H4v12h5v3l4.2-3H20V5zm-8 2a1 1 0 0 1 1 1v2h2a1 1 0 0 1 0 2h-2.001L13 14a1 1 0 0 1-2 0l-.001-2H9a1 1 0 0 1 0-2h2V8a1 1 0 0 1 1-1z"/></g></svg>
