<svg focusable="false" xmlns="http://www.w3.org/2000/svg" width="24" height="24" viewBox="0 0 24 24"><title>Icon / Utility / comment-feedback</title><g fill="none" fill-rule="evenodd"><path d="M0 0h24v24H0z"/><path fill="currentColor" fill-rule="nonzero" d="m14.851 3-1.986 1.999L4 5v12l5-.001V20l4.2-3.001L20 17V7.714l2-2.011V17a2 2 0 0 1-2 2h-6l-5.419 3.87a1 1 0 0 1-1.574-.697L7 22.057V19H4a2 2 0 0 1-2-2V5a2 2 0 0 1 2-2h10.851Zm1.235 1.161 2.49 2.49-6.957 6.988a.312.312 0 0 1-.233.1H9.367a.329.329 0 0 1-.332-.333v-2.019c0-.093.033-.172.1-.239l6.95-6.987Zm2.655-2.638a.661.661 0 0 1 .937 0l1.554 1.554a.661.661 0 0 1 0 .936L19.66 5.611l-2.49-2.49Z"/></g></svg>
