<svg focusable="false" xmlns="http://www.w3.org/2000/svg" width="24" height="24" viewBox="0 0 24 24"><title>Icons / Utility / comments</title><g fill="none" fill-rule="evenodd"><path d="M0 0h24v24H0z"/><path fill="currentColor" fill-rule="nonzero" d="M17 8h3.7a1.3 1.3 0 0 1 1.293 1.167L22 9.3v7.77a1.3 1.3 0 0 1-1.167 1.294l-.133.007h-1.95v2.27l-.008.09a.5.5 0 0 1-.716.358l-.066-.04-3.76-2.678h-3.9a1.3 1.3 0 0 1-1.293-1.168L9 17.071v-.706l2.8-1.994h3.9a1.3 1.3 0 0 0 1.293-1.168l.007-.132V8h3.7zm-3.3-6A1.3 1.3 0 0 1 15 3.3v7.77a1.3 1.3 0 0 1-1.3 1.3H9.8l-3.76 2.68a.5.5 0 0 1-.782-.318l-.008-.09v-2.27H3.3a1.3 1.3 0 0 1-1.3-1.3V3.3A1.3 1.3 0 0 1 3.3 2h10.4z"/></g></svg>
