<svg focusable="false" xmlns="http://www.w3.org/2000/svg" data-name="Layer 1" viewBox="0 0 42 42"><circle cx="21" cy="22.5" r="5" fill="var(--ukg_sys_color_featureIcon_light, #30CEBB)"/><path fill="var(--ukg_sys_color_featureIcon_dark, #005151)" d="M28.39 25.29a1 1 0 0 0 .61.21 1 1 0 0 0 .79-.39l5-6.5a1 1 0 0 0 .16-.92 1 1 0 0 0-.68-.65l-7.9-2.23-4.52-7.33a.62.62 0 0 0-.14-.14.93.93 0 0 0-.14-.14.69.69 0 0 0-.13-.05.8.8 0 0 0-.2-.07 1.81 1.81 0 0 0-.38 0 .68.68 0 0 0-.2.07.5.5 0 0 0-.13.05 1 1 0 0 0-.15.14l-.13.14-4.52 7.33-8 2.19a1 1 0 0 0-.68.65 1 1 0 0 0 .16.92L12 24.84V34a1 1 0 0 0 .47.85A1 1 0 0 0 13 35a1 1 0 0 0 .45-.11L21 31.12l7.55 3.77A1 1 0 0 0 29 35a1 1 0 0 0 .53-.15A1 1 0 0 0 30 34v-5.5a1 1 0 0 0-2 0v3.88l-6.55-3.27h-.07a1.17 1.17 0 0 0-.2-.06L21 29h-.18a1.17 1.17 0 0 0-.2.06h-.07L14 32.38V24.5a1 1 0 0 0-.21-.61l-4.1-5.33 6.86-1.93a1 1 0 0 0 .58-.43L21 9.91l3.87 6.29a1 1 0 0 0 .58.43l6.86 1.93-4.1 5.33a1 1 0 0 0 .18 1.4z"/></svg>
