<svg focusable="false" xmlns="http://www.w3.org/2000/svg" width="40" height="40" viewBox="0 0 40 40"><title>company-40</title><g fill="none" fill-rule="evenodd"><path d="M0 0h40v40H0z"/><path fill="var(--ukg_sys_color_featureIcon_light, #30CEBB)" fill-rule="nonzero" d="M20 16v17.01H8V16h12zm9 8v2h-2v-2h2zm-4 0v2h-2v-2h2zm4.01-4v2h-2v-2h2zM25 20v2h-2v-2h2zm4.01-4v2h-2v-2h2zM25 16v2h-2v-2h2zm4-4v2h-2v-2h2zm-4 0v2h-2v-2h2zm7-5v3H20V7h12z"/><path fill="var(--ukg_sys_color_featureIcon_dark, #005151)" fill-rule="nonzero" d="M32 6H20a1 1 0 0 0-1 1v25H9V18h7a1 1 0 0 0 0-2H8a1 1 0 0 0-1 1v16a1 1 0 0 0 1 1h24a1 1 0 0 0 1-1V7a1 1 0 0 0-1-1zm-1 2v24h-3v-4h-4v4h-3V8h10zM13 28.02v2h-2v-2h2zm4 0v2h-2v-2h2zm-4-4v2h-2v-2h2zm4 0v2h-2v-2h2zm-4-4v2h-2v-2h2zm4 0v2h-2v-2h2z"/></g></svg>
