<svg focusable="false" xmlns="http://www.w3.org/2000/svg" width="40" height="40" viewBox="0 0 40 40"><title>compass-40</title><g fill="none" fill-rule="evenodd"><path d="M0 0h40v40H0z"/><path fill="var(--ukg_sys_color_featureIcon_light, #30CEBB)" fill-rule="nonzero" d="M20.04 35.162A12.162 12.162 0 1 1 32.176 23c0 6.706-5.43 12.146-12.136 12.16Zm0-21.324a9.162 9.162 0 1 0 9.137 9.163 9.16 9.16 0 0 0-9.137-9.163Z"/><path fill="var(--ukg_sys_color_featureIcon_dark, #005151)" fill-rule="nonzero" d="M20 4.06a3.55 3.55 0 0 1 3.55 3.55 3.86 3.86 0 0 1-.8 2.272v.38a12.966 12.966 0 0 1 7.553 20.594.848.848 0 0 1-.746.375c-.28 0-.56-.28-.747-.468a.716.716 0 0 1 .187-.842 11.337 11.337 0 0 0 2.256-5.817l-.064.004H29.24a1 1 0 0 1 0-2h1.95l.071.004a11.354 11.354 0 0 0-3.84-7.615 11.34 11.34 0 0 0-6.437-2.773l.002.04v1.95a1 1 0 0 1-2 0v-1.95l.003-.051a11.346 11.346 0 0 0-7.067 3.244 11.316 11.316 0 0 0-3.24 7.165.857.857 0 0 1 .161-.014h1.95a1 1 0 0 1 0 2h-1.95a1.01 1.01 0 0 1-.13-.008 11.312 11.312 0 0 0 2.758 6.31 11.322 11.322 0 0 0 7.52 3.821l-.005-.088V32.1a1 1 0 0 1 2 0v2.043l-.006.093a11.306 11.306 0 0 0 5.87-2.257.95.95 0 0 1 .84-.187c.278.099.464.36.467.654.008.277-.093.545-.28.748A12.758 12.758 0 0 1 20.04 36a13.015 13.015 0 0 1-2.79-25.736v-.355c-.011-.012-.026-.018-.036-.03a3.537 3.537 0 0 1-.764-2.269A3.55 3.55 0 0 1 20 4.06Zm4.422 14.882a.75.75 0 0 1 .164.81l-3.065 7.615a.749.749 0 0 1-.687.47h-.008a.75.75 0 0 1-.69-.454l-1.27-2.965-2.962-1.186a.75.75 0 0 1 .002-1.393l7.707-3.065a.75.75 0 0 1 .809.168Zm-1.88 1.873-4.336 1.723 1.505.602a.752.752 0 0 1 .411.4l.682 1.591 1.737-4.316ZM20.5 8.96h-1a.79.79 0 0 0-.75.75v.319a12.97 12.97 0 0 1 2.5 0v-.32a.79.79 0 0 0-.75-.75Zm-.5-3.4a2.05 2.05 0 0 0-2.05 2.05 2.4 2.4 0 0 0 .065.438A2.227 2.227 0 0 1 19.5 7.46h1a2.228 2.228 0 0 1 1.492.592c.036-.145.055-.294.058-.443A2.05 2.05 0 0 0 20 5.56Z"/></g></svg>
