<svg focusable="false" xmlns="http://www.w3.org/2000/svg" width="24" height="24" viewBox="0 0 24 24"><title>Icon / Utility / compare</title><g fill="none" fill-rule="evenodd"><path d="M0 0h24v24H0z"/><path fill="currentColor" fill-rule="nonzero" d="M13 19V7.83c.85-.3 1.53-.98 1.83-1.83H18l-2.78 6.49c-.17.39-.23.84-.11 1.25.39 1.3 1.76 2.26 3.39 2.26 1.63 0 3.01-.96 3.39-2.26.12-.41.06-.86-.11-1.25L19 6h1c.55 0 1-.45 1-1s-.45-1-1-1h-5.17A2.99 2.99 0 0 0 12 2c-1.31 0-2.42.83-2.83 2H4c-.55 0-1 .45-1 1s.45 1 1 1h1l-2.78 6.49c-.17.39-.23.84-.11 1.25C2.49 15.04 3.87 16 5.5 16c1.63 0 3.01-.96 3.39-2.26.12-.41.06-.86-.11-1.25L6 6h3.17c.3.85.98 1.53 1.83 1.83V19m0 0H3c-.55 0-1 .45-1 1s.45 1 1 1h18c.55 0 1-.45 1-1s-.45-1-1-1h-8m7.37-6h-3.74l1.87-4.36L20.37 13zm-13 0H3.63L5.5 8.64 7.37 13zM12 6c-.55 0-1-.45-1-1s.45-1 1-1 1 .45 1 1-.45 1-1 1z"/></g></svg>
