<svg focusable="false" xmlns="http://www.w3.org/2000/svg" width="40" height="40" viewBox="0 0 40 40"><title>contact-phone-40</title><g fill="none" fill-rule="evenodd"><path d="M0 0h40v40H0z"/><path fill="var(--ukg_sys_color_featureIcon_light, #30CEBB)" fill-rule="nonzero" d="M37 35v1H23v-1a6.996 6.996 0 0 1 3.391-6A3.76 3.76 0 0 0 30 31.75a3.76 3.76 0 0 0 3.604-2.751A6.994 6.994 0 0 1 37 35zm-7-7c.78 0 1.531.128 2.233.364l-.033.086a2.25 2.25 0 0 1-4.41 0 .74.74 0 0 0-.022-.085c.7-.237 1.45-.365 2.232-.365zm-9-18a1 1 0 0 1 1 1v2h2a1 1 0 0 1 0 2h-2v2a1 1 0 0 1-2 0v-2h-2a1 1 0 0 1 0-2h2v-2a1 1 0 0 1 1-1z"/><path fill="var(--ukg_sys_color_featureIcon_dark, #005151)" fill-rule="nonzero" d="M28 4a3 3 0 0 1 3 3v8a1 1 0 0 1-2 0V7a1 1 0 0 0-1-1H6a1 1 0 0 0-1 1v22a1 1 0 0 0 1 1h17.76A8 8 0 0 1 30 27a8 8 0 0 1 8 8 1 1 0 0 1-2 0 6 6 0 1 0-12 0 1 1 0 0 1-2 0 7.9 7.9 0 0 1 .59-3H6a3 3 0 0 1-3-3V7a3 3 0 0 1 3-3zm-14.95 7.99a1 1 0 0 1 1 1v2.39a1 1 0 0 1-.55.9l-1.65.78a1 1 0 0 0-.51 1.21c.02.08.07.15.07.23a8 8 0 0 0 5.15 5.12l.16.05a1 1 0 0 0 1.21-.51l.8-1.62a1 1 0 0 1 .9-.55h2.39a1 1 0 0 1 1.03 1v3a1 1 0 0 1-1 1h-3c-5.523 0-10-4.477-10-10v-3a1 1 0 0 1 1-1zm16.99 5.79A4 4 0 0 1 34 21.82V25a1 1 0 0 1-1 1h-6a1 1 0 0 1-1-1v-3.09a.91.91 0 0 1 0-.17 4 4 0 0 1 4.04-3.96zm1.46 2.86a2.34 2.34 0 0 1-2.14 1.32L28 22a2 2 0 0 0 2 2 2 2 0 0 0 1.5-3.36z"/></g></svg>
