<svg focusable="false" xmlns="http://www.w3.org/2000/svg" width="40" height="40" viewBox="0 0 40 40"><title>controls-person-40</title><g fill="none" fill-rule="evenodd"><path d="M0 0h40v40H0z"/><path fill="var(--ukg_sys_color_featureIcon_light, #30CEBB)" fill-rule="nonzero" d="M37 35v1H23v-1a6.996 6.996 0 0 1 3.391-6A3.76 3.76 0 0 0 30 31.75h-.001l.197-.006a3.76 3.76 0 0 0 3.406-2.747A6.996 6.996 0 0 1 37 35zm-7-7c.778 0 1.527.127 2.226.361l-.026.089a2.25 2.25 0 0 1-4.4 0 .767.767 0 0 0-.024-.089A6.985 6.985 0 0 1 30 28zm-6-4a1 1 0 0 1 0 2H9a1 1 0 0 1 0-2h15zm1-7a1 1 0 0 1 0 2H9a1 1 0 0 1 0-2h16zm0-7a1 1 0 0 1 0 2H9a1 1 0 0 1 0-2h16z"/><path fill="var(--ukg_sys_color_featureIcon_dark, #005151)" fill-rule="nonzero" d="M30 27a8 8 0 0 0-6.24 3H6a1 1 0 0 1-1-1V7a1 1 0 0 1 1-1h22a1 1 0 0 1 1 1v6a1 1 0 0 0 2 0V7a3 3 0 0 0-3-3H6a3 3 0 0 0-3 3v22a3 3 0 0 0 3 3h16.59a7.9 7.9 0 0 0-.59 3 1 1 0 0 0 2 0 6 6 0 1 1 12 0 1 1 0 0 0 2 0 8 8 0 0 0-8-8zm1.3-8.76a1.54 1.54 0 0 0 .2-.74 1.5 1.5 0 0 0-3 0c.003.26.072.514.2.74a4 4 0 1 0 2.6 0zM14 23.01a2 2 0 1 1 0 4 2 2 0 0 1 0-4zm16-2.76a2 2 0 0 0 1.74 1h.11c.101.237.152.492.15.75a2 2 0 1 1-4 0 1.86 1.86 0 0 1 .15-.75h.11a2 2 0 0 0 1.74-1zM20 16a2 2 0 1 1 0 4 2 2 0 0 1 0-4zm-6-7a2 2 0 1 1 0 4 2 2 0 0 1 0-4z"/></g></svg>
