<svg focusable="false" xmlns="http://www.w3.org/2000/svg" width="40" height="40" viewBox="0 0 40 40"><title>course-completion-40</title><g fill="none" fill-rule="evenodd"><path d="M0 0h40v40H0z"/><path fill="var(--ukg_sys_color_featureIcon_light, #30CEBB)" fill-rule="nonzero" d="m19.984 6 13.365 5.142-.357.922-5.801 2.236.796.017v6.698l-.988.03-.422.007c-1.826.06-3.619.515-5.255 1.335l-1.316.66-1.315-.66a12.673 12.673 0 0 0-5.677-1.343h-.999l-.001-7.05-5.015-1.93-.34-.929L19.985 6z"/><path fill="var(--ukg_sys_color_featureIcon_dark, #005151)" fill-rule="nonzero" d="M33.707 28.287c.39.391.39 1.024 0 1.416l-3.995 4.004a.995.995 0 0 1-1.413 0L26.3 31.705a1 1 0 1 1 1.413-1.416l1.292 1.294 3.29-3.296a.996.996 0 0 1 1.412 0zm-9.989 0c.39.391.39 1.024 0 1.416l-3.996 4.004a.995.995 0 0 1-1.412 0l-1.999-2.002a1 1 0 1 1 1.413-1.416l1.292 1.294 3.29-3.296a.996.996 0 0 1 1.412 0zm-9.99 0a1.001 1.001 0 0 1 0 1.416l-3.995 4.004a.994.994 0 0 1-.575.284L9.027 34a.995.995 0 0 1-.706-.293l-1.998-2.002a1.003 1.003 0 0 1 0-1.417.998.998 0 0 1 1.412 0l1.292 1.295 3.29-3.296a.996.996 0 0 1 1.412 0zm6.279-18.784a1.5 1.5 0 0 1 1.498 1.502c0 .027-.007.052-.008.079l5.51 2.214 5.627-2.17a1 1 0 0 1 .717 1.87l-5.354 2.064v2.007a1 1 0 1 1-1.998 0v-1.237l-5.634 2.17a1.008 1.008 0 0 1-.717 0l-6.635-2.552v4.744c2.3.09 4.048.503 5.71 1.335l.773.388.776-.388a12.831 12.831 0 0 1 5.717-1.354H27a1 1 0 0 1 0 2.002h-1.01c-1.665 0-3.334.396-4.824 1.142l-1.222.612a.987.987 0 0 1-.893 0l-1.222-.612c-1.596-.8-3.335-1.142-5.814-1.142a1 1 0 0 1-.999-1V14.68l-4.374-1.683a1.001 1.001 0 0 1 .716-1.87l12.649 4.869 4.26-1.643-4.632-1.862c-.042-.017-.07-.05-.109-.072a1.495 1.495 0 0 1-1.017-1.415 1.5 1.5 0 0 1 1.499-1.502z"/></g></svg>
