<svg focusable="false" xmlns="http://www.w3.org/2000/svg" width="24" height="24" viewBox="0 0 24 24"><title>Icons / Utility / dashboard</title><g fill="none" fill-rule="evenodd"><path d="M0 0h24v24H0z"/><path fill="currentColor" fill-rule="nonzero" d="M12 3c6.075 0 11 4.925 11 11a10.957 10.957 0 0 1-2.004 6.332l-.23.314a.999.999 0 0 1-1.798-.603c0-.187.052-.362.14-.512l.065-.095a9.005 9.005 0 0 0 1.152-2.01l-1.237-.285a1 1 0 1 1 .45-1.949l1.337.31c.083-.492.125-.994.125-1.502a8.96 8.96 0 0 0-1.182-4.462l-1.32 1.069a1 1 0 1 1-1.259-1.554l1.397-1.132a8.979 8.979 0 0 0-5.635-2.866L13 7a1 1 0 0 1-2 0V5.055A8.979 8.979 0 0 0 5.364 7.92L6.76 9.053a1 1 0 0 1-1.259 1.554l-1.32-1.069A8.959 8.959 0 0 0 3 14c0 .508.042 1.01.125 1.502l1.338-.31a1 1 0 0 1 .45 1.949l-1.238.286a8.956 8.956 0 0 0 .966 1.756l.25.337a1.001 1.001 0 0 1-1.572 1.237l-.006-.009A10.956 10.956 0 0 1 1 14C1 7.925 5.925 3 12 3zm2.82 6.127a.4.4 0 0 1 .148.368l-.78 5.737a2 2 0 1 1-3.514-1.492l3.584-4.546a.4.4 0 0 1 .561-.067z"/></g></svg>
