<svg focusable="false" xmlns="http://www.w3.org/2000/svg" width="24" height="24" viewBox="0 0 24 24"><title>Icons / Utility / delete</title><g fill="none" fill-rule="evenodd"><path d="M0 0h24v24H0z"/><path fill="currentColor" fill-rule="nonzero" d="M6 19c0 1.1.9 2 2 2h8c1.1 0 2-.9 2-2V7H6v12zM8 9h8v9c0 .55-.45 1-1 1H9c-.55 0-1-.45-1-1V9zm2 1.571a.5.5 0 1 1 1 0v6.858a.5.5 0 1 1-1 0V10.57zm3 0a.5.5 0 1 1 1 0v6.858a.5.5 0 1 1-1 0V10.57zM15.5 4l-.71-.71c-.18-.18-.44-.29-.7-.29H9.91c-.26 0-.52.11-.7.29L8.5 4H6c-.55 0-1 .45-1 1s.45 1 1 1h12c.55 0 1-.45 1-1s-.45-1-1-1h-2.5z"/></g></svg>
