<svg focusable="false" xmlns="http://www.w3.org/2000/svg" width="40" height="40" viewBox="0 0 40 40"><title>details-person-40</title><g fill="none" fill-rule="evenodd"><path d="M0 0h40v40H0z"/><path fill="var(--ukg_sys_color_featureIcon_light, #30CEBB)" fill-rule="nonzero" d="M38 35v1H24v-1a6.996 6.996 0 0 1 3.391-6A3.76 3.76 0 0 0 31 31.75a3.76 3.76 0 0 0 3.604-2.751A6.994 6.994 0 0 1 38 35zm-7-7c.78 0 1.531.128 2.233.364l-.033.086a2.25 2.25 0 0 1-4.41 0 .74.74 0 0 0-.022-.085c.7-.237 1.45-.365 2.232-.365zm-20-3a1 1 0 0 1 0 2H9a1 1 0 0 1 0-2h2zm0-4a1 1 0 0 1 0 2H9a1 1 0 0 1 0-2h2zm6-13a1 1 0 0 1 1 1v8a1 1 0 0 1-1 1H9a1 1 0 0 1-1-1V9a1 1 0 0 1 1-1h8z"/><path fill="var(--ukg_sys_color_featureIcon_dark, #005151)" fill-rule="nonzero" d="M29 4a1 1 0 0 1 1 1v10a1 1 0 0 1-2 0V6H6v24h18.8a8 8 0 0 1 6.2-3 8 8 0 0 1 8 8 1 1 0 0 1-2 0 6 6 0 1 0-12 0 1 1 0 0 1-2 0 7.94 7.94 0 0 1 .61-3H5a1 1 0 0 1-1-1V5a1 1 0 0 1 1-1zm-7 21a1 1 0 0 1 0 2h-7a1 1 0 0 1 0-2h7zm9-7 .217.006a4 4 0 0 1 3.373 2.234l2.11 4.32a1 1 0 0 1-.05 1 1 1 0 0 1-.85.47h-9.6a1 1 0 0 1-.85-.47 1 1 0 0 1-.05-1l2.11-4.32A4 4 0 0 1 31 18zm0 2-.006.128a1.25 1.25 0 0 1-1.244 1.122h-.6a2.09 2.09 0 0 0-.15.71V22a2 2 0 1 0 4 0 1.86 1.86 0 0 0-.15-.75h-.6c-.69 0-1.25-.56-1.25-1.25zm-7 1a1 1 0 0 1 0 2h-9a1 1 0 0 1 0-2h9zm1-5a1 1 0 0 1 0 2h-4a1 1 0 0 1 0-2h4zm-12-2a3 3 0 0 1 3 3h-6a3 3 0 0 1 3-3zm12-2a1 1 0 0 1 0 2h-4a1 1 0 0 1 0-2h4zm-11.99-2a1.5 1.5 0 1 1 0 3 1.5 1.5 0 0 1 0-3zM25 8a1 1 0 0 1 0 2h-4a1 1 0 0 1 0-2h4z"/></g></svg>
