<svg focusable="false" xmlns="http://www.w3.org/2000/svg" width="40" height="40" viewBox="0 0 40 40"><title>directory-40</title><g fill="none" fill-rule="evenodd"><path d="M0 0h40v40H0z"/><path fill="var(--ukg_sys_color_featureIcon_light, #30CEBB)" fill-rule="nonzero" d="M16.21 7H12a2 2 0 0 0-2 2v22a2 2 0 0 0 2 2h4.21V7z"/><path fill="var(--ukg_sys_color_featureIcon_dark, #005151)" fill-rule="nonzero" d="M31 6a3 3 0 0 1 3 3v16a1 1 0 0 1-2 0V9a1 1 0 0 0-1-1H12a1 1 0 0 0-1 1v22a1 1 0 0 0 1 1h19a1 1 0 0 0 1-1v-2a1 1 0 0 1 2 0v2a3 3 0 0 1-3 3H12a3 3 0 0 1-3-3v-1H7a1 1 0 0 1 0-2h2v-4H7a1 1 0 0 1 0-2h2v-4H7a1 1 0 0 1 0-2h2v-4H7a1 1 0 0 1 0-2h2V9a3 3 0 0 1 3-3zm-7 15a5 5 0 0 1 5 5H19a5 5 0 0 1 5-5zm0-7a2.75 2.75 0 1 1 0 5.5 2.75 2.75 0 0 1 0-5.5z"/></g></svg>
