<svg focusable="false" xmlns="http://www.w3.org/2000/svg" width="40" height="40" viewBox="0 0 40 40"><title>document-settings-40</title><g fill="none" fill-rule="evenodd"><path d="M0 0h40v40H0z"/><path fill="var(--ukg_sys_color_featureIcon_light, #30CEBB)" fill-rule="nonzero" d="M28.5 26a2.5 2.5 0 1 1 0 5 2.5 2.5 0 0 1 0-5zM17 26a1 1 0 0 1 0 2h-7a1 1 0 0 1 0-2h7zm1-4a1 1 0 0 1 0 2h-8a1 1 0 0 1 0-2h8zm5-4a1 1 0 0 1 0 2H10a1 1 0 0 1 0-2h13zm-8-4a1 1 0 0 1 0 2h-5a1 1 0 0 1 0-2h5zm0-4a1 1 0 0 1 0 2h-5a1 1 0 0 1 0-2h5z"/><path fill="var(--ukg_sys_color_featureIcon_dark, #005151)" fill-rule="nonzero" d="M30.5 20a1 1 0 0 1 1 1v1.73c.16.09.33.18.49.29l1.5-.87a1 1 0 0 1 .76-.1c.255.075.473.242.61.47l2 3.46a1 1 0 0 1-.37 1.37l-1.5.87v.56l1.5.87a1 1 0 0 1 .37 1.35l-2 3.46a1.06 1.06 0 0 1-.61.47 1 1 0 0 1-.76-.1L32 34c-.16.1-.33.2-.49.28V36a1 1 0 0 1-1.01 1h-4a1 1 0 0 1-1-1v-1.74A4.91 4.91 0 0 1 25 34l-1.5.87a1 1 0 0 1-.76.1 1.06 1.06 0 0 1-.61-.47l-2-3.46a1 1 0 0 1 .37-1.37l1.5-.87v-.56l-1.5-.87a1 1 0 0 1-.37-1.37l2-3.46a1.06 1.06 0 0 1 .61-.47 1 1 0 0 1 .76.1L25 23a4.91 4.91 0 0 1 .5-.28V21a1 1 0 0 1 1-1h4zm-1 2h-2v1.38a1 1 0 0 1-.64.93 4.77 4.77 0 0 0-1.18.68 1 1 0 0 1-1.12.08l-1.19-.69-1 1.74 1.19.69a1 1 0 0 1 .49 1 4.65 4.65 0 0 0 0 1.36 1 1 0 0 1-.49 1l-1.19.69 1 1.74 1.19-.69a1 1 0 0 1 1.12.08 4.48 4.48 0 0 0 1.18.68 1 1 0 0 1 .64.93V35h2v-1.38a1 1 0 0 1 .63-.93A4.54 4.54 0 0 0 31.3 32a1 1 0 0 1 1.13-.08l1.19.69 1-1.74-1.19-.69a1 1 0 0 1-.49-1 6.58 6.58 0 0 0 .06-.68 6.58 6.58 0 0 0-.06-.69 1 1 0 0 1 .49-1l1.19-.69-1-1.74-1.19.69A1 1 0 0 1 31.3 25a4.12 4.12 0 0 0-1.16-.67 1 1 0 0 1-.64-.94V22zm-.5-7.06a1.1 1.1 0 0 0-.06-.26.38.38 0 0 0 0-.1 1.08 1.08 0 0 0-.2-.29l-9-8.95a.7.7 0 0 0-.29-.19h-.09a1.19 1.19 0 0 0-.26-.05H6a1 1 0 0 0-1 1V32a1 1 0 0 0 1 1h12a1 1 0 0 0 0-2H7V7.05h11v8a1 1 0 0 0 1 1h8v1a1 1 0 0 0 2 0v-2.11zM20 14V8.45l.57.57 5 5L20 14z"/></g></svg>
