<svg focusable="false" xmlns="http://www.w3.org/2000/svg" width="40" height="40" viewBox="0 0 40 40"><title>document-check-shield-40</title><g fill="none" fill-rule="evenodd"><path d="M0 0h40v40H0z"/><path fill="var(--ukg_sys_color_featureIcon_dark, #005151)" fill-rule="nonzero" d="M24.077 24.02v5a8.08 8.08 0 0 0 .28 2H8.077v-24h11v8a1 1 0 0 0 1 1h8v5a1 1 0 0 0 2 0v-6a1 1 0 0 0-.29-.71l-9-9a1 1 0 0 0-.71-.29h-13a1 1 0 0 0-1 1v26a1 1 0 0 0 1 1h18.06a8.27 8.27 0 0 0 4.62 3.86l.32.14.32-.11a8.32 8.32 0 0 0 5.68-7.89v-5h-12zm-3-15.59 5.59 5.59h-5.59V8.43zm12.49 20.16-3.92 3.92a.75.75 0 0 1-1.06 0l-2-2a.75.75 0 1 1 1.06-1.06l1.43 1.47 3.39-3.39a.75.75 0 1 1 1.06 1.06h.04z"/><path fill="var(--ukg_sys_color_featureIcon_light, #30CEBB)" fill-rule="nonzero" d="M21.077 26.02a1 1 0 1 1 0 2h-9a1 1 0 0 1 0-2h9zm0-4a1 1 0 1 1 0 2h-9a1 1 0 0 1 0-2h9zm4-4a1 1 0 1 1 0 2h-13a1 1 0 0 1 0-2h13zm-9-4a1 1 0 1 1 0 2h-4a1 1 0 0 1 0-2h4zm0-4a1 1 0 1 1 0 2h-4a1 1 0 0 1 0-2h4z"/></g></svg>
