<svg focusable="false" xmlns="http://www.w3.org/2000/svg" width="24" height="24" viewBox="0 0 24 24"><title>Icons / Utility / document-pdf</title><g fill="none" fill-rule="evenodd"><path d="M0 0h24v24H0z"/><path fill="currentColor" fill-rule="nonzero" d="m14 2 6 6v12c0 1.05-.82 1.918-1.851 1.994L18 22H5.99c-1.05 0-1.909-.82-1.985-1.851L4 20l.01-16c0-1.05.81-1.918 1.841-1.994L6 2h8zm-1 12h-2a.494.494 0 0 0-.492.41l-.008.09v5c0 .249.174.45.41.492L11 20h2c.781 0 1.42-.593 1.493-1.355l.007-.145v-3c0-.83-.67-1.5-1.5-1.5zm4.75 0H16.5c-.51 0-.935.388-.993.884L15.5 15v4.25c0 .41.34.75.75.75a.757.757 0 0 0 .743-.65l.007-.1V18h.75c.41 0 .75-.34.75-.75a.757.757 0 0 0-.65-.743l-.1-.007H17v-1h.75c.41 0 .75-.34.75-.75s-.34-.75-.75-.75zM8 14H6.5c-.55 0-1 .45-1 1v4.25c0 .41.34.75.75.75s.75-.34.75-.75V18h1c.83 0 1.5-.67 1.5-1.5v-1c0-.83-.67-1.5-1.5-1.5zm5 1.5v3h-1v-3h1zM13 4H6v8h12V9h-5V4zM7 16.5h1v-1H7v1z"/></g></svg>
