<svg focusable="false" xmlns="http://www.w3.org/2000/svg" width="40" height="40" viewBox="0 0 40 40"><title>document-40</title><g fill="none" fill-rule="evenodd"><path d="M0 0h40v40H0z"/><path fill="var(--ukg_sys_color_featureIcon_light, #30CEBB)" fill-rule="nonzero" d="M27 27a1 1 0 0 1 0 2H13a1 1 0 0 1 0-2h14zm0-4a1 1 0 0 1 0 2H13a1 1 0 0 1 0-2h14zm0-4a1 1 0 0 1 0 2H13a1 1 0 0 1 0-2h14zm-9-4a1 1 0 0 1 0 2h-5a1 1 0 0 1 0-2h5zm0-4a1 1 0 0 1 0 2h-5a1 1 0 0 1 0-2h5z"/><path fill="var(--ukg_sys_color_featureIcon_dark, #005151)" fill-rule="nonzero" d="M31 27a1 1 0 0 0 1-1V16a1 1 0 0 0-.29-.71l-9-8.95A1 1 0 0 0 22 6H9a1 1 0 0 0-1 1v26a1 1 0 0 0 1 1h22a1 1 0 0 0 1-1v-3a1 1 0 0 0-2 0v2H10V8h11v8a1 1 0 0 0 1 1h8v9a1 1 0 0 0 1 1zm-8-12V9.43l3.89 3.87 1.69 1.7H23z"/></g></svg>
