<svg focusable="false" xmlns="http://www.w3.org/2000/svg" width="40" height="40" viewBox="0 0 40 40"><title>document-check-circle-40</title><g fill="none" fill-rule="evenodd"><path d="M0 0h40v40H0z"/><path fill="var(--ukg_sys_color_featureIcon_dark, #005151)" fill-rule="nonzero" d="M30.077 25.02a6 6 0 0 0-6 6h-16V7.07h11v8a1 1 0 0 0 1 1h8v6a1 1 0 0 0 2 0v-7.05a1 1 0 0 0-.29-.71l-9-8.95a1 1 0 0 0-.71-.29h-13a1 1 0 0 0-1 1v25.95a1 1 0 0 0 1 1h17.35a6 6 0 1 0 5.65-8zm-9-16.55 4.33 4.31 1.25 1.24h-5.58V8.47zm12.49 21.12-3.92 3.92a.75.75 0 0 1-.53.22.79.79 0 0 1-.53-.22l-2-2a.75.75 0 0 1 0-1.06.74.74 0 0 1 1.06 0l1.43 1.47 3.39-3.39a.75.75 0 1 1 1.06 1.06h.04z"/><path fill="var(--ukg_sys_color_featureIcon_light, #30CEBB)" fill-rule="nonzero" d="M22.077 26.02a1 1 0 1 1 0 2h-11a1 1 0 0 1 0-2zm3-4a1 1 0 1 1 0 2h-14a1 1 0 0 1 0-2zm0-4a1 1 0 1 1 0 2h-14a1 1 0 0 1 0-2zm-9-4a1 1 0 1 1 0 2h-5a1 1 0 0 1 0-2zm0-4a1 1 0 1 1 0 2h-5a1 1 0 0 1 0-2z"/></g></svg>
