<svg focusable="false" xmlns="http://www.w3.org/2000/svg" width="40" height="40" viewBox="0 0 40 40"><title>document-dollar-40</title><g fill="none" fill-rule="evenodd"><path d="M0 0h40v40H0z"/><path fill="var(--ukg_sys_color_featureIcon_light, #30CEBB)" fill-rule="nonzero" d="M6 6.006h23v6H6z"/><path fill="var(--ukg_sys_color_featureIcon_dark, #005151)" fill-rule="nonzero" d="M29 5.006a1 1 0 0 1 1 1v12a1 1 0 1 1-2 0v-11H7v24h14.26a8.24 8.24 0 0 1-.26-2 8 8 0 0 1 8-8 8 8 0 0 1 7 11.81 1.012 1.012 0 1 1-1.76-1 6 6 0 1 0-2.43 2.43 1.012 1.012 0 0 1 1 1.76 8 8 0 0 1-10.73-3H6a1 1 0 0 1-1-1v-26a1 1 0 0 1 1-1zm0 19.25a.75.75 0 0 1 .75.75v.31a2.22 2.22 0 0 1 1.31.63.75.75 0 0 1-1.06 1.06.75.75 0 0 0-.5-.25h-1a.75.75 0 0 0 0 1.5h1a2.24 2.24 0 0 1 .25 4.47v.28a.76.76 0 0 1-.75.75.76.76 0 0 1-.75-.75v-.31a2.22 2.22 0 0 1-1.31-.63.75.75 0 1 1 1.06-1.06.75.75 0 0 0 .5.25h1a.75.75 0 1 0 0-1.5h-1a2.25 2.25 0 0 1-.25-4.48v-.27a.75.75 0 0 1 .75-.75zm-13.71-1.96a1.004 1.004 0 0 1 1.42 1.42l-4 4a1 1 0 0 1-1.42 0l-2-2a1.004 1.004 0 1 1 1.42-1.42l1.29 1.3zm3.71 3.71a1 1 0 1 1 0 2h-2a1 1 0 1 1 0-2zm2-4a1 1 0 1 1 0 2h-1a1 1 0 1 1 0-2zm-5.71-7.71a1.004 1.004 0 0 1 1.42 1.42l-4 4a1 1 0 0 1-1.42 0l-2-2a1.004 1.004 0 1 1 1.42-1.42l1.29 1.3zm9.71 3.71a1 1 0 1 1 0 2h-8a1 1 0 1 1 0-2zm0-4a1 1 0 1 1 0 2h-5a1 1 0 1 1 0-2z"/></g></svg>
