<svg focusable="false" xmlns="http://www.w3.org/2000/svg" width="24" height="24" viewBox="0 0 24 24"><title>Icons / Utility / duplicate</title><g fill="none" fill-rule="evenodd"><path d="M0 0h24v24H0z"/><path fill="currentColor" fill-rule="nonzero" d="M4 6v14h14c0 1.05-.82 1.918-1.851 1.994L16 22H4c-1.05 0-1.918-.82-1.994-1.851L2 20V8c0-1.05.82-1.918 1.851-1.994L4 6zm4-4h12c1.05 0 1.918.82 1.994 1.851L22 4v12c0 1.05-.82 1.918-1.851 1.994L20 18H8c-1.05 0-1.918-.82-1.994-1.851L6 16V4c0-1.05.82-1.918 1.851-1.994L8 2h12zm12 2H8v12h12V4zm-6 2c.55 0 1 .45 1 1v2h2c.55 0 1 .45 1 1s-.45 1-1 1h-2v2c0 .55-.45 1-1 1s-1-.45-1-1v-2h-2c-.55 0-1-.45-1-1s.45-1 1-1h2V7c0-.55.45-1 1-1z"/></g></svg>
