<svg focusable="false" xmlns="http://www.w3.org/2000/svg" width="24" height="24" viewBox="0 0 24 24"><title>Icons / Utility / email-unsubscribe</title><g fill="none" fill-rule="evenodd"><path d="M0 0h24v24H0z"/><path fill="currentColor" fill-rule="nonzero" d="M17.5 11a5.5 5.5 0 1 1 0 11 5.5 5.5 0 0 1 0-11zM19 2c1.05 0 1.918.82 1.994 1.851L21 4l.001 5.866a7.448 7.448 0 0 0-2-.716L19 5.513l-6.963 4.328a2 2 0 0 1-1.966.082l-.152-.086L3 5.5V16h7.016a7.612 7.612 0 0 0 .134 2H3c-1.05 0-1.918-.82-1.994-1.851L1 16l.01-12c0-1.05.81-1.918 1.841-1.994L3 2h16zm.75 13.75h-4.5a.75.75 0 0 0-.102 1.493l.102.007h4.5a.75.75 0 0 0 .102-1.493l-.102-.007zM17.4 4H4.607l6.37 3.963L17.4 4z"/></g></svg>
