<svg focusable="false" xmlns="http://www.w3.org/2000/svg" width="24" height="24" viewBox="0 0 24 24"><title>Icons / Utility / email-notification</title><g fill="none" fill-rule="evenodd"><path d="M0 0h24v24H0z"/><path fill="currentColor" fill-rule="nonzero" d="M19 21.006A1.997 1.997 0 0 1 17 23c-1.105 0-2-.893-2-1.994 0-.003.446-.002 1.097 0h1.283c.924-.003 1.625-.012 1.62 0zM17 10a1 1 0 0 1 .992 1.125A4 4 0 0 1 21 15v3.01l.845.825a.524.524 0 0 1 .136.529.5.5 0 0 1-.48.636H12.5a.5.5 0 0 1-.478-.646.524.524 0 0 1 .127-.515l.01-.01.841-.821V15a4.002 4.002 0 0 1 3.007-3.876A1 1 0 0 1 17 10zm2-8c1.05 0 1.918.82 1.994 1.851L21 4l.001 5.866a7.448 7.448 0 0 0-2-.716L19 5.513l-6.963 4.328a2 2 0 0 1-1.966.082l-.152-.086L3 5.5V16h7.016a7.612 7.612 0 0 0 .134 2H3c-1.05 0-1.918-.82-1.994-1.851L1 16l.01-12c0-1.05.81-1.918 1.841-1.994L3 2h16zm-1.6 2H4.607l6.37 3.963L17.4 4z"/></g></svg>
