<svg focusable="false" xmlns="http://www.w3.org/2000/svg" width="24" height="24" viewBox="0 0 24 24"><title>error-filled</title><g fill="none" fill-rule="evenodd"><path d="M0 0h24v24H0z"/><path fill="currentColor" fill-rule="nonzero" d="m13.416 2.087 8.497 8.497a2 2 0 0 1 0 2.832l-8.497 8.497a2.003 2.003 0 0 1-2.832 0l-8.497-8.497a2.003 2.003 0 0 1 0-2.832l8.497-8.497a2.003 2.003 0 0 1 2.832 0ZM11.998 15c-.841 0-1.518.677-1.518 1.517 0 .84.677 1.516 1.518 1.516.84 0 1.517-.676 1.517-1.516S12.838 15 11.998 15Zm.004-8.5a1.17 1.17 0 0 0-1.167 1.167v4.666a1.17 1.17 0 0 0 1.167 1.167 1.17 1.17 0 0 0 1.168-1.167V7.667A1.17 1.17 0 0 0 12.002 6.5Z"/></g></svg>
