<svg focusable="false" xmlns="http://www.w3.org/2000/svg" width="24" height="24" viewBox="0 0 24 24"><title>error-empty</title><g fill="none" fill-rule="evenodd"><path d="M0 0h24v24H0z"/><path fill="currentColor" fill-rule="nonzero" d="m13.414 2.1 8.485 8.486a2 2 0 0 1 0 2.828L13.414 21.9a2 2 0 0 1-2.828 0L2.1 13.414a2 2 0 0 1 0-2.828L10.586 2.1a2 2 0 0 1 2.828 0Zm-.707 2.122a1 1 0 0 0-1.414 0l-7.071 7.07a1 1 0 0 0 0 1.415l7.07 7.071a1 1 0 0 0 1.415 0l7.071-7.07a1 1 0 0 0 0-1.415ZM11.997 15c.841 0 1.518.677 1.518 1.517 0 .84-.677 1.516-1.517 1.516-.841 0-1.518-.676-1.518-1.516S11.157 15 11.998 15Zm.005-8.5a1.17 1.17 0 0 1 1.168 1.167v4.666a1.17 1.17 0 0 1-1.168 1.167 1.17 1.17 0 0 1-1.167-1.167V7.667A1.17 1.17 0 0 1 12.002 6.5Z"/></g></svg>
