<svg focusable="false" xmlns="http://www.w3.org/2000/svg" width="40" height="40" viewBox="0 0 40 40"><title>exit-40</title><g fill="none" fill-rule="evenodd"><path d="M0 0h40v40H0z"/><path fill="var(--ukg_sys_color_featureIcon_light, #30CEBB)" fill-rule="nonzero" d="M21 25h-1V12.76a2 2 0 0 0-1.32-1.87l-7.25-2.6A1.82 1.82 0 0 0 9 10v19a2 2 0 0 0 1.32 1.87l7.25 2.6A1.82 1.82 0 0 0 20 31.76V31h1v-6z"/><path fill="var(--ukg_sys_color_featureIcon_dark, #005151)" fill-rule="nonzero" d="M24 7a3 3 0 0 1 3 3v5a1 1 0 0 1-2 0v-5a1 1 0 0 0-1-1h-7.62l2.62.94a3 3 0 0 1 2 2.82V25a1 1 0 0 1-2 0V12.76a1 1 0 0 0-.66-.93l-7.24-2.6A.82.82 0 0 0 10 10v19a1 1 0 0 0 .66.93l7.25 2.6a.82.82 0 0 0 1.09-.77V30a1 1 0 0 1 2 0h3a1 1 0 0 0 1-1v-6a1 1 0 0 1 2 0v6a3 3 0 0 1-3 3h-3a2.81 2.81 0 0 1-2.8 2.58 2.84 2.84 0 0 1-.95-.17L10 31.82A3 3 0 0 1 8 29V10a3 3 0 0 1 .09-.69l.047-.174A3 3 0 0 1 11 7zm5.29 6.29a1.004 1.004 0 0 1 1.42 0l5 5a1 1 0 0 1 0 1.42l-5 5A1 1 0 0 1 30 25a1 1 0 0 1-.71-1.71l3.3-3.29H24a1 1 0 0 1 0-2h8.59l-3.3-3.29a1.004 1.004 0 0 1 0-1.42z"/></g></svg>
