<svg focusable="false" xmlns="http://www.w3.org/2000/svg" width="24" height="24" viewBox="0 0 24 24"><title>Icons / Utility / export</title><g fill="none" fill-rule="evenodd"><path d="M0 0h24v24H0z"/><path fill="currentColor" fill-rule="nonzero" d="M8 9v2H4v9h16v-9h-4V9h4a2 2 0 0 1 2 2v9a2 2 0 0 1-2 2H4a2 2 0 0 1-2-2v-9a2 2 0 0 1 2-2h4zm4.705-6.707 3.59 3.59a.996.996 0 1 1-1.41 1.41l-1.89-1.88v11.67c0 .55-.45 1-1 1s-1-.45-1-1V5.412l-1.88 1.88a.996.996 0 1 1-1.41-1.41l3.59-3.59a.996.996 0 0 1 1.41 0z"/></g></svg>
