<svg focusable="false" xmlns="http://www.w3.org/2000/svg" width="24" height="24" viewBox="0 0 24 24"><title>Icons / Utility / favorite-off</title><g fill="none" fill-rule="evenodd"><path d="M0 0h24v24H0z"/><path fill="currentColor" fill-rule="nonzero" d="M16.5 3C19.58 3 22 5.42 22 8.5c0 3.78-3.4 6.86-8.55 11.53l-.137.114c-.8.607-2.007.58-2.763-.104l-.34-.31C5.25 15.223 2 12.196 2 8.5 2 5.42 4.42 3 7.5 3c1.74 0 3.41.81 4.5 2.09C13.09 3.81 14.76 3 16.5 3zm0 2c-1.54 0-3.04.99-3.56 2.36-.151.374-.515.64-.94.64a1 1 0 0 1-.948-.682C10.509 5.97 9.024 5 7.5 5 5.5 5 4 6.5 4 8.5c0 2.89 3.14 5.74 7.9 10.05l.1.1.1-.1C16.86 14.24 20 11.39 20 8.5c0-2-1.5-3.5-3.5-3.5z"/></g></svg>
