<svg focusable="false" xmlns="http://www.w3.org/2000/svg" width="40" height="40" viewBox="0 0 40 40"><title>feedback-people-40</title><g fill="none" fill-rule="evenodd"><path d="M0 0h40v40H0z"/><path fill="var(--ukg_sys_color_featureIcon_light, #30CEBB)" fill-rule="nonzero" d="M18.045 29.648a7 7 0 0 1 7.465.992 7.9 7.9 0 0 1 .88-.64 3.72 3.72 0 0 0 7.19 0A7 7 0 0 1 37 36v1H14v-1a7 7 0 0 1 4.045-6.352zM30 29a7 7 0 0 1 2.18.37.43.43 0 0 0 0 .12 2.25 2.25 0 0 1-4.39 0 .43.43 0 0 0-.04-.12A7.27 7.27 0 0 1 30 29zM16 17a1 1 0 0 1 0 2H9a1 1 0 0 1 0-2zm13.5-3a1.5 1.5 0 1 1 0 3 1.5 1.5 0 0 1 0-3zM20 12a1 1 0 0 1 0 2H9a1 1 0 0 1 0-2zm6-10a5 5 0 1 1-1 9.9V10a2 2 0 0 0-2-2h-1.9A5 5 0 0 1 26 2z"/><path fill="var(--ukg_sys_color_featureIcon_dark, #005151)" fill-rule="nonzero" d="M30 28a7.91 7.91 0 0 0-4.5 1.39A8 8 0 0 0 13 36a1 1 0 0 0 2 0 6 6 0 0 1 8.93-5.23A8 8 0 0 0 22 36a1 1 0 0 0 2 0 6 6 0 1 1 12 0 1 1 0 0 0 2 0 8 8 0 0 0-8-8zM23 7H6a3 3 0 0 0-3 3v19a1 1 0 0 0 .62.92 1 1 0 0 0 1.09-.21l5.7-5.71h6.74a4 4 0 0 0 7.85-.91A4.05 4.05 0 0 0 21 19h-3a1 1 0 0 0-1 .94c-.017.49.112.973.37 1.39a4.83 4.83 0 0 0-.24.67H10a1 1 0 0 0-.71.29L5 26.59V10a1 1 0 0 1 1-1h17a1 1 0 0 1 1 1v6a1 1 0 0 0 2 0v-6a3 3 0 0 0-3-3zm7 12a4 4 0 0 1 4 4v3a1 1 0 0 1-1 1h-6a1 1 0 0 1-1-1v-3a4 4 0 0 1 4-4zm-7.319 3.378a.83.83 0 0 1 .305.502L23 23a2 2 0 1 1-4 0 2.45 2.45 0 0 1 .05-.43c.19.044.385.067.58.07.175.003.35-.014.52-.05l1.85-.37a.83.83 0 0 1 .681.158zM30 21.25a2 2 0 0 1-1.74 1h-.13A2 2 0 0 0 28 23a2 2 0 1 0 4 0 2 2 0 0 0-.15-.75h-.12a2 2 0 0 1-1.73-1z"/></g></svg>
