<svg focusable="false" xmlns="http://www.w3.org/2000/svg" width="40" height="40" viewBox="0 0 40 40"><title>file-person-40</title><g fill="none" fill-rule="evenodd"><path d="M0 0h40v40H0z"/><path fill="var(--ukg_sys_color_featureIcon_light, #30CEBB)" fill-rule="nonzero" d="M32.677 30.02a7 7 0 0 1 3.4 6v1h-14v-1a7 7 0 0 1 3.4-6 3.73 3.73 0 0 0 7.2 0zm-3.6-1a7.27 7.27 0 0 1 2.2.34.54.54 0 0 0 0 .11 2.25 2.25 0 0 1-4.41 0c0-.03-.03-.08-.03-.08a6.92 6.92 0 0 1 2.24-.37zm-17.62-6.913a5 5 0 1 1 9.239 3.826 5 5 0 0 1-9.239-3.826zm3.62-8.087a1 1 0 1 1 0 2h-4a1 1 0 0 1 0-2zm0-4a1 1 0 1 1 0 2h-4a1 1 0 0 1 0-2z"/><path fill="var(--ukg_sys_color_featureIcon_dark, #005151)" fill-rule="nonzero" d="m17.227 22.46-1.15-2.34-1.15 2.34-2.59.38 1.87 1.82-.44 2.57 2.31-1.21 2.31 1.21-.44-2.57 1.87-1.82-2.59-.38zm11.85 5.56a8 8 0 0 0-6.23 3H7.077v-24h11v8a1 1 0 0 0 1 1h8v3.56a3.89 3.89 0 0 0-1.55 1.66c-.95 1.9-2.15 4.35-2.15 4.35a1 1 0 0 0 .05 1 1 1 0 0 0 .85.47h9.6a1 1 0 0 0 .85-.47 1 1 0 0 0 .05-1s-1.2-2.45-2.15-4.35a3.94 3.94 0 0 0-3.55-2.22v-4a1 1 0 0 0-.29-.71l-9-8.95a1 1 0 0 0-.71-.34h-13a1 1 0 0 0-1 1v26a1 1 0 0 0 1 1h15.59a7.9 7.9 0 0 0-.59 3 1 1 0 0 0 2 0 6 6 0 1 1 12 0 1 1 0 0 0 2 0 8 8 0 0 0-8-8zm-1.25-5.75c.69 0 1.25-.56 1.25-1.25a1.25 1.25 0 0 0 1.25 1.25h.58a2 2 0 0 1 .17.75 2 2 0 1 1-4 0 2.09 2.09 0 0 1 .15-.71l.6-.04zm-7.75-13.81 5.58 5.56h-5.58V8.46z"/></g></svg>
