<svg focusable="false" xmlns="http://www.w3.org/2000/svg" width="24" height="24" fill="none" viewBox="0 0 24 24"><g clip-path="url(#a)"><path fill="currentColor" fill-rule="evenodd" d="M5.15 2h13.7a3 3 0 0 1 1.764 5.426l-5.202 3.784a1 1 0 0 0-.412.808V18a3 3 0 0 1-1.2 2.4l-1.2.9A2.25 2.25 0 0 1 9 19.5v-7.482a1 1 0 0 0-.412-.808L3.386 7.426A3 3 0 0 1 5.151 2Zm13.7 2H5.15a1 1 0 0 0-.588 1.809l5.203 3.783A3 3 0 0 1 11 12.018V19.5a.25.25 0 0 0 .4.2l1.2-.9a1 1 0 0 0 .4-.8v-5.982a3 3 0 0 1 1.236-2.426l5.202-3.783A1 1 0 0 0 18.85 4Z" clip-rule="evenodd"/></g><defs><clipPath id="a"><path fill="#fff" d="M0 0h24v24H0z"/></clipPath></defs></svg>
