<svg focusable="false" xmlns="http://www.w3.org/2000/svg" width="24" height="24" viewBox="0 0 24 24"><title>Icons / Utility / fingerprint-ios</title><g fill="none" fill-rule="evenodd"><path d="M0 0h24v24H0z"/><path fill="currentColor" fill-rule="nonzero" d="M11.849 11.195c.242 0 .458.147.55.368.337.81.583 2.194.691 3.894.113 1.696.083 3.475-.086 5.01a.59.59 0 0 1-.589.529c-.021 0-.043 0-.065-.005a.575.575 0 0 1-.398-.216.594.594 0 0 1-.125-.437c.16-1.415.19-3.146.086-4.742-.1-1.584-.324-2.89-.61-3.583a.592.592 0 0 1 .546-.818zm.069-2.06c.662 0 1.268.243 1.752.697.476.45.831 1.086 1.043 1.887.325 1.207.51 2.916.54 4.95 0 .156-.06.307-.168.42a.602.602 0 0 1-.323.168l-.092.009a.597.597 0 0 1-.602-.584c-.026-1.934-.199-3.548-.497-4.66-.139-.51-.576-1.705-1.658-1.705-.493 0-.9.16-1.142.454-.281.346-.359.904-.22 1.614.553 2.83.674 5.513.359 7.979a.593.593 0 0 1-.589.52c-.021 0-.047 0-.073-.005a.59.59 0 0 1-.511-.662c.299-2.337.182-4.894-.35-7.598-.264-1.35.112-2.16.471-2.596.472-.572 1.203-.887 2.06-.887zm2.743 8.577c.32 0 .58.246.589.57 0 .04.03.91-.135 1.78a.59.59 0 0 1-.765.45.598.598 0 0 1-.394-.685c.138-.727.112-1.492.112-1.501a.59.59 0 0 1 .475-.603l.096-.011h.022zm-6.21-8.91a.59.59 0 0 1 .489.926c-.466.68-.614 1.55-.436 2.58.402 2.318.766 5.023.41 7.52a.592.592 0 0 1-.487.502l-.096.008-.052-.004a.567.567 0 0 1-.407-.221.614.614 0 0 1-.125-.463c.324-2.332-.022-4.92-.407-7.14-.23-1.328-.013-2.522.623-3.452a.597.597 0 0 1 .489-.256zM12 7.12c1.276 0 2.427.506 3.327 1.458.896.944 1.502 2.298 1.757 3.92.212 1.338.316 2.428.316 3.35.009 1.83-.216 3.292-.225 3.353a.588.588 0 0 1-1.06.255.579.579 0 0 1-.108-.441c0-.017.216-1.445.207-3.163-.004-.848-.103-1.882-.307-3.163-.207-1.341-.692-2.458-1.389-3.228-.683-.753-1.553-1.15-2.522-1.15-.65 0-1.281.138-1.826.397a.645.645 0 0 1-.256.056.58.58 0 0 1-.467-.229.58.58 0 0 1-.108-.502.598.598 0 0 1 .32-.394A5.418 5.418 0 0 1 12 7.12zm.13-2.146c1.557 0 3.003.54 4.184 1.566 1.138.987 1.995 2.398 2.475 4.068.536 1.843.688 4.158.437 6.698a.589.589 0 0 1-.488.528l-.1.008-.057-.004a.598.598 0 0 1-.532-.649c.234-2.388.1-4.552-.394-6.252-.424-1.459-1.155-2.674-2.12-3.51A5.121 5.121 0 0 0 12.13 6.15c-1.753 0-3.315.636-4.388 1.791-1.012 1.09-1.514 2.545-1.402 4.09a18.59 18.59 0 0 0 .381 2.73c.204 1.003.364 1.795.238 3.976a.6.6 0 0 1-.748.537.615.615 0 0 1-.433-.632c.112-2.004-.035-2.726-.22-3.64a19.044 19.044 0 0 1-.403-2.88c-.134-1.879.476-3.648 1.718-4.981 1.302-1.398 3.167-2.168 5.257-2.168zm-6.469.865a.59.59 0 0 1 .39.148.58.58 0 0 1 .203.406.58.58 0 0 1-.143.429 7.807 7.807 0 0 0-1.925 5.136c0 1.276.233 2.306.614 3.56a.582.582 0 0 1-.043.45.592.592 0 0 1-.524.312.59.59 0 0 1-.567-.42C3.256 14.502 3 13.377 3 11.958c0-2.177.788-4.275 2.215-5.915a.585.585 0 0 1 .446-.204zm12.92.299c.16 0 .307.06.42.173.55.545 1.056 1.432 1.428 2.488.368 1.047.571 2.172.571 3.159 0 .138-.004.355-.009.489a.595.595 0 0 1-.5.56l-.092.006h-.026a.575.575 0 0 1-.411-.19.57.57 0 0 1-.156-.424c.004-.108.008-.307.008-.437 0-.844-.177-1.813-.493-2.73-.311-.896-.731-1.653-1.16-2.081a.598.598 0 0 1 0-.84.585.585 0 0 1 .42-.173zM12 3c2.047 0 4.007.736 5.681 2.125a.6.6 0 0 1 .074.835.59.59 0 0 1-.835.073C15.466 4.822 13.765 4.181 12 4.181c-1.679 0-3.25.49-4.543 1.415a.59.59 0 0 1-.93-.575.58.58 0 0 1 .237-.385C8.262 3.566 10.07 3 12 3z"/></g></svg>
