<svg focusable="false" xmlns="http://www.w3.org/2000/svg" width="40" height="40" viewBox="0 0 40 40"><title>first-aid-40</title><g fill="none" fill-rule="evenodd"><path d="M0 0h40v40H0z"/><path fill="var(--ukg_sys_color_featureIcon_light, #30CEBB)" fill-rule="nonzero" d="M23 16.982v-6h-6v6h-6v6h6v6h6v-5h6v-7z"/><path fill="var(--ukg_sys_color_featureIcon_dark, #005151)" fill-rule="nonzero" d="M20 3.982a16 16 0 0 1 16 16 15.84 15.84 0 0 1-3.29 9.69 1 1 0 1 1-1.59-1.21c4.47-5.86 3.633-14.18-1.914-19.03-5.548-4.851-13.905-4.571-19.116.64-5.21 5.21-5.49 13.567-.64 19.115 4.852 5.547 13.172 6.384 19.03 1.915a1 1 0 1 1 1.21 1.59 15.84 15.84 0 0 1-9.69 3.29c-8.836 0-16-7.164-16-16 0-8.837 7.164-16 16-16zm3 6a1 1 0 0 1 1 1v5h5a1 1 0 0 1 1 1v6a1 1 0 0 1-.29.71 1 1 0 0 1-.71.29h-2a1 1 0 0 1 0-2h1v-4h-5a1 1 0 0 1-1-1v-5h-4v5a1 1 0 0 1-1 1h-5v4h5a1 1 0 0 1 1 1v5h4v-5a1 1 0 1 1 2 0v6a1 1 0 0 1-1 1h-6a1 1 0 0 1-1-1v-5h-5a1 1 0 0 1-1-1v-6a1 1 0 0 1 1-1h5v-5a1 1 0 0 1 1-1z"/></g></svg>
