<svg focusable="false" xmlns="http://www.w3.org/2000/svg" width="40" height="40" viewBox="0 0 40 40"><title>flag-40</title><g fill="none" fill-rule="evenodd"><path d="M0 0h40v40H0z"/><path fill="var(--ukg_sys_color_featureIcon_light, #30CEBB)" fill-rule="nonzero" d="M34.077 21.02v6a10.37 10.37 0 0 1-6 2v-6a10.37 10.37 0 0 0 6-2zm-18-2a10.35 10.35 0 0 1 6 2v6a10.37 10.37 0 0 0-6-2zm0-12a10.37 10.37 0 0 1 6 2v6l.312.219a10.37 10.37 0 0 0 5.688 1.781v6a10.37 10.37 0 0 1-6-2v-6a10.35 10.35 0 0 0-6-2zm0 6v6a9.9 9.9 0 0 0-4.48 1.09l.016-.434a13.56 13.56 0 0 0-.886-5.086 10.14 10.14 0 0 1 5.35-1.57zm18-4v6a10.37 10.37 0 0 1-6 2v-6a10.37 10.37 0 0 0 6-2z"/><path fill="var(--ukg_sys_color_featureIcon_dark, #005151)" fill-rule="nonzero" d="M34.077 9.02a1 1 0 0 0-1 1v16.47a8.93 8.93 0 0 1-10.42-.29 11 11 0 0 0-11.2-1.13 14.47 14.47 0 0 0-2.38-15.13V8.02a1 1 0 1 0-2 0v26a1 1 0 0 0 2 0v-5l1.58-1.18a8.94 8.94 0 0 1 10.84 0 11 11 0 0 0 13.16 0 1 1 0 0 0 .42-.82v-17a1 1 0 0 0-1-1zm-25 16.37v-12a12.51 12.51 0 0 1 0 12z"/></g></svg>
