<svg focusable="false" xmlns="http://www.w3.org/2000/svg" width="40" height="40" viewBox="0 0 40 40"><title>flight-dollar-40</title><g fill="none" fill-rule="evenodd"><path d="M0 0h40v40H0z"/><path fill="var(--ukg_sys_color_featureIcon_light, #30CEBB)" fill-rule="nonzero" d="M7.006 19.214a2.72 2.72 0 0 1 3.12-.5l1.61.8-.178.339a10.6 10.6 0 0 0-1.122 4.771l.382-.007a10.67 10.67 0 0 0 4.728-1.303l.83 1.62c.19.375.29.79.29 1.21a2.72 2.72 0 0 1-.8 1.93l-1.6 1.6-8.86-8.86zm17-3.71 2.5 4.75-.5-.25-2 1v6.46l-5.98-5.98 5.98-5.98zm-16.89-8.63a3.06 3.06 0 0 1 3.56-.52l8.83 4.65-5.98 6-8.23-8.3.71-.7zm16.04 3.92a.75.75 0 0 1 1.06 1.06l-1.77 1.77a.74.74 0 0 1-.53.22.75.75 0 0 1-.53-1.28z"/><path fill="var(--ukg_sys_color_featureIcon_dark, #005151)" fill-rule="nonzero" d="M30.006 32.834a.75.75 0 0 0 .75-.75v-.27a2.25 2.25 0 0 0-.25-4.48h-1a.75.75 0 0 1 0-1.5h1c.199 0 .39.08.53.22a.75.75 0 0 0 1.03-1.05 2.22 2.22 0 0 0-1.31-.63v-.28a.75.75 0 0 0-1.5 0v.28a2.24 2.24 0 0 0 .25 4.47h1a.75.75 0 0 1 0 1.5h-1a.75.75 0 0 1-.53-.22.75.75 0 1 0-1.06 1.06 2.22 2.22 0 0 0 1.31.63v.28a.75.75 0 0 0 .78.74zm5-2.67a1 1 0 1 0 2 0v-9.16a1 1 0 0 0-.55-.89l-2-1a1 1 0 0 0-.9 0l-1.55.77-1.55-.77a1 1 0 0 0-.9 0l-1.55.77-.76-.38-2-3.82 1.3-1.29a11.78 11.78 0 0 0 3.46-8.39 1 1 0 0 0-1-1 11.78 11.78 0 0 0-8.39 3.47l-1.3 1.3-3.06-1.61 1.46-1.45a1.004 1.004 0 1 0-1.42-1.42l-1.89 1.9-3.27-1.72a4 4 0 0 0-1.88-.47 4 4 0 0 0-2.84 1.16l-1.16 1.13a1 1 0 0 0 1.4 1.42l1.16-1.12a2 2 0 0 1 1.43-.59 2 2 0 0 1 .95.24l7.63 4-4.82 4.87a12.43 12.43 0 0 0-1.44 1.74l-1.64-.41a4.06 4.06 0 0 0-3.84 1.06l-.79.79a1 1 0 0 0 0 1.42 1 1 0 0 0 1.42 0l.79-.79a2 2 0 0 1 1.92-.53l1.12.27a11.8 11.8 0 0 0-1 4.4l-2.25 2.23a1 1 0 0 0 0 1.42 1 1 0 0 0 1.42 0l2.22-2.23a11.81 11.81 0 0 0 4.41-1l.27 1.12a2 2 0 0 1-.53 1.92l-.79.79a1 1 0 0 0 0 1.42 1 1 0 0 0 1.42 0l.79-.79a4 4 0 0 0 1.05-3.82l-.4-1.64a12.43 12.43 0 0 0 1.74-1.48l4.86-4.85 1.18 2.25-1.38.69a1 1 0 0 0-.55.91v14.16a1 1 0 0 0 .55.9l2 1a1 1 0 0 0 .9 0l1.55-.78 1.55.78a1 1 0 0 0 .9 0l1.55-.78 1.55.78c.285.134.615.134.9 0l2-1a1 1 0 0 0 .55-.9v-1a1 1 0 1 0-2 0v.38l-1 .46-1.55-.77a1 1 0 0 0-.9 0l-1.55.77-1.55-.77a1 1 0 0 0-.9 0l-1.55.77-1-.5v-12.88l1-.5 1.55.77a1 1 0 0 0 .9 0l1.55-.77 1.55.77a1 1 0 0 0 .9 0l1.55-.77 1 .5v8.54zm-17.52-9.55a9.8 9.8 0 0 1-5.92 2.83 9.8 9.8 0 0 1 2.83-5.92l7.61-7.63a9.75 9.75 0 0 1 5.91-2.83 9.75 9.75 0 0 1-2.8 5.94l-7.63 7.61z"/></g></svg>
