<svg focusable="false" xmlns="http://www.w3.org/2000/svg" width="40" height="40" viewBox="0 0 40 40"><title>flight-40</title><g fill="none" fill-rule="evenodd"><path d="M0 0h40v40H0z"/><path fill="var(--ukg_sys_color_featureIcon_light, #30CEBB)" fill-rule="nonzero" d="m27.334 17.666 5.342 10.688c.177.355.284.74.315 1.136l.009.238c0 .814-.324 1.596-.9 2.172l-1.807 1.807-9.5-9.5 6.541-6.541zM10.274 21c.479 0 .95.11 1.377.325l1.817.908A12.104 12.104 0 0 0 12 28l.406-.007a12.07 12.07 0 0 0 5.359-1.463l.002.003.909 1.817a3.081 3.081 0 0 1-.578 3.552l-1.804 1.804-10-10L8.1 21.903A3.079 3.079 0 0 1 10.275 21zm-.001-14 .238.01c.394.03.78.137 1.136.314l10.688 5.342-6.541 6.541-9.5-9.5L8.1 7.9a3.073 3.073 0 0 1 2.172-.9zm17.434 5.293a.999.999 0 0 1 0 1.414l-2 2a.997.997 0 0 1-1.414 0 .999.999 0 0 1 0-1.414l2-2a.999.999 0 0 1 1.414 0z"/><path fill="var(--ukg_sys_color_featureIcon_dark, #005151)" fill-rule="nonzero" d="M19.828 23.757a10.988 10.988 0 0 1-6.78 3.194 10.988 10.988 0 0 1 3.194-6.78l8.93-8.929a10.982 10.982 0 0 1 6.78-3.193 10.986 10.986 0 0 1-3.195 6.78l-8.929 8.928zm11.722.106 2.157-2.156a.999.999 0 1 0-1.414-1.414l-1.686 1.685-2.056-4.115 1.62-1.62A12.976 12.976 0 0 0 34 7a1 1 0 0 0-1-1c-3.49 0-6.774 1.36-9.242 3.828l-1.62 1.621-4.116-2.057 1.686-1.685a.999.999 0 1 0-1.414-1.414L16.136 8.45l-4.042-2.02c-1.535-.767-3.487-.45-4.7.763l-1.1 1.1a.999.999 0 1 0 1.413 1.414l1.1-1.1a2.107 2.107 0 0 1 2.392-.389l9.447 4.721-5.818 5.818a13.197 13.197 0 0 0-1.743 2.166l-.988-.494c-1.536-.768-3.49-.45-4.706.765l-1.097 1.098a1 1 0 0 0 1.414 1.414l1.098-1.097a2.116 2.116 0 0 1 2.397-.39l.932.465a12.999 12.999 0 0 0-1.114 4.88l-1.728 1.73a.999.999 0 1 0 1.414 1.413l1.728-1.729a12.98 12.98 0 0 0 4.88-1.114l.466.933a2.064 2.064 0 0 1-.39 2.397l-1.098 1.097a1 1 0 0 0 1.414 1.414l1.098-1.097A4.047 4.047 0 0 0 20 29.725c0-.63-.149-1.26-.43-1.823l-.494-.988c.772-.5 1.5-1.077 2.166-1.743l5.818-5.818 4.721 9.447a2.06 2.06 0 0 1-.389 2.393l-1.1 1.1a1 1 0 0 0 1.414 1.414l1.101-1.1A4.047 4.047 0 0 0 34 29.727a4.1 4.1 0 0 0-.43-1.82l-2.02-4.044z"/></g></svg>
