<svg focusable="false" xmlns="http://www.w3.org/2000/svg" width="40" height="40" viewBox="0 0 40 40"><title>flight-people-40</title><g fill="none" fill-rule="evenodd"><path d="M0 0h40v40H0z"/><path fill="var(--ukg_sys_color_featureIcon_light, #30CEBB)" fill-rule="nonzero" d="M17.713 29.672a8 8 0 0 1 8.598 1.31c-.08.08-.02.07.09 0a3.73 3.73 0 0 0 7.2 0 7 7 0 0 1 3.4 6v1H14v-1h-1a8 8 0 0 1 4.712-7.31zm10.048.68a7 7 0 0 1 4.48 0c-.05.04-.05.11-.05.11a2.25 2.25 0 0 1-2.19 1.77 2.25 2.25 0 0 1-2.24-1.76zM4.74 15.282a2.94 2.94 0 0 1 3-.71l1.6.53-.18.32A9.67 9.67 0 0 0 8 19.982l.368-.007a9.67 9.67 0 0 0 4.522-1.323l.53 1.6a2.94 2.94 0 0 1-.71 3.02l-1.42 1.42-8-8 .71-.71zm14.92-2.94 3.95 7c.53.937.5 2.092-.08 3a3 3 0 0 0-4.83-.24l-4.44-4.45 3.12-3.05 2.28-2.26zM7.22 3.982a3 3 0 0 1 1.44.34l7 4-5.37 5.37-7-7 .71-.71 1.14-1.14a2.94 2.94 0 0 1 2.08-.86zm11.6 4.17a.75.75 0 1 1 1.06 1.06l-1.55 1.55a.75.75 0 0 1-.53.22.79.79 0 0 1-.53-.22.75.75 0 0 1 0-1.06z"/><path fill="var(--ukg_sys_color_featureIcon_dark, #005151)" fill-rule="nonzero" d="M21 28.982c.335-.001.67.022 1 .07a1 1 0 0 1 .87 1.14 1 1 0 0 1-1 .79h-.15a5.55 5.55 0 0 0-.72 0 6 6 0 0 0-6 6 1 1 0 1 1-2 0 8 8 0 0 1 8-8zm9 0a8 8 0 0 1 8 8 1 1 0 1 1-2 0 6 6 0 1 0-12 0 1 1 0 1 1-2 0 8 8 0 0 1 8-8zm-15.63-9-.29-.86a11.16 11.16 0 0 0 1.46-1.21l3.89-3.93 3.31 5.84c.032.058.058.118.08.18H19a1 1 0 0 0-1 1v.29a2 2 0 0 0-1 1.69v.91a4 4 0 0 0 4 4.09 4 4 0 0 0 3.63-5.65c.05-.101.093-.204.13-.31a2.67 2.67 0 0 0 .14-.36 3.14 3.14 0 0 0-.25-2.52l-.21-.37-1.39-2.45 1.64-1.63a1.004 1.004 0 1 0-1.42-1.42l-1.24 1.25-1.15-2 1-1A10.61 10.61 0 0 0 25 3.982a1 1 0 0 0-1-1 10.61 10.61 0 0 0-7.54 3.12l-1 1-2-1.15 1.25-1.24a1.004 1.004 0 0 0-1.42-1.42l-1.63 1.62-2.49-1.42a4 4 0 0 0-1.95-.51 3.92 3.92 0 0 0-2.79 1.16l-1.14 1.13a1.004 1.004 0 1 0 1.42 1.42l1.13-1.14a1.94 1.94 0 0 1 1.38-.57 2 2 0 0 1 1 .25L14 8.542l-3.9 3.9c-.443.451-.848.94-1.21 1.46l-.86-.29a3.94 3.94 0 0 0-4.03.95l-.71.71a1 1 0 0 0 0 1.42 1 1 0 0 0 1.42 0l.71-.71a1.93 1.93 0 0 1 2-.48l.5.17a10.83 10.83 0 0 0-.92 3.87l-1.71 1.73a1 1 0 0 0 0 1.42 1 1 0 0 0 1.42 0l1.73-1.71a10.83 10.83 0 0 0 3.87-.89l.17.5a1.93 1.93 0 0 1-.48 2l-.71.71a1 1 0 0 0 0 1.42 1 1 0 0 0 1.42 0l.71-.71a3.94 3.94 0 0 0 .95-4.03zm8.63 4a2 2 0 1 1-4 0v-.11a.7.7 0 0 1 .25-.53.71.71 0 0 1 .57-.14l2 .41c.172.036.346.053.52.05a2.78 2.78 0 0 0 .57-.07 2 2 0 0 1 .09.39zm7-5.95a1.5 1.5 0 0 1 1.5 1.5 1.45 1.45 0 0 1-.18.69 4 4 0 0 1-1.32 7.76 4 4 0 0 1-1.33-7.76 1.56 1.56 0 0 1-.17-.69 1.5 1.5 0 0 1 1.5-1.5zm0 4.2a2 2 0 0 1-1.74 1h-.11a1.86 1.86 0 0 0-.15.75 2 2 0 1 0 4 0 1.86 1.86 0 0 0-.15-.75h-.11a2 2 0 0 1-1.74-1zm-7.13-17.18a8.6 8.6 0 0 1-2.48 5.06l-6.34 6.34a8.6 8.6 0 0 1-4.99 2.47H9a8.6 8.6 0 0 1 2.48-5.06l6.33-6.33a8.6 8.6 0 0 1 5.06-2.48z"/></g></svg>
