<svg focusable="false" xmlns="http://www.w3.org/2000/svg" width="24" height="24" viewBox="0 0 24 24"><title>Icons / Utility / folder-add</title><g fill="none" fill-rule="evenodd"><path d="M0 0h24v24H0z"/><path fill="currentColor" fill-rule="nonzero" d="M17.5 11a5.5 5.5 0 1 1 0 11 5.5 5.5 0 0 1 0-11zm0 2.5a.75.75 0 0 0-.743.648l-.007.102v1.5h-1.5a.75.75 0 0 0-.102 1.493l.102.007h1.499l.001 1.5a.75.75 0 0 0 1.493.102l.007-.102-.001-1.5h1.501a.75.75 0 0 0 .102-1.493l-.102-.007h-1.5v-1.5a.75.75 0 0 0-.75-.75zM8.757 1a3 3 0 0 1 2.122.879L12 3h7a2 2 0 0 1 2 2l.001 4.866a7.448 7.448 0 0 0-2-.716L19 6H3v11h7.016c.046.698.188 1.369.411 2.001L3 19a2 2 0 0 1-2-2V3a2 2 0 0 1 2-2h5.757z"/></g></svg>
