<svg focusable="false" xmlns="http://www.w3.org/2000/svg" width="24" height="24" viewBox="0 0 24 24"><title>Icon / Utility / fork</title><g fill="none" fill-rule="evenodd"><path d="M0 0h24v24H0z"/><path fill="currentColor" fill-rule="nonzero" d="M9 20.788a.965.965 0 0 1-.712-.288.965.965 0 0 1-.288-.712v-13.2l-.9.9a.948.948 0 0 1-.7.274.948.948 0 0 1-.7-.274.948.948 0 0 1-.275-.7c0-.284.092-.517.275-.7l2.6-2.6a.88.88 0 0 1 .325-.213c.117-.042.242-.063.375-.063s.258.021.375.063a.883.883 0 0 1 .325.212l2.6 2.6a.948.948 0 0 1 .275.7.948.948 0 0 1-.275.7.948.948 0 0 1-.7.276.948.948 0 0 1-.7-.276l-.9-.9v6.55a5.293 5.293 0 0 1 1.975-1.113 7.476 7.476 0 0 1 2.2-.336c.183 0 .363.008.538.024a4 4 0 0 1 .487.075l-.9-.9a.948.948 0 0 1-.275-.7c0-.283.092-.516.275-.7a.948.948 0 0 1 .7-.274c.283 0 .517.091.7.275l2.6 2.6c.1.1.171.208.213.325.041.116.062.241.062.374 0 .134-.02.259-.062.375a.883.883 0 0 1-.213.325l-2.6 2.6a.948.948 0 0 1-.7.276.948.948 0 0 1-.7-.276.948.948 0 0 1-.275-.7c0-.283.092-.516.275-.7l.9-.9a11.8 11.8 0 0 0-.562-.088 4.417 4.417 0 0 0-3.05.726c-.759.508-1.288 1.296-1.588 2.363v3a.97.97 0 0 1-.287.712.968.968 0 0 1-.713.288Z"/></g></svg>
