<svg focusable="false" xmlns="http://www.w3.org/2000/svg" width="40" height="40" viewBox="0 0 40 40"><title>forms-featured-40</title><g fill="none" fill-rule="evenodd"><path d="M0 0h40v40H0z"/><path fill="var(--ukg_sys_color_featureIcon_light, #30CEBB)" fill-rule="nonzero" d="M23 26a1 1 0 0 1 0 2h-2a1 1 0 0 1 0-2zm8-21a1 1 0 0 1 1 1v20.11a4.71 4.71 0 0 0-1-.11 5 5 0 0 0-3 1v-4h-1V10H10V6a1 1 0 0 1 1-1zm-8 17a1 1 0 0 1 0 2h-2a1 1 0 0 1 0-2zm0-4a1 1 0 0 1 0 2h-2a1 1 0 0 1 0-2zm0-4a1 1 0 0 1 0 2h-2a1 1 0 0 1 0-2z"/><path fill="var(--ukg_sys_color_featureIcon_dark, #005151)" fill-rule="nonzero" d="M16.29 22.29a1.004 1.004 0 1 1 1.42 1.42l-4 4a1 1 0 0 1-1.42 0l-2-2a1.004 1.004 0 1 1 1.42-1.42l1.29 1.3zm.71-8.296a1 1 0 0 1 .71.296 1 1 0 0 1 0 1.42l-4 4a1 1 0 0 1-1.42 0l-2-2a1.004 1.004 0 1 1 1.42-1.42l1.29 1.3 3.29-3.3a1 1 0 0 1 .71-.296zM31 25a6 6 0 0 0-6 6H8V11h18v12a1 1 0 0 0 2 0V10a1 1 0 0 0-1-1H7a1 1 0 0 0-1 1v22a1 1 0 0 0 1 1h18.34A6 6 0 1 0 31 25zm2.31 9.21L31 33l-2.31 1.21.44-2.57-1.87-1.82 2.59-.38L31 27.1l1.15 2.34 2.59.38-1.87 1.82.44 2.57z"/></g></svg>
