<svg focusable="false" xmlns="http://www.w3.org/2000/svg" width="40" height="40" viewBox="0 0 40 40"><title>form-40</title><g fill="none" fill-rule="evenodd"><path d="M0 0h40v40H0z"/><path fill="var(--ukg_sys_color_featureIcon_light, #30CEBB)" fill-rule="nonzero" d="M19 21a1 1 0 0 1 0 2h-7a1 1 0 0 1 0-2h7zm0-5a1 1 0 0 1 0 2h-7a1 1 0 0 1 0-2h7zm12.23-9.02c.978 0 1.77.792 1.77 1.77V13H7.12V8.76A1.77 1.77 0 0 1 8.9 6.98h22.33z"/><path fill="var(--ukg_sys_color_featureIcon_dark, #005151)" fill-rule="nonzero" d="M31 6a3 3 0 0 1 3 3v11a1 1 0 1 1-2-.03v-11a1 1 0 0 0-1-1H9a1 1 0 0 0-1 1v16a1 1 0 0 0 1 1h14v-9a1 1 0 0 1 1.7-.72l9 8.75a1 1 0 0 1 .28.91 1 1 0 0 1-.61.74l-1.7.69 1.52 3.68a1 1 0 0 1-1.85.76l-1.91-4.61a1 1 0 0 1 0-.77 1 1 0 0 1 .55-.54l1.22-.49-6.2-6v8.52l1.27-.51a1 1 0 0 1 1.3.55l1.94 4.69a1 1 0 0 1-.54 1.3.872.872 0 0 1-.38.08 1 1 0 0 1-.93-.62l-1.56-3.77-1.73.69a1 1 0 0 1-1.37-.92V28H9a3 3 0 0 1-3-3V9a3 3 0 0 1 3-3zM12 9.5a1 1 0 1 1 0 2 1 1 0 0 1 0-2zm4 0a1 1 0 1 1 0 2 1 1 0 0 1 0-2z"/></g></svg>
