<svg focusable="false" xmlns="http://www.w3.org/2000/svg" width="40" height="40" viewBox="0 0 40 40"><title>gauge-40</title><g fill="none" fill-rule="evenodd"><path d="M0 0h40v40H0z"/><path fill="var(--ukg_sys_color_featureIcon_light, #30CEBB)" fill-rule="nonzero" d="M12 26.994a1 1 0 0 1 .71.296 1 1 0 0 1 0 1.42l-2.61 2.6-1.41-1.41 2.6-2.61a1 1 0 0 1 .71-.296zM23 25a1 1 0 0 1 0 2h-6a1 1 0 0 1 0-2zM20 5c8.284 0 15 6.716 15 15h-6a9 9 0 0 0-9-9z"/><path fill="var(--ukg_sys_color_featureIcon_dark, #005151)" fill-rule="nonzero" d="M20 4c8.837 0 16 7.163 16 16a15.862 15.862 0 0 1-4.64 11.31 1 1 0 0 1-1.41 0l-2.61-2.6a1.004 1.004 0 1 1 1.42-1.42l1.86 1.87A13.88 13.88 0 0 0 34 21h-4a1 1 0 0 1 0-2h4a13.93 13.93 0 0 0-3.43-8.15l-1.86 1.86a1 1 0 0 1-1.42 0 1 1 0 0 1 0-1.42l1.86-1.86A13.93 13.93 0 0 0 21 6.05v4a1 1 0 0 1-2 0v-4a13.93 13.93 0 0 0-8.15 3.38l1.86 1.86a1 1 0 0 1 0 1.42 1 1 0 0 1-1.42 0l-1.86-1.86A13.93 13.93 0 0 0 6.05 19h4a1 1 0 0 1 0 2h-4A14 14 0 0 0 26.9 32.18a1 1 0 0 1 .99 1.74A16 16 0 1 1 20 4zm5 9.994a1 1 0 0 1 .71.296 1 1 0 0 1 0 1.42l-3.78 3.78c.044.166.068.338.07.51a2 2 0 1 1-2-2c.172.002.344.026.51.07l3.78-3.78a1 1 0 0 1 .71-.296z"/></g></svg>
