<svg focusable="false" xmlns="http://www.w3.org/2000/svg" width="40" height="40" viewBox="0 0 40 40"><title>gift-40</title><g fill="none" fill-rule="evenodd"><path d="M0 0h40v40H0z"/><path fill="var(--ukg_sys_color_featureIcon_light, #30CEBB)" fill-rule="nonzero" d="M7.17 16.096v2.939h25.66v-2.94a2 2 0 0 0-2-1.999H9.2a2 2 0 0 0-2.03 2z"/><path fill="var(--ukg_sys_color_featureIcon_dark, #005151)" fill-rule="nonzero" d="M31 13.007h-3.76a4.448 4.448 0 0 0 .76-2.5 4.479 4.479 0 0 0-8-2.798 4.491 4.491 0 0 0-6.165-.826 4.488 4.488 0 0 0-1.075 6.124H9a3 3 0 0 0-3 2.999v2.999a1 1 0 0 0 1 1h1V31a3 3 0 0 0 3 3h18a3 3 0 0 0 3-2.999v-7.997a1 1 0 0 0-2 0V31a1 1 0 0 1-1 1h-8V20.005h12a1 1 0 0 0 1-1v-3a3 3 0 0 0-3-2.998zm-7.5-4.999a2.5 2.5 0 1 1 0 4.999H21v-2.5a2.51 2.51 0 0 1 2.5-2.499zm-9.5 2.5a2.5 2.5 0 0 1 5 0v2.499h-2.5a2.5 2.5 0 0 1-2.5-2.5zm-5 4.498h10v3H8v-2a1 1 0 0 1 1-1zm10 16.995h-8a1 1 0 0 1-1-1V20.005h9V32zm2-16.995h10a1 1 0 0 1 1 1v2H21v-3z"/></g></svg>
