<svg focusable="false" xmlns="http://www.w3.org/2000/svg" data-name="Layer 1" viewBox="0 0 42 42"><path fill="none" d="M14.67 32.22A7.49 7.49 0 0 0 18 33a8.13 8.13 0 0 0 3.33-.78l10.88-5.43a1.45 1.45 0 0 0 .79-1.31 1.42 1.42 0 0 0-.69-1.24 1.44 1.44 0 0 0-1.42-.07l-6.55 3.28a6.06 6.06 0 0 1-.84.32 2.6 2.6 0 0 1-1.05.23H17a1 1 0 0 1 0-2h5a3 3 0 0 0 .73-.09.53.53 0 0 0 .27-.46.56.56 0 0 0-.3-.49l-2.8-1.39a5.4 5.4 0 0 0-2.4-.57 5.4 5.4 0 0 0-2.4.57l-2.65 1.32A1 1 0 0 1 12 25v6a1 1 0 0 1 .45.11z"/><path fill="var(--ukg_sys_color_featureIcon_light, #30CEBB)" d="m7.55 33.11 4-2A1 1 0 0 1 12 31v-6H8a1 1 0 0 1-1-1v10a1 1 0 0 1 .55-.89zM26.5 12a1.5 1.5 0 1 0 1.5-1.5 1.5 1.5 0 0 0-1.5 1.5z"/><path fill="var(--ukg_sys_color_featureIcon_dark, #005151)" d="M11.76 23H8a1 1 0 0 0-1 1 1 1 0 0 0 1 1h4a1 1 0 0 0 .45-.11l2.65-1.32a5.4 5.4 0 0 1 2.4-.57 5.4 5.4 0 0 1 2.4.57L22.7 25a.56.56 0 0 1 .3.49.53.53 0 0 1-.27.46A3 3 0 0 1 22 26h-5a1 1 0 0 0 0 2h5.45a2.6 2.6 0 0 0 1.05-.23 6.06 6.06 0 0 0 .84-.32l6.55-3.28a1.44 1.44 0 0 1 1.42.07 1.42 1.42 0 0 1 .69 1.24 1.45 1.45 0 0 1-.81 1.31l-10.88 5.43A8.13 8.13 0 0 1 18 33a7.49 7.49 0 0 1-3.31-.78l-2.22-1.11a1 1 0 0 0-.9 0l-4 2A1 1 0 0 0 7 34a.9.9 0 0 0 .1.45A1 1 0 0 0 8 35a1 1 0 0 0 .45-.1L12 33.12l1.78.89A9.43 9.43 0 0 0 18 35a9.48 9.48 0 0 0 4.22-1l10.88-5.44a3.46 3.46 0 0 0-3.1-6.18l-5.06 2.54a2.52 2.52 0 0 0-1.34-1.74l-2.8-1.4a8.07 8.07 0 0 0-3.3-.78 7.33 7.33 0 0 0-3.28.78zm17.95-8.54a.93.93 0 0 0-.15.13l-5.69 4.63a1 1 0 0 0-.14 1.41 1 1 0 0 0 1.4.15l5.79-4.72a5 5 0 1 0-6.42-7.62A5 5 0 1 0 18 16l3 2.44a1 1 0 0 0 1.4-.14 1 1 0 0 0-.05-1.3l-2.91-2.36a.64.64 0 0 0-.15-.13 3 3 0 1 1 4.33-3.89 1 1 0 0 0 .88.52 1 1 0 0 0 .88-.52 3 3 0 1 1 4.33 3.89z"/></svg>
