<svg focusable="false" xmlns="http://www.w3.org/2000/svg" width="40" height="40" viewBox="0 0 40 40"><title>globe-40</title><g fill="none" fill-rule="evenodd"><path d="M0 0h40v40H0z"/><path fill="var(--ukg_sys_color_featureIcon_light, #30CEBB)" fill-rule="nonzero" d="M35.08 19h-8.17a22.89 22.89 0 0 0-.75-5h6.53a1 1 0 0 0 .91-.59 15.6 15.6 0 0 0-.77-1.41.7.7 0 0 0-.14 0h-7.17a22.36 22.36 0 0 0-4.28-7.07c-.41 0-.82-.06-1.24-.06-.42 0-.83 0-1.24.06A22.18 22.18 0 0 0 14.48 12H7.31a.7.7 0 0 0-.14 0 14.29 14.29 0 0 0-.77 1.38 1 1 0 0 0 .91.59h6.53a22.32 22.32 0 0 0-.76 5H4.92v2L5 21h8.08a22.32 22.32 0 0 0 .76 5H7.31a1 1 0 0 0-.91.59c.232.483.49.954.77 1.41a.7.7 0 0 0 .14 0h7.17a22.18 22.18 0 0 0 4.28 7.07c.41 0 .82.06 1.24.06.42 0 .82 0 1.23-.05A22.3 22.3 0 0 0 25.51 28h7.18a1 1 0 0 0 .17 0c.273-.444.524-.9.75-1.37a1 1 0 0 0-.92-.6h-6.54a22.91 22.91 0 0 0 .76-5h8.18v-1c0-.35.01-.69-.01-1.03zM20 6.45A20.51 20.51 0 0 1 23.41 12h-6.82A20.51 20.51 0 0 1 20 6.45zM15.88 14h8.24a20.78 20.78 0 0 1 .88 5H15a20.78 20.78 0 0 1 .88-5zM20 33.55A20.27 20.27 0 0 1 16.59 28h6.82A20.27 20.27 0 0 1 20 33.55zM24.12 26h-8.24a20.78 20.78 0 0 1-.88-5h10a20.78 20.78 0 0 1-.88 5z"/><path fill="var(--ukg_sys_color_featureIcon_dark, #005151)" fill-rule="nonzero" d="M20 36c-8.837 0-16-7.163-16-16S11.163 4 20 4s16 7.163 16 16a15.86 15.86 0 0 1-3.2 9.6 1 1 0 0 1-1.6-1.2c4.408-5.878 3.523-14.163-2.027-18.976-5.55-4.814-13.877-4.519-19.072.677-5.196 5.195-5.491 13.522-.677 19.072 4.813 5.55 13.098 6.435 18.976 2.027a1 1 0 0 1 1.2 1.6A15.88 15.88 0 0 1 20 36z"/></g></svg>
