<svg focusable="false" xmlns="http://www.w3.org/2000/svg" width="40" height="40" viewBox="0 0 40 40"><title>global-40</title><g fill="none" fill-rule="evenodd"><path d="M0 0h40v40H0z"/><path fill="var(--ukg_sys_color_featureIcon_light, #30CEBB)" fill-rule="nonzero" d="M7.17 22a2 2 0 0 1 1.42.62L11 25h2v1.22a2 2 0 0 1-.59 1.42l-.41.41v1.17a2 2 0 0 1-.56 1.33l-.95 1A15.06 15.06 0 0 1 5.17 22zM22 16v1h4l1.45 2.89A2 2 0 0 0 29.24 21H30v1l-2 2v1.17a2 2 0 0 1-.59 1.42L27 27v1.17a2 2 0 0 1-.59 1.42L25 31a3 3 0 0 1-3-3v-5h-3.2a2.91 2.91 0 0 1-2.51-1.6 2.83 2.83 0 0 1 .54-3.21L19 16h3zm7-7a14.94 14.94 0 0 1 6 12l-3-3-.49.61a2 2 0 0 1-3.08.06L27 17h-1v-1h-2.17a2 2 0 0 1-1.42-.59L22 15h-2l-1 1-.5-.49-.075-.084a.69.69 0 0 1 .075-.916L21 12v-1a2 2 0 0 1 2-2zm-17 2 .59.58a2 2 0 0 1 0 2.83L12 15h-1.17a2 2 0 0 0-1.43.59L8 17v2H7a1 1 0 0 0-1-1h-.7A14.85 14.85 0 0 1 8 12h2l1-1h1zm7-5a15.31 15.31 0 0 1 2.26.16l-2.55 2.55A1 1 0 0 1 18 9h-1l-1.71 1.71a1 1 0 0 1-.7.29H14V9l-1.5-1.5A14.92 14.92 0 0 1 19 6z"/><path fill="var(--ukg_sys_color_featureIcon_dark, #005151)" fill-rule="nonzero" d="M20 4a16 16 0 1 0 9.6 28.8 1 1 0 0 0-1.2-1.6c-5.878 4.408-14.163 3.523-18.976-2.027-4.814-5.55-4.519-13.877.677-19.072 5.195-5.196 13.522-5.491 19.072-.677 5.55 4.813 6.435 13.098 2.027 18.976a1 1 0 1 0 1.6 1.2A15.86 15.86 0 0 0 36 20c0-8.837-7.163-16-16-16z"/></g></svg>
