<svg focusable="false" xmlns="http://www.w3.org/2000/svg" width="24" height="24" viewBox="0 0 24 24"><title>Icon / Navigation / go-to</title><g fill="none" fill-rule="evenodd"><path d="M0 0h24v24H0z"/><path fill="currentColor" fill-rule="nonzero" d="M5.999 2a2 2 0 0 0-2 2v2a2 2 0 0 0 2 2h5v2H6.355a2 2 0 0 0-1.134.353l-.139.104L3.817 11.5a1.945 1.945 0 0 0-.125 2.888l.125.112 1.264 1.043a2 2 0 0 0 1.1.45l.173.007H11l-.001 5a1 1 0 1 0 2 0v-5h5a2 2 0 0 0 1.994-1.85L20 14v-2a2 2 0 0 0-1.85-1.995L18 10h-5V8h4.645a2 2 0 0 0 1.273-.457L20.18 6.5a1.945 1.945 0 0 0 0-3l-1.264-1.043A2 2 0 0 0 17.644 2H6Zm.355 10h11.645v2H6.354l-1.212-1 1.212-1Zm-.355-8h11.645l1.213 1-1.213 1H6V4Z"/></g></svg>
