<svg focusable="false" xmlns="http://www.w3.org/2000/svg" width="40" height="40" viewBox="0 0 40 40"><title>goals-people-40</title><g fill="none" fill-rule="evenodd"><path d="M0 0h40v40H0z"/><path fill="var(--ukg_sys_color_featureIcon_light, #30CEBB)" fill-rule="nonzero" d="M18.045 30.648a7 7 0 0 1 7.465.992 7.9 7.9 0 0 1 .88-.64 3.72 3.72 0 0 0 7.19 0A7 7 0 0 1 37 37v1H14v-1a7 7 0 0 1 4.045-6.352zM30 30a7 7 0 0 1 2.18.37.43.43 0 0 0 0 .12 2.25 2.25 0 0 1-4.39 0 .43.43 0 0 0-.04-.12A7.27 7.27 0 0 1 30 30zM17 13a4 4 0 1 1 0 8 4 4 0 0 1 0-8zm8.1-9.1.9.1v4h4v1.08c-.27 0-4 3.75-4 3.75h-4.9v-5l4-3.93z"/><path fill="var(--ukg_sys_color_featureIcon_dark, #005151)" fill-rule="nonzero" d="M30 20a4 4 0 0 1 4 4v3a1 1 0 0 1-1 1h-6a1 1 0 0 1-1-1v-3a4 4 0 0 1 4-4zm0 2.25a2 2 0 0 1-1.74 1h-.12A2 2 0 0 0 28 24a2 2 0 1 0 4 0 2 2 0 0 0-.15-.75h-.12a2 2 0 0 1-1.73-1zM30 29a8 8 0 0 0-4.49 1.38A8 8 0 0 0 21 29h-4c-6.627 0-12-5.373-12-12S10.373 5 17 5a11.87 11.87 0 0 1 4.61.94l-1.34 1.33A1 1 0 0 0 20 8v.54A8.81 8.81 0 0 0 17 8a9 9 0 0 0 0 18h.57A4 4 0 0 0 21 28a4 4 0 1 0 0-8h-3a1 1 0 0 0-1 1c0 .463.127.916.37 1.31a3.86 3.86 0 0 0-.37 1.6.28.28 0 0 0 0 .09 7 7 0 1 1 3-13.32v1.9l-3.73 3.69a1 1 0 0 0 0 1.41 1 1 0 0 0 .71.3 1 1 0 0 0 .7-.29l3.7-3.69h1.91c.46.934.702 1.96.71 3a1 1 0 0 0 2 0 8.88 8.88 0 0 0-.54-3H26a1 1 0 0 0 .7-.3l1.3-1.34A11.87 11.87 0 0 1 29 17a1 1 0 0 0 2 0 14 14 0 0 0-1.44-6.18l1.14-1.14a1 1 0 1 0-1.42-1.41L25.57 12H22V8.4l3.73-3.7a1 1 0 0 0-1.41-1.41l-1.2 1.13a14 14 0 1 0-7.32 26.52A8 8 0 0 0 13 37a1 1 0 0 0 2 0 6 6 0 0 1 8.93-5.23A8 8 0 0 0 22 37a1 1 0 0 0 2 0 6 6 0 1 1 12 0 1 1 0 0 0 2 0 8 8 0 0 0-8-8zm-10.95-5.43c.19.044.385.067.58.07.175.003.35-.014.52-.05l1.85-.37a.83.83 0 0 1 1 .78 2 2 0 1 1-4 0 2.45 2.45 0 0 1 .05-.43z"/></g></svg>
