<svg focusable="false" xmlns="http://www.w3.org/2000/svg" width="40" height="40" viewBox="0 0 40 40"><title>growth-40</title><g fill="none" fill-rule="evenodd"><path d="M0 0h40v40H0z"/><path fill="var(--ukg_sys_color_featureIcon_light, #30CEBB)" fill-rule="nonzero" d="M20.03 26.989a7 7 0 0 0-6.18 3.708 9.473 9.473 0 0 0 12.35 0 7 7 0 0 0-6.17-3.708z"/><path fill="var(--ukg_sys_color_featureIcon_dark, #005151)" fill-rule="nonzero" d="M20.07 16.773a4 4 0 0 1 3.96 4.039v.27a.91.91 0 0 1 0 .17 4 4 0 0 1-4 3.738 4 4 0 0 1-4-3.818v-.27a.91.91 0 0 1 0-.17 4 4 0 0 1 4.04-3.959zm-.04 2.22a2 2 0 0 0-2 1.959v.04a2 2 0 1 0 2-2zm13-7.997h-4a1 1 0 1 0 0 2h1.56l-3.06 3.118a10.472 10.472 0 0 0-6.46-3.069V9.407l1.29 1.3a1.004 1.004 0 0 0 1.42-1.42l-3-2.999a1 1 0 0 0-1.09-.21.81.81 0 0 0-.29.19l-3 2.999a1 1 0 0 0 0 1.42 1 1 0 0 0 1.42 0l1.29-1.3v3.638a10.472 10.472 0 0 0-6.58 3.089l-3.09-3.119H11a1 1 0 1 0 0-1.999H7a1 1 0 0 0-1 1v3.998a1 1 0 0 0 2 0v-1.59l3.27 3.27a10.492 10.492 0 0 0 1.807 13.721 10.503 10.503 0 0 0 13.846 0 10.492 10.492 0 0 0 1.807-13.722L32 14.405v1.589a1 1 0 0 0 2 0v-3.998a1 1 0 0 0-.97-1zM15.18 30.487a6 6 0 0 1 9.7 0 8.453 8.453 0 0 1-9.7 0zm11.19-1.329a8.001 8.001 0 0 0-12.68 0 8.494 8.494 0 0 1 .444-11.779 8.503 8.503 0 0 1 11.792 0 8.494 8.494 0 0 1 .444 11.779z"/></g></svg>
