<svg focusable="false" xmlns="http://www.w3.org/2000/svg" width="40" height="40" viewBox="0 0 40 40"><title>hand-calendar-40</title><g fill="none" fill-rule="evenodd"><path d="M0 0h40v40H0z"/><path fill="var(--ukg_sys_color_featureIcon_light, #30CEBB)" fill-rule="nonzero" d="M11 22.982v8l-5 2v-10h5zm19-14a2 2 0 0 1 2 2v3H11v-3a2 2 0 0 1 2-2z"/><path fill="var(--ukg_sys_color_featureIcon_dark, #005151)" fill-rule="nonzero" d="M27 5.982a1 1 0 0 1 1 1v1h2.01a3 3 0 0 1 3 3v7a1 1 0 1 1-2 0v-7a1 1 0 0 0-1-1h-2v1a1 1 0 1 1-2 0v-1h-9v1a1 1 0 1 1-2 0v-1h-2a1 1 0 0 0-1 1v10.38l1.21-.6a7.33 7.33 0 0 1 3.28-.78l.344.007a7.34 7.34 0 0 1 2.957.773l2.8 1.4a2.52 2.52 0 0 1 1.34 1.74l5.06-2.54a3.43 3.43 0 0 1 3.36.16l.02.02a3.45 3.45 0 0 1-.27 6l-10.88 5.44a9.631 9.631 0 0 1-4.23 1 9.431 9.431 0 0 1-4.22-.99l-1.78-.89-3.55 1.78c-.14.068-.295.102-.45.1a1 1 0 0 1-.43-1.89l4-2a1 1 0 0 1 .9 0l2.22 1.11a7.49 7.49 0 0 0 3.31.78l.345-.01a7.54 7.54 0 0 0 2.975-.77l10.87-5.44a1.45 1.45 0 0 0 .12-2.54 1.44 1.44 0 0 0-1.42-.07l-6.55 3.28a6.06 6.06 0 0 1-.84.32 2.6 2.6 0 0 1-1.05.23H16a1 1 0 0 1 0-2h5a3 3 0 0 0 .73-.05.53.53 0 0 0 .27-.46.56.56 0 0 0-.3-.49l-2.8-1.43a5.4 5.4 0 0 0-2.4-.57l-.281.007a5.4 5.4 0 0 0-2.15.573l-2.65 1.32-.1.042a1 1 0 0 1-.32.058H7a1 1 0 0 1 0-2h3v-11a3 3 0 0 1 3-3h2v-1a1 1 0 0 1 2 0v1h9v-1a1 1 0 0 1 1-1zm-.01 9.99a1.5 1.5 0 1 1 0 3 1.5 1.5 0 0 1 0-3zm-5.49 0a1.5 1.5 0 1 1 0 3 1.5 1.5 0 0 1 0-3zm-5.5 0a1.5 1.5 0 1 1 0 3 1.5 1.5 0 0 1 0-3z"/></g></svg>
