<svg focusable="false" xmlns="http://www.w3.org/2000/svg" width="40" height="40" viewBox="0 0 40 40"><title>hand-heart-40</title><g fill="none" fill-rule="evenodd"><path d="M0 0h40v40H0z"/><path fill="var(--ukg_sys_color_featureIcon_dark, #005151)" fill-rule="nonzero" d="M29.06 10.806a3.05 3.05 0 0 0-1 .18v-.39a3 3 0 0 0-3-3 2.91 2.91 0 0 0-1.22.27 3 3 0 0 0-5.55 0 3 3 0 0 0-4.23 2.73v9.41a1 1 0 1 0 2 0v-9.41a1 1 0 0 1 2 0v8.41a1 1 0 1 0 2 0v-10a1 1 0 0 1 2 0v10a1 1 0 1 0 2 0v-8.41a1 1 0 0 1 2 0v8.41a1 1 0 1 0 2 0v-5.2a1 1 0 0 1 2 0v13.2a5 5 0 0 1-5 5h-5.52a5 5 0 0 1-3.54-1.46l-7.75-7.75a1.12 1.12 0 0 1 .79-1.91 1.1 1.1 0 0 1 .79.32l4.5 4.51a1.004 1.004 0 0 0 1.42-1.42l-4.5-4.5a3.11 3.11 0 0 0-2.21-.91 3.09 3.09 0 0 0-2.21.91 3.13 3.13 0 0 0 0 4.41l7.77 7.8a7 7 0 0 0 4.94 2h5.54a7 7 0 0 0 7-7v-13.2a3 3 0 0 0-3.02-3z"/><path fill="var(--ukg_sys_color_featureIcon_light, #30CEBB)" fill-rule="nonzero" d="M22.79 22.736a3.25 3.25 0 0 0-.23.29 2.09 2.09 0 0 0-.23-.29 2.503 2.503 0 0 0-3.54 3.54l3.77 3.73 3.77-3.73a2.5 2.5 0 0 0 0-3.54 2.52 2.52 0 0 0-3.54 0z"/></g></svg>
