<svg focusable="false" xmlns="http://www.w3.org/2000/svg" width="40" height="40" viewBox="0 0 40 40"><title>headphone-40</title><g fill="none" fill-rule="evenodd"><path d="M0 0h40v40H0z"/><path fill="var(--ukg_sys_color_featureIcon_light, #30CEBB)" fill-rule="nonzero" d="M21.077 30.02a2 2 0 1 1 0 4h-2a2 2 0 1 1 0-4h2zm-8-13v10h-3v-10h3zm17 0v10h-3v-10h3zm-10 .25a.76.76 0 0 1 .75.75v8a.75.75 0 1 1-1.5 0v-8a.76.76 0 0 1 .75-.75zm3 2a.76.76 0 0 1 .75.75v4a.75.75 0 0 1-1.5 0v-4a.76.76 0 0 1 .75-.75zm-6 0a.76.76 0 0 1 .75.75v4a.75.75 0 1 1-1.5 0v-4a.76.76 0 0 1 .75-.75zm-3.53-9.79a9.9 9.9 0 0 1 13.06 0l-1.69 1.7a2 2 0 0 1-2.22.41 6.31 6.31 0 0 0-5.24 0 2 2 0 0 1-2.22-.41z"/><path fill="var(--ukg_sys_color_featureIcon_dark, #005151)" fill-rule="nonzero" d="M31.077 16.02a11 11 0 0 0-21.9 0h-.1a3 3 0 0 0-3 3v6a3 3 0 0 0 3 3h.09a6 6 0 0 0 5.91 5h5a1 1 0 1 0 0-2h-5a4 4 0 0 1-3.86-3h1.86a1 1 0 0 0 1-1v-10a1 1 0 0 0-1-1h-1.94a9 9 0 0 1 17.88 0h-1.94a1 1 0 0 0-1 1v10a1 1 0 0 0 1 1h4a3 3 0 0 0 3-3v-6a3 3 0 0 0-3-3zm-19 2v8h-3a1 1 0 0 1-1-1v-6a1 1 0 0 1 1-1h3zm20 7a1 1 0 0 1-1 1h-3v-8h3a1 1 0 0 1 1 1v6z"/></g></svg>
