<svg focusable="false" xmlns="http://www.w3.org/2000/svg" width="40" height="40" viewBox="0 0 40 40"><title>healthcare-40</title><g fill="none" fill-rule="evenodd"><path d="M0 0h40v40H0z"/><path fill="var(--ukg_sys_color_featureIcon_light, #30CEBB)" fill-rule="nonzero" d="M11 23v7.46L6 33V23h5zm14-13v4h4v3h-4v4h-3v-4h-4v-3h4v-4h3z"/><path fill="var(--ukg_sys_color_featureIcon_dark, #005151)" fill-rule="nonzero" d="M32.36 21.54a3.43 3.43 0 0 0-3.36-.16l-5.06 2.54a2.56 2.56 0 0 0-1.34-1.75l-2.8-1.39a7.39 7.39 0 0 0-2.21-.69 7.49 7.49 0 1 1 13.09-2.38 1 1 0 1 0 1.91.58A9.39 9.39 0 0 0 33 15.5a9.5 9.5 0 1 0-17.79 4.63 7.1 7.1 0 0 0-2 .65L10.76 22H7a1 1 0 0 0 0 2h4a1 1 0 0 0 .45-.11l2.65-1.32a5.4 5.4 0 0 1 2.4-.57 5.4 5.4 0 0 1 2.4.57L21.7 24a.56.56 0 0 1 .3.49.53.53 0 0 1-.27.46A3 3 0 0 1 21 25h-5a1 1 0 0 0 0 2h5.45a2.6 2.6 0 0 0 1.05-.23 6.06 6.06 0 0 0 .84-.32l6.55-3.28a1.44 1.44 0 0 1 1.42.07c.435.26.698.733.69 1.24a1.45 1.45 0 0 1-.81 1.31l-10.88 5.43A7.47 7.47 0 0 1 17 32a7.49 7.49 0 0 1-3.31-.78l-2.22-1.11a1 1 0 0 0-.9 0l-4 2A1 1 0 0 0 7 34a1 1 0 0 0 .45-.1L11 32.12l1.78.89A9.431 9.431 0 0 0 17 34a9.481 9.481 0 0 0 4.22-1l10.88-5.44a3.45 3.45 0 0 0 .27-6l-.01-.02z"/></g></svg>
