<svg focusable="false" xmlns="http://www.w3.org/2000/svg" width="24" height="24" viewBox="0 0 24 24"><title>Icons / Utility / help</title><g fill="none" fill-rule="evenodd"><path d="M0 0h24v24H0z"/><path fill="currentColor" fill-rule="nonzero" d="M12 2c5.523 0 10 4.477 10 10s-4.477 10-10 10S2 17.523 2 12 6.477 2 12 2zm0 2a8 8 0 1 0 0 16 8 8 0 0 0 0-16zm0 11.5a1.25 1.25 0 1 1 0 2.5 1.25 1.25 0 0 1 0-2.5zM12 6c1.99 0 3.457 1.514 3.464 2.993l.002.05a3.844 3.844 0 0 1-.769 2.497 4.22 4.22 0 0 1-.407.468c-.285.28-1.112.937-1.044.876l-.048.041c-.17.155-.198.247-.198.575a1 1 0 0 1-2 0c0-.984.312-1.603.983-2.168.107-.09.511-.405.465-.368.173-.137.308-.253.436-.379.079-.079.149-.16.21-.242.308-.412.39-.803.374-1.22l-.004-.12C13.464 8.612 12.874 8 12 8c-.931 0-1.5.554-1.5 1.004a1 1 0 0 1-2 0C8.5 7.437 9.976 6 12 6z"/></g></svg>
