<svg focusable="false" xmlns="http://www.w3.org/2000/svg" width="24" height="24" viewBox="0 0 24 24"><title>Icons / Navigation / hierarchy</title><g fill="none" fill-rule="evenodd"><path d="M0 0h24v24H0z"/><path fill="currentColor" fill-rule="nonzero" d="M12 2a3 3 0 0 1 1 5.829V11h5a2 2 0 0 1 2 2v3c0 .057-.002.113-.007.168a3 3 0 1 1-1.993.003V13h-5v3.171a3.001 3.001 0 1 1-2 0V13H6v3.171a3.001 3.001 0 1 1-1.993-.003A2.006 2.006 0 0 1 4 16v-3a2 2 0 0 1 2-2h5V7.83A3.001 3.001 0 0 1 12 2zm0 16a1 1 0 1 0 0 2 1 1 0 0 0 0-2zm-7 0a1 1 0 1 0 0 2 1 1 0 0 0 0-2zm14 0a1 1 0 1 0 0 2 1 1 0 0 0 0-2zM12 4a1 1 0 1 0 0 2 1 1 0 0 0 0-2z"/></g></svg>
