<svg focusable="false" xmlns="http://www.w3.org/2000/svg" width="40" height="40" viewBox="0 0 40 40"><title>house-40</title><g fill="none" fill-rule="evenodd"><path d="M0 0h40v40H0z"/><path fill="var(--ukg_sys_color_featureIcon_light, #30CEBB)" fill-rule="nonzero" d="M16.8 24.5h6.4v8.3h-6.4v-8.3Zm2.1-16.2L8.5 15.5h23.1L21.1 8.3c-.8-.4-1.5-.4-2.2 0Z"/><path fill="var(--ukg_sys_color_featureIcon_dark, #005151)" fill-rule="nonzero" d="M21.8 6.5s.1 0 .1.1l13.2 9.1c.4.2.5.7.4 1.1-.1.4-.5.7-.9.7H10.1v13.1c0 .7.6 1.3 1.4 1.3h4.3v-7.3c0-.6.4-1 1-1h6.4c.6 0 1 .4 1 1v7.3h4.3c.8 0 1.4-.6 1.4-1.3V21c0-.6.4-1 1-1s1 .4 1 1v9.6c0 1.8-1.5 3.3-3.4 3.3h-17c-1.9 0-3.4-1.5-3.4-3.3V17.5H5.4c-.4 0-.8-.3-1-.7-.1-.4 0-.9.4-1.1l3.3-2.275V9.4c0-.6.4-1 1-1s1 .4 1 1v2.646L18 6.6s.1 0 .1-.1c1.2-.7 2.4-.7 3.7 0Zm.4 19.1h-4.4v6.3h4.4v-6.3ZM19.1 8.3 8.6 15.5h22.8L20.9 8.3c-.7-.3-1.2-.3-1.8 0Z"/></g></svg>
