<svg focusable="false" xmlns="http://www.w3.org/2000/svg" width="24" height="24" viewBox="0 0 24 24"><title>Icon / Utility / image-edit</title><g fill="none" fill-rule="evenodd"><path d="M0 0h24v24H0z"/><path fill="currentColor" fill-rule="nonzero" d="m15.32 2.999-2.057 2L4 5v15h15v-9.187l2-1.94V20a2 2 0 0 1-2 2H4a2 2 0 0 1-2-2V5a2 2 0 0 1 2-2l11.32-.001Zm-.914 10.296a1 1 0 0 1 .187.19l3.388 4.512H5l2.48-3.19a1 1 0 0 1 1.56-.024l1.52 1.84 2.443-3.15a1 1 0 0 1 1.403-.178ZM19.27 1.442a1.49 1.49 0 0 1 2.12 0l1.15 1.15c.59.58.59 1.53 0 2.12l-6.29 6.29h-3.27v-3.27Zm-.29 2.53-4.45 4.45v1.03h1.03l4.45-4.45-1.03-1.03Z"/></g></svg>
