<svg focusable="false" xmlns="http://www.w3.org/2000/svg" width="24" height="24" viewBox="0 0 24 24"><title>Icon / Text Formatting / image-right</title><g fill="none" fill-rule="evenodd"><path d="M0 0h24v24H0z"/><path fill="currentColor" fill-rule="nonzero" d="M3.8 17h6.4c.44 0 .8-.45.8-1s-.36-1-.8-1H3.8c-.44 0-.8.45-.8 1s.36 1 .8 1Zm.2 4h16c.55 0 1-.45 1-1s-.45-1-1-1H4c-.55 0-1 .45-1 1s.45 1 1 1ZM3 4c0 .55.45 1 1 1h16c.55 0 1-.45 1-1s-.45-1-1-1H4c-.55 0-1 .45-1 1Zm.8 5h6.4c.44 0 .8-.45.8-1s-.36-1-.8-1H3.8c-.44 0-.8.45-.8 1s.36 1 .8 1ZM20 7a1 1 0 0 1 1 1v8a1 1 0 0 1-1 1h-6a1 1 0 0 1-1-1V8a1 1 0 0 1 1-1h6Zm-.949 2.005h-4.077v5.99h4.077v-5.99ZM10.2 11c.44 0 .8.45.8 1s-.36 1-.8 1H3.8c-.44 0-.8-.45-.8-1s.36-1 .8-1Z"/></g></svg>
