<svg focusable="false" xmlns="http://www.w3.org/2000/svg" width="24" height="24" viewBox="0 0 24 24"><title>Icon / Text Formatting / image-left</title><g fill="none" fill-rule="evenodd"><path d="M0 0h24v24H0z"/><path fill="currentColor" fill-rule="nonzero" d="M13.8 17h6.4c.44 0 .8-.45.8-1s-.36-1-.8-1h-6.4c-.44 0-.8.45-.8 1s.36 1 .8 1ZM4 21h16c.55 0 1-.45 1-1s-.45-1-1-1H4c-.55 0-1 .45-1 1s.45 1 1 1ZM3 4c0 .55.45 1 1 1h16c.55 0 1-.45 1-1s-.45-1-1-1H4c-.55 0-1 .45-1 1Zm10.8 5h6.4c.44 0 .8-.45.8-1s-.36-1-.8-1h-6.4c-.44 0-.8.45-.8 1s.36 1 .8 1ZM10 7a1 1 0 0 1 1 1v8a1 1 0 0 1-1 1H4a1 1 0 0 1-1-1V8a1 1 0 0 1 1-1h6Zm-.949 2.005H4.974v5.99H9.05v-5.99ZM20.2 11c.44 0 .8.45.8 1s-.36 1-.8 1h-6.4c-.44 0-.8-.45-.8-1s.36-1 .8-1Z"/></g></svg>
