<svg focusable="false" xmlns="http://www.w3.org/2000/svg" width="24" height="24" viewBox="0 0 24 24"><title>Icons / Utility / import</title><g fill="none" fill-rule="evenodd"><path d="M0 0h24v24H0z"/><path fill="currentColor" fill-rule="nonzero" d="M8 8v2H4v10h16V10h-4V8h4a2 2 0 0 1 2 2v10a2 2 0 0 1-2 2H4a2 2 0 0 1-2-2V10a2 2 0 0 1 2-2h4zm4.005-6c.55 0 1 .45 1 1v11.67l1.88-1.88a.996.996 0 1 1 1.41 1.41l-3.59 3.59a.996.996 0 0 1-1.41 0l-3.59-3.59a.996.996 0 1 1 1.41-1.41l1.89 1.88V3c0-.55.45-1 1-1z"/></g></svg>
