<svg focusable="false" xmlns="http://www.w3.org/2000/svg" width="24" height="24" viewBox="0 0 24 24"><title>Icons / Utility / import-export</title><g fill="none" fill-rule="evenodd"><path d="M0 0h24v24H0z"/><path fill="currentColor" fill-rule="nonzero" d="M17.001 4.955c.55 0 1 .45 1 1v10.67l1.88-1.88a.996.996 0 1 1 1.41 1.41l-3.59 3.59a.996.996 0 0 1-1.41 0l-3.59-3.59a.996.996 0 1 1 1.41-1.41l1.89 1.88V5.955c0-.55.45-1 1-1zm-9.29-.685 3.59 3.59a.996.996 0 1 1-1.41 1.41L8 7.39v10.67c0 .55-.45 1-1 1s-1-.45-1-1V7.39L4.12 9.27a.996.996 0 1 1-1.41-1.41L6.3 4.27a.996.996 0 0 1 1.41 0z"/></g></svg>
