<svg focusable="false" xmlns="http://www.w3.org/2000/svg" width="40" height="40" viewBox="0 0 40 40"><title>investment-dollar-40</title><g fill="none" fill-rule="evenodd"><path d="M0 0h40v40H0z"/><path fill="var(--ukg_sys_color_featureIcon_light, #30CEBB)" fill-rule="nonzero" d="M16.82 34C10.844 34 6 29.156 6 23.18V22h3.18c5.88 0 10.663 4.69 10.816 10.532l.004.288C20 26.844 24.844 22 30.82 22H34v1.18C34 29.156 29.156 34 23.18 34h-6.36z"/><path fill="var(--ukg_sys_color_featureIcon_dark, #005151)" fill-rule="nonzero" d="M9.18 21A11.84 11.84 0 0 1 20 28.08 11.84 11.84 0 0 1 30.82 21H33a1 1 0 0 1 0 2h-2.22a9.83 9.83 0 0 0-9.63 7.93l5.25-3.74a1 1 0 1 1 1.16 1.62l-7 5a1 1 0 0 1-.58.19l-.124-.008a1 1 0 0 1-.456-.182l-7-5a1 1 0 1 1 1.16-1.62l5.25 3.74A9.83 9.83 0 0 0 9.18 23H7a1 1 0 1 1 0-2zM25.5 8.223A8 8 0 0 1 27 17.81a1.012 1.012 0 1 1-1.76-1 6 6 0 1 0-2.43 2.43 1.012 1.012 0 0 1 1 1.76A8 8 0 0 1 20 22a8 8 0 1 1 5.5-13.777zM20.03 9.25a.75.75 0 0 1 .75.75v.28a2.22 2.22 0 0 1 1.31.63.75.75 0 1 1-1.06 1.06.75.75 0 0 0-.53-.22h-1a.75.75 0 0 0 0 1.5h1a2.25 2.25 0 0 1 2.25 2.25 2.24 2.24 0 0 1-2.03 2.22V18a.75.75 0 1 1-1.5 0v-.28a2.22 2.22 0 0 1-1.31-.63.75.75 0 0 1 1.06-1.06c.14.14.331.22.53.22h1a.75.75 0 1 0 0-1.5h-1a2.25 2.25 0 0 1-.22-4.48V10a.75.75 0 0 1 .75-.75z"/></g></svg>
