<svg focusable="false" xmlns="http://www.w3.org/2000/svg" width="40" height="40" viewBox="0 0 40 40"><title>jar-dollar-40</title><g fill="none" fill-rule="evenodd"><path d="M0 0h40v40H0z"/><path fill="var(--ukg_sys_color_featureIcon_light, #30CEBB)" fill-rule="nonzero" d="M13.534 19.326a7 7 0 1 1 12.935 5.357 7 7 0 0 1-12.935-5.357zM27.496 6.004v6h-14.49v-6h14.49zm5.51 4.25a.75.75 0 0 1 0 1.5h-2a.75.75 0 0 1 0-1.5zm-24 0a.75.75 0 0 1 0 1.5h-2a.75.75 0 1 1 0-1.5zm22.47-3.78a.75.75 0 0 1 1.06 1.06l-2 2a.75.75 0 0 1-1.06-1.06zm-23.982.019a.75.75 0 0 1 1.042-.019l2 2a.75.75 0 0 1-1.06 1.06l-2-2a.75.75 0 0 1 .018-1.041z"/><path fill="var(--ukg_sys_color_featureIcon_dark, #005151)" fill-rule="nonzero" d="M13.006 6.004a1 1 0 0 1 1 1v3h13a1 1 0 0 1 .71.29 11.2 11.2 0 0 1 3.29 7.95v8.76a1 1 0 0 1-2 0v-8.76a9.17 9.17 0 0 0-2.43-6.24h-13.14a9.17 9.17 0 0 0-2.43 6.24v12.76a1 1 0 0 0 1 1h16a1 1 0 0 0 1-1 1 1 0 0 1 2 0 3 3 0 0 1-3 3h-16a3 3 0 0 1-3-3v-12.76a11.15 11.15 0 0 1 3-7.62v-3.62a1 1 0 0 1 1-1zm7 11.25a.75.75 0 0 1 .75.75v.31a2.22 2.22 0 0 1 1.31.63.75.75 0 0 1-1.06 1.06.75.75 0 0 0-.5-.25h-1a.75.75 0 0 0 0 1.5h1a2.24 2.24 0 0 1 .25 4.47v.28a.76.76 0 0 1-.75.75.76.76 0 0 1-.75-.75v-.31a2.22 2.22 0 0 1-1.31-.63.75.75 0 0 1 1.06-1.06.75.75 0 0 0 .5.25h1a.75.75 0 1 0 0-1.5h-1a2.24 2.24 0 0 1-.25-4.47v-.28a.75.75 0 0 1 .75-.75z"/></g></svg>
