<svg focusable="false" xmlns="http://www.w3.org/2000/svg" width="40" height="40" viewBox="0 0 40 40"><title>laptop-40</title><g fill="none" fill-rule="evenodd"><path d="M0 0h40v40H0z"/><path fill="var(--ukg_sys_color_featureIcon_light, #30CEBB)" fill-rule="nonzero" d="M33 30a3 3 0 0 1-3 3H10a3 3 0 0 1-3-3zm-7-20a2 2 0 0 1 2 2v6a2 2 0 0 1-2 2H14a2 2 0 0 1-2-2v-6a2 2 0 0 1 2-2h12z"/><path fill="var(--ukg_sys_color_featureIcon_dark, #005151)" fill-rule="nonzero" d="M22 29h-4a1 1 0 0 1 0-2h4a1 1 0 0 1 0 2zm11.16 1.06a1 1 0 0 0-1.27.61A2 2 0 0 1 30 32H10a2 2 0 0 1-2-1.87L9.75 24h20.5l.93 3.27a1 1 0 0 0 1.24.69 1 1 0 0 0 .68-1.23L32 22.86V9a3 3 0 0 0-3-3H11a3 3 0 0 0-3 3v13.86l-2 6.87A.8.8 0 0 0 6 30a4 4 0 0 0 4 4h20a4 4 0 0 0 3.77-2.67 1 1 0 0 0-.61-1.27zM10 9a1 1 0 0 1 1-1h18a1 1 0 0 1 1 1v13H10V9z"/></g></svg>
