<svg focusable="false" xmlns="http://www.w3.org/2000/svg" width="40" height="40" viewBox="0 0 40 40"><title>learning-40</title><g fill="none" fill-rule="evenodd"><path d="M0 0h40v40H0z"/><path fill="var(--ukg_sys_color_featureIcon_light, #30CEBB)" fill-rule="nonzero" d="M24.92 22.084A11.996 11.996 0 0 1 32 33v1H8v-1a11.995 11.995 0 0 1 4.133-9.034l6.457 6.445a2 2 0 0 0 2.82 0l6.45-6.437a12.41 12.41 0 0 0-2.544-1.7z"/><path fill="var(--ukg_sys_color_featureIcon_dark, #005151)" fill-rule="nonzero" d="m12.93 6.001.07.009h14a1 1 0 1 1 0 2h-3v1.759a5.457 5.457 0 0 1 1.5 3.498v.48a5.51 5.51 0 0 1-5.5 5.177 5.51 5.51 0 0 1-5.5-5.177v-.48A5.457 5.457 0 0 1 16 9.77V8.01h-2v2a1 1 0 0 1-2 0v-3a1 1 0 0 1 .79-1 .56.56 0 0 1 .21 0zm9.51 5.007h-4.88A3.488 3.488 0 0 0 20 17.006a3.49 3.49 0 0 0 2.44-5.998zM20 20.005c-7.18 0-13 5.818-13 12.995a1 1 0 0 0 2 0 10.996 10.996 0 0 1 5.87-9.716l4.42 4.428a1 1 0 0 0 1.42 0l4.42-4.428A10.996 10.996 0 0 1 31 33a1 1 0 0 0 2 0 13.002 13.002 0 0 0-13-12.995zm0 5.588-3.13-3.089a10.884 10.884 0 0 1 6.26 0L20 25.593z"/></g></svg>
