<svg focusable="false" xmlns="http://www.w3.org/2000/svg" width="40" height="40" viewBox="0 0 40 40"><title>learning-certificate-40</title><g fill="none" fill-rule="evenodd"><path d="M0 0h40v40H0z"/><path fill="var(--ukg_sys_color_featureIcon_light, #30CEBB)" fill-rule="nonzero" d="M20.67 30 23 32.34 25.34 30H26v5l-3-1-3 1v-5h.67zm.215-7.12a3 3 0 0 1 4.245 4.24 3 3 0 1 1-4.245-4.24z"/><path fill="var(--ukg_sys_color_featureIcon_dark, #005151)" fill-rule="nonzero" d="M16 16a1 1 0 0 1 0 2h-4a1 1 0 0 1 0-2zm12-4a1 1 0 0 1 0 2H12a1 1 0 0 1 0-2zm5 7a1 1 0 0 0 1-1v-7.8A3.11 3.11 0 0 0 31 7H9a3.11 3.11 0 0 0-3 3.2v12.6A3.11 3.11 0 0 0 9 26h6.25L17 27.75V30a1 1 0 0 0 1 1h2.25l2.05 2a1 1 0 0 0 .7.3 1 1 0 0 0 .71-.3l2-2H28a1 1 0 0 0 1-1v-2.25L30.75 26H31a3.11 3.11 0 0 0 3-3.2V22a1 1 0 0 0-2 0v.8a1.12 1.12 0 0 1-1 1.2h-.25L29 22.25V20a1 1 0 0 0-1-1h-2.25l-2-2a1 1 0 0 0-1.41 0l-2 2H18a1 1 0 0 0-1 1v2.25L15.25 24H9a1.12 1.12 0 0 1-1-1.2V10.2A1.12 1.12 0 0 1 9 9h22a1.12 1.12 0 0 1 1 1.2V18a1 1 0 0 0 1 1zm-14.29 4.38a1 1 0 0 0 .29-.71V21h1.67a1 1 0 0 0 .71-.29L23 19.08l1.63 1.63a1 1 0 0 0 .7.29H27v1.67a1 1 0 0 0 .3.7L28.92 25l-1.62 1.63a1 1 0 0 0-.3.71V29h-1.66a1 1 0 0 0-.71.29L23 30.92l-1.62-1.63a1.05 1.05 0 0 0-.71-.29H19v-1.67a1 1 0 0 0-.29-.7L17.08 25l1.63-1.62z"/></g></svg>
