<svg focusable="false" xmlns="http://www.w3.org/2000/svg" width="40" height="40" viewBox="0 0 40 40"><title>letter-love-40</title><g fill="none" fill-rule="evenodd"><path fill="var(--ukg_sys_color_featureIcon_light, #30CEBB)" d="M12 9.963V19.98l5.653 4.261 2.621-.022a4.748 4.748 0 0 1 2.5.688l2.826-2.123v-1.002L28 19.98V9.963H12z"/><path fill="var(--ukg_sys_color_featureIcon_dark, #005151)" d="m16.098 9.963 1.404-1.124c1.413-1.133 3.582-1.133 4.996 0l1.404 1.124h3.201l-3.356-2.69c-2.12-1.697-5.375-1.697-7.495 0l-3.355 2.69h3.201zM9.851 31.997l7.651-6.132c1.413-1.133 3.582-1.132 4.996-.001l7.653 6.133h-20.3zM8 30.914V17.976l8.341 6.265c-.028.021-.061.036-.089.058L8 30.914zm20-20.232 5.625 4.51a.982.982 0 0 1 .343.587.48.48 0 0 1 .014.045.912.912 0 0 1 .009.073c.003.026.009.045.009.075v15.024A3.005 3.005 0 0 1 31 34H9c-1.654 0-3-1.348-3-3.004V15.972c0-.019.01-.034.011-.053.004-.07.023-.136.041-.204.016-.06.028-.118.054-.173.026-.054.065-.1.1-.148a.967.967 0 0 1 .135-.163c.014-.012.02-.029.034-.04L12 10.682v2.565l-3.368 2.7 9.736 7.313c1.828-.493 3.884-.158 5.379 1.04L32 30.913V17.976l-6.4 4.807a.999.999 0 0 1-1.4-.2 1.001 1.001 0 0 1 .201-1.403l6.967-5.234L28 13.247v-2.565zm-5.75 2.31A2.752 2.752 0 0 1 25 15.745a2.74 2.74 0 0 1-1.085 2.178h.018L20 21.004l-3.933-3.08h.018A2.74 2.74 0 0 1 15 15.746a2.752 2.752 0 0 1 2.75-2.755A2.74 2.74 0 0 1 20 14.17a2.74 2.74 0 0 1 2.25-1.178z"/></g></svg>
