<svg focusable="false" xmlns="http://www.w3.org/2000/svg" width="40" height="40" viewBox="0 0 40 40"><title>lightning-40</title><g fill="none" fill-rule="evenodd"><path d="M0 0h40v40H0z"/><path fill="var(--ukg_sys_color_featureIcon_light, #30CEBB)" fill-rule="nonzero" d="m21 17 1-10-12 16h9l-1 10 8.87-11.8.95.37 2.97-3.96L30 17z"/><path fill="var(--ukg_sys_color_featureIcon_dark, #005151)" fill-rule="nonzero" d="M18 34a.92.92 0 0 1-.36-.07 1 1 0 0 1-.64-1l.9-8.9H10a1 1 0 0 1-.8-1.6l12-16a1 1 0 0 1 1.16-.33 1 1 0 0 1 .64 1l-.89 8.9H30a1 1 0 0 1 0 2h-9a1 1 0 0 1-.74-.33 1 1 0 0 1-.26-.77l.65-6.43L12 22h7a1 1 0 0 1 .74.33 1 1 0 0 1 .26.77l-.65 6.43 6.85-9.13a1 1 0 0 1 1.6 1.2l-9 12a1 1 0 0 1-.8.4z"/></g></svg>
