<svg focusable="false" xmlns="http://www.w3.org/2000/svg" width="40" height="40" viewBox="0 0 40 40"><title>lightbulb-40</title><g fill="none" fill-rule="evenodd"><path d="M0 0h40v40H0z"/><path fill="var(--ukg_sys_color_featureIcon_light, #30CEBB)" fill-rule="nonzero" d="M24 25v5a2 2 0 0 1-2 2h-4a2 2 0 0 1-2-2v-5h8zm-12.53 3.46a.75.75 0 0 1 1.06 0 .77.77 0 0 1 0 1.07l-2 2a.75.75 0 0 1-1.06 0 .77.77 0 0 1 0-1.07zm16 0a.75.75 0 0 1 1.06 0l2 2a.77.77 0 0 1 0 1.07.75.75 0 0 1-1.06 0l-2-2a.77.77 0 0 1 0-1.07zM12 25.25a.75.75 0 1 1 0 1.5H9a.75.75 0 1 1 0-1.5zm19 0a.75.75 0 1 1 0 1.5h-3a.75.75 0 1 1 0-1.5zm-7.55-10.78a.75.75 0 1 1 1.06 1.06l-2 2a.75.75 0 0 1-1.06 0L20 16.08l-1.51 1.47a.75.75 0 0 1-1.06 0l-2-2a.75.75 0 0 1 1.06-1.06L18 16l1.49-1.51a.75.75 0 0 1 1.06 0L22 15.94l1.49-1.47z"/><path fill="var(--ukg_sys_color_featureIcon_dark, #005151)" fill-rule="nonzero" d="M20 18a1 1 0 0 0-1 1v6h2v-6a1 1 0 0 0-1-1zm7-9.18A10 10 0 0 0 19.69 6 10.08 10.08 0 0 0 10 16a10 10 0 0 0 4.57 8.35 1 1 0 0 1 .43.81V30a3 3 0 0 0 3 3h1a1 1 0 0 0 2 0h1a3 3 0 0 0 3-3v-4.8a1 1 0 0 1 .46-.83A10 10 0 0 0 27 8.82zm-2.6 13.87A3 3 0 0 0 23 25.2V30a1 1 0 0 1-1 1h-4a1 1 0 0 1-1-1v-4.8a2.94 2.94 0 0 0-1.34-2.49A8 8 0 0 1 19.75 8H20a8 8 0 0 1 4.36 14.69h.04z"/></g></svg>
