<svg focusable="false" xmlns="http://www.w3.org/2000/svg" width="24" height="24" viewBox="0 0 24 24"><title>Icon / Utility / link_unlink</title><g fill="none" fill-rule="evenodd"><path d="M0 0h24v24H0z"/><path fill="currentColor" fill-rule="nonzero" d="M3.923 3.293 19.48 18.849a1 1 0 0 1-1.415 1.414l-7.485-7.485H8.994c-.51 0-.935-.388-.993-.884l-.007-.116c0-.427.272-.794.65-.936L6.532 8.729c-1.26.223-2.333 1.152-2.577 2.43a3.11 3.11 0 0 0 2.862 3.714l.178.005h3.05c.52 0 .95.43.95.95 0 .483-.37.888-.84.944l-.11.006h-3.05c-2.92 0-5.26-2.51-4.97-5.49.177-1.84 1.395-3.333 3.016-4.05l-2.53-2.53a1 1 0 0 1 1.413-1.415Zm12.851 3.485c2.61 0 4.95 1.91 5.2 4.51a5.008 5.008 0 0 1-2.432 4.792l-.005-.005-.039-.04-.032-.032-.22-.219-.053-.053-.423-.421-.062-.062-.289-.288-.05-.05-.245-.245a3.114 3.114 0 0 0 1.91-3.507c-.268-1.409-1.547-2.395-2.973-2.475l-.187-.005h-2.93c-.52 0-.95-.43-.95-.95 0-.483.371-.888.84-.943l.11-.007h2.83Zm-1.78 4c.55 0 1 .45 1 1a.993.993 0 0 1-.182.575l-.025-.025-.867-.867-.154-.153-.232-.233-.197-.198-.1-.099h.757Z"/></g></svg>
