<svg focusable="false" xmlns="http://www.w3.org/2000/svg" width="40" height="40" viewBox="0 0 40 40"><title>link-40</title><g fill="none" fill-rule="evenodd"><path d="M0 0h40v40H0z"/><path fill="var(--ukg_sys_color_featureIcon_light, #30CEBB)" fill-rule="nonzero" d="M17.48 16.69a6 6 0 0 1 6.81-1.16l-10 10-.111.12a2.001 2.001 0 0 0 2.941 2.71l10.71-10.77a7 7 0 0 1 .13 6.45l-1.06-.12-.16.272a5.67 5.67 0 0 1-.78.988l-6 6-.188.177a6 6 0 0 1-8.292-8.667zm11.006 11.575a.75.75 0 0 1 .734.215l1.93 1.93a.75.75 0 0 1-1.06 1.06l-1.93-1.93a.75.75 0 0 1 .326-1.275zm4.204-3.075a.75.75 0 1 1 0 1.5h-3a.75.75 0 1 1 0-1.5zM10 13.25a.76.76 0 0 1 .75.75.76.76 0 0 1-.75.75H7a.75.75 0 1 1 0-1.5zM8.558 8.488A.75.75 0 0 1 9.6 8.47l1.93 1.93a.75.75 0 0 1-1.06 1.06L8.54 9.53a.75.75 0 0 1 .018-1.042z"/><path fill="var(--ukg_sys_color_featureIcon_dark, #005151)" fill-rule="nonzero" d="m19.58 18.82-5 5-.95.95a3 3 0 0 0-.88 2.12 2.94 2.94 0 0 0 .88 2.12 3 3 0 0 0 4.24 0l5.12-5.12 6-6A7.011 7.011 0 0 0 19 8.05l-6 6a7 7 0 0 0-1.95 3.79 6.92 6.92 0 0 0 .33 3.5l-.67.66a7 7 0 0 0 9.9 9.9l6-6a7.06 7.06 0 0 0 1.65-2.62 1.001 1.001 0 0 0-1.89-.66 5 5 0 0 1-1.18 1.86l-6 6a5 5 0 0 1-7.07-7.07l6-6A5 5 0 0 1 22.39 16l-2.79 2.8-.02.02zm-3.17 8.83a1 1 0 1 1-1.42-1.41l.66-.66A7 7 0 0 0 18 26h.08l-1.67 1.65zM21.7 14h-.08l1.66-1.67a1 1 0 0 1 1.42 0 1 1 0 0 1 0 1.42l-.66.66A7 7 0 0 0 21.7 14zm-1.59 7.17 6-6a3 3 0 1 0-4.24-4.24l-6 6-2.81 2.81a4.91 4.91 0 0 1 0-1.53 5 5 0 0 1 1.4-2.7l6-6a5.003 5.003 0 1 1 7.07 7.08l-6 6a5 5 0 0 1-4.23 1.4l2.81-2.82z"/></g></svg>
