<svg focusable="false" xmlns="http://www.w3.org/2000/svg" width="40" height="40" viewBox="0 0 40 40"><title>location-person-40</title><g fill="none" fill-rule="evenodd"><path d="M0 0h40v40H0z"/><circle cx="20.077" cy="18.02" r="7" fill="var(--ukg_sys_color_featureIcon_light, #30CEBB)" fill-rule="nonzero"/><path fill="var(--ukg_sys_color_featureIcon_dark, #005151)" fill-rule="nonzero" d="M20.077 6.02c6.628 0 12 5.373 12 12a12.31 12.31 0 0 1-4 9.1l-4.35 3.97a1 1 0 0 1-1.42-.07 1 1 0 0 1 .07-1.44l4.33-3.94a10.32 10.32 0 0 0 3.37-7.62c0-5.523-4.477-10-10-10-5.522 0-10 4.477-10 10a10.32 10.32 0 0 0 3.37 7.62l7.3 6.64a1 1 0 0 1-.67 1.74 1 1 0 0 1-.7-.26l-7.3-6.64a12.31 12.31 0 0 1-4-9.1c0-6.627 5.373-12 12-12zm0 12.632a5.69 5.69 0 0 1 5.38 3.838 7 7 0 0 1-10.76 0 5.69 5.69 0 0 1 5.38-3.838zm-1.573-5.082a2.23 2.23 0 1 1 3.147 3.16 2.23 2.23 0 0 1-3.147-3.16z"/></g></svg>
