<svg focusable="false" xmlns="http://www.w3.org/2000/svg" width="40" height="40" viewBox="0 0 40 40"><title>location-40</title><g fill="none" fill-rule="evenodd"><path d="M0 0h40v40H0z"/><circle cx="20" cy="17" r="5" fill="var(--ukg_sys_color_featureIcon_light, #30CEBB)" fill-rule="nonzero"/><path fill="var(--ukg_sys_color_featureIcon_dark, #005151)" fill-rule="nonzero" d="M20 34a1 1 0 0 1-.78-.38l-8-10a11 11 0 1 1 17.58 0l-5.46 6.82a1 1 0 1 1-1.56-1.25l5.44-6.79A8.91 8.91 0 0 0 29 17a9 9 0 0 0-18 0 8.9 8.9 0 0 0 1.8 5.4l8 10a1 1 0 0 1-.16 1.41A1 1 0 0 1 20 34z"/></g></svg>
