<svg focusable="false" xmlns="http://www.w3.org/2000/svg" width="40" height="40" viewBox="0 0 40 40"><title>lock-locked-edit-40</title><g fill="none" fill-rule="evenodd"><path d="M0 0h40v40H0z"/><path fill="var(--ukg_sys_color_featureIcon_light, #30CEBB)" fill-rule="nonzero" d="M31 22.02h1v-4.08h-1.42L22 26.52l-4 1 .99-3.99L25.52 17H9v16h22z"/><path fill="var(--ukg_sys_color_featureIcon_dark, #005151)" fill-rule="nonzero" d="M31 21a1 1 0 0 0-1 1v10H10V18a1 1 0 0 0-2 0v15a1 1 0 0 0 1 1h22a1 1 0 0 0 1-1V22a1 1 0 0 0-1-1zm2.71-6.18-3-3a1 1 0 0 0-1.42 0L28 13.16A8.011 8.011 0 0 0 12 14v3h2v-3a6 6 0 1 1 12 0v1.11l-7.72 7.72a1 1 0 0 0-.26.46l-1 4a1 1 0 0 0 .26.95 1 1 0 0 0 .71.29 1 1 0 0 0 .24 0l4-1a1 1 0 0 0 .47-.26l11-11a1 1 0 0 0 .01-1.45zm-12.22 10.8-2.12.53.52-2.15L30 13.94l1.58 1.58-10.09 10.1z"/></g></svg>
