<svg focusable="false" xmlns="http://www.w3.org/2000/svg" width="40" height="40" viewBox="0 0 40 40"><title>lock-locked-40</title><g fill="none" fill-rule="evenodd"><path d="M0 0h40v40H0z"/><path fill="var(--ukg_sys_color_featureIcon_light, #30CEBB)" fill-rule="nonzero" d="M9.001 16.982h22v16h-22z"/><path fill="var(--ukg_sys_color_featureIcon_dark, #005151)" fill-rule="nonzero" d="M31 16.982a1 1 0 0 1 1 1v15a1 1 0 0 1-1 1H9a1 1 0 0 1-1-1v-15a1 1 0 1 1 2 0v14h20v-14a1 1 0 0 1 1-1zm-11 2.991a3 3 0 0 1 1 5.829v2.18a1 1 0 1 1-2 0v-2.18a3 3 0 0 1 1-5.829zm0-13.991a8 8 0 0 1 8 8v3h-2v-3a6 6 0 1 0-12 0v3h-2v-3a8 8 0 0 1 8-8z"/></g></svg>
