<svg focusable="false" xmlns="http://www.w3.org/2000/svg" width="40" height="40" viewBox="0 0 40 40"><title>maintenance-settings-40</title><g fill="none" fill-rule="evenodd"><path d="M0 0h40v40H0z"/><path fill="var(--ukg_sys_color_featureIcon_light, #30CEBB)" fill-rule="nonzero" d="M26 20a5.7 5.7 0 0 0-.24-1.61l-.63-.5-4.5 4.49-2.36-.63-.64-2.36 4.52-4.52-.52-.62A6.14 6.14 0 0 0 20 14a6 6 0 0 0-6 6v.15c.017.482.098.96.24 1.42l-8 8 4.2 4.07 7.9-7.9a5.86 5.86 0 0 0 1.39.24H20A6 6 0 0 0 26 20z"/><path fill="var(--ukg_sys_color_featureIcon_dark, #005151)" fill-rule="nonzero" d="M25.108 17.86a1 1 0 0 1 1.682.51c.139.532.21 1.08.21 1.63a7 7 0 0 1-7 7h-.21a6.1 6.1 0 0 1-1.08-.13l-6.86 6.86a1 1 0 0 1-1.42-1.41l7.27-7.27a1 1 0 0 1 1-.25c.383.118.78.186 1.18.2H20a5 5 0 0 0 5-5 4.58 4.58 0 0 0-.15-1.15 1 1 0 0 1 .258-.99zM19.28 6a1 1 0 0 1 1.23.78l.62 2.33a10.78 10.78 0 0 1 3.36.89l1.7-1.74a1 1 0 0 1 1.41 0l4.1 4.13a1 1 0 0 1 0 1.42l-1.7 1.7a11 11 0 0 1 .93 3.4l2.33.62c.255.075.473.242.61.47.126.214.172.465.13.71l-1.54 5.68A1 1 0 0 1 32 27a1 1 0 0 1-.8 0l-2.33-.62a11.21 11.21 0 0 1-2.45 2.46l.62 2.32a1 1 0 0 1-.71 1.23l-5.64 1.51h-.26a1 1 0 0 1-1-.74l-.81-3a1 1 0 0 1 1.93-.52l.55 2.05 3.72-1-.55-2a1 1 0 0 1 .44-1.11 9 9 0 0 0 2.85-2.86 1 1 0 0 1 1.11-.43l2.05.54 1-3.71-2.06-.55a1 1 0 0 1-.74-.93 8.93 8.93 0 0 0-1-3.91 1 1 0 0 1 .18-1.17l1.5-1.5-2.72-2.72-1.5 1.5a1 1 0 0 1-1.18.17 8.88 8.88 0 0 0-3.9-1 1 1 0 0 1-.93-.74l-.55-2.06-3.72 1 .55 2.06a1 1 0 0 1-.44 1.11 9 9 0 0 0-2.85 2.85 1 1 0 0 1-1.11.43l-2-.55-1 3.72 2 .55a1 1 0 0 1 .75.93 8.88 8.88 0 0 0 .5 2.59l1.63-1.64A5.89 5.89 0 0 1 13 20a7 7 0 0 1 8.66-6.8 1.004 1.004 0 0 1-.48 1.95A6 6 0 0 0 20 15a5 5 0 0 0-5 5l.06.13c.014.404.082.804.2 1.19a1 1 0 0 1-.26 1l-7.34 7.27a1 1 0 0 1-1.42 0 1 1 0 0 1 0-1.42l3.7-3.69a10.47 10.47 0 0 1-.9-3.35l-2.33-.63a1 1 0 0 1-.61-.46 1.05 1.05 0 0 1-.1-.76l1.55-5.65a1 1 0 0 1 1.22-.71l2.33.63a11.16 11.16 0 0 1 2.45-2.45l-.62-2.33a1 1 0 0 1 .71-1.23zm.08 11.64 2.37.63.63 2.36-1.73 1.73-2.36-.63-.64-2.36 1.73-1.73z"/></g></svg>
