<svg focusable="false" xmlns="http://www.w3.org/2000/svg" width="40" height="40" viewBox="0 0 40 40"><title>manage-absence-40</title><g fill="none" fill-rule="evenodd"><path d="M0 0h40v40H0z"/><path fill="var(--ukg_sys_color_featureIcon_light, #30CEBB)" fill-rule="nonzero" d="M10 19h20v10H10z"/><path fill="var(--ukg_sys_color_featureIcon_dark, #005151)" fill-rule="nonzero" d="M31 15a3 3 0 0 1 2.995 2.824L34 18v8a1 1 0 0 1-1.993.117L32 26v-8a1 1 0 0 0-.883-.993L31 17H9a1 1 0 0 0-.993.883L8 18v12a1 1 0 0 0 .883.993L9 31h22a1 1 0 0 0 .993-.883L32 30a1 1 0 0 1 2 0 3 3 0 0 1-2.824 2.995L31 33H9a3 3 0 0 1-2.995-2.824L6 30V18a3 3 0 0 1 2.824-2.995L9 15h22Zm-7 7.5a1 1 0 0 1 1 1 2.5 2.5 0 0 1-2.336 2.495L22.5 26h-5a2.5 2.5 0 0 1-2.5-2.5 1 1 0 0 1 2 0 .5.5 0 0 0 .41.492l.09.008h5a.5.5 0 0 0 .5-.5 1 1 0 0 1 1-1ZM29.867 11c1.066 0 2.025.59 2.597 1.529a1 1 0 0 1-1.642 1.136l-.066-.096c-.198-.326-.48-.522-.777-.562L29.867 13H10.133c-.294 0-.582.154-.8.438l-.077.112a1 1 0 1 1-1.693-1.064c.539-.858 1.404-1.413 2.375-1.48l.195-.006h19.734ZM27.4 7c1.052 0 1.961.68 2.371 1.682a1 1 0 0 1-1.8.863l-.05-.105c-.102-.249-.274-.4-.447-.433L27.4 9H12.6c-.169 0-.346.115-.466.328l-.049.098a1 1 0 0 1-1.839-.786c.394-.922 1.214-1.561 2.173-1.633L12.6 7h14.8Z"/></g></svg>
