<svg focusable="false" xmlns="http://www.w3.org/2000/svg" width="24" height="24" viewBox="0 0 24 24"><title>Icon / Utility / mapping</title><g fill="none" fill-rule="evenodd"><path d="M0 0h24v24H0z"/><path fill="currentColor" fill-rule="nonzero" d="M19 10a3 3 0 1 1-2.829 4H16l-.21.003c-1.09.033-1.656.34-2.652 1.281l-.192.184-.205.196c-.347.327-.668.604-.982.837.314.23.635.508.982.835l.205.196c1.12 1.085 1.686 1.43 2.843 1.465L16 19h.17a3.001 3.001 0 1 1 .001 2H16c-1.85 0-2.831-.506-4.241-1.836l-.205-.196c-1.12-1.085-1.686-1.43-2.843-1.465L8.5 17.5h-.671a3.001 3.001 0 1 1 0-2H8.5l.21-.003c1.09-.033 1.656-.34 2.652-1.281l.192-.184.205-.196c1.34-1.263 2.292-1.783 3.97-1.832L16 12h.17A3.001 3.001 0 0 1 19 10zm0 9a1 1 0 1 0 0 2 1 1 0 0 0 0-2zM5 15.5a1 1 0 1 0 0 2 1 1 0 0 0 0-2zM19 12a1 1 0 1 0 0 2 1 1 0 0 0 0-2zm0-10a3 3 0 1 1-2.829 4H7.829a3.001 3.001 0 1 1 0-2h8.342A3.001 3.001 0 0 1 19 2zM5 4a1 1 0 1 0 0 2 1 1 0 0 0 0-2zm14 0a1 1 0 1 0 0 2 1 1 0 0 0 0-2z"/></g></svg>
