<svg focusable="false" xmlns="http://www.w3.org/2000/svg" width="40" height="40" viewBox="0 0 40 40"><title>marriage-40</title><g fill="none" fill-rule="evenodd"><path d="M0 0h40v40H0z"/><path fill="var(--ukg_sys_color_featureIcon_light, #30CEBB)" fill-rule="nonzero" d="M14.992 29.966c.55 0 .998.447.998.998v1.997a.998.998 0 1 1-1.997 0v-1.997c0-.551.447-.998.999-.998zm-2.276-.71a1.003 1.003 0 0 1 0 1.419l-1.498 1.497a.998.998 0 0 1-.709.29.998.998 0 0 1-.708-1.708l1.497-1.497a1.002 1.002 0 0 1 1.418 0zM23.976 6l2.995 2.996v3.994h-4.832a2.157 2.157 0 0 1-2.156-2.157V6h3.993z"/><path fill="var(--ukg_sys_color_featureIcon_dark, #005151)" fill-rule="nonzero" d="M24.485 14.987h-.17a9.447 9.447 0 0 0-1.078-1.997h.729a.998.998 0 0 0 0-1.997h-1.997V8.996a.998.998 0 1 0-1.996 0v1.118A9.62 9.62 0 0 0 15.5 8.996a9.505 9.505 0 0 0-9.484 8.94A9.504 9.504 0 0 0 24.854 20.2a.999.999 0 1 0-1.966-.35 7.508 7.508 0 0 1-5.76 5.992 7.496 7.496 0 0 1 13.994-4.854 7.5 7.5 0 0 1-2.103 9.517 7.495 7.495 0 0 1-9.725-.6.999.999 0 1 0-1.388 1.439 9.501 9.501 0 0 0 11.45 1.319 9.508 9.508 0 0 0-4.871-17.676zm-9.493 9.487a9.38 9.38 0 0 0 .13 1.497 7.5 7.5 0 0 1-1.703-14.696 7.496 7.496 0 0 1 8.84 3.972 9.506 9.506 0 0 0-7.267 9.227z"/></g></svg>
