<svg focusable="false" xmlns="http://www.w3.org/2000/svg" width="40" height="40" viewBox="0 0 40 40"><title>meal-cancel-40</title><g fill="none" fill-rule="evenodd"><path d="M0 0h40v40H0z"/><path fill="var(--ukg_sys_color_featureIcon_light, #30CEBB)" fill-rule="nonzero" d="m15.5 20.5 2.31 2.34.7.71-8.05 8a1.65 1.65 0 0 1-2.32 0l-1.85-1.84 9.21-9.21Zm6.28-1.72L26 23l.71-.71 3.15 3.15a5.05 5.05 0 0 0-2.9 4.56v.24l-8.3-8.3 3.12-3.16Z"/><path fill="var(--ukg_sys_color_featureIcon_dark, #005151)" fill-rule="nonzero" d="M27.29 4.29a1.004 1.004 0 0 1 1.42 1.42l-4.42 4.41a1 1 0 0 0-.29.71v1.76l5.79-5.8a1.004 1.004 0 0 1 1.42 1.42L25.41 14h1.81a1 1 0 0 0 .71-.29l4.41-4.42a1.004 1.004 0 0 1 1.42 1.42l-4.42 4.41a3 3 0 0 1-2.12.88h-3.76l-1.5 1.5 4.8 4.79a1 1 0 0 1 0 1.42 1 1 0 0 1-1.42 0l-3.5-3.51-1.58 1.59 6.116 6.116A6.002 6.002 0 0 1 38 30a6 6 0 0 1-11.984.439L18.79 23.22l-.29.29a1 1 0 0 1-.7.29l-.13-.009a1 1 0 0 1-.57-.281l-1.6-1.6-7.79 7.8a1 1 0 0 1-1.42 0 1 1 0 0 1 0-1.42l7.8-7.79-6.31-6.31a5.91 5.91 0 0 1 0-8.38l.51-.52a1 1 0 0 1 1.42 0l10.79 10.8 1.5-1.5v-3.76a3 3 0 0 1 .88-2.12Zm7.018 22.869a.753.753 0 0 0-.728.191L32 28.94l-1.58-1.59a.76.76 0 0 0-1.07 1.07L30.94 30l-1.59 1.58a.753.753 0 1 0 1.07 1.06L32 31.06l1.58 1.58c.14.142.33.22.53.22a.71.71 0 0 0 .53-.22.74.74 0 0 0 0-1.06L33.06 30l1.58-1.58a.753.753 0 0 0-.332-1.261ZM9 7.42a3.93 3.93 0 0 0 .19 5.36l8.61 8.61 2.57-2.6Z"/></g></svg>
