<svg focusable="false" xmlns="http://www.w3.org/2000/svg" width="40" height="40" viewBox="0 0 40 40"><title>mobile-people-40</title><g fill="none" fill-rule="evenodd"><path d="M0 0h40v40H0z"/><path fill="var(--ukg_sys_color_featureIcon_light, #30CEBB)" fill-rule="nonzero" d="M31.924 29.65a7 7 0 0 1 4.08 6.35v1h-14v-1a7 7 0 0 1 4.07-6.35 3 3 0 0 0 5.85 0zM13.004 21a1 1 0 0 1 1 1v6a1 1 0 1 1-2 0v-6a1 1 0 0 1 1-1zm8-8a1 1 0 0 1 1 1v14a1 1 0 1 1-2 0V14a1 1 0 0 1 1-1zm-4 4a1 1 0 0 1 1 1v10a1 1 0 1 1-2 0V18a1 1 0 0 1 1-1z"/><path fill="var(--ukg_sys_color_featureIcon_dark, #005151)" fill-rule="nonzero" d="M26.194 20.16a2 2 0 0 0-1.19 1.84v1a4 4 0 1 0 7.63-1.66 2.65 2.65 0 0 0 .37-1.34 1 1 0 0 0-1-1h-4a2 2 0 0 0-1.81 1.16zM24.004 5a3 3 0 0 1 3 3v8a1 1 0 1 1-2 0V8a1 1 0 0 0-1-1h-14a1 1 0 0 0-1 1v22a1 1 0 0 0 1 1h12.77a8 8 0 0 1 6.23-3 8 8 0 0 1 8 8 1 1 0 1 1-2 0 6 6 0 1 0-12 0 1 1 0 1 1-2 0 7.9 7.9 0 0 1 .58-3h-11.58a3 3 0 0 1-3-3V8a3 3 0 0 1 3-3zm-2 22a1 1 0 1 1 0 2h-10a1 1 0 0 1 0-2zm5.78-4.82 2 .41c.171.036.345.053.52.05a2.69 2.69 0 0 0 .57-.07 2 2 0 1 1-3.87.43 2.2 2.2 0 0 1 0-.36.66.66 0 0 1 .21-.31.68.68 0 0 1 .57-.15zM21.004 9a1 1 0 1 1 0 2h-8a1 1 0 0 1 0-2z"/></g></svg>
