<svg focusable="false" xmlns="http://www.w3.org/2000/svg" width="40" height="40" viewBox="0 0 40 40"><title>module-process-40</title><g fill="none" fill-rule="evenodd"><path d="M0 0h40v40H0z"/><path fill="var(--ukg_sys_color_featureIcon_light, #30CEBB)" fill-rule="nonzero" d="M16.165 7.137a3.002 3.002 0 0 1 3.364 1.28A2.995 2.995 0 0 1 19.243 12a.909.909 0 0 0-.26.62v.4a1 1 0 0 0 1 .998h7.021v3.996h-3.5v2.379c-.518.199-1 .478-1.43.829l-2.061-1.19-2 3.458 2.06 1.189a5.679 5.679 0 0 0-.07.829c.003.278.026.555.07.829l-2.06 1.169 2 3.457 2.06-1.19c.428.354.912.634 1.43.83v2.398h3.501V34h-9.001v-1H7v-4.845a2.157 2.157 0 0 1 1.05-1.898 2.002 2.002 0 0 1 2.191.17 3.003 3.003 0 0 0 3.529-.007 2.995 2.995 0 0 0-1.779-5.418 2.923 2.923 0 0 0-1.78.6 2.002 2.002 0 0 1-1.2.399l-.15-.005a2 2 0 0 1-1.85-1.993v-5.995h7a1 1 0 0 0 1.001-.999v-.36a1.098 1.098 0 0 0-.29-.709 2.995 2.995 0 0 1-.73-1.938 2.998 2.998 0 0 1 2.173-2.865zm9.34 15.873a2.5 2.5 0 0 1 2.5 2.498 2.5 2.5 0 0 1-2.5 2.498 2.5 2.5 0 0 1-2.501-2.498 2.5 2.5 0 0 1 2.5-2.498z"/><path fill="var(--ukg_sys_color_featureIcon_dark, #005151)" fill-rule="nonzero" d="M19.772 7.112a3.993 3.993 0 0 1 .231 5.528v.37h6.001a1 1 0 1 1 0 1.997h-6.001a2 2 0 0 1-2-1.998v-.41c.008-.48.189-.94.51-1.298.402-.456.575-1.07.47-1.669a2 2 0 0 0-1.6-1.608 2.002 2.002 0 0 0-1.65.44 1.997 1.997 0 0 0-.23 2.847c.336.377.524.863.53 1.369v.37a1.997 1.997 0 0 1-2.001 1.997H8.03v4.996a1 1 0 0 0 1.6.8 4.004 4.004 0 0 1 4.486-.188 3.995 3.995 0 0 1 1.835 4.094 3.999 3.999 0 0 1-3.28 3.237 4.004 4.004 0 0 1-3.001-.72 1.001 1.001 0 0 0-1.11-.1 1.18 1.18 0 0 0-.55 1v3.836h10.002a1 1 0 1 1 0 1.998H7a1 1 0 0 1-1-1v-4.845a3.136 3.136 0 0 1 1.57-2.757 3.003 3.003 0 0 1 3.271.23 2 2 0 0 0 3.13-1.249 1.997 1.997 0 0 0-.47-1.659 2.002 2.002 0 0 0-2.71-.31 3.003 3.003 0 0 1-3.143.27A2.997 2.997 0 0 1 6 19.994v-5.995A1 1 0 0 1 7 13h7.002v-.36a3.993 3.993 0 0 1 .231-5.527 4.004 4.004 0 0 1 5.539 0zm7.722 9.904a1 1 0 0 1 1 .999v1.728l.5.29 1.501-.87a1 1 0 0 1 1.36.37l2 3.457a.998.998 0 0 1-.35 1.369l-1.51.87c.014.185.014.372 0 .559l1.51.869a1 1 0 0 1 .46.61.998.998 0 0 1-.1.758l-2 3.457a1 1 0 0 1-1.36.37l-1.51-.87-.49.28v1.739a.999.999 0 0 1-1 .999h-4.001a1 1 0 0 1-1-1v-1.737a4.762 4.762 0 0 1-.49-.28l-1.5.869a1 1 0 0 1-1.371-.35l-2-3.457a.998.998 0 0 1 .37-1.368l1.5-.87a3.912 3.912 0 0 1 0-.559l-1.51-.89a1 1 0 0 1-.37-1.368l2-3.457a1 1 0 0 1 1.37-.37l1.5.87c.158-.103.322-.196.49-.28v-1.738a1 1 0 0 1 1-1h4.001zm-.99 1.998h-2v1.379a1 1 0 0 1-.63.929 4.772 4.772 0 0 0-1.18.679 1.001 1.001 0 0 1-1.12.08l-1.2-.69-1.001 1.739 1.2.69a.999.999 0 0 1 .49.998c-.08.45-.08.91 0 1.36a.999.999 0 0 1-.49.998l-1.2.69 1 1.738 1.2-.69a1.001 1.001 0 0 1 1.12.08c.355.284.75.513 1.17.68a1 1 0 0 1 .64.93v1.398h2.001v-1.379a1 1 0 0 1 .64-.929 4.542 4.542 0 0 0 1.17-.68 1.003 1.003 0 0 1 1.13-.08l1.191.69 1-1.738-1.2-.69a.999.999 0 0 1-.49-.999 4.66 4.66 0 0 0 .06-.69 4.78 4.78 0 0 0-.06-.689.999.999 0 0 1 .49-.999l1.2-.689-1-1.738-1.19.689a1 1 0 0 1-1.13-.08 4.122 4.122 0 0 0-1.16-.67 1 1 0 0 1-.65-.938v-1.38z"/></g></svg>
