<svg focusable="false" xmlns="http://www.w3.org/2000/svg" width="40" height="40" viewBox="0 0 40 40"><title>money-coins-40</title><g fill="none" fill-rule="evenodd"><path d="M0 0h40v40H0z"/><path fill="var(--ukg_sys_color_featureIcon_light, #30CEBB)" fill-rule="nonzero" d="M9.422 22.4a5.5 5.5 0 1 1 10.163 4.21A5.5 5.5 0 0 1 9.422 22.4zm2.558-10.15a.76.76 0 0 1 .75.75.76.76 0 0 1-.73.75H9a.75.75 0 1 1 0-1.5zm-1.492-4.762a.75.75 0 0 1 1.042-.018l2 2a.75.75 0 0 1-1.06 1.06l-2-2a.75.75 0 0 1 .018-1.042z"/><path fill="var(--ukg_sys_color_featureIcon_dark, #005151)" fill-rule="nonzero" d="M32 7H16a1 1 0 0 0-1 1v7h-.5a9.5 9.5 0 0 0 0 19 9.4 9.4 0 0 0 4.94-1.4 1 1 0 1 0-1-1.7 7.51 7.51 0 1 1 2.5-2.5 1 1 0 0 0 1.7 1c.09-.14.15-.29.23-.44H31v3h-9a1 1 0 0 0 0 2h10a1 1 0 0 0 1-1V8a1 1 0 0 0-1-1zm-1 20h-7.34a9.54 9.54 0 0 0 .34-2.5V24h7v3zm0-5h-7.34a9.54 9.54 0 0 0-1.43-3H31v3zm0-5H20.31A9.64 9.64 0 0 0 17 15.34V14h14v3zm-16.47 2.75a.75.75 0 0 1 .75.75v.28a2.22 2.22 0 0 1 1.31.63.75.75 0 0 1-1.06 1.06.75.75 0 0 0-.53-.22h-1a.75.75 0 1 0 0 1.5h1A2.25 2.25 0 0 1 17.25 26a2.24 2.24 0 0 1-2.03 2.22v.28a.75.75 0 1 1-1.5 0v-.28a2.22 2.22 0 0 1-1.31-.63.75.75 0 0 1 1.06-1.06c.14.14.331.22.53.22h1a.75.75 0 1 0 0-1.5h-1a2.24 2.24 0 0 1-.22-4.47v-.28a.75.75 0 0 1 .75-.75zM31 9v3H17V9h14z"/></g></svg>
