<svg focusable="false" xmlns="http://www.w3.org/2000/svg" width="40" height="40" viewBox="0 0 40 40"><title>money-40</title><g fill="none" fill-rule="evenodd"><path d="M0 0h40v40H0z"/><path fill="var(--ukg_sys_color_featureIcon_light, #30CEBB)" fill-rule="nonzero" d="M25 15.01a5 5 0 0 0-4.78 3.6l.84-.46a2.67 2.67 0 0 1 2.65 4.63l-1.84 1.1A5 5 0 1 0 25 15.01z"/><path fill="var(--ukg_sys_color_featureIcon_dark, #005151)" fill-rule="nonzero" d="M33 6H17a1 1 0 0 0-1 1v5.05l-5.57 2.79A7.94 7.94 0 0 0 6 22v11a1 1 0 0 0 2 0V22a6 6 0 0 1 3.32-5.36L16 14.3v5.48l-2.5 1.34a1.012 1.012 0 0 0 1 1.76l7-3.85a1.63 1.63 0 0 1 1.65 0c.535.294.862.86.85 1.47a1.68 1.68 0 0 1-.81 1.43l-3.69 2.21a1 1 0 0 0-.47.82v1a6 6 0 0 1-6 6 1 1 0 0 0 0 2 8 8 0 0 0 8-8v-.43l3.22-1.94a3.664 3.664 0 1 0-3.64-6.36L18 18.68V8h14v24H22a1 1 0 0 0 0 2h11a1 1 0 0 0 1-1V7a1 1 0 0 0-1-1z"/></g></svg>
