<svg focusable="false" xmlns="http://www.w3.org/2000/svg" width="24" height="24" viewBox="0 0 24 24"><title>Icon / Utility / new-message</title><g fill="none" fill-rule="evenodd"><path d="M0 0h24v24H0z"/><path fill="currentColor" fill-rule="nonzero" d="m15.849 3-1.988 2H5v14h14V9.723l2-2.01V18.75c0 1.186-.93 2.165-2.097 2.245L18.75 21H5.25A2.257 2.257 0 0 1 3 18.75V5.25A2.257 2.257 0 0 1 5.25 3h10.599zm1.237 1.161 2.49 2.49-7.957 7.988a.312.312 0 0 1-.233.1H9.367a.329.329 0 0 1-.332-.333v-2.019c0-.093.033-.172.1-.239l7.95-7.987zm2.655-2.638a.661.661 0 0 1 .937 0l1.554 1.554a.661.661 0 0 1 0 .936L20.66 5.611l-2.49-2.49z"/></g></svg>
