<svg focusable="false" xmlns="http://www.w3.org/2000/svg" width="40" height="40" viewBox="0 0 40 40"><title>news-search-40</title><g fill="none" fill-rule="evenodd"><path d="M0 0h40v40H0z"/><path fill="var(--ukg_sys_color_featureIcon_light, #30CEBB)" fill-rule="nonzero" d="M11 17v14.49a2.51 2.51 0 1 1-5 0V17h5zm17-5a1 1 0 0 1 0 2H15a1 1 0 0 1 0-2h13z"/><path fill="var(--ukg_sys_color_featureIcon_dark, #005151)" fill-rule="nonzero" d="M23 28a1 1 0 0 1 0 2h-8a1 1 0 0 1 0-2h8zm-3-4a1 1 0 0 1 0 2h-5a1 1 0 0 1 0-2h5zm-.99-8a1 1 0 0 1 1 1v4a1 1 0 0 1-1 1h-4a1 1 0 0 1-1-1v-4a1 1 0 0 1 1-1h4zm17.66 12.25-3.56-3.11a6 6 0 0 0-.11-6.48V8a1 1 0 0 0-1-1H11a1 1 0 0 0-1 1v8H6a1 1 0 0 0-1 1v14.49A3.51 3.51 0 0 0 8.5 35h21a3.5 3.5 0 0 0 3.5-3.5V31a1 1 0 0 0-2 0v.5a1.5 1.5 0 0 1-1.5 1.5H11.66a3.49 3.49 0 0 0 .34-1.51V9h19v7.8a5.9 5.9 0 0 0-3-.8 6 6 0 1 0 3.8 10.65l3.55 3.1A1 1 0 0 0 36 30a1 1 0 0 0 .75-.34 1 1 0 0 0-.08-1.41zM10 24.9a.81.81 0 0 0 0 .16v6.44A1.51 1.51 0 0 1 8.49 33 1.5 1.5 0 0 1 7 31.5V18h3v6.9zM28 26a4 4 0 1 1 0-8 4 4 0 0 1 0 8z"/></g></svg>
