<svg focusable="false" xmlns="http://www.w3.org/2000/svg" width="40" height="40" viewBox="0 0 40 40"><title>news-people-40</title><g fill="none" fill-rule="evenodd"><path d="M0 0h40v40H0z"/><path fill="var(--ukg_sys_color_featureIcon_light, #30CEBB)" fill-rule="nonzero" d="M20.977 29.02a7.97 7.97 0 0 1 5.327 2.03l.048-.029a3.78 3.78 0 0 0 3.605 2.729 3.77 3.77 0 0 0 3.606-2.729l-.106-.063a7 7 0 0 1 3.5 6.062v1l-8.98-.001v.001h-14v-1h-1a8 8 0 0 1 8-8zm11.208 1.364-.028.096a2.25 2.25 0 0 1-4.39 0 .766.766 0 0 0-.03-.099 7.003 7.003 0 0 1 4.448.003zM8.957 13.02v14.47a2.51 2.51 0 0 1-5 0V13.02h5zm17-5a1 1 0 1 1 0 2h-13a1 1 0 0 1 0-2h13z"/><path fill="var(--ukg_sys_color_featureIcon_dark, #005151)" fill-rule="nonzero" d="M29.977 3.02a1 1 0 0 1 1 1v11a1 1 0 1 1-2 0v-10h-19v22.49a3.49 3.49 0 0 1-.35 1.51h11.718a7 7 0 0 1 .732.06 1 1 0 0 1 .87 1.13 1 1 0 0 1-1.13.87 6 6 0 0 0-6.84 5.94 1 1 0 1 1-2 0 8 8 0 0 1 2.73-6h-9.24a3.52 3.52 0 0 1-3.49-3.53V13.02a1 1 0 0 1 1-1h4v-8a1 1 0 0 1 1-1zm-.02 26a8 8 0 0 1 8 8 1 1 0 1 1-2 0 6 6 0 1 0-12 0 1 1 0 1 1-2 0 8 8 0 0 1 8-8zm-21.98-15h-3v13.37a1.52 1.52 0 0 0 1.51 1.51c.1.01.2.01.3 0l.15-.05a.42.42 0 0 0 .12 0l.21-.1.129-.094a1.5 1.5 0 0 0 .551-1.086v-6.51a1 1 0 0 1 0-.17l.03-6.87zm6.98 10a1 1 0 1 1 0 2h-2a1 1 0 0 1 0-2zm0-4a1 1 0 1 1 0 2h-2a1 1 0 0 1 0-2zm11-4a1 1 0 1 1 0 2h-5a1 1 0 0 1 0-2zM16.977 12a1 1 0 0 1 1 1v4a1 1 0 0 1-1 1h-4a1 1 0 0 1-1-1v-4a1 1 0 0 1 1-1h4zm9 .02a1 1 0 1 1 0 2h-5a1 1 0 0 1 0-2zm2.48 7.48c.002.257.071.508.2.73a4 4 0 1 0 2.6 0 1.38 1.38 0 0 0 .2-.73 1.5 1.5 0 1 0-3 0zm-4.38.52a1 1 0 0 1 1 1 2.65 2.65 0 0 1-.37 1.34 4 4 0 1 1-7.63 1.66v-1a2 2 0 0 1 1.19-1.84l.076-.147a2 2 0 0 1 1.734-1.013zm-4.22 3.18a.71.71 0 0 0-.57.14.68.68 0 0 0-.21.32 1.47 1.47 0 0 0 0 .36 2 2 0 0 0 2 2 2 2 0 0 0 1.87-2.43 2.78 2.78 0 0 1-.57.07 2.29 2.29 0 0 1-.52-.05zm10.1-.95a2 2 0 0 0 1.74 1h.11c.102.237.153.492.15.75a2 2 0 1 1-4 0 2 2 0 0 1 .15-.75h.12a2 2 0 0 0 1.73-1z"/></g></svg>
