<svg focusable="false" xmlns="http://www.w3.org/2000/svg" width="40" height="40" viewBox="0 0 40 40"><title>news-40</title><g fill="none" fill-rule="evenodd"><path d="M0 0h40v40H0z"/><path fill="var(--ukg_sys_color_featureIcon_light, #30CEBB)" fill-rule="nonzero" d="M12 16v14.5a2.51 2.51 0 0 1-5 0V16h5zm17-5a1 1 0 0 1 0 2H16a1 1 0 0 1 0-2h13z"/><path fill="var(--ukg_sys_color_featureIcon_dark, #005151)" fill-rule="nonzero" d="M29 27a1 1 0 0 1 0 2H16a1 1 0 0 1 0-2h13zm0-4a1 1 0 0 1 0 2H16a1 1 0 0 1 0-2h13zm0-4a1 1 0 0 1 0 2h-5a1 1 0 0 1 0-2h5zm-8.98-4a1 1 0 0 1 1 1v4a1 1 0 0 1-1 1h-4a1 1 0 0 1-1-1v-4a1 1 0 0 1 1-1h4zM29 15a1 1 0 0 1 0 2h-5a1 1 0 0 1 0-2h5zm4 12a1 1 0 0 0 1-1V7a1 1 0 0 0-1-1H12a1 1 0 0 0-1 1v8H7a1 1 0 0 0-1 1v14.5A3.51 3.51 0 0 0 9.5 34h21a3.5 3.5 0 0 0 3.5-3.5V30a1 1 0 0 0-2 0v.5a1.5 1.5 0 0 1-1.5 1.5H12.66a3.36 3.36 0 0 0 .36-1.5V8h19v18a1 1 0 0 0 .98 1zM8 30.5V17h3v6.9a.86.86 0 0 0 0 .16v6.44a1.51 1.51 0 0 1-3 0z"/></g></svg>
