<svg focusable="false" xmlns="http://www.w3.org/2000/svg" width="40" height="40" viewBox="0 0 40 40"><title>notes-40</title><g fill="none" fill-rule="evenodd"><path d="M30 14.4 19.9 24.5l-.5 2.1 2.1-.5L31.6 16z"/><path fill="var(--ukg_sys_color_featureIcon_light, #30CEBB)" fill-rule="nonzero" d="M8 11h16v5H8zm11 9c0-.6-.4-1-1-1h-6c-.6 0-1 .4-1 1s.4 1 1 1h6c.6 0 1-.4 1-1Zm-1 3.8c0-.2.1-.3.3-.5l.3-.3H12c-.6 0-1 .4-1 1s.4 1 1 1h5.7l.3-1.2Z"/><path fill="var(--ukg_sys_color_featureIcon_dark, #005151)" fill-rule="nonzero" d="M9 34h14c1.7 0 3-1.3 3-3v-2c0-.6-.4-1-1-1s-1 .4-1 1v2c0 .6-.4 1-1 1H9c-.6 0-1-.4-1-1V11h16v6.6L18.6 23l-.3.3c-.1.1-.2.3-.3.5l-.3 1.2-.7 2.8c-.1.3 0 .7.3 1 .2.2.5.3.7.3h.2l4-1c.2 0 .3-.1.5-.3l11-11c.4-.4.4-1 0-1.4l-3-3c-.4-.4-1-.4-1.4 0L26 15.6V10c0-.6-.4-1-1-1h-2V7c0-.6-.4-1-1-1s-1 .4-1 1v2h-2V7c0-.6-.4-1-1-1s-1 .4-1 1v2h-2V7c0-.6-.4-1-1-1s-1 .4-1 1v2h-2V7c0-.6-.4-1-1-1s-1 .4-1 1v2H7c-.6 0-1 .4-1 1v21c0 1.7 1.3 3 3 3Zm22.6-18L21.5 26.1l-2.1.5.5-2.1L30 14.4l1.6 1.6Z"/><circle cx="12" cy="28" r="1" fill="var(--ukg_sys_color_featureIcon_light, #30CEBB)" fill-rule="nonzero"/></g></svg>
