<svg focusable="false" xmlns="http://www.w3.org/2000/svg" width="40" height="40" viewBox="0 0 40 40"><title>notification-40</title><g fill="none" fill-rule="evenodd"><path d="M0 0h40v40H0z"/><path fill="var(--ukg_sys_color_featureIcon_light, #30CEBB)" fill-rule="nonzero" d="M31.86 27.86A8.36 8.36 0 0 1 29.69 24H10.31a8.36 8.36 0 0 1-2.17 3.86L7 29h20v1h6v-1l-1.14-1.14z"/><path fill="var(--ukg_sys_color_featureIcon_dark, #005151)" fill-rule="nonzero" d="m33.71 28.29-1.14-1.14a7.28 7.28 0 0 1-2-3.91l-1.37-7.52a9.3 9.3 0 0 0-7.2-7.5A1.64 1.64 0 0 0 22 8a2 2 0 1 0-4 0 1.64 1.64 0 0 0 0 .22 9.3 9.3 0 0 0-7.22 7.5l-1.33 7.52a7.28 7.28 0 0 1-2 3.91l-1.16 1.14a1 1 0 0 0-.21 1.09A1 1 0 0 0 7 30h8.58a4.48 4.48 0 0 0 8.9 0H27a1 1 0 0 0 0-2H9.37a9.27 9.27 0 0 0 2.07-4.42l1.33-7.51a7.34 7.34 0 0 1 14.46 0l1.33 7.51a9.31 9.31 0 0 0 2.59 5l1.14 1.14a1 1 0 0 0 1.42 0 1 1 0 0 0 0-1.43zM20 32a2.5 2.5 0 0 1-2.45-2h4.9A2.5 2.5 0 0 1 20 32z"/></g></svg>
