<svg focusable="false" xmlns="http://www.w3.org/2000/svg" width="24" height="24" fill="none" viewBox="0 0 24 24"><path fill="currentColor" fill-rule="evenodd" d="M12 2a1 1 0 0 0-1 1v1.083A6.002 6.002 0 0 0 6 10v5.586l-1.707 1.707A1 1 0 0 0 5 19h14a.996.996 0 0 0 .88-.523.997.997 0 0 0-.003-.958l-.01-.017a1.066 1.066 0 0 0-.168-.217L18 15.585V10a6.002 6.002 0 0 0-5-5.917V3a1 1 0 0 0-1-1Zm4 8v7H8v-7a4 4 0 0 1 8 0Zm-2 10.5a2 2 0 0 1-4 0h4Z" clip-rule="evenodd"/><path fill="currentColor" d="M12.713 12.712A.968.968 0 0 1 12 13a.965.965 0 0 1-.712-.288A.965.965 0 0 1 11 12V9c0-.283.096-.521.288-.713A.967.967 0 0 1 12 8a.97.97 0 0 1 .713.287A.97.97 0 0 1 13 9v3a.97.97 0 0 1-.287.712Zm0 3A.968.968 0 0 1 12 16a.965.965 0 0 1-.712-.288A.965.965 0 0 1 11 15c0-.283.096-.521.288-.713A.967.967 0 0 1 12 14a.97.97 0 0 1 .713.287A.97.97 0 0 1 13 15a.97.97 0 0 1-.287.712Z"/><path fill="currentColor" fill-rule="evenodd" d="M19.413 7.995c.324 0 .59-.263.559-.586a6.005 6.005 0 0 0-4.206-5.15c-.394-.12-.766.195-.766.607 0 .282.18.53.438.645a6.013 6.013 0 0 1 3.377 3.999.63.63 0 0 0 .598.485Zm2-2c.324 0 .59-.263.559-.586A6.005 6.005 0 0 0 17.766.26C17.372.14 17 .454 17 .866c0 .282.18.53.438.645a6.013 6.013 0 0 1 3.377 3.999.63.63 0 0 0 .598.485Zm-16.826 2c-.324 0-.59-.263-.559-.586a6.005 6.005 0 0 1 4.206-5.15c.394-.12.766.195.766.607 0 .282-.18.53-.438.645A6.014 6.014 0 0 0 5.185 7.51a.63.63 0 0 1-.598.485Zm-2-2c-.324 0-.59-.263-.559-.586A6.005 6.005 0 0 1 6.234.26C6.628.14 7 .454 7 .866c0 .282-.18.53-.438.645A6.014 6.014 0 0 0 3.185 5.51a.63.63 0 0 1-.598.485Z" clip-rule="evenodd"/></svg>
