<svg focusable="false" xmlns="http://www.w3.org/2000/svg" width="24" height="24" viewBox="0 0 24 24"><title>Icons / Utility / notifications-off</title><g fill="none" fill-rule="evenodd"><path d="M0 0h24v24H0z"/><path fill="currentColor" fill-rule="nonzero" d="M10 20.5h4a2 2 0 0 1-3.995.15L10 20.5h4zM6.121 3.707 19.7 17.284l.017.017 1.962 1.962a1 1 0 1 1-1.415 1.415L18.586 19H5l-.082-.004-.067-.007a1.083 1.083 0 0 1-.222-.06l-.052-.023a1.018 1.018 0 0 1-.172-.102l-.022-.017-.09-.08a1.008 1.008 0 0 1-.147-.186l-.021-.037c-.011-.02-.022-.04-.031-.06l-.023-.053a.988.988 0 0 1-.07-.352v-.073.035l.002-.063.008-.067a1.083 1.083 0 0 1 .06-.222l.023-.052a1.018 1.018 0 0 1 .102-.172l.017-.022a.97.97 0 0 1 .08-.09L6 15.585V10c0-1.036.262-2.01.724-2.86L4.707 5.12a1 1 0 0 1 1.414-1.414zM4.93 18.997 5 19h-.032l-.027-.002-.012-.001zm-.011-.001.002.001h-.006l.004-.001zm-.914-1.085-.001.007v.007l.001-.014zm4.23-9.262a3.99 3.99 0 0 0-.23 1.151L8 10v7h8v-.586L8.234 8.649zM12 2a1 1 0 0 1 1 1v1.083c2.838.477 5 2.944 5 5.917v2.786l-2-2V10a4 4 0 0 0-4.72-3.935l-1.602-1.6A5.985 5.985 0 0 1 11 4.083V3a1 1 0 0 1 1-1z"/></g></svg>
