<svg focusable="false" xmlns="http://www.w3.org/2000/svg" width="24" height="24" viewBox="0 0 24 24"><title>Icons / Utility / notifications</title><g fill="none" fill-rule="evenodd"><path d="M0 0h24v24H0z"/><path fill="currentColor" fill-rule="nonzero" d="M10 20.5h4a2 2 0 0 1-3.995.15L10 20.5h4zm-5.071-1.503L5 19h-.032l-.027-.002-.012-.001zm15.067-.912-.007.064a1.083 1.083 0 0 1-.06.222l-.023.052a1.018 1.018 0 0 1-.102.172l-.017.022-.08.09a1.008 1.008 0 0 1-.186.147l-.037.021c-.02.011-.04.022-.06.031l-.053.023A.988.988 0 0 1 19 19H5l-.082-.004-.067-.007a1.083 1.083 0 0 1-.222-.06l-.052-.023a1.018 1.018 0 0 1-.172-.102l-.022-.017-.09-.08a1.008 1.008 0 0 1-.147-.186l-.021-.037c-.011-.02-.022-.04-.031-.06l-.023-.053a.988.988 0 0 1-.07-.352v-.073.021l.002-.049.008-.067a1.083 1.083 0 0 1 .06-.222l.023-.052a1.018 1.018 0 0 1 .102-.172l.017-.022a.97.97 0 0 1 .08-.09L6 15.585V10a6.002 6.002 0 0 1 5-5.917V3a1 1 0 0 1 2 0v1.083c2.838.477 5 2.944 5 5.917v5.586l1.707 1.707.073.082.023.029a1.029 1.029 0 0 1 .125.224l.022.06A1.067 1.067 0 0 1 20 18l-.001.019-.003.066zm-15.078.911.002.001h-.006l.004-.001zm14.83-1.66.01.011.015.019-.025-.03zM12 6a4 4 0 0 0-3.995 3.8L8 10v7h8v-7a4 4 0 0 0-4-4z"/></g></svg>
