<svg focusable="false" xmlns="http://www.w3.org/2000/svg" width="40" height="40" viewBox="0 0 40 40"><title>organisation-40</title><g fill="none" fill-rule="evenodd"><path d="M0 0h40v40H0z"/><path fill="var(--ukg_sys_color_featureIcon_light, #30CEBB)" fill-rule="nonzero" d="M12 17.01v16H7v-16h5ZM33 17v10h1v4h-1v2h-5V17h5Zm-16 7v2h-2v-2h2Zm7.99 0v2h-2v-2h2ZM21 24v2h-2v-2h2Zm-4-4v2h-2v-2h2Zm4 0v2h-2v-2h2Zm4 0v2h-2v-2h2Zm-4-4v2h-2v-2h2Zm-4 0v2h-2v-2h2Zm8 0v2h-2v-2h2Zm-8-4v2h-2v-2h2Zm7.99 0v2h-2v-2h2ZM21 12v2h-2v-2h2Zm7-5v3H12V7h16Z"/><path fill="var(--ukg_sys_color_featureIcon_dark, #005151)" fill-rule="nonzero" d="M18 28.01h4.01v5H18v-5ZM33 28a1 1 0 0 0 1-1V17a1 1 0 0 0-1-1h-4V7a1 1 0 0 0-1-1H12a1 1 0 0 0-1 1v9H7a1 1 0 0 0-1 1v16a1 1 0 0 0 1 1h26a1 1 0 0 0 1-1v-2a1 1 0 0 0-2 0v1h-3V18h3v9a1 1 0 0 0 1 1ZM8 18h3v14H8V18ZM27 8v24h-4.991l.001 1.01H18V32h-5V8h14Z"/></g></svg>
