<svg focusable="false" xmlns="http://www.w3.org/2000/svg" width="40" height="40" viewBox="0 0 40 40"><title>other-40</title><g fill="none" fill-rule="evenodd"><path d="M0 0h40v40H0z"/><path fill="var(--ukg_sys_color_featureIcon_light, #30CEBB)" fill-rule="nonzero" d="M20 34.1c-7.8 0-14.1-6.3-14.1-14.1S12.2 5.9 20 5.9 34.1 12.2 34.1 20 27.8 34.1 20 34.1Zm0-26.2C13.3 7.9 7.9 13.3 7.9 20c0 6.7 5.4 12.1 12.1 12.1 6.7 0 12.1-5.4 12.1-12.1 0-6.7-5.4-12.1-12.1-12.1Z"/><path fill="var(--ukg_sys_color_featureIcon_dark, #005151)" fill-rule="nonzero" d="M32.3 9.8c4.7 5.7 4.9 14 .4 19.9-.2.3-.6.5-.9.5-.4 0-.7-.3-.9-.6-.1-.4-.1-.8.2-1 4.5-5.9 3.6-14.2-1.9-19-5.5-4.8-13.9-4.6-19.1.6-5.2 5.2-5.5 13.4-.6 19s13.2 6.4 19 1.9c.3-.2.7-.3 1-.2.3.1.6.5.6.8 0 .4-.1.7-.4.9C27 34.8 23.5 36 20 36c-7.4 0-13.9-5.1-15.6-12.3-1.7-7.2 1.8-14.7 8.5-18 6.7-3.3 14.7-1.6 19.4 4.1ZM20 18.5c.8 0 1.5.7 1.5 1.5s-.7 1.5-1.5 1.5-1.5-.7-1.5-1.5.7-1.5 1.5-1.5Zm6.5 0c.8 0 1.5.7 1.5 1.5s-.7 1.5-1.5 1.5S25 20.8 25 20s.7-1.5 1.5-1.5Zm-13 0c.8 0 1.5.7 1.5 1.5s-.7 1.5-1.5 1.5S12 20.8 12 20s.7-1.5 1.5-1.5Z"/></g></svg>
