<svg focusable="false" xmlns="http://www.w3.org/2000/svg" width="24" height="24" viewBox="0 0 24 24"><title>Icons / Navigation / paginate-first-page</title><g fill="none" fill-rule="evenodd"><path d="M0 0h24v24H0z"/><path fill="currentColor" fill-rule="nonzero" d="M16.71 6.71a.996.996 0 0 0-1.41 0l-4.59 4.59a.996.996 0 0 0 0 1.41l4.59 4.59a.996.996 0 1 0 1.41-1.41L12.83 12l3.88-3.88c.39-.39.38-1.03 0-1.41zM8 18c.55 0 1-.386 1-.857V6.857C9 6.386 8.55 6 8 6s-1 .386-1 .857v10.286c0 .471.45.857 1 .857z"/></g></svg>
