<svg focusable="false" xmlns="http://www.w3.org/2000/svg" width="24" height="24" viewBox="0 0 24 24"><title>Icons / Navigation / paginate-last-page</title><g fill="none" fill-rule="evenodd"><path d="M0 0h24v24H0z"/><path fill="currentColor" fill-rule="nonzero" d="M7.293 6.71a.996.996 0 0 0 0 1.41l3.88 3.88-3.88 3.88a.996.996 0 1 0 1.41 1.41l4.59-4.59a.996.996 0 0 0 0-1.41L8.703 6.7c-.38-.38-1.02-.38-1.41.01zM16.003 18c.55 0 1-.386 1-.857V6.857c0-.471-.45-.857-1-.857s-1 .386-1 .857v10.286c0 .471.45.857 1 .857z"/></g></svg>
