<svg focusable="false" xmlns="http://www.w3.org/2000/svg" width="40" height="40" viewBox="0 0 40 40"><title>payroll-40</title><g fill="none" fill-rule="evenodd"><path d="M0 0h40v40H0z"/><circle cx="20.01" cy="16.006" r="5" fill="var(--ukg_sys_color_featureIcon_light, #30CEBB)" fill-rule="nonzero"/><path fill="var(--ukg_sys_color_featureIcon_dark, #005151)" fill-rule="nonzero" d="M33 31.006a1 1 0 1 1 0 2H7a1 1 0 1 1 0-2zm0-4a1 1 0 1 1 0 2H7a1 1 0 1 1 0-2zm0-20a1 1 0 0 1 1 1v9a1 1 0 1 1-2 0v-8H8v14h24v-2a1 1 0 0 1 2 0v3a1 1 0 0 1-1 1H7a1 1 0 0 1-1-1v-16a1 1 0 0 1 1-1z"/></g></svg>
