<svg focusable="false" xmlns="http://www.w3.org/2000/svg" width="24" height="24" viewBox="0 0 24 24"><title>Icons / Utility / people-delegate</title><g fill="none" fill-rule="evenodd"><path d="M0 0h24v24H0z"/><path fill="currentColor" fill-rule="nonzero" d="M18 11c1.66 0 2.99-1.34 2.99-3S19.66 5 18 5c-.32 0-.63.05-.91.14.57.81.9 1.79.9 2.86 0 1.07-.34 2.04-.9 2.86.28.09.59.14.91.14zm-5 0c1.66 0 2.99-1.34 2.99-3S14.66 5 13 5c-1.66 0-3 1.34-3 3s1.34 3 3 3zm0 2c-2 0-6 1-6 3v1c0 .55.45 1 1 1h10c.55 0 1-.45 1-1v-1c0-2-4-3-6-3zm6.62.16c1.943.338 4.222 1.237 4.372 2.688L24 16v1.5c0 .249-.174.45-.41.492L23.5 18h-2.55c.02-.107.036-.218.044-.33L21 17.5V16c0-1.18-.55-2.11-1.38-2.84zM7.806 10.237a1.032 1.032 0 0 1 .16.331l.013.057a1.099 1.099 0 0 1 .021.203v.044a.997.997 0 0 1-.293.712L4.88 14.412a1 1 0 1 1-1.415-1.414l1.17-1.17H1a1 1 0 1 1 0-2h3.585l-1.12-1.12a1 1 0 1 1 1.414-1.415l2.828 2.828.071.08.001.001.027.035zm-.058-.072.011.013.013.015-.024-.028z"/></g></svg>
