<svg focusable="false" xmlns="http://www.w3.org/2000/svg" width="40" height="40" viewBox="0 0 40 40"><title>people-40</title><g fill="none" fill-rule="evenodd"><path d="M0 0h40v40H0z"/><path fill="var(--ukg_sys_color_featureIcon_light, #30CEBB)" fill-rule="nonzero" d="M14.5 20a8.504 8.504 0 0 1 8.146 6.063A7.465 7.465 0 0 1 25.5 25.5a7.422 7.422 0 0 0-3.39.82 3.48 3.48 0 0 0 6.78 0 7.417 7.417 0 0 0-3.39-.82A7.5 7.5 0 0 1 33 33v1H18v-1c0-1.264.313-2.455.865-3.5H7l-1-1a8.5 8.5 0 0 1 8.5-8.5zm3.085 1.265a.752.752 0 0 0-.895.575 2.24 2.24 0 0 1-4.38 0 .752.752 0 1 0-1.47.32 3.77 3.77 0 0 0 3.66 2.94 3.77 3.77 0 0 0 3.66-2.94.752.752 0 0 0-.575-.895zM25.71 9.29a1.004 1.004 0 0 1 0 1.42l-2 2A1 1 0 0 1 23 13a1 1 0 0 1-.71-1.71l2-2a1.004 1.004 0 0 1 1.42 0zM20 6a1 1 0 0 1 1 1v3a1 1 0 0 1-2 0V7a1 1 0 0 1 1-1z"/><path fill="var(--ukg_sys_color_featureIcon_dark, #005151)" fill-rule="nonzero" d="M11.498 9.495A1.5 1.5 0 0 1 12.98 10.8a4 4 0 1 1-2.48 3.7 3.9 3.9 0 0 1 .59-2.06 1.5 1.5 0 0 1 .408-2.945zm4.382 3.565a2 2 0 0 1-1.67.94h-1.64a2.08 2.08 0 0 0-.07.5 2 2 0 0 0 2 2 2 2 0 0 0 1.38-3.44zm12.62 3.22V16a1 1 0 0 0-1-1h-5a1 1 0 0 0-1 1c.005.462.133.914.37 1.31a4.14 4.14 0 0 0-.37 1.51v.37a4 4 0 1 0 8 .07.91.91 0 0 0 0-.17V18a2 2 0 0 0-1-1.72zm-3 4.72a2 2 0 0 1-2-2 1.74 1.74 0 0 1 .05-.39c.186.048.378.071.57.07.175.003.35-.014.52-.05h.08l1.78-.41a.81.81 0 0 1 1 .78 2 2 0 0 1-2 2zM7 29.5a1 1 0 0 1-1-1 8.5 8.5 0 0 1 14.73-5.78 1 1 0 1 1-1.46 1.36A6.5 6.5 0 0 0 8 28.5a1 1 0 0 1-1 1zM33 34a1 1 0 0 1-1-1 6.5 6.5 0 1 0-13 0 1 1 0 0 1-2 0 8.5 8.5 0 1 1 17 0 1 1 0 0 1-1 1z"/></g></svg>
