<svg focusable="false" xmlns="http://www.w3.org/2000/svg" width="40" height="40" viewBox="0 0 40 40"><title>people-money-dollar-40</title><g fill="none" fill-rule="evenodd"><path d="M0 0h40v40H0z"/><path fill="var(--ukg_sys_color_featureIcon_light, #30CEBB)" fill-rule="nonzero" d="M19.001 25a1 1 0 0 1 0 2h-2a1 1 0 1 1 0-2h2zm0-4a1 1 0 0 1 0 2h-2a1 1 0 1 1 0-2h2zm9.04-16a2 2 0 0 1 2 2v11H4.001V7a2 2 0 0 1 1.96-2h22.08z"/><path fill="var(--ukg_sys_color_featureIcon_dark, #005151)" fill-rule="nonzero" d="M28.001 4a3.11 3.11 0 0 1 3 3.2V17a1 1 0 0 1-2 0V7.2a1.12 1.12 0 0 0-1-1.2h-22a1.12 1.12 0 0 0-1 1.2v21.6a1.12 1.12 0 0 0 1 1.2h1a4 4 0 0 1 8 0h7.26a8.24 8.24 0 0 1-.26-2 8 8 0 0 1 8-8 8 8 0 0 1 7 11.81 1.012 1.012 0 0 1-1.76-1 6 6 0 1 0-2.43 2.43 1.012 1.012 0 1 1 1 1.76 8 8 0 0 1-10.73-3H6.001a3.11 3.11 0 0 1-3-3.2V7.018a3.11 3.11 0 0 1 3-3.018zm2 19.25a.75.75 0 0 1 .75.75v.263c.506.054.98.281 1.34.647a.75.75 0 0 1-1.06 1.06.75.75 0 0 0-.53-.22h-.5l-.011-.001-.489.001a.75.75 0 1 0 0 1.5h1a2.25 2.25 0 0 1 .25 4.486V32a.76.76 0 0 1-.75.75.76.76 0 0 1-.75-.75v-.263a2.21 2.21 0 0 1-1.34-.647.75.75 0 0 1 1.06-1.06c.14.14.332.22.53.22h1a.75.75 0 0 0 0-1.5h-1a2.25 2.25 0 0 1-.25-4.486V24a.75.75 0 0 1 .75-.75zm-20.59-2.591a2.25 2.25 0 1 1 3.181 3.182 2.25 2.25 0 0 1-3.182-3.182zM11 14a4 4 0 0 1 4 4H7a4 4 0 0 1 4-4zm8-1a1 1 0 0 1 0 2h-2a1 1 0 1 1 0-2h2zm6 0a1 1 0 0 1 0 2h-2a1 1 0 1 1 0-2h2zM11 8a2.25 2.25 0 1 1 0 4.5A2.25 2.25 0 0 1 11 8zm8 1a1 1 0 0 1 0 2h-2a1 1 0 1 1 0-2h2zm6 0a1 1 0 0 1 0 2h-2a1 1 0 1 1 0-2h2z"/></g></svg>
