<svg focusable="false" xmlns="http://www.w3.org/2000/svg" width="40" height="40" viewBox="0 0 40 40"><title>people-move-40</title><g fill="none" fill-rule="evenodd"><path d="M0 0h40v40H0z"/><path fill="var(--ukg_sys_color_featureIcon_light, #30CEBB)" fill-rule="nonzero" d="M37 35v1H23v-1a6.996 6.996 0 0 1 3.391-6A3.76 3.76 0 0 0 30 31.75a3.76 3.76 0 0 0 3.604-2.751A6.994 6.994 0 0 1 37 35zm-7-7c.78 0 1.531.128 2.233.364l-.033.086a2.25 2.25 0 0 1-4.41 0 .74.74 0 0 0-.022-.085c.7-.237 1.45-.365 2.232-.365zm-6.04-9.73a.75.75 0 0 1 .75.75 5.74 5.74 0 0 1-5.73 5.73h-1.21l.73.75a.75.75 0 0 1-.52 1.25.74.74 0 0 1-.48-.25l-2-2a.75.75 0 0 1 0-1l2-2a.75.75 0 0 1 1 1l-.73.75h1.21a4.24 4.24 0 0 0 4.23-4.23.75.75 0 0 1 .75-.75zM17.5 8.5l2 2a.75.75 0 0 1 0 1l-2 2a.73.73 0 0 1-.52.25.74.74 0 0 1-.48-.25.75.75 0 0 1 0-1l.75-.75h-2.28a4.24 4.24 0 0 0-4.23 4.23.76.76 0 0 1-.75.75.76.76 0 0 1-.75-.75 5.74 5.74 0 0 1 5.73-5.73h2.251L16.5 9.5a.75.75 0 0 1 1-1z"/><path fill="var(--ukg_sys_color_featureIcon_dark, #005151)" fill-rule="nonzero" d="M28 4a3 3 0 0 1 3 3v6a1 1 0 0 1-2 0V7a1 1 0 0 0-1-1H6a1 1 0 0 0-1 1v22a1 1 0 0 0 1 1h17.76A8 8 0 0 1 30 27a8 8 0 0 1 8 8 1 1 0 0 1-2 0 6 6 0 1 0-12 0 1 1 0 0 1-2 0 7.9 7.9 0 0 1 .59-3H6a3 3 0 0 1-3-3V7a3 3 0 0 1 3-3zM10.5 23a3.5 3.5 0 0 1 3.5 3.5v.5H7v-.5a3.5 3.5 0 0 1 3.5-3.5zM30 16a1.5 1.5 0 0 1 1.5 1.5 1.54 1.54 0 0 1-.2.74 4 4 0 1 1-2.6 0 1.54 1.54 0 0 1-.2-.74A1.5 1.5 0 0 1 30 16zm0 4.25a2 2 0 0 1-1.74 1h-.11A1.86 1.86 0 0 0 28 22a2 2 0 1 0 4 0 1.86 1.86 0 0 0-.15-.75h-.11a2 2 0 0 1-1.74-1zM10.48 19a1.5 1.5 0 1 1 0 3 1.5 1.5 0 0 1 0-3zm13.02-7a3.5 3.5 0 0 1 3.5 3.5v.5h-7v-.5a3.5 3.5 0 0 1 3.5-3.5zm-.02-4a1.5 1.5 0 1 1 0 3 1.5 1.5 0 0 1 0-3z"/></g></svg>
