<svg focusable="false" xmlns="http://www.w3.org/2000/svg" width="40" height="40" viewBox="0 0 40 40"><title>people-connected-40</title><g fill="none" fill-rule="evenodd"><path d="M0 0h40v40H0z"/><path fill="var(--ukg_sys_color_featureIcon_light, #30CEBB)" fill-rule="nonzero" d="M20 23.02c3.038 0 5.5 2.458 5.5 5.49A5.495 5.495 0 0 1 20 34a5.495 5.495 0 0 1-5.5-5.49 5.495 5.495 0 0 1 5.5-5.49zm8.5-13.974c3.038 0 5.5 2.458 5.5 5.49a5.495 5.495 0 0 1-5.5 5.49 5.495 5.495 0 0 1-5.5-5.49 5.495 5.495 0 0 1 5.5-5.49zm-17 0c3.038 0 5.5 2.458 5.5 5.49a5.495 5.495 0 0 1-5.5 5.49 5.495 5.495 0 0 1-5.5-5.49 5.495 5.495 0 0 1 5.5-5.49z"/><path fill="var(--ukg_sys_color_featureIcon_dark, #005151)" fill-rule="nonzero" d="M20 29.005a4.48 4.48 0 0 1 4.23 2.999A5.474 5.474 0 0 1 20 34a5.474 5.474 0 0 1-4.23-1.996 4.48 4.48 0 0 1 4.23-3zm12.191-7.219a1 1 0 0 1 .229.975 12.971 12.971 0 0 1-3.3 5.47 1.001 1.001 0 0 1-.68.28 1.001 1.001 0 0 1-1.006-.999 1 1 0 0 1 .296-.709 10.976 10.976 0 0 0 2.77-4.621 1.002 1.002 0 0 1 1.691-.396zM9.5 22.182a10.976 10.976 0 0 0 2.79 4.631.997.997 0 0 1 0 1.418 1.005 1.005 0 0 1-.73.28 1.001 1.001 0 0 1-.71-.29 13.081 13.081 0 0 1-3.3-5.47 1.016 1.016 0 0 1 1.95-.569zM20 24.518c.966 0 1.75.782 1.75 1.746 0 .965-.784 1.747-1.75 1.747s-1.75-.782-1.75-1.747c0-.964.784-1.746 1.75-1.746zm8.5-9.508a4.47 4.47 0 0 1 4.23 3.02 5.504 5.504 0 0 1-4.23 1.996 5.504 5.504 0 0 1-4.23-1.996 4.47 4.47 0 0 1 4.23-3.02zm-17 0a4.47 4.47 0 0 1 4.23 3.02 5.504 5.504 0 0 1-4.23 1.996 5.504 5.504 0 0 1-4.23-1.996 4.47 4.47 0 0 1 4.23-3.02zm17-4.466c.966 0 1.75.782 1.75 1.746 0 .965-.784 1.747-1.75 1.747s-1.75-.782-1.75-1.747c0-.964.784-1.746 1.75-1.746zm-17 0c.966 0 1.75.782 1.75 1.746 0 .965-.784 1.747-1.75 1.747s-1.75-.782-1.75-1.747c0-.964.784-1.746 1.75-1.746zM23.91 6.6a.999.999 0 1 1-.6 1.906 11.02 11.02 0 0 0-6.62 0 1.001 1.001 0 0 1-.3.09 1.01 1.01 0 1 1-.3-1.996 13.023 13.023 0 0 1 7.82 0z"/></g></svg>
