<svg focusable="false" xmlns="http://www.w3.org/2000/svg" width="24" height="24" viewBox="0 0 24 24"><title>Icons / Utility / people-remove</title><g fill="none" fill-rule="evenodd"><path d="M0 0h24v24H0z"/><path fill="currentColor" fill-rule="nonzero" d="M6 8.85c-1.66 0-2.99-1.34-2.99-3s1.33-3 2.99-3c.32 0 .63.05.91.14-.57.81-.9 1.79-.9 2.86 0 1.07.34 2.04.9 2.86-.28.09-.59.14-.91.14zm5 0c-1.66 0-2.99-1.34-2.99-3s1.33-3 2.99-3c1.66 0 3 1.34 3 3s-1.34 3-3 3zm0 2c.681 0 1.595.117 2.504.35a7.47 7.47 0 0 0-3.282 4.651H6c-.55 0-1-.45-1-1v-1c0-2 4-3 6-3zM17.5 12a5.5 5.5 0 1 1 0 11 5.5 5.5 0 0 1 0-11zm2.25 4.75h-4.5a.75.75 0 1 0 0 1.5h4.5a.75.75 0 1 0 0-1.5zM4.38 11.01C3.55 11.74 3 12.67 3 13.85v1.5c0 .17.02.34.05.5H.5c-.28 0-.5-.22-.5-.5v-1.5c0-1.54 2.37-2.49 4.38-2.84z"/></g></svg>
