<svg focusable="false" xmlns="http://www.w3.org/2000/svg" width="24" height="24" viewBox="0 0 24 24"><title>Icons / Utility / people-add</title><g fill="none" fill-rule="evenodd"><path d="M0 0h24v24H0z"/><path fill="currentColor" fill-rule="nonzero" d="M6 8.85c-1.66 0-2.99-1.34-2.99-3s1.33-3 2.99-3c.32 0 .63.05.91.14-.57.81-.9 1.79-.9 2.86 0 1.07.34 2.04.9 2.86-.28.09-.59.14-.91.14zm5 0c-1.66 0-2.99-1.34-2.99-3s1.33-3 2.99-3c1.66 0 3 1.34 3 3s-1.34 3-3 3zm0 2c.702 0 1.65.124 2.587.37a7.41 7.41 0 0 0-3.3 4.631H6c-.55 0-1-.45-1-1v-1c0-2 4-3 6-3zm-6.62.16C3.55 11.74 3 12.67 3 13.85v1.5c0 .17.02.34.05.5H.5c-.28 0-.5-.22-.5-.5v-1.5c0-1.54 2.37-2.49 4.38-2.84zM17.5 12a5.5 5.5 0 1 1 0 11 5.5 5.5 0 0 1 0-11zm0 2.5a.75.75 0 0 0-.75.75l-.001 1.5H15.25a.75.75 0 0 0-.102 1.493l.102.007h1.499l.001 1.5c0 .38.282.693.648.743l.102.007a.75.75 0 0 0 .75-.75l-.001-1.5h1.501a.75.75 0 1 0 0-1.5h-1.501l.001-1.5a.75.75 0 0 0-.648-.743z"/></g></svg>
