<svg focusable="false" xmlns="http://www.w3.org/2000/svg" width="40" height="40" viewBox="0 0 40 40"><title>people-notes-40</title><g fill="none" fill-rule="evenodd"><path d="M0 0h40v40H0z"/><path fill="var(--ukg_sys_color_featureIcon_light, #30CEBB)" fill-rule="nonzero" d="M28.02 17.98V10H10v11.99h14.01z"/><path fill="var(--ukg_sys_color_featureIcon_dark, #005151)" fill-rule="nonzero" d="M14.75 18.459A3.5 3.5 0 0 1 20 21.49V22h-7v-.51a3.5 3.5 0 0 1 1.75-3.031zm6.87-.379a1 1 0 0 1 .76 0 .93.93 0 0 1 .33.21.79.79 0 0 1 .12.15c.044.057.084.117.12.18.021.059.038.119.05.18a.71.71 0 0 1 0 .2 1 1 0 0 1-.05.38 1 1 0 0 1-1.93-.38 1.5 1.5 0 0 1 0-.2 1.27 1.27 0 0 1 .15-.36l.12-.15a1.15 1.15 0 0 1 .33-.21zm-5.12-4.09a1.5 1.5 0 1 1 0 3 1.5 1.5 0 0 1 0-3zM24 14a1 1 0 0 1 0 2h-3a1 1 0 0 1 0-2zm-3 15c.083.01.167.01.25 0l4-1c.171-.05.328-.14.46-.26l11-11a1 1 0 0 0 0-1.42l-3-3a1 1 0 0 0-1.42 0L29 15.57V10a1 1 0 0 0-1-1h-2V7a1 1 0 0 0-2 0v2h-2V7a1 1 0 0 0-2 0v2h-2V7a1 1 0 0 0-2 0v2h-2V7a1 1 0 0 0-2 0v2h-2a1 1 0 0 0-1 1v21a3 3 0 0 0 3 3h14a3 3 0 0 0 3-3v-2a1 1 0 0 0-2 0v2a1 1 0 0 1-1 1h-6v-.5a3.5 3.5 0 0 0-7 0v.5h-1a1 1 0 0 1-1-1V11h16v6.57l-5.71 5.73a1.06 1.06 0 0 0-.27.47l-1 4a1 1 0 0 0 .27.95A1 1 0 0 0 21 29zm-4.5-5a1.5 1.5 0 1 1 0 3 1.5 1.5 0 0 1 0-3zM33 14.41 34.59 16l-10.1 10.09-2.12.53.53-2.1L33 14.41z"/></g></svg>
