<svg focusable="false" xmlns="http://www.w3.org/2000/svg" width="40" height="40" viewBox="0 0 40 40"><title>performance-40</title><g fill="none" fill-rule="evenodd"><path d="M0 0h40v40H0z"/><path fill="var(--ukg_sys_color_featureIcon_light, #30CEBB)" fill-rule="nonzero" d="m22.93 26.65.245.119A7 7 0 0 1 27 33v1H13v-1a7 7 0 0 1 4.07-6.35l.045.177a3 3 0 0 0 5.815-.177zM20 5c8.284 0 15 6.716 15 15h-6a9 9 0 0 0-9-9z"/><path fill="var(--ukg_sys_color_featureIcon_dark, #005151)" fill-rule="nonzero" d="M20 4C11.163 4 4 11.163 4 20s7.163 16 16 16 16-7.163 16-16A16 16 0 0 0 20 4zm0 22.64a6 6 0 0 1 6 6A14 14 0 0 1 20 34a14 14 0 0 1-6-1.36 6 6 0 0 1 6-6zM20 16a4 4 0 1 1-4 4v-.09a4 4 0 0 1 .37-1.58 2.65 2.65 0 0 1-.37-1.39 1 1 0 0 1 1-.94zm1.12 3.205-.12.015-1.86.41a2.29 2.29 0 0 1-.52.05 2.78 2.78 0 0 1-.57-.07A1.67 1.67 0 0 0 18 20a2 2 0 1 0 4 0l-.015-.12a.84.84 0 0 0-.985-.66zm6.75 12.365a8 8 0 0 0-15.74 0A14 14 0 0 1 6.05 21h4a1 1 0 0 0 0-2h-4a13.93 13.93 0 0 1 3.38-8.15l2.79 2.79a1 1 0 0 0 .71.29 1 1 0 0 0 .71-1.71l-2.79-2.79A13.93 13.93 0 0 1 19 6.05v4a1 1 0 0 0 2 0v-4a13.93 13.93 0 0 1 8.15 3.38l-2.79 2.79a1 1 0 0 0 .71 1.71 1 1 0 0 0 .71-.29l2.79-2.79A13.93 13.93 0 0 1 34 19h-4a1 1 0 0 0 0 2h4a14 14 0 0 1-6.13 10.57z"/></g></svg>
