<svg focusable="false" xmlns="http://www.w3.org/2000/svg" width="40" height="40" viewBox="0 0 40 40"><title>person-1-information-40</title><g fill="none" fill-rule="evenodd"><path d="M0 0h40v40H0z"/><path fill="var(--ukg_sys_color_featureIcon_light, #30CEBB)" fill-rule="nonzero" d="M26.76 29a5.18 5.18 0 0 0-.56 5H6a13 13 0 0 1 1-5zm-3.802-8.08.102.01a.75.75 0 0 1 .61.87A4.73 4.73 0 0 1 19 25.75a4.73 4.73 0 0 1-4.67-3.95.75.75 0 1 1 1.48-.25 3.23 3.23 0 0 0 6.38 0 .76.76 0 0 1 .87-.62z"/><path fill="var(--ukg_sys_color_featureIcon_dark, #005151)" fill-rule="nonzero" d="M13.515 20.095A14 14 0 0 1 28.72 22.9a1 1 0 0 1 0 1.41 1 1 0 0 1-1.41.03A12 12 0 0 0 7 33a1 1 0 0 1-2 0 14 14 0 0 1 8.515-12.905zm5.49-14.074A6 6 0 0 1 24.29 9.18l.024.048c.145.293.926 1.889 1.722 3.517l.251.514 1.59 3.255.023.046A1 1 0 0 1 27 18H11a1 1 0 0 1-.9-1.44l3.62-7.38a6 6 0 0 1 5.285-3.16zM19 9.32a2.49 2.49 0 0 1-2.25 1.43h-1.53a4 4 0 1 0 7.56 0h-1.53A2.49 2.49 0 0 1 19 9.32zM31 26a6 6 0 1 0 0 12 6 6 0 0 0 0-12zm.75 9a.75.75 0 1 1-1.5 0v-3a.75.75 0 1 1 1.5 0v3zM31 30a1 1 0 1 1 0-2 1 1 0 0 1 0 2z"/></g></svg>
