<svg focusable="false" xmlns="http://www.w3.org/2000/svg" width="24" height="24" viewBox="0 0 24 24"><title>Icons / Utility / person-remove</title><g fill="none" fill-rule="evenodd"><path d="M0 0h24v24H0z"/><path fill="currentColor" fill-rule="nonzero" d="M8 10c2.21 0 4-1.79 4-4s-1.79-4-4-4-4 1.79-4 4 1.79 4 4 4zm0 2c1.058 0 2.535.21 3.931.63A7.366 7.366 0 0 0 10.12 18H1c-.55 0-1-.45-1-1v-1c0-2.66 5.33-4 8-4zm9.5 0a5.5 5.5 0 1 1 0 11 5.5 5.5 0 0 1 0-11zm2.25 4.75h-4.5a.75.75 0 1 0 0 1.5h4.5a.75.75 0 1 0 0-1.5z"/></g></svg>
