<svg focusable="false" xmlns="http://www.w3.org/2000/svg" width="40" height="40" viewBox="0 0 40 40"><title>person-arrow-40</title><g fill="none" fill-rule="evenodd"><path d="M0 0h40v40H0z"/><path fill="var(--ukg_sys_color_featureIcon_light, #30CEBB)" fill-rule="nonzero" d="M23.157 28.02a6.63 6.63 0 0 0-.08 1 7 7 0 0 0 1.26 4H4.077a13 13 0 0 1 1-5zm-.568-8.512a.75.75 0 0 1 .018 1.042l-5 5a.75.75 0 0 1-1.06 0l-5-5a.75.75 0 0 1 1.06-1.06l4.47 4.47 4.47-4.47a.75.75 0 0 1 1.042.018z"/><path fill="var(--ukg_sys_color_featureIcon_dark, #005151)" fill-rule="nonzero" d="M24.007 21.02a1 1 0 0 0-.42-1.35 14 14 0 0 0-20.51 12.35 1 1 0 0 0 2 0 12 12 0 0 1 17.58-10.63 1 1 0 0 0 1.35-.37zm-6.93-4a6 6 0 0 0 6-6v-3a2 2 0 0 0-1-1.74 2.3 2.3 0 0 0 0-.26 1 1 0 0 0-1-1h-4a5.88 5.88 0 0 0-3.3 1h-.7a2 2 0 0 0-2 2v3a6 6 0 0 0 6 6zm13 4a8 8 0 0 1 7 11.81 1.012 1.012 0 0 1-1.76-1 6 6 0 1 0-2.43 2.43 1.012 1.012 0 1 1 1 1.76 8 8 0 1 1-3.81-15zm-.511 4.488a.75.75 0 0 1 1.041-.018l3 3a.75.75 0 0 1 0 1.06l-3 3a.75.75 0 0 1-1.06-1.06l1.72-1.72h-4.19a.75.75 0 0 1 0-1.5h4.19l-1.72-1.72a.75.75 0 0 1 .019-1.042zM20.577 9.12a4 4 0 0 1 .5 1.9 4 4 0 1 1-8 0 3.9 3.9 0 0 1 .45-1.8l.34.11a13.08 13.08 0 0 0 4.21.69 4 4 0 0 0 2.5-.9z"/></g></svg>
