<svg focusable="false" xmlns="http://www.w3.org/2000/svg" width="40" height="40" viewBox="0 0 40 40"><title>person-3-40</title><g fill="none" fill-rule="evenodd"><path d="M0 0h40v40H0z"/><path fill="var(--ukg_sys_color_featureIcon_light, #30CEBB)" fill-rule="nonzero" d="M24 27h-8v-5.3a11.75 11.75 0 0 0-3 1.57V34h14V23.27a11.75 11.75 0 0 0-3-1.57V27Z"/><path fill="var(--ukg_sys_color_featureIcon_dark, #005151)" fill-rule="nonzero" d="M20 20c7.18 0 13 5.82 13 13a1 1 0 1 1-2 0c0-6.075-4.925-11-11-11S9 26.925 9 33a1 1 0 0 1-2 0c0-7.18 5.82-13 13-13Zm5.5-14a2.5 2.5 0 0 1 .24 4.989c.169.553.26 1.141.26 1.751a.41.41 0 0 1 0 .11v.3a.41.41 0 0 1 0 .11 6 6 0 1 1-12 0v-.52a6 6 0 0 1 .26-1.753 2.5 2.5 0 1 1 2.587-3.35A5.954 5.954 0 0 1 20 6.74a5.98 5.98 0 0 1 3.155.895A2.497 2.497 0 0 1 25.5 6ZM20 10.32a2.49 2.49 0 0 1-2.25 1.43h-1.53A3.95 3.95 0 0 0 20 17a3.95 3.95 0 0 0 3.78-5.25h-1.53A2.49 2.49 0 0 1 20 10.32Z"/></g></svg>
