<svg focusable="false" xmlns="http://www.w3.org/2000/svg" width="24" height="24" viewBox="0 0 24 24"><title>Icons / Utility / person-access</title><g fill="none" fill-rule="evenodd"><path d="M0 0h24v24H0z"/><path fill="currentColor" fill-rule="nonzero" d="M8 9.98c2.21 0 4-1.79 4-4s-1.79-4-4-4-4 1.79-4 4 1.79 4 4 4zm0 2c1.563 0 4.038.459 5.822 1.374a5.865 5.865 0 0 0 .034 2.106l-2.466 2.52H1c-.51 0-.935-.388-.993-.884L0 16.98v-1c0-2.66 5.33-4 8-4zm8.747-.628a3.97 3.97 0 1 1 .812 6.242l-2.014 2.013 1.25 2.034-2.056 2.057-2.036-1.25-.229.23a1 1 0 0 1-1.414 0l-.024-.024a1 1 0 0 1 0-1.414l5.085-5.085a3.972 3.972 0 0 1 .626-4.803zm1.531 1.531a1.805 1.805 0 1 0 2.553 2.553 1.805 1.805 0 0 0-2.553-2.553z"/></g></svg>
