<svg focusable="false" xmlns="http://www.w3.org/2000/svg" width="40" height="40" viewBox="0 0 40 40"><title>person-2-information-40</title><g fill="none" fill-rule="evenodd"><path d="M0 0h40v40H0z"/><path fill="var(--ukg_sys_color_featureIcon_light, #30CEBB)" fill-rule="nonzero" d="M26.76 29a5.18 5.18 0 0 0-.56 5H6a13 13 0 0 1 1-5zm-13.282-8.522a.75.75 0 0 1 1.042-.018L19 24.94l4.48-4.47a.75.75 0 0 1 1.06 1.06l-5 5a.79.79 0 0 1-.53.22.75.75 0 0 1-.53-.22l-5.02-5.01a.75.75 0 0 1 .018-1.042z"/><path fill="var(--ukg_sys_color_featureIcon_dark, #005151)" fill-rule="nonzero" d="M28.69 22.9a1 1 0 0 1-1.38 1.44A12 12 0 0 0 7 33a1 1 0 0 1-2 0 14 14 0 0 1 23.69-10.1zM23 6a1 1 0 0 1 1 1 2.06 2.06 0 0 1 0 .26A2 2 0 0 1 25 9v2.95a6 6 0 0 1-12 0v-3a2 2 0 0 1 2-2h.74l.211-.132a6 6 0 0 1 .439-.238l.18-.07c.19-.09.39-.16.58-.23l.2-.06c.21-.06.43-.15.65-.15h.15A6 6 0 0 1 19 6zm-.5 4.1a4 4 0 0 1-2.5.9 13 13 0 0 1-4.21-.69l-.34-.11A3.9 3.9 0 0 0 15 12a4 4 0 1 0 8 0 4 4 0 0 0-.5-1.9zM31 26a6 6 0 1 0 0 12 6 6 0 0 0 0-12zm.75 9a.75.75 0 1 1-1.5 0v-3a.75.75 0 1 1 1.5 0v3zM31 30a1 1 0 1 1 0-2 1 1 0 0 1 0 2z"/></g></svg>
