<svg focusable="false" xmlns="http://www.w3.org/2000/svg" width="40" height="40" viewBox="0 0 40 40"><defs><clipPath id="a"><path d="M11 0a11.75 11.75 0 0 1 3 1.57V12.3H0V1.57A11.75 11.75 0 0 1 3 0v5.3h8Z"/></clipPath><clipPath id="b"><path d="M13 14c7.18 0 13 5.82 13 13a1 1 0 1 1-2 0c0-6.075-4.925-11-11-11S2 20.925 2 27a1 1 0 0 1-2 0c0-7.18 5.82-13 13-13Zm4-14a1 1 0 0 1 1 1 2.06 2.06 0 0 1 0 .26A2 2 0 0 1 19 3v2.95a6 6 0 0 1-12 0v-3a2 2 0 0 1 2-2h.74l.211-.132A6 6 0 0 1 10.39.58l.18-.07c.19-.09.39-.16.58-.23l.2-.06c.21-.06.43-.15.65-.15h.15A6 6 0 0 1 13 0h4Zm-.5 4.1A4 4 0 0 1 14 5a13 13 0 0 1-4.21-.69l-.34-.11A3.9 3.9 0 0 0 9 6a4 4 0 1 0 8 0 4 4 0 0 0-.5-1.9Z"/></clipPath></defs><g clip-path="url(#a)" transform="translate(13 22)"><path fill="var(--ukg_sys_color_featureIcon_light, #30CEBB)" d="M0 0h14v12.3H0V0z"/></g><g clip-path="url(#b)" transform="translate(7 6)"><path fill="var(--ukg_sys_color_featureIcon_dark, #005151)" d="M0 0h26v28H0V0z"/></g></svg>
