<svg focusable="false" xmlns="http://www.w3.org/2000/svg" width="24" height="24" viewBox="0 0 24 24"><title>Icons / Utility / person-delegate</title><g fill="none" fill-rule="evenodd"><path d="M0 0h24v24H0z"/><path fill="currentColor" fill-rule="nonzero" d="M15 12c2.21 0 4-1.79 4-4s-1.79-4-4-4-4 1.79-4 4 1.79 4 4 4zm0 2c2.61 0 7.764 1.281 7.992 3.825L23 18v1c0 .51-.388.935-.884.993L22 20H8c-.51 0-.935-.388-.993-.884L7 19v-1c0-2.66 5.33-4 8-4zm-6.194-3.763a1.032 1.032 0 0 1 .16.331l.013.057a1.099 1.099 0 0 1 .021.203v.044a.997.997 0 0 1-.293.712L5.88 14.412a1 1 0 1 1-1.415-1.414l1.17-1.17H2a1 1 0 1 1 0-2h3.585l-1.12-1.12a1 1 0 1 1 1.414-1.415l2.828 2.828.071.08.001.001.027.035zm-.058-.072.011.013.013.015-.024-.028z"/></g></svg>
