<svg focusable="false" xmlns="http://www.w3.org/2000/svg" width="24" height="24" viewBox="0 0 24 24"><title>Icons / Utility / photo-add</title><g fill="none" fill-rule="evenodd"><path d="M0 0h24v24H0z"/><path fill="currentColor" fill-rule="nonzero" d="M17.5 12a5.5 5.5 0 1 1 0 11 5.5 5.5 0 0 1 0-11zm0 2.5a.75.75 0 0 0-.743.648l-.007.102v1.5h-1.5a.75.75 0 0 0-.102 1.493l.102.007h1.499l.001 1.5a.75.75 0 0 0 1.493.102l.007-.102-.001-1.5h1.501a.75.75 0 0 0 .102-1.493l-.102-.007h-1.5v-1.5a.75.75 0 0 0-.75-.75zM13.197 1c.502 0 .97.25 1.248.668L16 4h3a2 2 0 0 1 2 2l.001 4.866a7.448 7.448 0 0 0-2-.716L19 6h-4l-2-3H9L7 6H3v11h7.016a7.612 7.612 0 0 0 .134 2H3a2 2 0 0 1-2-2V6a2 2 0 0 1 2-2h3l1.555-2.332A1.5 1.5 0 0 1 8.803 1h4.394zM11 7a4 4 0 0 1 3.961 3.44 7.487 7.487 0 0 0-2.042 1.12 2 2 0 1 0-1.358 1.36 7.45 7.45 0 0 0-1.12 2.04A3.999 3.999 0 0 1 11 7z"/></g></svg>
