<svg focusable="false" xmlns="http://www.w3.org/2000/svg" width="24" height="24" viewBox="0 0 24 24"><title>Icons / Navigation / pin-filled</title><g fill="none" fill-rule="evenodd"><path d="M0 0h24v24H0z"/><path fill="currentColor" fill-rule="nonzero" d="M13.491 4c0 .27.11.529.303.717l.595.596-6.199 4.972-.982-.982a1 1 0 1 0-1.414 1.414l3.301 3.301L3.29 19.82v1.401h1.4l5.803-5.805 3.301 3.301a1 1 0 1 0 1.442-1.386l-.028-.028-.897-.897 4.905-6.267.578.578a1 1 0 1 0 1.414-1.414l-6-6A1 1 0 0 0 13.491 4z"/></g></svg>
