<svg focusable="false" xmlns="http://www.w3.org/2000/svg" width="24" height="24" viewBox="0 0 24 24"><title>Icons / Navigation / pin-empty</title><g fill="none" fill-rule="evenodd"><path d="M0 0h24v24H0z"/><path fill="currentColor" fill-rule="nonzero" d="M14.491 3a1 1 0 0 1 .717.303l6.028 6.029a1 1 0 1 1-1.442 1.385l-.578-.578-4.905 6.267.897.897c.01.01.02.018.028.028a1 1 0 1 1-1.442 1.386l-3.3-3.301-5.804 5.805h-1.4V19.82l5.805-5.802-3.3-3.301A.998.998 0 0 1 6.49 9a1 1 0 0 1 .717.303l.982.982 6.2-4.972-.596-.596A.998.998 0 0 1 14.491 3zm.995 3.423-6.022 5.134 3.45 3.456 4.978-5.94-2.406-2.65z"/></g></svg>
