<svg focusable="false" xmlns="http://www.w3.org/2000/svg" width="40" height="40" viewBox="0 0 40 40"><title>planning-40</title><g fill="none" fill-rule="evenodd"><path d="M0 0h40v40H0z"/><path fill="var(--ukg_sys_color_featureIcon_light, #30CEBB)" fill-rule="nonzero" d="M20.212 15.581A.75.75 0 0 1 21 16l2.5 2.44a.75.75 0 0 1 0 1.06L21 22a.75.75 0 0 1-1 0 .75.75 0 0 1 0-1l1.19-1.25H16.5a4.76 4.76 0 0 0-4.75 4.76v1.71a.75.75 0 1 1-1.5 0v-1.74a6.26 6.26 0 0 1 6.25-6.26h4.72L20 17a.75.75 0 0 1 .212-1.419zM23 12.75a.75.75 0 1 1 0 1.5h-6a.75.75 0 1 1 0-1.5z"/><path fill="var(--ukg_sys_color_featureIcon_dark, #005151)" fill-rule="nonzero" d="M33 25a1 1 0 0 0 1-1V8a1 1 0 0 0-1-1H7a1 1 0 0 0-1 1v22a1 1 0 0 0 1 1h7l-1.8 2.4a1 1 0 0 0 1.6 1.2l2.7-3.6H19v3a1 1 0 0 0 2 0v-3h2.5l2.7 3.6a1 1 0 0 0 1.6-1.2L26 31h7a1 1 0 0 0 1-1v-2a1 1 0 0 0-2 0v1H8V9h24v15a1 1 0 0 0 1 1zm-16.5 2a2.5 2.5 0 1 0 0-5 2.5 2.5 0 0 0 0 5zm10-4a3.5 3.5 0 0 1 3.5 3.5v.5h-7v-.5a3.5 3.5 0 0 1 3.5-3.5zm-10 .5a1 1 0 1 1 0 2 1 1 0 0 1 0-2zm10-4.5a1.5 1.5 0 1 1 0 3 1.5 1.5 0 0 1 0-3zm-12.97-7.59a.75.75 0 0 1 1.06 1.06l-1 1 1 1a.75.75 0 0 1-1.06 1.06l-1-1-1 1a.75.75 0 0 1-1.06-1.06l1-1-1-1a.75.75 0 0 1 1.06-1.06l1 1zm15 0a.75.75 0 0 1 1.06 1.06l-1 1 1 1a.75.75 0 0 1-1.06 1.06l-1-1-1 1a.75.75 0 0 1-1.06-1.06l1-1-1-1a.75.75 0 0 1 1.06-1.06l1 1z"/></g></svg>
