<svg focusable="false" xmlns="http://www.w3.org/2000/svg" width="40" height="40" viewBox="0 0 40 40"><title>process-people-40</title><g fill="none" fill-rule="evenodd"><path d="M0 0h40v40H0z"/><path fill="var(--ukg_sys_color_featureIcon_light, #30CEBB)" fill-rule="nonzero" d="M37 34.997v1H23v-1a7 7 0 0 1 4.07-6.359l-.01-.04a3 3 0 0 0 5.862.037A7 7 0 0 1 37 34.997zm-7-7c1.01 0 1.97.214 2.837.599h-5.674A6.976 6.976 0 0 1 30 27.997zm-9.5-18a4.52 4.52 0 1 1 0 9.04 4.52 4.52 0 0 1 0-9.04z"/><path fill="var(--ukg_sys_color_featureIcon_dark, #005151)" fill-rule="nonzero" d="M30 27.003c4.418 0 8 3.58 8 7.997a1 1 0 0 1-2 0 5.999 5.999 0 0 0-6-5.997c-3.314 0-6 2.685-6 5.997a1 1 0 0 1-2 0 7.998 7.998 0 0 1 8-7.997zm-18.75-6.796c.446.257.62.804.422 1.265l-.052.105-.32.55a4 4 0 0 1 .993 1.619l.067.231H13a1 1 0 0 1 .117 1.993l-.117.007h-.64a4 4 0 0 1-.894 1.676l-.166.174.32.54a1.003 1.003 0 0 1-1.676 1.098l-.064-.098-.32-.55a4.12 4.12 0 0 1-1.06.16 4.12 4.12 0 0 1-.8-.094l-.26-.066-.32.55a1.003 1.003 0 0 1-1.792-.895l.052-.105.32-.54a4 4 0 0 1-.993-1.618l-.067-.232H4a1 1 0 0 1-.117-1.993L4 23.977h.64a4 4 0 0 1 .894-1.675l.166-.175-.32-.55a1.003 1.003 0 0 1 1.676-1.098l.064.098.32.56a3.59 3.59 0 0 1 1.888-.063l.232.063.32-.56c.276-.48.89-.646 1.37-.37zm-2.75 2.77a2 2 0 1 0 0 4 2 2 0 0 0 0-4zm15.09-18.84 4.33 2.5a1 1 0 0 1 .46.6 1 1 0 0 1-.1.76l-.88 1.53a8 8 0 0 1 .84 1.45H30a1 1 0 1 1 0 2h-2.44a1 1 0 0 1-.94-.67 6.45 6.45 0 0 0-1.18-2.05 1 1 0 0 1-.11-1.15l.72-1.24-2.55-1.48-.72 1.24a1 1 0 0 1-1 .48 6.35 6.35 0 0 0-2.38 0 1 1 0 0 1-1-.48l-.72-1.24-2.6 1.5.72 1.24a1 1 0 0 1-.11 1.15 6.45 6.45 0 0 0-1.18 2.05 1 1 0 0 1-.94.67H12v3h1.44a1 1 0 0 1 .94.67 6.76 6.76 0 0 0 1.18 2 1 1 0 0 1 .11 1.15l-.72 1.24 2.6 1.5.72-1.24a1 1 0 0 1 1-.48 6.35 6.35 0 0 0 2.38 0 1 1 0 0 1 1 .49l.85 1.32 2.598-1.516a4 4 0 0 1 2.602-2.904 1.5 1.5 0 1 1 2.8-.73 1.38 1.38 0 0 1-.2.73 4 4 0 0 1 2.685 3.387l.015.203h.01v.27a.91.91 0 0 1 0 .17 4 4 0 0 1-7.826 1.132l-2.594 1.498a1 1 0 0 1-.5.13c-.09.01-.18.01-.27 0a1 1 0 0 1-.6-.48l-.89-1.55a9.32 9.32 0 0 1-1.67 0l-.88 1.51a1 1 0 0 1-.61.46.94.94 0 0 1-.75-.1l-4.33-2.5a1 1 0 0 1-.37-1.36l.88-1.5a8 8 0 0 1-.84-1.45H11a1 1 0 0 1-1-1v-5a1 1 0 0 1 1-1h1.76a8 8 0 0 1 .84-1.45l-.88-1.53a1 1 0 0 1 .37-1.36l4.33-2.5a1 1 0 0 1 1.36.29l.88 1.52a8.57 8.57 0 0 1 1.68 0l.88-1.52a1 1 0 0 1 1.37-.36zm8.24 17.1h-3.66a2.11 2.11 0 0 0-.17.76 2 2 0 0 0 4 .04 1.91 1.91 0 0 0-.17-.8zm-11.33-5.22a4.43 4.43 0 0 1 3.34 1.53 4.49 4.49 0 0 1-6.68 0 4.43 4.43 0 0 1 3.34-1.53zm0-4.5a1.75 1.75 0 1 1 0 3.5 1.75 1.75 0 0 1 0-3.5z"/></g></svg>
