<svg focusable="false" xmlns="http://www.w3.org/2000/svg" width="40" height="40" viewBox="0 0 40 40"><title>process-40</title><g fill="none" fill-rule="evenodd"><path d="M0 0h40v40H0z"/><path fill="var(--ukg_sys_color_featureIcon_light, #30CEBB)" fill-rule="nonzero" d="M37 34.96v1H23v-1a6.998 6.998 0 0 1 4.07-6.357l-.01-.04a3 3 0 0 0 5.862.037A6.997 6.997 0 0 1 37 34.96zm-7-6.997c1.01 0 1.97.214 2.838.599h-5.676A6.978 6.978 0 0 1 30 27.963zM20.5 11.01a3.5 3.5 0 1 1 .001 6.998 3.5 3.5 0 0 1-.001-6.998z"/><path fill="var(--ukg_sys_color_featureIcon_dark, #005151)" fill-rule="nonzero" d="M37 36a1 1 0 0 1-1-1 5.999 5.999 0 0 0-6-5.997c-3.314 0-6 2.685-6 5.997a1 1 0 0 1-2 0 7.998 7.998 0 0 1 8-7.997c4.418 0 8 3.58 8 7.997a1 1 0 0 1-1 1zM13 23.985h-.64a4.01 4.01 0 0 0-1.06-1.85l.32-.55a1.003 1.003 0 1 0-1.74-1l-.32.56a3.591 3.591 0 0 0-2.12 0l-.32-.56a1.004 1.004 0 0 0-1.74 1l.32.55a3.998 3.998 0 0 0-1.06 1.85H4a1 1 0 1 0 0 1.999h.64c.18.7.546 1.34 1.06 1.85l-.32.539a1.003 1.003 0 1 0 1.74 1l.32-.55c.345.099.701.153 1.06.16a4.134 4.134 0 0 0 1.06-.16l.32.55a1.004 1.004 0 0 0 1.74-1l-.32-.54c.514-.51.88-1.148 1.06-1.85H13a1 1 0 1 0 0-1.998zm-4.5-1a2 2 0 1 1 0 4 2 2 0 0 1 0-4zM32 17.967a1 1 0 0 1 1 1v.29a2 2 0 0 1 1 1.709v1l-.005.212A3.999 3.999 0 0 1 27.1 24.74a3.997 3.997 0 0 1-.73-4.434 2.649 2.649 0 0 1-.37-1.32v-.02a1 1 0 0 1 1-1zm-.308 3.372a.8.8 0 0 0-.692-.143l-1.91.38a2.29 2.29 0 0 1-.52.05 2.781 2.781 0 0 1-.57-.07 1.998 1.998 0 0 0 0 .43l.005.139a2 2 0 0 0 3.995-.15l-.006-.105a.8.8 0 0 0-.302-.53zM22.826 4.036a1 1 0 0 1 .764.096l4.33 2.5a1 1 0 0 1 .36 1.359l-.88 1.52c.33.47.611.972.84 1.499H30a1 1 0 1 1 0 1.999h-2.38a1 1 0 0 1-.95-.67 6.447 6.447 0 0 0-1.18-2.05 1 1 0 0 1-.11-1.149l.72-1.24-2.6-1.499-.85 1.29a1 1 0 0 1-1 .48 6.352 6.352 0 0 0-2.38 0 1 1 0 0 1-1-.48l-.72-1.24-2.6 1.5.72 1.24a1 1 0 0 1-.11 1.149 6.647 6.647 0 0 0-1.18 2.049 1 1 0 0 1-.94.67H12v2.999h1.57a1 1 0 0 1 .94.67 6.763 6.763 0 0 0 1.18 1.999 1 1 0 0 1 .11 1.15l-.72 1.239 2.6 1.5.72-1.24a1 1 0 0 1 1-.48 6.35 6.35 0 0 0 2.38 0 1 1 0 0 1 1 .49l.72 1.27 3-1.75a1 1 0 0 1 1.47 1.121 1 1 0 0 1-.47.608l-3.92 2.25-.115.055a1 1 0 0 1-1.245-.436l-.89-1.519c-.556.05-1.114.05-1.67 0l-.88 1.52a1 1 0 0 1-1.36.39l-4.33-2.5a1 1 0 0 1-.37-1.36l.88-1.529a7.996 7.996 0 0 1-.84-1.54H11a1 1 0 0 1-1-.999V11.97a1 1 0 0 1 1-1h1.76c.23-.513.512-1.001.84-1.459l-.88-1.5a1 1 0 0 1 .37-1.359l4.33-2.499a1 1 0 0 1 1.36.36l.88 1.52a7.863 7.863 0 0 1 1.68 0l.88-1.52a1 1 0 0 1 .606-.476z"/></g></svg>
