<svg focusable="false" xmlns="http://www.w3.org/2000/svg" width="40" height="40" viewBox="0 0 40 40"><title>process-pay-dollar-40</title><g fill="none" fill-rule="evenodd"><path d="M0 0h40v40H0z"/><path fill="var(--ukg_sys_color_featureIcon_light, #30CEBB)" fill-rule="nonzero" d="M37 35v1H23v-1a6.996 6.996 0 0 1 3.391-6A3.76 3.76 0 0 0 30 31.75a3.76 3.76 0 0 0 3.604-2.751A6.994 6.994 0 0 1 37 35zm-7-7c.78 0 1.531.128 2.233.364l-.033.086a2.25 2.25 0 0 1-4.41 0 .74.74 0 0 0-.022-.085c.7-.237 1.45-.365 2.232-.365zM17 10a8 8 0 1 1 0 16 8 8 0 0 1 0-16z"/><path fill="var(--ukg_sys_color_featureIcon_dark, #005151)" fill-rule="nonzero" d="M28 4a3 3 0 0 1 3 3v6a1 1 0 0 1-2 0V7a1 1 0 0 0-1-1H6a1 1 0 0 0-1 1v22a1 1 0 0 0 1 1h17.76A8 8 0 0 1 30 27a8 8 0 0 1 8 8 1 1 0 0 1-2 0 6 6 0 1 0-12 0 1 1 0 0 1-2 0 7.9 7.9 0 0 1 .59-3H6a3 3 0 0 1-3-3V7a3 3 0 0 1 3-3zm-9 4a1 1 0 0 1 1 1v1.59a8.2 8.2 0 0 1 1.92 1.11l1.37-.8a1 1 0 0 1 1.37.37l2 3.46a1 1 0 0 1-.37 1.37l-1.37.79c.147 1 .1 2.018-.14 3a1.026 1.026 0 0 1-2-.46 5.77 5.77 0 0 0 0-2.78 1 1 0 0 1 .52-1.15l1.13-.64-1-1.74-1.13.65a1 1 0 0 1-1.18-.14 6.22 6.22 0 0 0-2.41-1.39 1 1 0 0 1-.71-1V10h-2v1.29a1 1 0 0 1-.71 1 6.22 6.22 0 0 0-2.41 1.39 1 1 0 0 1-1.18.14l-1.13-.65-1 1.74 1.13.59a1 1 0 0 1 .47 1.1 5.77 5.77 0 0 0 0 2.78 1 1 0 0 1-.47 1.12l-1.13.64 1 1.74 1.13-.65a1 1 0 0 1 1.18.14 6.22 6.22 0 0 0 2.41 1.39 1 1 0 0 1 .71 1V26h2v-1.29a1 1 0 0 1 .71-1 6.22 6.22 0 0 0 2.41-1.39.89.89 0 0 1 .72-.28 1 1 0 0 1 .7.32l2 2.15a1 1 0 0 1-.04 1.46 1 1 0 0 1-1.41-.06l-1.38-1.41a7.94 7.94 0 0 1-1.71.95V27a1 1 0 0 1-1 1h-4a1 1 0 0 1-1-1v-1.59a8.2 8.2 0 0 1-1.92-1.11l-1.37.8a1.06 1.06 0 0 1-.76.1 1 1 0 0 1-.61-.47l-2-3.46a1 1 0 0 1 .37-1.37l1.37-.79a7.74 7.74 0 0 1 0-2.22l-1.37-.79a1 1 0 0 1-.37-1.37l2-3.46a1 1 0 0 1 1.37-.37l1.37.8A8.2 8.2 0 0 1 14 10.59V9a1 1 0 0 1 1-1h4zm-2 5.25a.75.75 0 0 1 .75.75v.263c.506.054.98.281 1.34.647a.75.75 0 0 1-1.06 1.06.75.75 0 0 0-.53-.22h-1a.75.75 0 1 0 0 1.5h1a2.25 2.25 0 0 1 .25 4.486V22a.76.76 0 0 1-.75.75.76.76 0 0 1-.75-.75v-.262a2.21 2.21 0 0 1-1.34-.648.75.75 0 0 1 1.06-1.06c.14.14.331.22.53.22h1a.75.75 0 1 0 0-1.5h-1a2.25 2.25 0 0 1-.25-4.486V14a.75.75 0 0 1 .75-.75zm14.3 4.99a1.54 1.54 0 0 0 .2-.74 1.5 1.5 0 0 0-3 0c.003.26.072.514.2.74a4 4 0 1 0 2.6 0zM30 24a2 2 0 0 1-2-2 1.86 1.86 0 0 1 .15-.75h.11a2 2 0 0 0 1.74-1 2 2 0 0 0 1.74 1h.11c.101.237.152.492.15.75a2 2 0 0 1-2 2z"/></g></svg>
