<svg focusable="false" xmlns="http://www.w3.org/2000/svg" width="40" height="40" viewBox="0 0 40 40"><title>punch-clock-check-40</title><g fill="none" fill-rule="evenodd"><path d="M0 0h40v40H0z"/><path fill="var(--ukg_sys_color_featureIcon_light, #30CEBB)" fill-rule="nonzero" d="M18.122 17.052a5.5 5.5 0 1 1 1.763 10.858 5.5 5.5 0 0 1-1.763-10.858zm6.879-12.07v8H13v-8h12z"/><path fill="var(--ukg_sys_color_featureIcon_dark, #005151)" fill-rule="nonzero" d="M19 15.982a1 1 0 0 1 1 1v3.78a2 2 0 0 1 1 1.72 2 2 0 0 1-2 2 2.26 2.26 0 0 1-.64-.11l-2.7 2.36a1 1 0 0 1-1.41-.09 1 1 0 0 1 .05-1.41l2.7-2.36a1.72 1.72 0 0 1 0-.39 2 2 0 0 1 1-1.72v-3.78a1 1 0 0 1 1-1zm3-8.25a.75.75 0 1 1 0 1.5h-6a.75.75 0 0 1 0-1.5zm8 17.25a6 6 0 0 0-6 6H11a1 1 0 0 1-1-1v-15a1 1 0 0 1 1-1h16a1 1 0 0 1 1 1v7a1 1 0 0 0 2 0v-7a3 3 0 0 0-3-3H11a3 3 0 0 0-3 3v15a3 3 0 0 0 3 3h13.35a6 6 0 1 0 5.65-8zm3.49 4.57-3.92 3.92a.75.75 0 0 1-.53.22.79.79 0 0 1-.53-.22l-2-2a.75.75 0 0 1 0-1.06.74.74 0 0 1 1.06 0l1.43 1.47 3.39-3.39a.75.75 0 1 1 1.06 1.06h.04z"/></g></svg>
