<svg focusable="false" xmlns="http://www.w3.org/2000/svg" width="40" height="40" viewBox="0 0 40 40"><title>punch-clock-warning-40</title><g fill="none" fill-rule="evenodd"><path d="M0 0h40v40H0z"/><path fill="var(--ukg_sys_color_featureIcon_light, #30CEBB)" fill-rule="nonzero" d="M17.124 17.052a5.5 5.5 0 1 1 1.762 10.857 5.5 5.5 0 0 1-1.762-10.857zM24 4.982v8H12v-8h12z"/><path fill="var(--ukg_sys_color_featureIcon_dark, #005151)" fill-rule="nonzero" d="M18 15.982a1 1 0 0 1 1 1v3.78a2 2 0 0 1-1 3.72 2.2 2.2 0 0 1-.64-.11l-2.7 2.36a1 1 0 0 1-1.41-.09 1 1 0 0 1 .05-1.41l2.7-2.36a1.72 1.72 0 0 1 0-.39 2 2 0 0 1 1-1.72v-3.78a1 1 0 0 1 1-1zm3-8.25a.75.75 0 1 1 0 1.5h-6a.75.75 0 0 1 0-1.5zm14.81 26.89-5.36-9.81a1.59 1.59 0 0 0-1.39-.83H29a1.61 1.61 0 0 0-1.41.83l-3.41 6.17H9a1 1 0 0 1-1-1v-15a1 1 0 0 1 1-1h18a1 1 0 0 1 1 1v6a1 1 0 0 0 2 0v-6a3 3 0 0 0-3-3H9a3 3 0 0 0-3 3v15a3 3 0 0 0 3 3h14.09l-.9 1.64a1.6 1.6 0 0 0-.19.77c0 .878.713 1.59 1.59 1.59h10.82a1.59 1.59 0 0 0 1.59-1.59 1.72 1.72 0 0 0-.19-.77zm-7.56-6.14a.75.75 0 0 1 1.5 0v3a.75.75 0 0 1-1.5 0v-3zm.75 7a1 1 0 1 1 0-2 1 1 0 0 1 0 2z"/></g></svg>
