<svg focusable="false" xmlns="http://www.w3.org/2000/svg" width="40" height="40" viewBox="0 0 40 40"><title>punch-clock-search-40</title><g fill="none" fill-rule="evenodd"><path d="M0 0h40v40H0z"/><path fill="var(--ukg_sys_color_featureIcon_light, #30CEBB)" fill-rule="nonzero" d="M18 17.982a5.5 5.5 0 1 1 0 11 5.5 5.5 0 0 1 0-11zm6-12v8H12v-8h12z"/><path fill="var(--ukg_sys_color_featureIcon_dark, #005151)" fill-rule="nonzero" d="M18 16.982a1 1 0 0 1 1 1v3.78a2 2 0 0 1 1 1.72 2 2 0 0 1-2 2 2.26 2.26 0 0 1-.64-.11l-2.7 2.36a1 1 0 0 1-1.41-.09 1 1 0 0 1 .05-1.41l2.7-2.36a1.72 1.72 0 0 1 0-.39 2 2 0 0 1 1-1.72v-3.78a1 1 0 0 1 1-1zm3-8.25a.75.75 0 1 1 0 1.5h-6a.75.75 0 0 1 0-1.5zm15.66 21.5-3.56-3.11c.589-.942.9-2.03.9-3.14a6 6 0 0 0-5-5.91v-2.09a3 3 0 0 0-3-3H10a3 3 0 0 0-3 3v15a3 3 0 0 0 3 3h18a1 1 0 1 0 0-2H10a1 1 0 0 1-1-1v-15a1 1 0 0 1 1-1h16a1 1 0 0 1 1 1v2.09a6 6 0 1 0 4.79 10.56l3.55 3.1a1 1 0 0 0 1.41-.09 1 1 0 0 0-.09-1.41zM28 27.982a4 4 0 1 1 0-8 4 4 0 0 1 0 8z"/></g></svg>
