<svg focusable="false" xmlns="http://www.w3.org/2000/svg" width="40" height="40" viewBox="0 0 40 40"><title>punch-clock-40</title><g fill="none" fill-rule="evenodd"><path d="M0 0h40v40H0z"/><path fill="var(--ukg_sys_color_featureIcon_light, #30CEBB)" fill-rule="nonzero" d="M14.92 22.381a5.5 5.5 0 1 1 10.163 4.21 5.5 5.5 0 0 1-10.162-4.21zM27 6.981v7H13v-7h14z"/><path fill="var(--ukg_sys_color_featureIcon_dark, #005151)" fill-rule="nonzero" d="M29 13.982a3 3 0 0 1 3 3v11a1 1 0 1 1-2 0v-11a1 1 0 0 0-1-1H11a1 1 0 0 0-1 1v15a1 1 0 0 0 1 1h18a1 1 0 0 0 1-1 1 1 0 1 1 2 0 3 3 0 0 1-3 3H11a3 3 0 0 1-3-3v-15a3 3 0 0 1 3-3zm-9 4a1 1 0 0 1 1 1v3.78a2 2 0 0 1 1 1.72 2.09 2.09 0 0 1-.07.5l2.67 2.68a1 1 0 0 1 0 1.42 1 1 0 0 1-1.42 0l-2.67-2.68a1.7 1.7 0 0 1-.51.08 2 2 0 0 1-2-2 2 2 0 0 1 1-1.72v-3.78a1 1 0 0 1 1-1zm4-8.25a.75.75 0 1 1 0 1.5h-8a.75.75 0 0 1 0-1.5z"/></g></svg>
