<svg focusable="false" xmlns="http://www.w3.org/2000/svg" width="40" height="40" viewBox="0 0 40 40"><title>punch-clock-dollar-40</title><g fill="none" fill-rule="evenodd"><path d="M0 0h40v40H0z"/><path fill="var(--ukg_sys_color_featureIcon_light, #30CEBB)" fill-rule="nonzero" d="M16.123 17.076a5.5 5.5 0 1 1 1.762 10.857 5.5 5.5 0 0 1-1.762-10.857zM23 5.006v8H11v-8h12z"/><path fill="var(--ukg_sys_color_featureIcon_dark, #005151)" fill-rule="nonzero" d="M25 12.006a3 3 0 0 1 3 3v3a1 1 0 1 1-2 0v-3a1 1 0 0 0-1-1H9a1 1 0 0 0-1 1v15a1 1 0 0 0 1 1h13.26a8.24 8.24 0 0 1-.26-2 8 8 0 0 1 8-8 8 8 0 0 1 7.04 11.81 1.012 1.012 0 1 1-1.76-1 6 6 0 1 0-2.43 2.43 1 1 0 0 1 1.36.4 1 1 0 0 1-.4 1.36 8 8 0 0 1-10.73-3H9a3 3 0 0 1-3-3v-15a3 3 0 0 1 3-3zm5 12.25a.75.75 0 0 1 .75.75v.31a2.22 2.22 0 0 1 1.31.63.75.75 0 0 1-1.06 1.06.75.75 0 0 0-.5-.25h-1a.75.75 0 0 0 0 1.5h1a2.24 2.24 0 0 1 .25 4.47v.28a.76.76 0 0 1-.75.75.76.76 0 0 1-.75-.75v-.31a2.22 2.22 0 0 1-1.31-.63.75.75 0 1 1 1.06-1.06.75.75 0 0 0 .5.25h1a.75.75 0 1 0 0-1.5h-1a2.25 2.25 0 0 1-.25-4.48v-.27a.75.75 0 0 1 .75-.75zm-13-8.25a1 1 0 0 1 1 1v3.78a2 2 0 0 1-1 3.72 2.2 2.2 0 0 1-.64-.11l-2.7 2.36a1 1 0 0 1-1.41-.09 1 1 0 0 1 .05-1.41l2.7-2.36a1.72 1.72 0 0 1 0-.39 2 2 0 0 1 1-1.72v-3.78a1 1 0 0 1 1-1zm3-8.25a.75.75 0 1 1 0 1.5h-6a.75.75 0 0 1 0-1.5z"/></g></svg>
