<svg focusable="false" xmlns="http://www.w3.org/2000/svg" width="40" height="40" viewBox="0 0 40 40"><title>puzzle-fill-40</title><g fill="none" fill-rule="evenodd"><path d="M0 0h40v40H0z"/><path fill="var(--ukg_sys_color_featureIcon_light, #30CEBB)" fill-rule="nonzero" d="M34 26h-1v-6h-2.7a2 2 0 0 0-2 2 1.82 1.82 0 0 0 .29 1 2.51 2.51 0 0 1-.83 3.6 2.48 2.48 0 0 1-2.47 0 2.51 2.51 0 0 1-.82-3.6 1.82 1.82 0 0 0 .29-1 2 2 0 0 0-2-2H20v2.69a2 2 0 0 1-2 2 1.8 1.8 0 0 1-1-.29 2.51 2.51 0 0 0-3.6.82 2.48 2.48 0 0 0 0 2.47 2.51 2.51 0 0 0 3.6.83 1.8 1.8 0 0 1 1-.29 2 2 0 0 1 2 2V33h11a2 2 0 0 0 2-2v-1h1v-4z"/><path fill="var(--ukg_sys_color_featureIcon_dark, #005151)" fill-rule="nonzero" d="M31 6H9a3 3 0 0 0-3 3v22a3 3 0 0 0 3 3h22a3 3 0 0 0 3-3v-1a1 1 0 0 0-2 0v1a1 1 0 0 1-1 1H21v-1.7a3 3 0 0 0-3-3 2.8 2.8 0 0 0-1.61.47 1.53 1.53 0 0 1-1.18.22 1.55 1.55 0 0 1-1-.73 1.51 1.51 0 0 1 0-1.46 1.56 1.56 0 0 1 1-.74 1.53 1.53 0 0 1 1.18.23 2.78 2.78 0 0 0 1.61.47 3 3 0 0 0 3-3V21h1.69a1 1 0 0 1 1 1 .86.86 0 0 1-.11.47 3.51 3.51 0 0 0 1.13 5c.268.151.553.269.85.35.108.03.218.05.33.06L26 28c.153.01.307.01.46 0a3.5 3.5 0 0 0 2.88-5.47.86.86 0 0 1-.11-.47 1 1 0 0 1 1-1H32v5a1 1 0 0 0 2 0V9a3 3 0 0 0-3-3zM9 8h10v1.7a3 3 0 0 0 3 3 2.8 2.8 0 0 0 1.61-.47 1.51 1.51 0 0 1 1.21-.23c.42.093.783.357 1 .73a1.51 1.51 0 0 1 0 1.46 1.54 1.54 0 0 1-1 .73 1.51 1.51 0 0 1-1.17-.22 2.8 2.8 0 0 0-1.65-.43 3 3 0 0 0-3 3V19h-1.74a1 1 0 0 1-1-1 .92.92 0 0 1 .11-.48 3.49 3.49 0 0 0 .54-2.74 3.53 3.53 0 0 0-1.68-2.28 3.46 3.46 0 0 0-3.48 0 3.49 3.49 0 0 0-1.14 5 .92.92 0 0 1 .11.48 1 1 0 0 1-.94 1H8V9a1 1 0 0 1 1-1zm9 15.73a.83.83 0 0 1-.48-.12 3.5 3.5 0 1 0-2.74 6.31 3.49 3.49 0 0 0 2.74-.54.92.92 0 0 1 .48-.11 1 1 0 0 1 1 1V32H9a1 1 0 0 1-1-1V21h1.83a3 3 0 0 0 2.9-3 2.78 2.78 0 0 0-.47-1.61 1.53 1.53 0 0 1-.26-1.21 1.6 1.6 0 0 1 .74-1 1.51 1.51 0 0 1 1.46 0c.372.217.636.58.73 1 .09.407.011.833-.22 1.18a2.78 2.78 0 0 0-.44 1.64 3 3 0 0 0 2.94 3H19v1.69a1 1 0 0 1-1 1.04zM30.3 19a3.05 3.05 0 0 0-2.91 3.9c.067.27.186.525.35.75.171.258.262.56.26.87a1 1 0 0 1 0 .3 1.5 1.5 0 0 1-.73 1 1.46 1.46 0 0 1-1.46 0 1.5 1.5 0 0 1-.51-2.16 2.8 2.8 0 0 0 .43-1.66 3 3 0 0 0-3-3H21v-1.7a1 1 0 0 1 1-1 .86.86 0 0 1 .47.11 3.5 3.5 0 0 0 5-1.14 3.5 3.5 0 0 0-5-4.62.86.86 0 0 1-.47.11 1 1 0 0 1-1-1V8h10a1 1 0 0 1 1 1v10h-1.7z"/></g></svg>
