<svg focusable="false" xmlns="http://www.w3.org/2000/svg" width="24" height="24" fill="none" viewBox="0 0 24 24"><path fill="currentColor" d="M3 7a.967.967 0 0 1-.712-.287A.968.968 0 0 1 2 6V3c0-.283.096-.521.288-.713A.967.967 0 0 1 3 2h3a.97.97 0 0 1 .713.287A.97.97 0 0 1 7 3a.97.97 0 0 1-.287.712A.968.968 0 0 1 6 4H4v2a.97.97 0 0 1-.287.713A.97.97 0 0 1 3 7Zm0 15a.965.965 0 0 1-.712-.288A.965.965 0 0 1 2 21v-3c0-.283.096-.52.288-.712A.965.965 0 0 1 3 17c.283 0 .521.096.713.288A.967.967 0 0 1 4 18v2h2c.283 0 .521.096.713.288A.967.967 0 0 1 7 21a.97.97 0 0 1-.287.712A.968.968 0 0 1 6 22H3Zm15 0a.965.965 0 0 1-.712-.288A.965.965 0 0 1 17 21c0-.283.096-.52.288-.712A.965.965 0 0 1 18 20h2v-2c0-.283.096-.52.288-.712A.965.965 0 0 1 21 17c.283 0 .52.096.712.288A.965.965 0 0 1 22 18v3c0 .283-.096.52-.288.712A.965.965 0 0 1 21 22h-3Zm3-15a.967.967 0 0 1-.712-.287A.968.968 0 0 1 20 6V4h-2a.965.965 0 0 1-.712-.288A.965.965 0 0 1 17 3c0-.283.096-.521.288-.713A.967.967 0 0 1 18 2h3a.97.97 0 0 1 .712.287c.192.192.288.43.288.713v3a.968.968 0 0 1-.288.713A.967.967 0 0 1 21 7Zm-3.5 10.5H19V19h-1.5v-1.5Zm0-3H19V16h-1.5v-1.5ZM16 16h1.5v1.5H16V16Zm-1.5 1.5H16V19h-1.5v-1.5ZM13 16h1.5v1.5H13V16Zm3-3h1.5v1.5H16V13Zm-1.5 1.5H16V16h-1.5v-1.5ZM13 13h1.5v1.5H13V13Zm6-8v6h-6V5h6Zm-8 8v6H5v-6h6Zm0-8v6H5V5h6ZM9.5 17.5v-3h-3v3h3Zm0-8v-3h-3v3h3Zm8 0v-3h-3v3h3Z"/></svg>
