<svg focusable="false" xmlns="http://www.w3.org/2000/svg" width="24" height="24" fill="none" viewBox="0 0 24 24"><path fill="currentColor" d="M5 11c-.55 0-1.021-.196-1.413-.588A1.925 1.925 0 0 1 3 9V5c0-.55.196-1.021.587-1.413A1.928 1.928 0 0 1 5 3h4c.55 0 1.021.196 1.413.587.391.392.587.863.587 1.413v4c0 .55-.196 1.02-.587 1.412A1.927 1.927 0 0 1 9 11H5Zm0-2h4V5H5v4Zm0 12a1.93 1.93 0 0 1-1.413-.587A1.928 1.928 0 0 1 3 19v-4c0-.55.196-1.021.587-1.413A1.928 1.928 0 0 1 5 13h4c.55 0 1.021.196 1.413.587.391.392.587.863.587 1.413v4a1.93 1.93 0 0 1-.587 1.413A1.928 1.928 0 0 1 9 21H5Zm0-2h4v-4H5v4Zm10-8c-.55 0-1.02-.196-1.412-.588A1.923 1.923 0 0 1 13 9V5c0-.55.196-1.021.588-1.413A1.925 1.925 0 0 1 15 3h4c.55 0 1.021.196 1.413.587.391.392.587.863.587 1.413v4c0 .55-.196 1.02-.587 1.412A1.927 1.927 0 0 1 19 11h-4Zm0-2h4V5h-4v4Zm4.5 12a.48.48 0 0 1-.35-.15.48.48 0 0 1-.15-.35v-1c0-.133.05-.25.15-.35.1-.1.217-.15.35-.15h1c.133 0 .25.05.35.15.1.1.15.217.15.35v1a.48.48 0 0 1-.15.35.48.48 0 0 1-.35.15h-1Zm-6-6a.48.48 0 0 1-.35-.15.48.48 0 0 1-.15-.35v-1c0-.133.05-.25.15-.35.1-.1.217-.15.35-.15h1c.133 0 .25.05.35.15.1.1.15.217.15.35v1a.48.48 0 0 1-.15.35.48.48 0 0 1-.35.15h-1Zm2 2a.48.48 0 0 1-.35-.15.48.48 0 0 1-.15-.35v-1c0-.133.05-.25.15-.35.1-.1.217-.15.35-.15h1c.133 0 .25.05.35.15.1.1.15.217.15.35v1a.48.48 0 0 1-.15.35.48.48 0 0 1-.35.15h-1Zm-2 2a.48.48 0 0 1-.35-.15.48.48 0 0 1-.15-.35v-1c0-.133.05-.25.15-.35.1-.1.217-.15.35-.15h1c.133 0 .25.05.35.15.1.1.15.217.15.35v1a.48.48 0 0 1-.15.35.48.48 0 0 1-.35.15h-1Zm2 2a.48.48 0 0 1-.35-.15.48.48 0 0 1-.15-.35v-1c0-.133.05-.25.15-.35.1-.1.217-.15.35-.15h1c.133 0 .25.05.35.15.1.1.15.217.15.35v1a.48.48 0 0 1-.15.35.48.48 0 0 1-.35.15h-1Zm2-2a.48.48 0 0 1-.35-.15.48.48 0 0 1-.15-.35v-1c0-.133.05-.25.15-.35.1-.1.217-.15.35-.15h1c.133 0 .25.05.35.15.1.1.15.217.15.35v1a.48.48 0 0 1-.15.35.48.48 0 0 1-.35.15h-1Zm0-4a.48.48 0 0 1-.35-.15.48.48 0 0 1-.15-.35v-1c0-.133.05-.25.15-.35.1-.1.217-.15.35-.15h1c.133 0 .25.05.35.15.1.1.15.217.15.35v1a.48.48 0 0 1-.15.35.48.48 0 0 1-.35.15h-1Zm2 2a.48.48 0 0 1-.35-.15.48.48 0 0 1-.15-.35v-1c0-.133.05-.25.15-.35.1-.1.217-.15.35-.15h1c.133 0 .25.05.35.15.1.1.15.217.15.35v1a.48.48 0 0 1-.15.35.48.48 0 0 1-.35.15h-1Z"/></svg>
