<svg focusable="false" xmlns="http://www.w3.org/2000/svg" width="24" height="24" viewBox="0 0 24 24"><title>Icons / Utility / recycle</title><g fill="none" fill-rule="evenodd"><path d="M0 0h24v24H0z"/><path fill="currentColor" fill-rule="nonzero" d="M11.031 2.5c-1.144 0-2.209.61-2.75 1.615l-.008.014-.46.924a1 1 0 1 0 1.787.894l.443-.885h.002c.177-.329.554-.562.986-.562h1.989c.433 0 .812.232.99.564l.01.018 1.591 2.709-1.359.775a.5.5 0 0 0 .115.916l3.65 1a.499.499 0 0 0 .614-.35l1-3.65a.5.5 0 0 0-.73-.566l-1.551.885-1.577-2.68c-.54-1.01-1.607-1.621-2.753-1.621h-1.99zm-4.21 6.006-3.735.6a.502.502 0 0 0-.215.9l1.354.978-1.84 3.11-.01.017a2.94 2.94 0 0 0 .21 3.104v.002l.728 1.002a3.125 3.125 0 0 0 2.54 1.281H8a1 1 0 1 0 0-2H5.854c-.38 0-.725-.18-.92-.451l-.727-1.004a.9.9 0 0 1-.068-.986l1.71-2.899 1.356.98a.5.5 0 0 0 .787-.484l-.6-3.734a.5.5 0 0 0-.572-.416zm13.14 3.982a1 1 0 0 0-.777 1.588l.705.998a.92.92 0 0 1-.073.973l.004-.002-.73 1.01c-.191.264-.54.445-.92.445H15v-1.49a.509.509 0 0 0-.87-.36l-2.49 2.49a.507.507 0 0 0 0 .72l2.49 2.49a.51.51 0 0 0 .87-.36V19.5h3.17c1 0 1.952-.46 2.54-1.275l.731-1.01.002-.002c.647-.902.74-2.108.207-3.098l-.029-.053-.805-1.138a1 1 0 0 0-.855-.436z"/></g></svg>
