<svg focusable="false" xmlns="http://www.w3.org/2000/svg" width="40" height="40" viewBox="0 0 40 40"><title>reflection-person-2-40</title><g fill="none" fill-rule="evenodd"><path d="M0 0h40v40H0z"/><path fill="var(--ukg_sys_color_featureIcon_light, #30CEBB)" fill-rule="nonzero" d="M9.84 26.89A8 8 0 0 1 21.22 28a7.29 7.29 0 0 1 1.28-1 3.72 3.72 0 0 0 7.19 0 7 7 0 0 1 3.41 6v1h-14v-1a6.91 6.91 0 0 1 .3-2H18a10.48 10.48 0 0 1-8.16-4.11zm14.01-.52a7 7 0 0 1 4.49 0 .43.43 0 0 0-.05.12 2.27 2.27 0 0 1-2.2 1.76 2.26 2.26 0 0 1-2.24-1.76.43.43 0 0 0 0-.12zM15 14a1.5 1.5 0 0 1 1.5 1.5 1.54 1.54 0 0 1-.2.74A4 4 0 0 1 15 24a4 4 0 0 1-1.3-7.76 1.44 1.44 0 0 1-.2-.74A1.5 1.5 0 0 1 15 14zm2.488-3.512a.75.75 0 0 1 1.042-.018l4 4a.75.75 0 0 1-1.06 1.06l-4-4a.75.75 0 0 1 .018-1.042zm4 0a.75.75 0 0 1 1.042-.018l1 1a.75.75 0 0 1-1.06 1.06l-1-1a.75.75 0 0 1 .018-1.042z"/><path fill="var(--ukg_sys_color_featureIcon_dark, #005151)" fill-rule="nonzero" d="M26.09 25a8 8 0 0 0-7.4 5 11 11 0 1 1 9-17.75A1 1 0 0 0 29.23 11a13 13 0 1 0-11.06 21 8.93 8.93 0 0 0-.07 1 1 1 0 0 0 2 0 6 6 0 1 1 12 0 1 1 0 0 0 2 0 8 8 0 0 0-8.01-8zm-4-5a4 4 0 1 0 5.3-3.76 1.45 1.45 0 0 0 .21-.74 1.51 1.51 0 0 0-3 0c.002.261.075.517.21.74A4 4 0 0 0 22.09 20zm4 2a2 2 0 0 1-2-2 2 2 0 0 1 .15-.75h.12a2 2 0 0 0 1.74-1 2 2 0 0 0 1.73 1H28a2 2 0 0 1 .14.75 2 2 0 0 1-2.05 2z"/></g></svg>
