<svg focusable="false" xmlns="http://www.w3.org/2000/svg" width="40" height="40" viewBox="0 0 40 40"><title>reflection-person-1-40</title><g fill="none" fill-rule="evenodd"><path d="M0 0h40v40H0z"/><path fill="var(--ukg_sys_color_featureIcon_light, #30CEBB)" fill-rule="nonzero" d="M9.91 26.84A8 8 0 0 1 21.22 28a6.79 6.79 0 0 1 1.28-1 3.73 3.73 0 0 0 7.19 0 7 7 0 0 1 3.41 6v1h-14v-1a6.91 6.91 0 0 1 .29-2H19a12 12 0 0 1-9.09-4.16zM26.1 26a7.25 7.25 0 0 1 2.24.37.43.43 0 0 0-.05.12 2.27 2.27 0 0 1-2.2 1.76 2.26 2.26 0 0 1-2.24-1.76.28.28 0 0 0 0-.11A7 7 0 0 1 26.1 26zM15 16.5a3.5 3.5 0 1 1 0 7 3.5 3.5 0 0 1 0-7zm2.488-6.012a.75.75 0 0 1 1.042-.018l4 4a.75.75 0 0 1-1.06 1.06l-4-4a.75.75 0 0 1 .018-1.042zm4 0a.75.75 0 0 1 1.042-.018l1 1a.75.75 0 0 1-1.06 1.06l-1-1a.75.75 0 0 1 .018-1.042z"/><path fill="var(--ukg_sys_color_featureIcon_dark, #005151)" fill-rule="nonzero" d="M26.09 25a8 8 0 0 0-7.4 5 11 11 0 1 1 10.67-14.67 1 1 0 0 0 1.27.61 1 1 0 0 0 .61-1.27A13 13 0 1 0 18.17 32a8.93 8.93 0 0 0-.08 1 1 1 0 0 0 2 0 6 6 0 1 1 12 0 1 1 0 0 0 2 0 8 8 0 0 0-8-8zm2.35-9H26a4.37 4.37 0 0 0-.81.09l-.26.07a3.82 3.82 0 0 0-.51.18 4.59 4.59 0 0 0-.49.26c-.08 0-.17.09-.25.15h-.07c-.89 0-1.61.72-1.61 1.61V20a4 4 0 1 0 8 0v-1.64a1.59 1.59 0 0 0-.57-1.22V17a1 1 0 0 0-.99-1zM26 22a2 2 0 0 1-2-2 2.05 2.05 0 0 1 .09-.56 8.61 8.61 0 0 0 2.52.39 2.93 2.93 0 0 0 1.32-.33A2 2 0 0 1 26 22z"/></g></svg>
