<svg focusable="false" xmlns="http://www.w3.org/2000/svg" width="40" height="40" viewBox="0 0 40 40"><title>relocation-40</title><g fill="none" fill-rule="evenodd"><path d="M0 0h40v40H0z"/><path fill="var(--ukg_sys_color_featureIcon_light, #30CEBB)" fill-rule="nonzero" d="M32.33 25c-1 3.08-3.51 6.74-6.33 6.74v-2.39a1.57 1.57 0 0 1 .48-1.11L27.72 27l1.24-1.25a2.6 2.6 0 0 1 1.83-.75zm-12.92-4.89a2 2 0 0 0 1.66.89H22v2c0 .53-3 5-3.36 5.36l-3.51 2.51L15 31v-7h-3a3 3 0 0 1-3-3l.022-.204a2.8 2.8 0 0 1 .818-1.606L12 17l1 1h5l-1.4-1.42a2 2 0 0 0-1.41-.58H13l-1 1-.64-.66a1.2 1.2 0 0 1 0-1.7l2.06-2.06a2 2 0 0 1 1.42-.58H18l1.43-1.41a2 2 0 0 1 1.41-.59h1.71a6 6 0 0 1 9 7.92l-.06.08-1.76 2 .71.67-2.69 3L26 22l-3.53-4H18z"/><path fill="var(--ukg_sys_color_featureIcon_dark, #005151)" fill-rule="nonzero" d="M32.884 20.998 33 21a1 1 0 0 1 1 1.08 14.21 14.21 0 0 1-7.18 11.18 13.5 13.5 0 0 1-6.6 1.71 12.87 12.87 0 0 1-2.22-.18 1 1 0 0 1-.9-1.14 1 1 0 0 1 1.15-.83 11.6 11.6 0 0 0 7.53-1.31 12.19 12.19 0 0 0 6.15-9.59A1 1 0 0 1 33 21zM24.12 7.63a7 7 0 0 1 8.23 10.94.36.36 0 0 1-.07.1l-1.79 2A1.002 1.002 0 1 1 29 19.33l1.67-1.91.06-.09a5 5 0 1 0-7.45 0l.07.09 4.4 4.91a1.002 1.002 0 1 1-1.49 1.34l-4.47-5a.39.39 0 0 1-.08-.1 7 7 0 0 1 .23-9.38 11.89 11.89 0 0 0-8.15 1.68A11.85 11.85 0 0 0 8 21.23a11.7 11.7 0 0 0 5.19 9.52 15.93 15.93 0 0 0 5.07-3.42L20.59 25H18a1 1 0 0 1 0-2h5a1 1 0 0 1 1 1v5a1 1 0 0 1-2 0v-2.59l-2.31 2.33A17.82 17.82 0 0 1 7 34a1 1 0 0 1 0-2 15.85 15.85 0 0 0 3.9-.5 13.73 13.73 0 0 1 1.84-22.34 13.89 13.89 0 0 1 11.38-1.53zM27 11.82A2.18 2.18 0 0 1 29.18 14 2.19 2.19 0 1 1 27 11.82z"/></g></svg>
