<svg focusable="false" xmlns="http://www.w3.org/2000/svg" width="40" height="40" viewBox="0 0 40 40"><title>rocket-40</title><g fill="none" fill-rule="evenodd"><path d="M0 0h40v40H0z"/><path fill="var(--ukg_sys_color_featureIcon_light, #30CEBB)" d="M20 30a1 1 0 0 1 .993.883L21 31v5a1 1 0 0 1-1.993.117L19 36v-5a1 1 0 0 1 1-1Zm4 0a1 1 0 0 1 .993.883L25 31v3a1 1 0 0 1-1.993.117L23 34v-3a1 1 0 0 1 1-1Zm-8 0a1 1 0 0 1 .993.883L17 31v3a1 1 0 0 1-1.993.117L15 34v-3a1 1 0 0 1 1-1Zm0-11 1 8-7 3v-5.028L16 19Zm8.476-.026L30 24.972V30l-7-3 1.476-8.026ZM20 14a2 2 0 1 0 0-4 2 2 0 0 0 0 4Z"/><path fill="var(--ukg_sys_color_featureIcon_dark, #005151)" fill-rule="nonzero" d="M18.686 3.555a1.858 1.858 0 0 1 2.628 0c2.487 2.485 4.582 6.757 4.582 9.862l-.009.668a25.956 25.956 0 0 1-.311 3.388l-.184 1.155 4.518 4.79.156.176a4 4 0 0 1 .934 2.57V29l-.007.117A1 1 0 0 1 29 29v-2.837l-.007-.169a2 2 0 0 0-.538-1.203l-3.458-3.667-1.114 7.032a1 1 0 0 1-.875.838l-.112.006h-5.792a1 1 0 0 1-.987-.844l-1.114-7.025-3.457 3.66a2 2 0 0 0-.539 1.204l-.007.17V29a1 1 0 0 1-1.993.117L9 29v-2.835a4 4 0 0 1 .936-2.572l.156-.175 4.516-4.782-.183-1.162a26.02 26.02 0 0 1-.312-3.389l-.009-.681c0-3.09 2.095-7.362 4.582-9.849ZM22.358 25H17.64l.318 2.002L22.04 27l.317-2ZM19.999 5.071l-.12.125c-2.043 2.17-3.775 5.786-3.775 8.208 0 1.258.1 2.514.296 3.757L17.323 23h5.352l.926-5.839a24.02 24.02 0 0 0 .221-1.87l.041-.622.024-.622.009-.643c0-2.509-1.858-6.297-3.996-8.434l.099.102Z"/></g></svg>
