<svg focusable="false" xmlns="http://www.w3.org/2000/svg" width="24" height="24" viewBox="0 0 24 24"><title>Icons / Utility / rotate-right</title><g fill="none" fill-rule="evenodd"><path d="M0 0h24v24H0z"/><path fill="currentColor" fill-rule="nonzero" d="m19.364 6.257.953-.953a.6.6 0 0 1 1.015.32l.711 4.032a.6.6 0 0 1-.695.695l-4.031-.711a.6.6 0 0 1-.32-1.016l.953-.952A8 8 0 0 0 6.44 18.783l.196.202a1 1 0 0 1-1.32 1.498l-.094-.084c-3.905-3.905-3.905-10.236 0-14.142 3.905-3.905 10.237-3.905 14.142 0zm-5.707 4.071 3.535 3.536a1 1 0 0 1 0 1.414l-3.535 3.536a1 1 0 0 1-1.414 0l-3.536-3.536a1 1 0 0 1 0-1.414l3.536-3.536a1 1 0 0 1 1.414 0zm-.707 2.122-2.122 2.121 2.122 2.121 2.121-2.12-2.121-2.122z"/></g></svg>
