<svg focusable="false" xmlns="http://www.w3.org/2000/svg" width="24" height="24" viewBox="0 0 24 24"><title>Icons / Utility / rotate-left</title><g fill="none" fill-rule="evenodd"><path d="M0 0h24v24H0z"/><path fill="currentColor" fill-rule="nonzero" d="M18.784 6.257c3.834 3.835 3.904 10.008.21 13.927l-.21.215a1 1 0 1 1-1.414-1.414l.195-.202A8 8 0 0 0 6.258 7.476l-.203.195.954.953a.6.6 0 0 1 .144.232l.023.088a.6.6 0 0 1-.393.671l-.094.025-4.032.711a.6.6 0 0 1-.704-.598l.01-.097.71-4.032a.6.6 0 0 1 .933-.389l.083.07.952.951.216-.208c3.92-3.695 10.093-3.625 13.927.21zm-8.435 4.071a1 1 0 0 1 1.414 0l3.536 3.536a1 1 0 0 1 0 1.414l-3.536 3.536a1 1 0 0 1-1.414 0l-3.536-3.536a1 1 0 0 1 0-1.414zm.707 2.122-2.121 2.12 2.121 2.121 2.121-2.12-2.121-2.122z"/></g></svg>
