<svg focusable="false" xmlns="http://www.w3.org/2000/svg" width="40" height="40" viewBox="0 0 40 40"><title>savings-dollar-40</title><g fill="none" fill-rule="evenodd"><path d="M0 0h40v40H0z"/><circle cx="18" cy="8.026" r="4" fill="var(--ukg_sys_color_featureIcon_light, #30CEBB)" fill-rule="nonzero"/><path fill="var(--ukg_sys_color_featureIcon_dark, #005151)" fill-rule="nonzero" d="M8.17 9.006a7.93 7.93 0 0 1 5.5 2.31 1.004 1.004 0 1 1-1.42 1.42 5.83 5.83 0 0 0-3.11-1.62l.43 2.75.004.105-.004.105a1.09 1.09 0 0 1-.18.54l-.3.4a5.15 5.15 0 0 0-.9 2 3.08 3.08 0 0 1-2 2.34l-1.19.38v2.68l4.98 2.71a1 1 0 0 1 .5.68l.84 4.2H14v-1a3 3 0 0 1 3-3h1a3 3 0 0 1 3 3v1h1.26a8.24 8.24 0 0 1-.26-2 8 8 0 0 1 6.94-7.92 5.67 5.67 0 0 0 .06-.71v-.37a6 6 0 0 0-6-6 1 1 0 0 1 0-2 8 8 0 0 1 8 8v1.06a8 8 0 0 1 6 11.75 1.012 1.012 0 1 1-1.76-1 6 6 0 1 0-2.43 2.43 1.012 1.012 0 0 1 1 1.76 8 8 0 0 1-10.73-3H20a1 1 0 0 1-1-1v-2a1 1 0 0 0-1-1h-1a1 1 0 0 0-1 1v2a1 1 0 0 1-1 1h-4.48a1 1 0 0 1-1-.8l-.91-4.55-5.09-2.77a1 1 0 0 1-.52-.88v-4a1 1 0 0 1 .69-.95l1.88-.61a1.05 1.05 0 0 0 .68-.83 7 7 0 0 1 1.26-2.81l.05-.07-.56-3.58a1 1 0 0 1 1-1.15zM30 23.256a.75.75 0 0 1 .75.75v.31a2.22 2.22 0 0 1 1.31.63.75.75 0 0 1-1.06 1.06.75.75 0 0 0-.5-.25h-1a.75.75 0 0 0 0 1.5h1a2.24 2.24 0 0 1 .25 4.47v.28a.76.76 0 0 1-.75.75.76.76 0 0 1-.75-.75v-.31a2.22 2.22 0 0 1-1.31-.63.75.75 0 1 1 1.06-1.06.75.75 0 0 0 .5.25h1a.75.75 0 1 0 0-1.5h-1a2.25 2.25 0 0 1-.25-4.48v-.27a.75.75 0 0 1 .75-.75zm-19-6.25a1 1 0 1 1 0 2 1 1 0 0 1 0-2zm9-3a1 1 0 1 1 0 2h-4a1 1 0 1 1 0-2z"/></g></svg>
