<svg focusable="false" xmlns="http://www.w3.org/2000/svg" width="40" height="40" viewBox="0 0 40 40"><title>savings-40</title><g fill="none" fill-rule="evenodd"><path d="M0 0h40v40H0z"/><circle cx="21" cy="10.026" r="4" fill="var(--ukg_sys_color_featureIcon_light, #30CEBB)" fill-rule="nonzero"/><path fill="var(--ukg_sys_color_featureIcon_dark, #005151)" fill-rule="nonzero" d="M11.17 11.006a7.78 7.78 0 0 1 5.5 2.3 1.004 1.004 0 1 1-1.42 1.42 5.83 5.83 0 0 0-3.11-1.62l.43 2.76.004.11-.004.11a1.08 1.08 0 0 1-.18.53l-.3.4a5.15 5.15 0 0 0-.9 2 3.09 3.09 0 0 1-2 2.34l-1.19.38v2.68l4.16 2.31a3 3 0 0 1 1.5 2l.66 3.28H17v-1a3 3 0 0 1 3-3h2a3 3 0 0 1 3 3v1h2.68l.73-3.67a3 3 0 0 1 .69-1.39l1.42-1.62a6 6 0 0 0 1.48-3.95v-.37a6 6 0 0 0-6-6 1 1 0 0 1 0-2 8 8 0 0 1 8 8v.37a8 8 0 0 1-2 5.27l-1.38 1.62a1 1 0 0 0-.22.46l-.9 4.48a1 1 0 0 1-1 .8H24a1 1 0 0 1-1-1v-2a1 1 0 0 0-1-1h-2a1 1 0 0 0-1 1v2a1 1 0 0 1-1 1h-4.48a1 1 0 0 1-1-.8l-.82-4.09a1 1 0 0 0-.5-.68l-4.68-2.55a1 1 0 0 1-.52-.88v-4a1 1 0 0 1 .69-.95l1.88-.61a1.05 1.05 0 0 0 .68-.83 7 7 0 0 1 1.26-2.81l.05-.07-.56-3.58a1 1 0 0 1 1-1.15zm2.83 8a1 1 0 1 1 0 2 1 1 0 0 1 0-2zm9-3a1 1 0 1 1 0 2h-4a1 1 0 1 1 0-2z"/></g></svg>
