<svg focusable="false" xmlns="http://www.w3.org/2000/svg" width="40" height="40" viewBox="0 0 40 40"><title>scanner-40</title><g fill="none" fill-rule="evenodd"><path d="M0 0h40v40H0z"/><path fill="var(--ukg_sys_color_featureIcon_light, #30CEBB)" fill-rule="nonzero" d="M28 22H9a1 1 0 0 1 0-2h19a1 1 0 0 1 0 2z"/><path fill="var(--ukg_sys_color_featureIcon_dark, #005151)" fill-rule="nonzero" d="M30.89 15.7 13.48 6.12a1.012 1.012 0 0 0-1 1.76l17.41 9.57A4 4 0 0 1 32 21v3H7a1 1 0 0 0-1 1v4a5 5 0 0 0 5 5h18a5 5 0 0 0 5-5v-8a6 6 0 0 0-3.11-5.3zM32 26v3a3 3 0 0 1-3 3H11a3 3 0 0 1-3-3v-3h24z"/></g></svg>
