<svg focusable="false" xmlns="http://www.w3.org/2000/svg" width="24" height="24" viewBox="0 0 24 24"><title>Icons / Utility / schedule</title><g fill="none" fill-rule="evenodd"><path d="M0 0h24v24H0z"/><path fill="currentColor" fill-rule="nonzero" d="M17.5 12a5.5 5.5 0 1 1 0 11 5.5 5.5 0 0 1 0-11zM16 1c.51 0 .935.388.993.884L17 2v1h1c1.05 0 1.918.82 1.994 1.851L20 5v5.674a6.95 6.95 0 0 0-1.999-.603L18 8H4v10c0 .51.388.935.884.993L5 19l5.29.001a6.95 6.95 0 0 0 .966 2L4 21a2 2 0 0 1-1.995-1.851L2 19l.01-14a1.99 1.99 0 0 1 1.84-1.994L4 3h1V2c0-.55.45-1 1-1 .51 0 .935.388.993.884L7 2v1h8V2c0-.55.45-1 1-1zm1.5 12.75a.75.75 0 0 0-.743.648l-.007.102V18c0 .38.282.693.648.743l.102.007H20a.75.75 0 0 0 .102-1.493L20 17.25l-1.751-.001.001-2.749a.75.75 0 0 0-.75-.75z"/></g></svg>
