<svg focusable="false" xmlns="http://www.w3.org/2000/svg" width="40" height="40" viewBox="0 0 40 40"><defs><clipPath id="a"><path d="m20.72 17.16 5.96 5.96-2.8 2.8-5.96-5.96 2.1-2.09.7-.71ZM9.42 0a9.42 9.42 0 0 1 9.42 9.42 9.41 9.41 0 0 1-9.42 9.42A9.42 9.42 0 0 1 9.42 0Zm0 2.42a7 7 0 1 0 6.5 9.58 7.08 7.08 0 0 0 .49-2.58 7 7 0 0 0-6.99-7Zm13.2 9.85 2.12 2.12a.75.75 0 0 1-.53 1.28.71.71 0 0 1-.53-.22l-2.13-2.12a.75.75 0 0 1 0-1.06.77.77 0 0 1 1.07 0Zm3.35-3.1a.75.75 0 1 1 0 1.5h-3.2a.75.75 0 1 1 0-1.5h3.2Zm-1.248-4.762a.75.75 0 0 1 .018 1.042l-2.12 2.12a.74.74 0 0 1-.53.22.75.75 0 0 1-.54-1.28l2.13-2.12a.75.75 0 0 1 1.042.018Z"/></clipPath><clipPath id="b"><path d="M17.546 2.728a10.49 10.49 0 0 1 1.033 14.441l1.42 1.38.37-.37a1 1 0 1 1 1.42 1.41l-1.39 1.39 4.58 4.59 1.35-1.39a1 1 0 0 1 1.41 0 1 1 0 0 1 .04 1.41l-2.1 2.1a1 1 0 0 1-.7.29 1 1 0 0 1-.71-.27l-6-6a1 1 0 0 1 0-1.41l.32-.32-1.42-1.4a10.49 10.49 0 1 1 .377-15.851Zm-7.067-.749a8.5 8.5 0 1 0 0 17 8.45 8.45 0 0 0 7.9-5.37c.4-.995.603-2.058.6-3.13a8.5 8.5 0 0 0-8.5-8.5Zm2.75 4a.75.75 0 0 1 .75.75v6.5a.75.75 0 1 1-1.5 0v-6.5a.75.75 0 0 1 .75-.75Zm-3 2a.75.75 0 0 1 .75.75v4.5a.75.75 0 1 1-1.5 0v-4.5a.75.75 0 0 1 .75-.75Zm-3 2a.75.75 0 0 1 .75.75v2.5a.75.75 0 1 1-1.5 0v-2.5a.75.75 0 0 1 .75-.75Z"/></clipPath></defs><g clip-path="url(#a)" transform="translate(7.08 8.08)"><path fill="var(--ukg_sys_color_featureIcon_light, #30CEBB)" d="M0 0h26.72v25.92H0V0z"/></g><g clip-path="url(#b)" transform="translate(6.021 7.021)"><path fill="var(--ukg_sys_color_featureIcon_dark, #005151)" d="M0 0h28.05v27.98H0V0z"/></g></svg>
