<svg focusable="false" xmlns="http://www.w3.org/2000/svg" width="40" height="40" viewBox="0 0 40 40"><title>search-talent-40</title><g fill="none" fill-rule="evenodd"><path d="M0 0h40v40H0z"/><path fill="var(--ukg_sys_color_featureIcon_light, #30CEBB)" d="m28 26 5.51 5.51L31 34l-5.5-5.5L28 26zm-16 3.046a.75.75 0 0 1 .75.75V33a.75.75 0 0 1-1.5 0v-3.204a.75.75 0 0 1 .75-.75zm-2.349-.464a.749.749 0 0 1 0 1.06l-2.121 2.12a.744.744 0 0 1-.53.22.749.749 0 0 1-.53-1.28l2.121-2.12a.749.749 0 0 1 1.06 0zm7.216-8.62a6.91 6.91 0 0 1 6.58 4.81A9.956 9.956 0 0 1 17 27.135a9.945 9.945 0 0 1-6.647-2.544 6.91 6.91 0 0 1 5.826-4.595 6.95 6.95 0 0 0-2.2.604 2.96 2.96 0 0 0 2.888 2.322 2.96 2.96 0 0 0 2.887-2.322 6.874 6.874 0 0 0-2.545-.63z"/><path fill="var(--ukg_sys_color_featureIcon_dark, #005151)" d="M17 26.135c-2.04 0-3.917-.69-5.428-1.838a5.898 5.898 0 0 1 5.295-3.335 5.873 5.873 0 0 1 5.372 3.488A8.973 8.973 0 0 1 17 26.135zM28.5 6a5.5 5.5 0 1 1-5.5 5.5c0-.33.034-.652.09-.966C21.465 9.04 19.307 8.135 17 8.135c-4.962 0-9 4.037-9 9 0 2.179.779 4.178 2.072 5.737 1.4-2.381 3.964-3.91 6.795-3.91a7.862 7.862 0 0 1 6.905 4.086 9.06 9.06 0 0 0 1.598-2.597l.098-.259c.063-.173.12-.349.172-.527a1.001 1.001 0 0 1 1.92.563 11.054 11.054 0 0 1-2.04 3.876l1.481 1.481.292-.292a1.03 1.03 0 0 1 1.414 0l4.801 4.801a1 1 0 0 1-1.414 1.414L28 27.414l-.292.293-.795.795a.999.999 0 1 1-1.414-1.414l.088-.089-1.47-1.47A10.955 10.955 0 0 1 17 28.135a10.943 10.943 0 0 1-7.34-2.831C7.419 23.289 6 20.378 6 17.135c0-6.065 4.935-11 11-11 2.588 0 4.986.88 6.878 2.391A5.492 5.492 0 0 1 28.5 6zm0 2.5-.882 1.786-1.971.287 1.427 1.39-.337 1.963L28.5 13l1.763.927-.337-1.963 1.427-1.39-1.971-.287L28.5 8.5zm-13.593 5.498c.023 1.148.894 2.004 1.96 2.004a1.963 1.963 0 0 0 1.96-1.916c-.024-1.149-.895-2.004-1.96-2.004a1.962 1.962 0 0 0-1.96 1.916m1.96 4.004a3.965 3.965 0 0 1-3.96-3.869v-.182a3.965 3.965 0 0 1 3.959-3.869 3.965 3.965 0 0 1 3.96 3.87v.181a.948.948 0 0 1-.014.17c-.172 2.102-1.876 3.7-3.946 3.7"/></g></svg>
