<svg focusable="false" xmlns="http://www.w3.org/2000/svg" width="24" height="24" viewBox="0 0 24 24"><title>Icons / Navigation / search-list</title><g fill="none" fill-rule="evenodd"><path d="M0 0h24v24H0z"/><path fill="currentColor" fill-rule="nonzero" d="M8.5 17H3.944C3.425 17 3 16.55 3 16s.425-1 .944-1l3.483.001c.256.724.62 1.397 1.073 2zM7 12.5c0 .168.006.334.016.5H3.944C3.425 13 3 12.55 3 12s.425-1 .944-1H7.15c-.098.484-.15.986-.15 1.5zM7.865 9h-3.92C3.424 9 3 8.55 3 8s.425-1 .944-1h5.457a7.528 7.528 0 0 0-1.536 2zM14.5 7a5.5 5.5 0 0 1 4.31 8.917c.045.03.088.067.13.108l2.828 2.829a1 1 0 0 1-1.414 1.414l-2.829-2.829a1 1 0 0 1-.175-.235A5.5 5.5 0 1 1 14.5 7zm0 2a3.5 3.5 0 1 0 0 7 3.5 3.5 0 0 0 0-7zm4.556-6c.519 0 .944.45.944 1 0 .51-.366.935-.835.993l-.11.007H3.946C3.424 5 3 4.55 3 4c0-.51.366-.935.835-.993L3.945 3h15.11z"/></g></svg>
