<svg focusable="false" xmlns="http://www.w3.org/2000/svg" width="40" height="40" viewBox="0 0 40 40"><title>search-40</title><g fill="none" fill-rule="evenodd"><path d="M0 0h40v40H0z"/><path fill="var(--ukg_sys_color_featureIcon_light, #30CEBB)" fill-rule="nonzero" d="m27.8 25.24 5.96 5.96-2.8 2.8L25 28.04l2.1-2.09.7-.71zm1.9-4.89 2.12 2.12a.75.75 0 0 1-.53 1.28.71.71 0 0 1-.53-.22l-2.13-2.12a.75.75 0 0 1 0-1.06.77.77 0 0 1 1.07 0zm3.35-3.1a.75.75 0 1 1 0 1.5h-3.2a.75.75 0 1 1 0-1.5h3.2zm-1.248-4.762a.75.75 0 0 1 .018 1.042l-2.12 2.12a.74.74 0 0 1-.53.22.75.75 0 0 1-.54-1.28l2.13-2.12a.75.75 0 0 1 1.042.018zM16.5 26.92a9.42 9.42 0 1 1 9.42-9.42 9.41 9.41 0 0 1-9.42 9.42zm0-16.42a7 7 0 1 0 6.5 9.58 7.08 7.08 0 0 0 .49-2.58 7 7 0 0 0-6.99-7z"/><path fill="var(--ukg_sys_color_featureIcon_dark, #005151)" fill-rule="nonzero" d="M33.76 31.2a1 1 0 0 0-1.41 0L31 32.59 26.42 28l1.39-1.39a1 1 0 1 0-1.42-1.41l-.37.37-1.42-1.38a10.49 10.49 0 1 0-1.41 1.41l1.42 1.4-.32.32a1 1 0 0 0 0 1.41l6 6A1 1 0 0 0 31 35a1 1 0 0 0 .7-.29l2.1-2.1a1 1 0 0 0-.04-1.41zM16.5 26a8.5 8.5 0 1 1 8.5-8.5 8.34 8.34 0 0 1-.6 3.13A8.45 8.45 0 0 1 16.5 26z"/></g></svg>
