<svg focusable="false" xmlns="http://www.w3.org/2000/svg" width="40" height="40" viewBox="0 0 40 40"><title>security-40</title><g fill="none" fill-rule="evenodd"><path d="M0 0h40v40H0z"/><path fill="var(--ukg_sys_color_featureIcon_light, #30CEBB)" fill-rule="nonzero" d="m24.73 22.3.71.71L22 26.42l-.58-.82L20 27l-7.38-7.38a2.121 2.121 0 0 1 3-3L20 21l10-10h-.37A13.65 13.65 0 0 1 20 7a13.65 13.65 0 0 1-9.66 4H7v7a15.28 15.28 0 0 0 6.59 12.58L20 35l6.41-4.44A15.28 15.28 0 0 0 33 18v-4l-8.27 8.3z"/><path fill="var(--ukg_sys_color_featureIcon_dark, #005151)" fill-rule="nonzero" d="M20 28a1 1 0 0 1-.71-.29l-7.37-7.38a3.11 3.11 0 0 1 0-4.42 3.13 3.13 0 0 1 4.41 0L20 19.6l9.67-9.68a3.13 3.13 0 0 1 4.42 4.42L25 23.48a1 1 0 1 1-1.41-1.42l9.13-9.14a1.12 1.12 0 1 0-1.58-1.58L20.73 21.72a1 1 0 0 1-1.41 0l-4.38-4.38a1.12 1.12 0 1 0-1.59 1.58L20 25.6l.71-.71a1 1 0 1 1 1.41 1.41l-1.41 1.42A1 1 0 0 1 20 28z"/></g></svg>
