<svg focusable="false" xmlns="http://www.w3.org/2000/svg" width="40" height="40" viewBox="0 0 40 40"><title>settings-40</title><g fill="none" fill-rule="evenodd"><path d="M0 0h40v40H0z"/><path fill="var(--ukg_sys_color_featureIcon_dark, #005151)" fill-rule="nonzero" d="M18 27h-1.12a4.57 4.57 0 0 0-1.32-2.28l.7-1.22a1 1 0 1 0-1.73-1l-.71 1.23a4.4 4.4 0 0 0-1.32-.23 4.39 4.39 0 0 0-1.31.22l-.7-1.22a1 1 0 1 0-1.73 1l.7 1.21A4.51 4.51 0 0 0 8.13 27H7a1 1 0 0 0 0 2h1.13a4.44 4.44 0 0 0 1.33 2.28l-.7 1.22a1 1 0 1 0 1.73 1l.7-1.22a4.13 4.13 0 0 0 2.63 0l.71 1.23a1 1 0 1 0 1.73-1l-.7-1.22A4.57 4.57 0 0 0 16.88 29H18a1 1 0 0 0 0-2zm-4.536-1.317A2.5 2.5 0 0 1 15 28a2.49 2.49 0 0 1-2.5 2.49 2.5 2.5 0 1 1 .964-4.807zM26 6a1 1 0 0 1 1 1v1.77a8 8 0 0 1 1.47.84L30 8.73a1 1 0 0 1 1.38.37l2.5 4.33a1 1 0 0 1-.36 1.36l-1.52.88c.014.28.014.56 0 .84.015.28.015.56 0 .84l1.49.88a1 1 0 0 1 .45.61 1 1 0 0 1-.1.76l-2.5 4.33a1 1 0 0 1-1.36.36l-1.53-.88a8 8 0 0 1-1.45.84V26a1 1 0 0 1-1 1h-5a1 1 0 0 1-1-1v-1.71a8.46 8.46 0 0 1-1.61-1 1 1 0 1 1 1.2-1.59 6.4 6.4 0 0 0 1.75.93 1 1 0 0 1 .66.95V25h3v-1.42a1 1 0 0 1 .67-.95 6.45 6.45 0 0 0 2.05-1.18 1 1 0 0 1 1.15-.11l1.24.72 1.5-2.6-1.24-.71a1 1 0 0 1-.48-1.05 7 7 0 0 0 .11-1.19 7.22 7.22 0 0 0-.1-1.19 1 1 0 0 1 .48-1l1.24-.72-1.5-2.6-1.24.67a1 1 0 0 1-1.15-.11 6.65 6.65 0 0 0-2.05-1.18 1 1 0 0 1-.67-.94V8h-3v1.49a1 1 0 0 1-.66.94 6.7 6.7 0 0 0-2.06 1.18 1 1 0 0 1-1.15.11L16.9 11l-1.51 2.6 1.24.72a1 1 0 0 1 .48 1 7.22 7.22 0 0 0-.11 1.19c0 .399.033.797.1 1.19a1 1 0 0 1-.52 1.07l-2.14 1.12a1.002 1.002 0 0 1-.92-1.78l1.51-.79a7.32 7.32 0 0 1 0-.81 7.89 7.89 0 0 1 0-.84l-1.53-.88a1 1 0 0 1-.36-1.36l2.5-4.33A1 1 0 0 1 17 8.73l1.55.88A8 8 0 0 1 20 8.77V7a1 1 0 0 1 1-1z"/><path fill="var(--ukg_sys_color_featureIcon_light, #30CEBB)" fill-rule="nonzero" d="M23.51 13.01a3.5 3.5 0 1 1 0 7 3.5 3.5 0 0 1 0-7zM10 18.26a.75.75 0 1 1 0 1.5H7a.75.75 0 1 1 0-1.5zm-1.442-4.762A.75.75 0 0 1 9.6 13.48l1.93 1.93a.75.75 0 0 1-1.06 1.06l-1.93-1.93a.75.75 0 0 1 .018-1.042z"/></g></svg>
