<svg focusable="false" xmlns="http://www.w3.org/2000/svg" width="40" height="40" viewBox="0 0 40 40"><title>sign-40</title><g fill="none" fill-rule="evenodd"><path d="M0 0h40v40H0z"/><path fill="var(--ukg_sys_color_featureIcon_light, #30CEBB)" fill-rule="nonzero" d="M14.077 29.02a1 1 0 0 1-1-1v-2.5a2.5 2.5 0 0 1 5 0v1a.5.5 0 0 0 .5.5h1.5a1 1 0 1 1 0 2h-1.5a2.51 2.51 0 0 1-2.5-2.5v-1a.5.5 0 1 0-1 0v2.5a1 1 0 0 1-1 1z"/><path fill="var(--ukg_sys_color_featureIcon_dark, #005151)" fill-rule="nonzero" d="M20.077 19.02a1 1 0 1 1 0 2h-6a1 1 0 0 1 0-2zm4-4a1 1 0 1 1 0 2h-10a1 1 0 0 1 0-2zm1-4a1 1 0 1 1 0 2h-11a1 1 0 0 1 0-2zm-5 18a1 1 0 0 0 .24 0l4-1c.178-.048.34-.14.47-.27l11-11a1 1 0 0 0 0-1.41l-3-3a1 1 0 0 0-1.42 0l-.29.29V7.02a1 1 0 0 0-1-1h-21a1 1 0 0 0-1 1v26a1 1 0 0 0 1 1h21a1 1 0 0 0 1-1v-7a1 1 0 1 0-2 0v6h-19v-24h19v6.54l-8.71 8.72a1.08 1.08 0 0 0-.27.46l-1 4a1 1 0 0 0 .27.95 1 1 0 0 0 .71.33zm1.9-4.48 10.1-10.13 1.59 1.61-10.1 10.07-2.12.53.53-2.08z"/></g></svg>
