<svg focusable="false" xmlns="http://www.w3.org/2000/svg" width="24" height="24" viewBox="0 0 24 24"><title>Icons / Navigation / sign-in</title><g fill="none" fill-rule="evenodd"><path d="M0 0h24v24H0z"/><path fill="currentColor" fill-rule="nonzero" d="M19 2a2 2 0 0 1 2 2v16a2 2 0 0 1-2 2h-7a1 1 0 0 1 0-2h7V4h-7a1 1 0 0 1 0-2h7zm-7.121 6.464 2.828 2.829.071.08h.001l.027.035a1.032 1.032 0 0 1 .16.332l.013.056.01.056A.947.947 0 0 1 15 12v.043a.997.997 0 0 1-.293.712l-2.828 2.829a1 1 0 0 1-1.415-1.414l1.17-1.17H4a1 1 0 0 1 0-2h7.585l-1.12-1.121a1 1 0 1 1 1.414-1.415z"/></g></svg>
