<svg focusable="false" xmlns="http://www.w3.org/2000/svg" width="24" height="24" viewBox="0 0 24 24"><title>Icons / Navigation / sign-out</title><g fill="none" fill-rule="evenodd"><path d="M0 0h24v24H0z"/><path fill="currentColor" fill-rule="nonzero" d="M19 2a2 2 0 0 1 2 2v16a2 2 0 0 1-2 2h-7a1 1 0 0 1 0-2h7V4h-7a1 1 0 0 1 0-2h7zM6.121 8.464A1 1 0 0 1 7.536 9.88L6.415 11H14a1 1 0 0 1 0 2H6.366l1.17 1.17a1 1 0 1 1-1.415 1.414l-2.828-2.829A.997.997 0 0 1 3 12.043v-.076a1.047 1.047 0 0 1 .01-.115l.01-.056.014-.056a1.048 1.048 0 0 1 .111-.26 1.53 1.53 0 0 1 .049-.072l.027-.034.001-.001.07-.08z"/></g></svg>
