<svg focusable="false" xmlns="http://www.w3.org/2000/svg" width="24" height="24" fill="none" viewBox="0 0 24 24"><path fill="currentColor" d="M10.35 15.65h3.4c.217 0 .396-.07.538-.212a.73.73 0 0 0 .212-.538c0-.2-.07-.375-.212-.525a.681.681 0 0 0-.513-.225H11.7l2.525-2.85c.083-.1.15-.213.2-.338a1.03 1.03 0 0 0 .075-.387.888.888 0 0 0-.275-.65.889.889 0 0 0-.65-.275H10.25a.728.728 0 0 0-.75.75c0 .2.071.375.213.525.141.15.312.225.512.225h2.125L9.8 14.025a1.25 1.25 0 0 0-.225.375c-.05.133-.075.267-.075.4 0 .233.083.433.25.6.167.167.367.25.6.25ZM12 22c-1.25 0-2.42-.237-3.512-.712a9.142 9.142 0 0 1-2.85-1.926 9.143 9.143 0 0 1-1.926-2.85A8.709 8.709 0 0 1 3 13c0-1.25.237-2.421.712-3.513a9.159 9.159 0 0 1 1.926-2.85 9.138 9.138 0 0 1 2.85-1.924A8.698 8.698 0 0 1 12 4c1.25 0 2.421.238 3.513.713a9.152 9.152 0 0 1 2.85 1.924 9.167 9.167 0 0 1 1.925 2.85A8.715 8.715 0 0 1 21 13c0 1.25-.237 2.42-.712 3.512a9.151 9.151 0 0 1-1.925 2.85 9.156 9.156 0 0 1-2.85 1.926A8.715 8.715 0 0 1 12 22ZM3.425 7.325a.918.918 0 0 1-.675.275.96.96 0 0 1-.7-.3.948.948 0 0 1-.275-.7.95.95 0 0 1 .275-.7l2.875-2.875A.918.918 0 0 1 5.6 2.75c.267 0 .5.1.7.3a.948.948 0 0 1 .275.7.948.948 0 0 1-.275.7L3.425 7.325ZM20.55 7.3l-2.875-2.875a.918.918 0 0 1-.275-.675c0-.267.1-.5.3-.7a.948.948 0 0 1 .7-.275.95.95 0 0 1 .7.275l2.875 2.875a.917.917 0 0 1 .275.675c0 .267-.1.5-.3.7a.948.948 0 0 1-.7.275.948.948 0 0 1-.7-.275ZM12 20c1.95 0 3.604-.68 4.962-2.038C18.321 16.604 19 14.95 19 13c0-1.95-.68-3.604-2.038-4.963C15.604 6.679 13.95 6 12 6c-1.95 0-3.604.679-4.962 2.037C5.679 9.396 5 11.05 5 13c0 1.95.68 3.604 2.038 4.962C8.396 19.321 10.05 20 12 20Z"/></svg>
