<svg focusable="false" xmlns="http://www.w3.org/2000/svg" width="24" height="24" viewBox="0 0 24 24"><title>Icons / Utility / sort</title><g fill="none" fill-rule="evenodd"><path d="M0 0h24v24H0z"/><path fill="currentColor" fill-rule="nonzero" d="M19.024 5.024a1 1 0 0 1 1 1V16.61l1.121-1.12a1 1 0 1 1 1.415 1.414l-2.83 2.826-.071.064-.044.036a1.032 1.032 0 0 1-.275.142l-.029.009-.028.008a.92.92 0 0 1-.056.013l-.056.01a.947.947 0 0 1-.148.011h-.033l-.074-.002a.996.996 0 0 1-.648-.29l-2.829-2.83a1 1 0 0 1 1.415-1.413l1.17 1.17V6.023a1 1 0 0 1 1-1zM8 17a1 1 0 0 1 0 2H3a1 1 0 0 1 0-2h5zm2-4a1 1 0 0 1 0 2H3a1 1 0 0 1 0-2h7zm2-4a1 1 0 0 1 0 2H3a1 1 0 0 1 0-2h9zm2-4a1 1 0 0 1 0 2H3a1 1 0 1 1 0-2h11z"/></g></svg>
