<svg focusable="false" xmlns="http://www.w3.org/2000/svg" width="24" height="24" viewBox="0 0 24 24"><title>Icons / Utility / sort-alpha</title><g fill="none" fill-rule="evenodd"><path d="M0 0h24v24H0z"/><path fill="currentColor" fill-rule="nonzero" d="M11.555 19.5h2.886c.465 0 .714.517.454.864l-.059.067-1.443 1.41a.565.565 0 0 1-.708.063l-.077-.063-1.443-1.41a.542.542 0 0 1 .3-.924l.09-.007h2.886zm2.852-12.491h5.555c.65 0 1.053.712.759 1.276l-.056.093-4.903 7.227h4.569a.67.67 0 0 1 .668.706.687.687 0 0 1-.576.681l-.1.008H14.56c-.65 0-1.053-.712-.758-1.276l.055-.093 4.912-7.219h-4.363a.69.69 0 0 1-.67-.594l-.007-.103c0-.36.252-.653.585-.7l.092-.006h5.555zM8.217 7c.379 0 .73.212.908.547l.053.116 3.197 8.317a.737.737 0 0 1-.677 1.011.734.734 0 0 1-.643-.393l-.043-.095-.608-1.656h-4.38l-.61 1.656a.743.743 0 0 1-.685.48.736.736 0 0 1-.708-.914l.03-.098 3.207-8.308c.154-.401.54-.663.96-.663zM8.21 8.91l-1.663 4.515h3.326L8.21 8.91zm5.184-6.75 1.443 1.41c.351.342.1.93-.395.93h-2.886c-.496 0-.74-.588-.39-.93l1.443-1.41a.564.564 0 0 1 .785 0z"/></g></svg>
