<svg focusable="false" xmlns="http://www.w3.org/2000/svg" width="40" height="40" viewBox="0 0 40 40"><title>speech-bubble-40</title><g fill="none" fill-rule="evenodd"><path d="M0 0h40v40H0z"/><path fill="var(--ukg_sys_color_featureIcon_light, #30CEBB)" fill-rule="nonzero" d="M23.02 21a1 1 0 0 1 1 1 1.36 1.36 0 0 1 0 .2.64.64 0 0 1-.06.18.76.76 0 0 1-.09.18l-.12.15A1.05 1.05 0 0 1 23 23a1.05 1.05 0 0 1-.71-.29l-.12-.15a.76.76 0 0 1-.09-.18.64.64 0 0 1-.06-.18 1.36 1.36 0 0 1 0-.2 1 1 0 0 1 1-1zM19 21a1 1 0 0 1 0 2h-7a1 1 0 0 1 0-2h7zm13.5-3a1.5 1.5 0 1 1 0 3 1.5 1.5 0 0 1 0-3zM23 16a1 1 0 0 1 0 2H12a1 1 0 0 1 0-2h11zm6-10a5 5 0 1 1-1 9.9V14a2 2 0 0 0-2-2h-1.9A5 5 0 0 1 29 6z"/><path fill="var(--ukg_sys_color_featureIcon_dark, #005151)" fill-rule="nonzero" d="M7 34a.84.84 0 0 1-.38-.08A1 1 0 0 1 6 33V14a3 3 0 0 1 3-3h17a3 3 0 0 1 3 3v7a1 1 0 0 1-2 0v-7a1 1 0 0 0-1-1H9a1 1 0 0 0-1 1v16.59l4.29-4.3A1 1 0 0 1 13 26h13a1 1 0 0 0 1-1 1 1 0 0 1 2 0 3 3 0 0 1-3 3H13.41l-5.7 5.71A1 1 0 0 1 7 34z"/></g></svg>
