<svg focusable="false" xmlns="http://www.w3.org/2000/svg" width="40" height="40" viewBox="0 0 40 40"><title>square-star-40</title><g fill="none" fill-rule="evenodd"><path d="M0 0h40v40H0z"/><path fill="var(--ukg_sys_color_featureIcon_light, #30CEBB)" fill-rule="nonzero" d="M11 11v16.8a2.2 2.2 0 0 0 2.2 2.2H30v1.8a3.21 3.21 0 0 1-3.2 3.2H9.2A3.21 3.21 0 0 1 6 31.8V14.2A3.21 3.21 0 0 1 9.2 11H11zm11 1 2.28 4.09 4.65 1.11-3.23 3.17.59 4.63L22 23.02 17.71 25l.59-4.63-3.23-3.17 4.65-1.11L22 12z"/><path fill="var(--ukg_sys_color_featureIcon_dark, #005151)" fill-rule="nonzero" d="M33 23.3a1 1 0 0 0 1-1V10.19A3.2 3.2 0 0 0 30.8 7H13.2a3.2 3.2 0 0 0-3.2 3.2v17.6a3.21 3.21 0 0 0 3.2 3.2h17.6a3.21 3.21 0 0 0 3.2-3.2v-1.1a1 1 0 0 0-2 0v1.09A1.2 1.2 0 0 1 30.8 29H13.2a1.2 1.2 0 0 1-1.2-1.2V10.19A1.2 1.2 0 0 1 13.2 9h17.6a1.2 1.2 0 0 1 1.2 1.2v12.1a1 1 0 0 0 1 1z"/></g></svg>
