<svg focusable="false" xmlns="http://www.w3.org/2000/svg" width="40" height="40" viewBox="0 0 40 40"><title>square-layers-40</title><g fill="none" fill-rule="evenodd"><path d="M0 0h40v40H0z"/><path fill="var(--ukg_sys_color_featureIcon_dark, #005151)" fill-rule="nonzero" d="M33 27a1 1 0 0 0 1-1V9a3 3 0 0 0-3-3H9a3 3 0 0 0-3 3v22a3 3 0 0 0 3 3h22a3 3 0 0 0 3-3v-1a1 1 0 0 0-2 0v1a1 1 0 0 1-1 1H9a1 1 0 0 1-1-1V9a1 1 0 0 1 1-1h22a1 1 0 0 1 1 1v17a1 1 0 0 0 1 1zm-16-1h6a3 3 0 0 0 3-3v-6a3 3 0 0 0-3-3h-2v-2a2 2 0 0 0-2-2h-7a2 2 0 0 0-2 2v7a2 2 0 0 0 2 2h2v2a3 3 0 0 0 3 3zm-1-9a1 1 0 0 1 1-1h6a1 1 0 0 1 1 1v6a1 1 0 0 1-1 1h-6a1 1 0 0 1-1-1v-6z"/><rect width="11" height="11" x="19" y="19" fill="var(--ukg_sys_color_featureIcon_light, #30CEBB)" fill-rule="nonzero" rx="2"/></g></svg>
