<svg focusable="false" xmlns="http://www.w3.org/2000/svg" width="40" height="40" viewBox="0 0 40 40"><title>stamp-check-40</title><g fill="none" fill-rule="evenodd"><path d="M0 0h40v40H0z"/><path fill="var(--ukg_sys_color_featureIcon_light, #30CEBB)" fill-rule="nonzero" d="M17 22.994a1 1 0 0 1 .71.296 1 1 0 0 1 0 1.42l-4 4a1 1 0 0 1-1.41 0l-2-2a1 1 0 1 1 1.41-1.42l1.29 1.3 3.29-3.3a1 1 0 0 1 .71-.296zM27.409 7.301a4 4 0 0 1 3.661.269 4 4 0 0 1 .73 6.29 3.92 3.92 0 0 1-1.82 1 11.3 11.3 0 0 0-2.3.85l-3.43-3.43a7.77 7.77 0 0 0 .82-2.15 4 4 0 0 1 2.339-2.83z"/><path fill="var(--ukg_sys_color_featureIcon_dark, #005151)" fill-rule="nonzero" d="M34 10.43a5.05 5.05 0 0 0-2.4-3.71 5 5 0 0 0-7.47 3.2 8.65 8.65 0 0 1-2.46 4.17l-1.08 1.08-1.88-1.88a5.26 5.26 0 0 0-7.42 0 1 1 0 0 0 0 1.42l14 14c.192.183.445.286.71.29a1 1 0 0 0 .71-.29 5.26 5.26 0 0 0 0-7.42l-2.59-2.58L22 16.59l1.08-1.08a10.67 10.67 0 0 0 3-5.17 3 3 0 1 1 5 2.78 2.85 2.85 0 0 1-1.36.77 11 11 0 0 0-4.42 2.36 1 1 0 0 0 1.32 1.5 8.81 8.81 0 0 1 3.6-1.92 5 5 0 0 0 2.28-1.29 5 5 0 0 0 1.5-4.11zm-22.25 7.91A1 1 0 0 1 13 19a1 1 0 0 1-.71 1.25 6.09 6.09 0 0 0-2.53 1.52 6 6 0 0 0 0 8.49 6 6 0 0 0 8.49 0 5.91 5.91 0 0 0 1.51-2.53 1 1 0 0 1 1.24-.67 1 1 0 0 1 .67 1.24 8.05 8.05 0 0 1-2 3.38A8 8 0 0 1 8.38 20.34a8.1 8.1 0 0 1 3.37-2zm5.54-3.63 2.59 2.58 2.83 2.83 2.58 2.59a3.24 3.24 0 0 1 .6 3.76L13.52 14.11a3.31 3.31 0 0 1 3.77.6z"/></g></svg>
