<svg focusable="false" xmlns="http://www.w3.org/2000/svg" width="24" height="24" viewBox="0 0 24 24"><title>Icons / Utility / status-in-progress</title><g fill="none" fill-rule="evenodd"><path d="M0 0h24v24H0z"/><path fill="currentColor" fill-rule="nonzero" d="M9.794 2a.99.99 0 0 0-.232.024 9.92 9.92 0 0 0-3.117 1.298c-.537.34-.608 1.1-.159 1.55l.002.001c.322.322.827.399 1.211.155a7.951 7.951 0 0 1 2.535-1.053c.443-.1.743-.514.743-.967 0-.558-.453-1-.983-1.008zm3.967 0a1.01 1.01 0 0 0-.984 1.008c0 .46.309.868.756.969 3.569.802 6.244 3.992 6.244 7.799 0 3.807-2.675 6.996-6.244 7.798a.985.985 0 0 0-.756.967c0 .64.593 1.129 1.215.987 4.45-1.01 7.785-5 7.785-9.752 0-4.753-3.334-8.741-7.785-9.752a.98.98 0 0 0-.23-.024zM4.056 5.994a.972.972 0 0 0-.732.45 9.943 9.943 0 0 0-1.3 3.117c-.14.622.347 1.215.985 1.215.453 0 .868-.3.967-.743a7.919 7.919 0 0 1 1.053-2.535c.244-.384.167-.889-.155-1.21l-.002-.003a1.013 1.013 0 0 0-.816-.29zm11.701 2.772a1 1 0 0 0-.687.303l-4.293 4.293-1.293-1.293a1 1 0 1 0-1.414 1.414l2 2a1 1 0 0 0 1.414 0l5-5a1 1 0 0 0-.727-1.717zM3.01 12.776c-.638 0-1.126.592-.984 1.214a9.92 9.92 0 0 0 1.299 3.118c.339.537 1.1.607 1.548.158.323-.323.4-.83.157-1.213a7.951 7.951 0 0 1-1.053-2.535c-.1-.443-.514-.742-.967-.742zm3.863 5.613a1.02 1.02 0 0 0-.584.289l-.002.002c-.449.449-.378 1.209.159 1.549a9.943 9.943 0 0 0 3.117 1.299 1.005 1.005 0 0 0 1.215-.985c0-.453-.3-.868-.743-.967a7.931 7.931 0 0 1-2.533-1.052.935.935 0 0 0-.629-.135z"/></g></svg>
