<svg focusable="false" xmlns="http://www.w3.org/2000/svg" width="24" height="24" viewBox="0 0 24 24"><title>Icons / Utility / status-not-started</title><g fill="none" fill-rule="evenodd"><path d="M0 0h24v24H0z"/><path fill="currentColor" fill-rule="nonzero" d="M9.794 2a.99.99 0 0 0-.232.024 9.92 9.92 0 0 0-3.117 1.298c-.537.34-.608 1.1-.159 1.55l.002.001c.322.322.827.399 1.211.155a7.951 7.951 0 0 1 2.535-1.053c.443-.1.743-.514.743-.967 0-.558-.453-1-.983-1.008zm4.188 0a.99.99 0 0 1 .233.024 9.92 9.92 0 0 1 3.117 1.298c.537.34.607 1.1.158 1.55l-.002.001c-.322.322-.827.399-1.21.155a7.951 7.951 0 0 0-2.536-1.053C13.3 3.875 13 3.46 13 3.008c0-.558.452-1 .982-1.008zM4.056 5.994a.972.972 0 0 0-.732.45 9.943 9.943 0 0 0-1.3 3.117c-.14.622.347 1.215.985 1.215.453 0 .868-.3.967-.743a7.919 7.919 0 0 1 1.053-2.535c.244-.384.167-.889-.155-1.21l-.002-.003a1.013 1.013 0 0 0-.816-.29zm16.06 0c.29.029.563.181.733.45a9.943 9.943 0 0 1 1.299 3.117c.141.622-.346 1.215-.984 1.215-.453 0-.868-.3-.967-.743a7.919 7.919 0 0 0-1.053-2.535c-.244-.384-.168-.889.154-1.21l.002-.003c.225-.224.528-.319.817-.29zM3.01 12.776c-.638 0-1.126.592-.984 1.214a9.92 9.92 0 0 0 1.299 3.118c.339.537 1.1.607 1.548.158.323-.323.4-.83.157-1.213a7.951 7.951 0 0 1-1.053-2.535c-.1-.443-.514-.742-.967-.742zm18.154 0c.638 0 1.126.592.984 1.214a9.92 9.92 0 0 1-1.298 3.118c-.34.537-1.1.607-1.55.158-.322-.323-.4-.83-.156-1.213a7.951 7.951 0 0 0 1.053-2.535c.1-.443.514-.742.967-.742zm-14.29 5.613a1.02 1.02 0 0 0-.585.289l-.002.002c-.449.449-.378 1.209.159 1.549a9.943 9.943 0 0 0 3.117 1.299 1.005 1.005 0 0 0 1.215-.985c0-.453-.3-.868-.743-.967a7.931 7.931 0 0 1-2.533-1.052.935.935 0 0 0-.629-.135zm10.031 0c.215.029.423.128.584.289l.002.002c.45.449.379 1.209-.158 1.549a9.943 9.943 0 0 1-3.117 1.299 1.005 1.005 0 0 1-1.215-.985c0-.453.3-.868.742-.967a7.931 7.931 0 0 0 2.533-1.052.935.935 0 0 1 .63-.135z"/></g></svg>
