<svg focusable="false" xmlns="http://www.w3.org/2000/svg" width="40" height="40" viewBox="0 0 40 40"><defs><clipPath id="a"><path d="M18.81 0a3.38 3.38 0 0 1 1.7.48v.21A5.48 5.48 0 0 0 26 6.17l-1.106.572A7 7 0 0 1 26 6.65a7.16 7.16 0 0 1 2.19.37v.08a2.25 2.25 0 0 1-1.75 1.76 2.26 2.26 0 0 1-2.637-1.55l-1.296.673a3.72 3.72 0 0 0 7.073-.333 7 7 0 0 1 3.42 6v1H18.99v-1a7 7 0 0 1 .129-1.327l-.009.017H0S5.14 2.15 8.08 2.15a5.61 5.61 0 0 1 2.69.83 4.43 4.43 0 0 0 3.79-.44C16.27.9 17.27 0 18.81 0Z"/></clipPath><clipPath id="b"><path d="M27.004 13.69a8 8 0 0 1 8 8 1 1 0 0 1-2 0 6 6 0 1 0-12 0 1 1 0 0 1-2 0 8 8 0 0 1 8-8ZM21.864 0a3.28 3.28 0 0 1 2.88 1.66 1 1 0 0 1-1.73 1 1.3 1.3 0 0 0-1.009-.654L21.864 2a1.3 1.3 0 0 0-1.14.66l-7.48 12.54a1 1 0 1 1-1.72-1.02l1.736-2.913-2.036-3.527a1.3 1.3 0 0 0-1.15-.66 1.28 1.28 0 0 0-1.14.66l-7.06 12.23a1 1 0 0 1-.87.5 1 1 0 0 1-.87-1.5l7.07-12.23a3.32 3.32 0 0 1 5.75 0l1.479 2.562 4.571-7.662A3.27 3.27 0 0 1 21.657.005L21.864 0Zm5.13 2.69a1.5 1.5 0 0 1 1.339 2.177l-.024.041.031.01a4.002 4.002 0 0 1-1.336 7.772 4 4 0 0 1-1.336-7.771l.013-.006-.026-.046a1.5 1.5 0 0 1 1.339-2.177Zm-.028 4.282a2 2 0 0 1-1.712.968h-.104l-.015.038a2 2 0 1 0 3.739 0l-.017-.038h-.123a2 2 0 0 1-1.712-.968l-.029-.051-.027.051Z"/></clipPath></defs><g clip-path="url(#a)" transform="translate(3.004 17.04)"><path fill="var(--ukg_sys_color_featureIcon_light, #30CEBB)" d="M0 0h33v14.65H0V0z"/></g><g clip-path="url(#b)" transform="translate(2 9)"><path fill="var(--ukg_sys_color_featureIcon_dark, #005151)" d="M0 0h35.004v22.69H0V0z"/></g></svg>
