<svg focusable="false" xmlns="http://www.w3.org/2000/svg" width="40" height="40" viewBox="0 0 40 40"><title>summit-40</title><g fill="none" fill-rule="evenodd"><path d="M0 1h40v40H0z"/><path fill="var(--ukg_sys_color_featureIcon_light, #30CEBB)" d="M24.46 5.527h7.49l-2.769 2.678 2.77 2.75h-7.604l.113-5.428Zm11.206 30.614-.706-2.103c.14-.1.172-.22.048-.366-2.164-2.539-3.503-7.685-4.59-8.62-1.317.257-1.447.88-3.288.83-2.346-.062-3.228-2.092-5.34-2.092-1.54 0-2.545.906-4.25 2.541-.526.504-2.49.991-3.794.44-1.105-.466-1.478-.822-2.69-.822-2.916 0-8.023 10.192-8.023 10.192h32.633ZM17.825 9.631a.75.75 0 0 0 1.06 0 .75.75 0 0 0 0-1.06l-1.93-1.93a.751.751 0 0 0-1.042.017.751.751 0 0 0-.018 1.042l1.93 1.93Zm.28 2.54a.76.76 0 0 0-.75-.75h-3a.75.75 0 0 0 0 1.5h3a.76.76 0 0 0 .75-.75m14.82 5.55.074.07 1.93 1.93a.749.749 0 0 1-.976 1.132l-.084-.072-1.93-1.93a.752.752 0 0 1 .326-1.276.752.752 0 0 1 .66.146m3.544-3.22a.75.75 0 0 1 0 1.5h-3a.75.75 0 0 1 0-1.5h3Z"/><path fill="var(--ukg_sys_color_featureIcon_dark, #005151)" d="M23.902 4a.75.75 0 0 1 .75.75l-.001.12a.75.75 0 0 1 .182-.022h6.744c.284 0 .545.161.672.415a.754.754 0 0 1-.073.787L30.49 8.282l1.692 2.3a.749.749 0 0 1-.604 1.194H24.72l-.069-.005v3.979l-.007.098a3.28 3.28 0 0 1 2.064 1.563l10.103 17.31a1 1 0 1 1-1.726 1.008L24.978 18.414a1.299 1.299 0 0 0-1.145-.663c-.23 0-.799.064-1.143.66l-7.454 12.546a1.001 1.001 0 0 1-1.72-1.022l1.734-2.919-2.036-3.524a1.288 1.288 0 0 0-1.083-.66h-.059c-.229 0-.799.064-1.143.66L3.866 35.725a.998.998 0 0 1-1.366.366 1 1 0 0 1-.366-1.366l7.063-12.233a3.281 3.281 0 0 1 2.665-1.654l.21-.006c1.2 0 2.275.62 2.875 1.66l1.474 2.552 4.543-7.644a3.267 3.267 0 0 1 2.192-1.582.42.42 0 0 1-.004-.068v-11a.75.75 0 0 1 .75-.75Zm.749 2.326v3.953a.758.758 0 0 1 .07-.003h5.373L28.95 8.72a.75.75 0 0 1 .006-.896l1.115-1.476h-5.237a.75.75 0 0 1-.182-.022Z"/></g></svg>
