<svg focusable="false" xmlns="http://www.w3.org/2000/svg" width="40" height="40" viewBox="0 0 40 40"><title>support-1-40</title><g fill="none" fill-rule="evenodd"><path d="M0 0h40v40H0z"/><path fill="var(--ukg_sys_color_featureIcon_light, #30CEBB)" fill-rule="nonzero" d="M21 29.952a2 2 0 1 1 0 4h-2a2 2 0 1 1 0-4h2zm-9-13v8h-2v-8h2zm18 0v8h-2v-8h2zm-16.48-7.54a9.9 9.9 0 0 1 13.06 0l-1 .95a2 2 0 0 1-2.37.37 6.92 6.92 0 0 0-3.21-.78 6.92 6.92 0 0 0-3.16.78 2 2 0 0 1-2.37-.37z"/><path fill="var(--ukg_sys_color_featureIcon_dark, #005151)" fill-rule="nonzero" d="M31 15.952a11 11 0 0 0-21.9 0H9a3 3 0 0 0-3 3v4a3 3 0 0 0 3 3v1a6 6 0 0 0 6 6h2.28a1.93 1.93 0 0 1 0-2H15a4 4 0 0 1-4-4v-1h2a1 1 0 0 0 .6-.22 8 8 0 0 0 12.8 0 1 1 0 0 0 .6.22h4a3 3 0 0 0 3-3v-4a3 3 0 0 0-3-3zm-19 4.79v3.21H9a1 1 0 0 1-1-1v-4a1 1 0 0 1 1-1h3v2.79zm8 6.21a6 6 0 0 1-5.18-9l.81.28c1.86.622 3.809.94 5.77.94a5.18 5.18 0 0 0 3.6-1.49 5.92 5.92 0 0 1 1 3.27 6 6 0 0 1-6 6zm6.54-12.4c.03-.198.05-.399.06-.6a1 1 0 0 0-1-1H20c-.372 0-.743.03-1.11.09l-.31.05a7.16 7.16 0 0 0-.8.19l-.29.09a7.32 7.32 0 0 0-.88.35l-.13.05a7.81 7.81 0 0 0-.88.52l-.11.06H14.4a2.39 2.39 0 0 0-2.25 1.6h-1.09a9 9 0 0 1 17.88 0h-1.09a2.38 2.38 0 0 0-1.31-1.4zm5.46 8.4a1 1 0 0 1-1 1h-3v-6h3a1 1 0 0 1 1 1v4z"/></g></svg>
