<svg focusable="false" xmlns="http://www.w3.org/2000/svg" width="40" height="40" viewBox="0 0 40 40"><title>support-person-1-40</title><g fill="none" fill-rule="evenodd"><path d="M0 0h40v40H0z"/><path fill="var(--ukg_sys_color_featureIcon_light, #30CEBB)" fill-rule="nonzero" d="M11.077 23.02v7.46l-5 2.54v-10h5zm13.95-6.35a7 7 0 0 1 4.05 5.86l-6.05 3.03v-1.55a1.52 1.52 0 0 0-.79-.93l-2.79-1.4a6.27 6.27 0 0 0-4.09-.54 7 7 0 0 1 3.82-4.47 3 3 0 0 0 5.85 0z"/><path fill="var(--ukg_sys_color_featureIcon_dark, #005151)" fill-rule="nonzero" d="M22.077 14.02a4 4 0 0 0 4-4v-1a2 2 0 0 0-1-1.72v-.28a1 1 0 0 0-1-1h-5a1 1 0 0 0-1 1c.006.465.133.92.37 1.32a4 4 0 0 0 3.63 5.68zm-7.5 6.29a8 8 0 0 1 15.27.82 3.48 3.48 0 0 1 2.59.42l.01.04a3.46 3.46 0 0 1-.27 6l-10.88 5.43a9.491 9.491 0 0 1-4.22 1l-.365-.008a9.571 9.571 0 0 1-3.855-.982l-1.78-.89-3.55 1.78a1 1 0 0 1-.45.1 1 1 0 0 1-.43-1.89l4-2a1 1 0 0 1 .9 0l2.22 1.11a7.49 7.49 0 0 0 3.31.78l.345-.009a7.54 7.54 0 0 0 2.975-.771l10.87-5.44a1.45 1.45 0 0 0 .81-1.3 1.46 1.46 0 0 0-2.11-1.31l-6.55 3.27a5.05 5.05 0 0 1-.84.33 2.6 2.6 0 0 1-1.05.23h-5.45a1 1 0 0 1 0-2h5a3 3 0 0 0 .73-.05.54.54 0 0 0 .27-.46.56.56 0 0 0-.3-.49l-2.8-1.44a5.39 5.39 0 0 0-2.4-.56l-.311.01a5.4 5.4 0 0 0-2.089.56l-2.65 1.32a1 1 0 0 1-.45.11h-4a1 1 0 0 1 0-2h3.76l2.45-1.22a7.15 7.15 0 0 1 1.29-.49zm8.49-3.145a6 6 0 0 0-6.2 2.875 7.14 7.14 0 0 1 3 .76l2.8 1.39a2.54 2.54 0 0 1 1.34 1.74l3.93-1.97a6 6 0 0 0-4.87-4.795zm.72-7.825a.68.68 0 0 1 .21.32c.042.116.069.237.08.36a2 2 0 1 1-3.95-.43c.187.043.378.066.57.07.175.003.35-.014.52-.05l2-.41a.71.71 0 0 1 .57.14z"/></g></svg>
