<svg focusable="false" xmlns="http://www.w3.org/2000/svg" width="40" height="40" viewBox="0 0 40 40"><title>support-2-40</title><g fill="none" fill-rule="evenodd"><path d="M0 0h40v40H0z"/><path fill="var(--ukg_sys_color_featureIcon_light, #30CEBB)" fill-rule="nonzero" d="M21 30a2 2 0 1 1 0 4h-2a2 2 0 1 1 0-4zm-8.08-13v8h-2.9v-8h2.9zm17.1 0v8H26.9v-8h3.12zM13.48 9.46a9.91 9.91 0 0 1 13.07 0l-.95.95a2 2 0 0 1-2.38.37 7 7 0 0 0-6.41 0 2 2 0 0 1-2.38-.37z"/><path fill="var(--ukg_sys_color_featureIcon_dark, #005151)" fill-rule="nonzero" d="M31 16a11 11 0 0 0-21.9 0H9a3 3 0 0 0-3 3v4a3 3 0 0 0 3 3v1a6 6 0 0 0 6 6h2.27a2 2 0 0 1 0-2H15a4 4 0 0 1-4-4v-1h1.2a3 3 0 0 0 2.8 2h10a3 3 0 0 0 2.81-2H31a3 3 0 0 0 3-3v-4a3 3 0 0 0-3-3zm-19 3.79V24H9a1 1 0 0 1-1-1v-4a1 1 0 0 1 1-1h3v1.79zM20 26a6 6 0 0 1-5.74-7.75h2.24a3.5 3.5 0 0 0 3.5-3.5 3.5 3.5 0 0 0 3.5 3.5h2.23A5.93 5.93 0 0 1 26 20a6 6 0 0 1-6 6zm7-10a8 8 0 0 0-13.87 0h-2A9 9 0 0 1 29 16h-2zm5 7a1 1 0 0 1-1 1h-3v-6h3a1 1 0 0 1 1 1v4z"/></g></svg>
