<svg focusable="false" xmlns="http://www.w3.org/2000/svg" width="40" height="40" viewBox="0 0 40 40"><title>support-person-2-40</title><g fill="none" fill-rule="evenodd"><path d="M0 0h40v40H0z"/><path fill="var(--ukg_sys_color_featureIcon_light, #30CEBB)" fill-rule="nonzero" d="M11.077 23.02v7.46l-5 2.54v-10h5zm14.6-6a7 7 0 0 1 3.4 5.51l-6.07 3.02V24a1.52 1.52 0 0 0-.79-.93l-2.79-1.4a6.27 6.27 0 0 0-4.09-.54 7 7 0 0 1 3.14-4.11 3.73 3.73 0 0 0 7.2 0zm-5.84-.65a6.91 6.91 0 0 1 4.49 0 .31.31 0 0 0-.05.1 2.25 2.25 0 0 1-4.41 0c0-.03-.03-.1-.03-.1z"/><path fill="var(--ukg_sys_color_featureIcon_dark, #005151)" fill-rule="nonzero" d="M32.437 21.55a3.48 3.48 0 0 0-2.59-.42 8 8 0 0 0-15.27-.82 7.15 7.15 0 0 0-1.29.49l-2.45 1.22h-3.76a1 1 0 0 0 0 2h4a1 1 0 0 0 .45-.11l2.65-1.32a5.39 5.39 0 0 1 4.8-.01l2.8 1.44a.56.56 0 0 1 .3.49.54.54 0 0 1-.27.46 3 3 0 0 1-.73.05h-5a1 1 0 0 0 0 2h5.45a2.6 2.6 0 0 0 1.05-.23c.29-.085.57-.195.84-.33l6.55-3.27a1.46 1.46 0 0 1 2.11 1.31 1.45 1.45 0 0 1-.81 1.3l-10.87 5.44a7.54 7.54 0 0 1-3.32.78 7.49 7.49 0 0 1-3.31-.78l-2.22-1.11a1 1 0 0 0-.9 0l-4 2a1 1 0 0 0 .43 1.89 1 1 0 0 0 .45-.1l3.55-1.78 1.78.89a9.571 9.571 0 0 0 4.22.99 9.491 9.491 0 0 0 4.22-1l10.88-5.43a3.46 3.46 0 0 0 .27-6l-.01-.04zm-9.37-4.385a6 6 0 0 1 4.87 4.795l-3.93 1.97a2.54 2.54 0 0 0-1.34-1.74l-2.8-1.39a7.14 7.14 0 0 0-3-.76 6 6 0 0 1 6.2-2.875zm-.99-11.122a4 4 0 0 1 3.55 2.157l.49.982.198.4a820.858 820.858 0 0 1 1.428 2.897l.03.063c.168.326.149.708-.046 1.008a1 1 0 0 1-.85.47h-9.6a1 1 0 0 1-.85-.47 1 1 0 0 1-.05-1l.004-.008.03-.063c.151-.306.77-1.568 1.429-2.897l.198-.4.49-.982a4 4 0 0 1 3.55-2.157zm0 1.977-.008.141a1.25 1.25 0 0 1-1.242 1.109h-.6a2.09 2.09 0 0 0-.15.75 2 2 0 1 0 4 0 2 2 0 0 0-.17-.75h-.58a1.25 1.25 0 0 1-1.25-1.25z"/></g></svg>
