<svg focusable="false" xmlns="http://www.w3.org/2000/svg" width="40" height="40" viewBox="0 0 40 40"><title>survey-customize-40</title><g fill="none" fill-rule="evenodd"><path d="M0 0h40v40H0z"/><path fill="var(--ukg_sys_color_featureIcon_light, #30CEBB)" fill-rule="nonzero" d="M17 25v4h-4v-4h4zm0-7v4h-4v-4h4zm0-7v4h-4v-4h4z"/><path fill="var(--ukg_sys_color_featureIcon_dark, #005151)" fill-rule="nonzero" d="M16.47 24.47a.75.75 0 0 1 1.06 1.06l-2 2a.75.75 0 0 1-1.06-1.06zM23 15a1 1 0 0 1 0 2h-3a1 1 0 0 1 0-2zm-6.53-4.53a.75.75 0 0 1 1.06 1.06l-2 2a.75.75 0 0 1-1.06-1.06zM26 11a1 1 0 0 1 0 2h-6a1 1 0 0 1 0-2zm-6 12.77-1 4a1 1 0 0 0 .26.95A1 1 0 0 0 20 29a1 1 0 0 0 .24 0l4-1a1 1 0 0 0 .47-.26l11-11a1 1 0 0 0 0-1.42l-3-3A1 1 0 0 0 32 12V7a1 1 0 0 0-1-1H9a1 1 0 0 0-1 1v26a1 1 0 0 0 1 1h22a1 1 0 0 0 1-1v-8a1 1 0 0 0-2 0v7H10V8h20v5.59L24.59 19H20a1 1 0 0 0 0 2h2.59l-2.31 2.3a1 1 0 0 0-.28.47zm1.87.75L32 14.41 33.59 16l-10.1 10.1-2.12.53.5-2.11z"/></g></svg>
