<svg focusable="false" xmlns="http://www.w3.org/2000/svg" width="40" height="40" viewBox="0 0 40 40"><title>survey-40</title><g fill="none" fill-rule="evenodd"><path d="M0 0h40v40H0z"/><path fill="var(--ukg_sys_color_featureIcon_light, #30CEBB)" fill-rule="nonzero" d="M17 25v4h-4v-4h4zm0-7v4h-4v-4h4zm0-7v4h-4v-4h4z"/><path fill="var(--ukg_sys_color_featureIcon_dark, #005151)" fill-rule="nonzero" d="M31 6a1 1 0 0 1 1 1v19a1 1 0 0 1-2 0V8H10v24h20v-2a1 1 0 0 1 2 0v3a1 1 0 0 1-1 1H9a1 1 0 0 1-1-1V7a1 1 0 0 1 1-1zm-5 21a1 1 0 0 1 0 2h-6a1 1 0 0 1 0-2zm-9.53-2.53a.75.75 0 0 1 1.06 1.06l-2 2a.75.75 0 0 1-1.06-1.06zM23 23a1 1 0 0 1 0 2h-3a1 1 0 0 1 0-2zm3-4a1 1 0 0 1 0 2h-6a1 1 0 0 1 0-2zm-3-4a1 1 0 0 1 0 2h-3a1 1 0 0 1 0-2zm-6.53-4.53a.75.75 0 0 1 1.06 1.06l-2 2a.75.75 0 0 1-1.06-1.06zM26 11a1 1 0 0 1 0 2h-6a1 1 0 0 1 0-2z"/></g></svg>
