<svg focusable="false" xmlns="http://www.w3.org/2000/svg" width="40" height="40" viewBox="0 0 40 40"><title>survey-report-40</title><g fill="none" fill-rule="evenodd"><path d="M0 0h40v40H0z"/><path fill="var(--ukg_sys_color_featureIcon_light, #30CEBB)" fill-rule="nonzero" d="M15 25v4h-4v-4h4zm0-7v4h-4v-4h4zm0-7v4h-4v-4h4z"/><path fill="var(--ukg_sys_color_featureIcon_dark, #005151)" fill-rule="nonzero" d="M14.47 24.47a.75.75 0 0 1 1.06 1.06l-2 2a.75.75 0 0 1-1.06-1.06zM21 15a1 1 0 0 1 0 2h-3a1 1 0 0 1 0-2zm-6.53-4.53a.75.75 0 0 1 1.06 1.06l-2 2a.75.75 0 0 1-1.06-1.06zM24 11a1 1 0 0 1 0 2h-6a1 1 0 0 1 0-2zm8 15a6 6 0 0 0-2 .35V25a1 1 0 0 0-2 0v2.54A6 6 0 0 0 26 32H8V8h20v5.59L22.59 19H18a1 1 0 0 0 0 2h2.59l-2.31 2.3a1 1 0 0 0-.26.47l-1 4a1 1 0 0 0 .26.95A1 1 0 0 0 18 29a1 1 0 0 0 .24 0l4-1a1 1 0 0 0 .47-.26l11-11a1 1 0 0 0 0-1.42l-3-3A1 1 0 0 0 30 12V7a1 1 0 0 0-1-1H7a1 1 0 0 0-1 1v26a1 1 0 0 0 1 1h19.35A6 6 0 1 0 32 26zm-2-11.59L31.59 16l-10.1 10.1-2.12.53.52-2.11L30 14.41zm5.62 17-2 3a.75.75 0 0 1-.6.31.75.75 0 0 1-.67-.41l-1.42-2.85-1.29 1.93a.75.75 0 0 1-1.04.2.75.75 0 0 1-.2-1l2-3a.75.75 0 0 1 1-.2.72.72 0 0 1 .22.24l1.45 2.89 1.29-1.93a.75.75 0 0 1 1.24.84l.02-.02z"/></g></svg>
