<svg focusable="false" xmlns="http://www.w3.org/2000/svg" width="40" height="40" viewBox="0 0 40 40"><title>table-tax-40</title><g fill="none" fill-rule="evenodd"><path d="M0 0h40v40H0z"/><path fill="var(--ukg_sys_color_featureIcon_light, #30CEBB)" fill-rule="nonzero" d="M20 21a1 1 0 0 1 0 2h-3a1 1 0 0 1 0-2h3zm0-4a1 1 0 0 1 0 2h-3a1 1 0 0 1 0-2h3zm0-4a1 1 0 0 1 0 2h-3a1 1 0 0 1 0-2h3zm10-8v6H4V5h26z"/><path fill="var(--ukg_sys_color_featureIcon_dark, #005151)" fill-rule="nonzero" d="M30 4a1 1 0 0 1 1 1v12a1 1 0 0 1-2 0V6H5v21h17.07A8 8 0 0 1 30 20a8 8 0 0 1 7 11.81 1.012 1.012 0 0 1-1.76-1 6 6 0 1 0-2.43 2.43 1.012 1.012 0 1 1 1 1.76 8 8 0 0 1-11.74-6H4a1 1 0 0 1-1-1V5a1 1 0 0 1 1-1zm3.012 20.988a.75.75 0 0 1 .018 1.042l-5 5a.74.74 0 0 1-.53.22.75.75 0 0 1-.53-1.28l5-5a.75.75 0 0 1 1.042.018zm-.302 4.302c.183.192.286.445.29.71a1 1 0 0 1-2 0 1 1 0 0 1 .62-.92 1 1 0 0 1 1.09.21zM28 25a1 1 0 1 1 0 2 1 1 0 0 1 0-2zm-15-4a1 1 0 0 1 0 2H9a1 1 0 0 1 0-2h4zm0-4a1 1 0 0 1 0 2H9a1 1 0 0 1 0-2h4zm12 0a1 1 0 0 1 0 2h-1a1 1 0 0 1 0-2h1zm-12-4a1 1 0 0 1 0 2H9a1 1 0 0 1 0-2h4zm12 0a1 1 0 0 1 0 2h-1a1 1 0 0 1 0-2h1z"/></g></svg>
