<svg focusable="false" xmlns="http://www.w3.org/2000/svg" width="24" height="24" viewBox="0 0 24 24"><title>Icons / Utility / table-edit</title><g fill="none" fill-rule="evenodd"><path d="M0 0h24v24H0z"/><path fill="currentColor" fill-rule="nonzero" d="m19.12 14.767 2.124 2.121-5.98 5.975a.511.511 0 0 1-.35.15H13.5a.496.496 0 0 1-.501-.5V21.1c0-.13.05-.26.15-.35l5.97-5.984zM20 2a2 2 0 0 1 2 2v6.24a2.356 2.356 0 0 0-1.875.68l-.081.08H20v-1h-7v4h4l-2 2h-2v2l-2 2v2H4a2 2 0 0 1-2-2V4a2 2 0 0 1 2-2h16zm-9 14H4v4h7v-4zm10.79-3.487c.265 0 .519.105.706.292l.711.71a.998.998 0 0 1 0 1.412l-.962.96-2.123-2.121.961-.96a.998.998 0 0 1 .707-.293zM11 10H4v4h7v-4zm9-6h-7v4h7V4zm-9 0H4v4h7V4z"/></g></svg>
