<svg focusable="false" xmlns="http://www.w3.org/2000/svg" width="40" height="40" viewBox="0 0 40 40"><title>talent-40</title><g fill="none" fill-rule="evenodd"><path d="M0 0h40v40H0z"/><path fill="var(--ukg_sys_color_featureIcon_light, #30CEBB)" fill-rule="nonzero" d="M37.001 34.999V36h-14v-1.001c0-2.548 1.36-4.78 3.391-6.005a3.76 3.76 0 0 0 3.61 2.752 3.76 3.76 0 0 0 3.603-2.754 7.002 7.002 0 0 1 3.396 6.007zm-7-7.007c.778 0 1.527.127 2.226.362l-.026.088a2.25 2.25 0 0 1-4.4 0 .769.769 0 0 0-.025-.088A6.959 6.959 0 0 1 30 27.992zm-14.5-14.605a4.422 4.422 0 0 1 4.42 4.425 4.422 4.422 0 0 1-4.42 4.424 4.422 4.422 0 0 1-4.42-4.424 4.422 4.422 0 0 1 4.42-4.425z"/><path fill="var(--ukg_sys_color_featureIcon_dark, #005151)" fill-rule="nonzero" d="M30.001 26.991c4.418 0 8 3.585 8 8.008a1 1 0 1 1-2 0 6.003 6.003 0 0 0-6-6.006c-3.314 0-6 2.689-6 6.006a1 1 0 1 1-2 0c0-4.423 3.582-8.008 8-8.008zM14.651 4.468a1 1 0 0 1 1.37-.32.89.89 0 0 1 .32.32l3.98 6.477 6.95 1.952a1 1 0 0 1 .52 1.581l-4.42 5.716a1 1 0 0 1-.79.39 1 1 0 0 1-.61-.21 1.002 1.002 0 0 1-.19-1.401l3.53-4.585-5.9-1.661a1 1 0 0 1-.59-.44l-3.32-5.406-3.39 5.405a1 1 0 0 1-.59.44l-5.9 1.662 3.53 4.585a1 1 0 0 1 .2.66l-.34 6.737 6-2.812a1 1 0 0 1 .9 0l6 2.812-.16-3.193a1.002 1.002 0 1 1 2-.11l.25 4.875a1.001 1.001 0 0 1-1 1.051.94.94 0 0 1-.43-.1l-7.07-3.333-7.07 3.293a1 1 0 0 1-1.43-.951l.41-8.008-4.2-5.456a1.002 1.002 0 0 1 .52-1.581l6.92-1.932zm16.65 13.754c.128-.226.197-.48.2-.74a1.5 1.5 0 1 0-3 0c.003.26.072.514.2.74a4.004 4.004 0 0 0 1.3 7.79 4.004 4.004 0 0 0 1.3-7.79zm-1.3 5.766c-1.104 0-2-.896-2-2.002a1.863 1.863 0 0 1 .15-.75h.11a2 2 0 0 0 1.74-1.002 2 2 0 0 0 1.74 1.001h.11c.102.237.153.493.15.751a2.001 2.001 0 0 1-2 2.002z"/></g></svg>
