<svg focusable="false" xmlns="http://www.w3.org/2000/svg" width="40" height="40" viewBox="0 0 40 40"><title>target-40</title><g fill="none" fill-rule="evenodd"><path d="M0 0h40v40H0z"/><path fill="var(--ukg_sys_color_featureIcon_light, #30CEBB)" fill-rule="nonzero" d="M19.997 14c3.313 0 6 2.685 6 5.997a5.999 5.999 0 0 1-6 5.997c-3.314 0-6-2.685-6-5.997a5.999 5.999 0 0 1 6-5.997zm10-8.996V10h5v2l-3.94 2.938h-6V8.882l3.94-3.878h1z"/><path fill="var(--ukg_sys_color_featureIcon_dark, #005151)" fill-rule="nonzero" d="M34.497 15.979a1 1 0 0 0-.78 1.18c.191.933.288 1.885.29 2.838a14.055 14.055 0 0 1-9.988 13.5 14.063 14.063 0 0 1-15.8-5.7 14.049 14.049 0 0 1 .94-16.764 14.064 14.064 0 0 1 16.338-3.9l-1.2 1.15a1 1 0 0 0-.29.709v.78a11.003 11.003 0 0 0-12.612 3.402 10.991 10.991 0 0 0-.466 13.05 11.003 11.003 0 0 0 20.078-6.227v-1.1a1.005 1.005 0 0 0-2 .2v.9a9.002 9.002 0 0 1-16.632 4.83 8.993 8.993 0 0 1 .964-10.81 9.003 9.003 0 0 1 10.668-2.016v2.618l-4.72 4.768a1 1 0 0 0 0 1.41 1 1 0 0 0 1.41 0l4.71-4.768h5.59a1 1 0 0 0 .71-.29l4-3.998a1.003 1.003 0 1 0-1.42-1.42l-3.7 3.699h-4.58V9.412l3.7-3.699a1.003 1.003 0 1 0-1.42-1.419l-1.31 1.32A16.005 16.005 0 0 0 7.559 9.95a15.988 15.988 0 0 0-.179 19.887 16.004 16.004 0 0 0 19.337 4.684 15.991 15.991 0 0 0 8.95-17.763 1 1 0 0 0-1.17-.78z"/></g></svg>
