<svg focusable="false" xmlns="http://www.w3.org/2000/svg" width="40" height="40" viewBox="0 0 40 40"><title>task-40</title><g fill="none" fill-rule="evenodd"><path d="M0 0h40v40H0z"/><path fill="var(--ukg_sys_color_featureIcon_light, #30CEBB)" fill-rule="nonzero" d="m30 17-3.23 3.23-2 2 .71.71L22 26.42l-.58-.82L20 27l-7.38-7.38a2.121 2.121 0 0 1 3-3L20 21l9.8-9.8A2 2 0 0 0 28 10H10a2 2 0 0 0-2 2v18a2 2 0 0 0 2 2h18a2 2 0 0 0 2-2v-8h1v-6l-1 1z"/><path fill="var(--ukg_sys_color_featureIcon_dark, #005151)" fill-rule="nonzero" d="M23.56 22.06a1 1 0 1 0 1.41 1.42l9.14-9.14a3.14 3.14 0 0 0 0-4.42 3.13 3.13 0 0 0-4.2-.17A2.92 2.92 0 0 0 28 9H10a3 3 0 0 0-3 3v18a3 3 0 0 0 3 3h18a3 3 0 0 0 3-3v-8a1 1 0 0 0-2 0v8a1 1 0 0 1-1 1H10a1 1 0 0 1-1-1V12a1 1 0 0 1 1-1h18a1 1 0 0 1 .48.14L20 19.6l-3.67-3.67a3.12 3.12 0 1 0-4.41 4.41l7.37 7.38A1 1 0 0 0 20 28a1 1 0 0 0 .71-.29l1.41-1.42a1 1 0 1 0-1.41-1.41l-.71.72-6.67-6.67a1.15 1.15 0 0 1-.33-.8 1.13 1.13 0 0 1 1.92-.79l4.38 4.38a1 1 0 0 0 1.41 0l10.4-10.38a1.12 1.12 0 1 1 1.58 1.58l-9.13 9.14z"/></g></svg>
