<svg focusable="false" xmlns="http://www.w3.org/2000/svg" width="24" height="24" viewBox="0 0 24 24"><title>Icons / Utility / task-survey</title><g fill="none" fill-rule="evenodd"><path d="M0 0h24v24H0z"/><path fill="currentColor" fill-rule="nonzero" d="M19 2h-4.18C14.4.84 13.3 0 12 0c-1.3 0-2.4.84-2.82 2H5c-1.1 0-2 .9-2 2v16c0 1.1.9 2 2 2h14c1.1 0 2-.9 2-2V4c0-1.1-.9-2-2-2zm-7 0c.55 0 1 .45 1 1s-.45 1-1 1-1-.45-1-1 .45-1 1-1zm6 18H6c-.55 0-1-.45-1-1V5c0-.55.45-1 1-1h1v1c0 1.1.9 2 2 2h6c1.1 0 2-.9 2-2V4h1c.55 0 1 .45 1 1v14c0 .55-.45 1-1 1zm-6-10h4a1 1 0 0 1 0 2h-4a1 1 0 0 1 0-2zm-3.5-.5a1.5 1.5 0 1 1 0 3 1.5 1.5 0 0 1 0-3zm0 5a1.5 1.5 0 1 1 0 3 1.5 1.5 0 0 1 0-3zm3.5.5h4a1 1 0 0 1 0 2h-4a1 1 0 0 1 0-2z"/></g></svg>
