<svg focusable="false" xmlns="http://www.w3.org/2000/svg" width="24" height="24" viewBox="0 0 24 24"><title>Icons / Utility / time</title><g fill="none" fill-rule="evenodd"><path d="M0 0h24v24H0z"/><path fill="currentColor" fill-rule="nonzero" d="M11.99 2C6.47 2 2 6.48 2 12s4.47 10 9.99 10C17.52 22 22 17.52 22 12S17.52 2 11.99 2zM12 20c-4.42 0-8-3.58-8-8s3.58-8 8-8 8 3.58 8 8-3.58 8-8 8zM10.99 7.75v4.68c0 .35.19.68.49.86l4.49 2.97c.36.21.82.09 1.03-.26.21-.36.09-.82-.26-1.03l-4.25-2.83v-4.4c0-.4-.33-.74-.75-.74-.41 0-.75.34-.75.75z"/></g></svg>
