<svg focusable="false" xmlns="http://www.w3.org/2000/svg" width="40" height="40" viewBox="0 0 40 40"><title>timesheet-person-40</title><g fill="none" fill-rule="evenodd"><path d="M0 0h40v40H0z"/><path fill="var(--ukg_sys_color_featureIcon_light, #30CEBB)" fill-rule="nonzero" d="M27.4 29.982a3.73 3.73 0 0 0 7.2 0l.223.139a7 7 0 0 1 3.173 5.598l.005.263v1H24v-1a7 7 0 0 1 3.4-6zm3.6-1a7.27 7.27 0 0 1 2.17.34.54.54 0 0 0 0 .11 2.25 2.25 0 0 1-4.41 0v-.08a6.92 6.92 0 0 1 2.24-.37zm-15-3a1 1 0 1 1 0 2h-6a1 1 0 0 1 0-2zm8-4a1 1 0 1 1 0 2h-4a1 1 0 0 1 0-2zm-8-4a1 1 0 1 1 0 2h-6a1 1 0 0 1 0-2zm10-4a1 1 0 1 1 0 2h-6a1 1 0 0 1 0-2zm5-8v6H5v-6h26z"/><path fill="var(--ukg_sys_color_featureIcon_dark, #005151)" fill-rule="nonzero" d="M31 4.982a1 1 0 0 1 1 1v10a1 1 0 1 1-2 0v-9H6v24h18.76a8 8 0 0 1 6.24-3 8 8 0 0 1 8 8 1 1 0 1 1-2 0 6 6 0 1 0-12 0 1 1 0 1 1-2 0 7.9 7.9 0 0 1 .59-3H5a1 1 0 0 1-1-1v-26a1 1 0 0 1 1-1zm-7 21a1 1 0 1 1 0 2h-4a1 1 0 0 1 0-2zm-8-4a1 1 0 1 1 0 2h-6a1 1 0 0 1 0-2zm10-4a1 1 0 1 1 0 2h-6a1 1 0 0 1 0-2zm-10-4a1 1 0 1 1 0 2h-6a1 1 0 0 1 0-2zm11 8.73a1 1 0 0 0 0 .17v3.1a1 1 0 0 0 1 1h6a1 1 0 0 0 1-1v-3.19a4 4 0 1 0-8-.08zm5.48-1.06a2 2 0 1 1-3.48 1.33h1.4a2.32 2.32 0 0 0 2.09-1.33h-.01z"/></g></svg>
