<svg focusable="false" xmlns="http://www.w3.org/2000/svg" width="40" height="40" viewBox="0 0 40 40"><title>timesheet-clock-people-40</title><g fill="none" fill-rule="evenodd"><path d="M0 0h40v40H0z"/><path fill="var(--ukg_sys_color_featureIcon_light, #30CEBB)" fill-rule="nonzero" d="M19.713 30.672a8 8 0 0 1 8.598 1.31c-.08.08-.02.07.09 0a3.73 3.73 0 0 0 7.2 0 7 7 0 0 1 3.4 6v1H16v-1h-1a8 8 0 0 1 4.712-7.31zm9.998.69a7 7 0 0 1 4.48 0c-.05.04-.05.11-.05.11a2.24 2.24 0 0 1-4.38 0v-.12zM16 24.982a1 1 0 1 1 0 2h-5a1 1 0 0 1 0-2zm1-8a1 1 0 1 1 0 2h-6a1 1 0 0 1 0-2zm10-4a1 1 0 1 1 0 2h-6a1 1 0 0 1 0-2zm5-7.93v5.93H8.14a5.14 5.14 0 0 0 4-5v-.93H32z"/><path fill="var(--ukg_sys_color_featureIcon_dark, #005151)" fill-rule="nonzero" d="M6 13.982a1 1 0 0 1 1 1v15h16a6.86 6.86 0 0 1 1 .07 1 1 0 0 1 .87 1.14 1 1 0 0 1-1 .79h-.15a5.55 5.55 0 0 0-.72 0 6 6 0 0 0-6 6 1 1 0 1 1-2 0 8 8 0 0 1 2.75-6H6a1 1 0 0 1-1-1v-16a1 1 0 0 1 1-1zm26 16a8 8 0 0 1 8 8 1 1 0 1 1-2 0 6 6 0 1 0-12 0 1 1 0 1 1-2 0 8 8 0 0 1 8-8zm-11.767-7.994a4.07 4.07 0 0 1 5.388-.006H26a1 1 0 0 1 .75 1.65 4.07 4.07 0 1 1-6.518-1.644zM32 19.032a1.5 1.5 0 0 1 1.5 1.5 1.45 1.45 0 0 1-.18.69 4 4 0 1 1-2.65 0 1.56 1.56 0 0 1-.17-.69 1.5 1.5 0 0 1 1.5-1.5zm-10.22 5.13a.71.71 0 0 0-.57.14.68.68 0 0 0-.21.32 2.2 2.2 0 0 0 0 .36 2 2 0 0 0 2 2 2 2 0 0 0 1.87-2.43 2.62 2.62 0 0 1-.57.07 2.29 2.29 0 0 1-.52-.05zm10.22-.93a2 2 0 0 1-1.74 1h-.11a1.86 1.86 0 0 0-.15.75 2 2 0 1 0 4 0 1.86 1.86 0 0 0-.15-.75h-.11a2 2 0 0 1-1.74-1zM13 5.982h18v9a1 1 0 0 0 2 0v-10a1 1 0 0 0-1-1H12.65a6 6 0 1 0 .35 2zm4 15a1 1 0 1 1 0 2h-6a1 1 0 0 1 0-2zm10-4a1 1 0 1 1 0 2h-6a1 1 0 0 1 0-2zm-10-4a1 1 0 1 1 0 2h-6a1 1 0 0 1 0-2zM7 2.232a.75.75 0 0 1 .75.75v2.69l1.78 1.78a.75.75 0 0 1-1.06 1.06l-2-2a.78.78 0 0 1-.22-.53v-3a.75.75 0 0 1 .75-.75z"/></g></svg>
