<svg focusable="false" xmlns="http://www.w3.org/2000/svg" width="40" height="40" viewBox="0 0 40 40"><title>timesheet-clock-40</title><g fill="none" fill-rule="evenodd"><path d="M0 0h40v40H0z"/><path fill="var(--ukg_sys_color_featureIcon_light, #30CEBB)" fill-rule="nonzero" d="M17 25.982a1 1 0 1 1 0 2h-6a1 1 0 0 1 0-2h6zm10-4a1 1 0 1 1 0 2h-6a1 1 0 0 1 0-2h6zm-10-4a1 1 0 1 1 0 2h-6a1 1 0 0 1 0-2h6zm10-4a1 1 0 1 1 0 2h-6a1 1 0 0 1 0-2h6zm5-7v5H7v-5h25z"/><path fill="var(--ukg_sys_color_featureIcon_dark, #005151)" fill-rule="nonzero" d="M23 25.982a1 1 0 1 1 0 2h-2a1 1 0 0 1 0-2zm-6-4a1 1 0 1 1 0 2h-6a1 1 0 0 1 0-2zm10-4a1 1 0 1 1 0 2h-6a1 1 0 0 1 0-2zm-10-4a1 1 0 1 1 0 2h-6a1 1 0 0 1 0-2zm14 11a6 6 0 0 0-6 6H7v-24h24v15a1 1 0 0 0 2 0v-16a1 1 0 0 0-1-1H6a1 1 0 0 0-1 1v26a1 1 0 0 0 1 1h19.35a6 6 0 1 0 5.65-8zm2.53 8.53a.75.75 0 0 1-1.06 0l-2-2a.78.78 0 0 1-.22-.53v-3a.75.75 0 0 1 1.5 0v2.69l1.78 1.78a.75.75 0 0 1 0 1.06z"/></g></svg>
