<svg focusable="false" xmlns="http://www.w3.org/2000/svg" width="40" height="40" viewBox="0 0 40 40"><title>turtle-40</title><g fill="none" fill-rule="evenodd"><path d="M0 0h40v40H0z"/><path fill="var(--ukg_sys_color_featureIcon_light, #30CEBB)" fill-rule="nonzero" d="m22.7 25.76 2.61 2.56a7.35 7.35 0 0 1-6.58 1.39l.81-3.1 3.16-.85zm-6.92-1.85 2.31 2.32-.8 2.97a7.15 7.15 0 0 1-1.89-1.36l-1.26-1.26a7.46 7.46 0 0 1-1.36-1.87l3-.8zm11.95-3.2.085.346a7.38 7.38 0 0 1 .065 2.824 10 10 0 0 1-1.49 3.41l-2.6-2.61.84-3.16 3.1-.81zm-6.88-1.87 2.31 2.31-.84 3.17-3.17.84-2.31-2.31.84-3.17 3.17-.84zm-7.2-2.12 2.59 2.58-.85 3.16-3.09.83-.04.01a7.35 7.35 0 0 1 1.39-6.58zm9.1-1.92a7.46 7.46 0 0 1 1.87 1.36l1.26 1.26a7.21 7.21 0 0 1 1.35 1.89l-3 .78-2.32-2.31zm-3.38-.8a7.74 7.74 0 0 1 1.92.3l-.83 3.09-3.16.84-2.58-2.58A7.3 7.3 0 0 1 19.37 14z"/><path fill="var(--ukg_sys_color_featureIcon_dark, #005151)" fill-rule="nonzero" d="M32.19 19.63a4.62 4.62 0 0 0-4-.83h-.1a8.42 8.42 0 0 0-1.53-2.11l-1.27-1.27A8.25 8.25 0 0 0 20.13 13 4 4 0 0 1 24 10h5.76a.24.24 0 0 1 .24.24.23.23 0 0 1-.13.21l-3.32 1.66a1 1 0 0 0 .9 1.78l3.31-1.65a2.24 2.24 0 0 0-1-4.24H24a6 6 0 0 0-5.93 5.11 8.76 8.76 0 0 0-1.62.42l-.19-.19a7.54 7.54 0 0 1-1.61-2.59A4.51 4.51 0 0 0 10.5 8H7a1 1 0 0 0-1 1v3.5a4.51 4.51 0 0 0 2.75 4.15 7.64 7.64 0 0 1 2.59 1.61l.19.19a8.76 8.76 0 0 0-.42 1.62A6 6 0 0 0 6 26v5.76a2.24 2.24 0 0 0 4.24 1l1.65-3.31a1 1 0 1 0-1.78-.9l-1.66 3.32a.25.25 0 0 1-.45-.11V26a4 4 0 0 1 3-3.87 8.25 8.25 0 0 0 2.41 5.15l1.27 1.27a8.24 8.24 0 0 0 2.11 1.53v.09A4.66 4.66 0 0 0 21.31 36H25a1 1 0 0 0 1-1v-3a1 1 0 0 0-2 0v2h-2.69a2.64 2.64 0 0 1-2.1-1 2.61 2.61 0 0 1-.48-2.19 8.35 8.35 0 0 0 10.04-10.05 2.6 2.6 0 0 1 2.2.48 2.64 2.64 0 0 1 1 2.1V26H30a1 1 0 0 0 0 2h3a1 1 0 0 0 1-1v-3.69a4.61 4.61 0 0 0-1.81-3.68zM9.53 14.8A2.49 2.49 0 0 1 8 12.5V10h2.5a2.49 2.49 0 0 1 2.3 1.53 10.81 10.81 0 0 0 1.81 3 8 8 0 0 0-2.12 2.12 10.81 10.81 0 0 0-2.96-1.85zm15.6 12.34a6.37 6.37 0 0 1-9 0l-1.27-1.27a6.35 6.35 0 0 1-1.24-7.23v-.08a6.36 6.36 0 0 1 10.21-1.69l1.26 1.26a6.36 6.36 0 0 1 0 9l.04.01z"/></g></svg>
