<svg focusable="false" xmlns="http://www.w3.org/2000/svg" xmlns:xlink="http://www.w3.org/1999/xlink" width="72" height="24" viewBox="0 0 72 24"><title>UKG-teal-sm</title><defs><path id="a" d="M.085 0h14.489v22.358H.084z"/><path id="c" d="M.15 0h5.01v22.358H.15z"/><path id="e" d="M0 .008h5.292V5.3H0z"/><path id="g" d="M.142.037h21.206v14.799H.142z"/></defs><g fill="none" fill-rule="evenodd"><g transform="translate(33.388 1)"><mask id="b" fill="#fff"><use xlink:href="#a"/></mask><path fill="var(--ukg_sys_color_featureIcon_dark, #005151)" d="M12.07 22.358c-.65 0-1.3-.251-1.79-.753L.084 11.179 10.279.753A2.505 2.505 0 0 1 12.077 0a2.492 2.492 0 0 1 2.497 2.488c0 .637-.233 1.276-.714 1.767l-6.77 6.924 6.77 6.924c.482.492.714 1.132.714 1.77a2.488 2.488 0 0 1-2.504 2.485" mask="url(#b)"/></g><g transform="translate(27.955 1)"><mask id="d" fill="#fff"><use xlink:href="#c"/></mask><path fill="var(--ukg_sys_color_featureIcon_dark, #005151)" d="M2.655 22.358A2.504 2.504 0 0 1 .15 19.854V2.504a2.504 2.504 0 1 1 5.009 0v17.35a2.504 2.504 0 0 1-2.504 2.504" mask="url(#d)"/></g><path fill="var(--ukg_sys_color_featureIcon_dark, #005151)" d="M61.986 23.348c-6.47 0-11.444-4.365-11.444-11.166C50.542 6.072 54.812 1 61.986 1c2.045 0 4.221.528 5.974 1.574a2.505 2.505 0 0 1-1.268 4.655 2.624 2.624 0 0 1-1.3-.354c-.948-.529-2.1-.934-3.361-.934-3.938 0-6.358 2.686-6.358 6.241 0 3.793 2.672 6.226 6.358 6.226 1.319 0 2.9-.483 3.911-1.178v-2.289h-1.67a2.504 2.504 0 1 1 0-5.008h4.174a2.504 2.504 0 0 1 2.505 2.504v5.754a2.79 2.79 0 0 1-.836 1.986c-2.1 2.045-5 3.171-8.129 3.171"/><g transform="translate(1 1)"><mask id="f" fill="#fff"><use xlink:href="#e"/></mask><path fill="var(--ukg_sys_color_featureIcon_light, #30CEBB)" d="M5.292 2.654a2.646 2.646 0 1 1-5.292 0 2.646 2.646 0 0 1 5.292 0" mask="url(#f)"/></g><path fill="var(--ukg_sys_color_featureIcon_light, #30CEBB)" d="M22.49 3.653a2.646 2.646 0 1 1-5.293 0 2.646 2.646 0 0 1 5.293 0"/><g transform="translate(1 8.523)"><mask id="h" fill="#fff"><use xlink:href="#g"/></mask><path fill="var(--ukg_sys_color_featureIcon_dark, #005151)" d="M10.745 14.836C4.898 14.836.142 10.079.142 4.233V2.542a2.504 2.504 0 0 1 5.009 0v1.753c0 3.084 1.83 5.594 5.594 5.594 3.52 0 5.594-2.51 5.594-5.594V2.542a2.504 2.504 0 0 1 5.009 0v1.69c0 5.847-4.757 10.604-10.603 10.604" mask="url(#h)"/></g></g></svg>
