<svg focusable="false" xmlns="http://www.w3.org/2000/svg" xmlns:xlink="http://www.w3.org/1999/xlink" width="72" height="24" viewBox="0 0 72 24"><title>UKG-white-sm</title><defs><path id="a" d="M0 .008h5.292V5.3H0z"/></defs><g fill="none" fill-rule="evenodd"><path fill="#FFF" d="M45.458 23.358c-.65 0-1.3-.251-1.79-.753L33.472 12.18 43.667 1.753A2.505 2.505 0 0 1 45.465 1a2.492 2.492 0 0 1 2.497 2.489c0 .637-.233 1.275-.713 1.766l-6.771 6.924 6.77 6.924c.482.492.714 1.132.714 1.77a2.488 2.488 0 0 1-2.504 2.485m-14.848 0a2.504 2.504 0 0 1-2.505-2.504V3.504a2.504 2.504 0 1 1 5.01 0v17.35a2.504 2.504 0 0 1-2.505 2.504m31.376-.01c-6.47 0-11.444-4.365-11.444-11.166C50.542 6.072 54.812 1 61.986 1c2.045 0 4.221.528 5.973 1.574a2.505 2.505 0 0 1-1.267 4.655 2.623 2.623 0 0 1-1.3-.354c-.948-.529-2.1-.934-3.361-.934-3.938 0-6.358 2.686-6.358 6.241 0 3.793 2.672 6.226 6.358 6.226 1.319 0 2.9-.483 3.911-1.178v-2.289h-1.67a2.504 2.504 0 1 1 0-5.008h4.175a2.504 2.504 0 0 1 2.504 2.504v5.754a2.79 2.79 0 0 1-.836 1.986c-2.1 2.045-4.999 3.171-8.129 3.171"/><g transform="translate(1 1)"><mask id="b" fill="#fff"><use xlink:href="#a"/></mask><path fill="var(--ukg_sys_color_featureIcon_light, #30CEBB)" d="M5.292 2.654a2.646 2.646 0 1 1-5.292 0 2.646 2.646 0 0 1 5.292 0" mask="url(#b)"/></g><path fill="var(--ukg_sys_color_featureIcon_light, #30CEBB)" d="M22.49 3.653a2.646 2.646 0 1 1-5.293 0 2.646 2.646 0 0 1 5.293 0"/><path fill="#FFF" d="M11.745 23.358c-5.847 0-10.603-4.756-10.603-10.603v-1.69a2.504 2.504 0 0 1 5.009 0v1.752c0 3.085 1.83 5.595 5.594 5.595 3.52 0 5.594-2.51 5.594-5.595v-1.753a2.504 2.504 0 0 1 5.009 0v1.691c0 5.847-4.757 10.603-10.603 10.603"/></g></svg>
