<svg focusable="false" xmlns="http://www.w3.org/2000/svg" width="24" height="24" viewBox="0 0 24 24"><title>Icons / Utility / upload</title><g fill="none" fill-rule="evenodd"><path d="M0 0h24v24H0z"/><path fill="currentColor" fill-rule="nonzero" d="M12 4a7.49 7.49 0 0 1 7.35 6.04c2.6.18 4.65 2.32 4.65 4.96 0 2.76-2.24 5-5 5H6c-3.31 0-6-2.69-6-6 0-3.09 2.34-5.64 5.35-5.96A7.496 7.496 0 0 1 12 4zm0 2C9.94 6 8.08 7.14 7.13 8.97l-.5.95-1.07.11A3.973 3.973 0 0 0 2 14c0 2.21 1.79 4 4 4h13c1.65 0 3-1.35 3-3a2.98 2.98 0 0 0-2.78-2.96l-1.53-.11-.3-1.5A5.503 5.503 0 0 0 12 6zm.284 3.296.07.058 2.792 2.792a.5.5 0 0 1-.263.846l-.09.008L13 12.999V15a1 1 0 0 1-.883.993L12 16a1 1 0 0 1-.993-.883L11 15v-2H9.207a.5.5 0 0 1-.293-.095l-.06-.051a.5.5 0 0 1-.058-.638l.058-.07 2.792-2.792a.5.5 0 0 1 .638-.058z"/></g></svg>
