<svg focusable="false" xmlns="http://www.w3.org/2000/svg" width="40" height="40" viewBox="0 0 40 40"><title>vacation-40</title><g fill="none" fill-rule="evenodd"><path d="M0 0h40v40H0z"/><circle cx="27.001" cy="12.982" r="6" fill="var(--ukg_sys_color_featureIcon_light, #30CEBB)" fill-rule="nonzero"/><path fill="var(--ukg_sys_color_featureIcon_dark, #005151)" fill-rule="nonzero" d="M16.29 25.272a1.004 1.004 0 0 1 1.42 0l3.7 3.71H34a1 1 0 1 1 0 2h-1v2a1 1 0 1 1-2 0v-2h-9v2a1 1 0 1 1-2 0v-2.59l-3.71-3.7a1.004 1.004 0 0 1 0-1.42zM21 5.982a1 1 0 1 1 0 2 5 5 0 0 0-4.48 2.82 6.66 6.66 0 0 1 7.19 1.47 1 1 0 0 1 0 1.42 1 1 0 0 1-1.42 0 4.63 4.63 0 0 0-3.29-1.37 4.58 4.58 0 0 0-2.5.74l3.21 3.21a1 1 0 0 1 0 1.42 1 1 0 0 1-1.42 0L16 15.372a29.33 29.33 0 0 1-7.25 18.27 1 1 0 0 1-.75.34 1 1 0 0 1-.7-1.66 27.28 27.28 0 0 0 6.7-16.88l-2.29 2.25a1 1 0 0 1-1.42 0 1 1 0 0 1 0-1.42l3.21-3.21a4.58 4.58 0 0 0-2.5-.74 4.63 4.63 0 0 0-3.29 1.37 1.004 1.004 0 1 1-1.42-1.42 6.66 6.66 0 0 1 7.19-1.47A5 5 0 0 0 9 7.982a1 1 0 1 1 0-2 7 7 0 0 1 6 3.41 7 7 0 0 1 6-3.41zm2.47 15.47a.75.75 0 0 1 1.06 0l1.47 1.47 1.47-1.47a.75.75 0 0 1 1.06 1.06l-2 2a.75.75 0 0 1-1.06 0l-2-2a.75.75 0 0 1 0-1.06zm10-6a.75.75 0 0 1 1.06 1.06l-2 2a.75.75 0 0 1-1.06 0l-2-2a.75.75 0 0 1 1.06-1.06l1.47 1.47z"/></g></svg>
