<svg focusable="false" xmlns="http://www.w3.org/2000/svg" width="40" height="40" viewBox="0 0 40 40"><title>video-player-40</title><g fill="none" fill-rule="evenodd"><path d="M0 0h40v40H0z"/><path fill="var(--ukg_sys_color_featureIcon_light, #30CEBB)" fill-rule="nonzero" d="M33 27v2a4 4 0 0 1-4 4H11a4 4 0 0 1-4-4v-2h26zM29 7a4 4 0 0 1 4 4v2H7v-2a4 4 0 0 1 4-4z"/><path fill="var(--ukg_sys_color_featureIcon_dark, #005151)" fill-rule="nonzero" d="M29 6a5 5 0 0 1 5 5v13a1 1 0 0 1-2 0V11a3 3 0 0 0-3-3H11a3 3 0 0 0-3 3v18a3 3 0 0 0 3 3h18a3 3 0 0 0 3-3v-1a1 1 0 0 1 2 0v1a5 5 0 0 1-5 5H11a5 5 0 0 1-5-5V11a5 5 0 0 1 5-5zM17.45 16.1a1 1 0 0 1 1 0l6 3a1 1 0 0 1 .55.9 1 1 0 0 1-.55.89l-6 3a1 1 0 0 1-.98-.04A1 1 0 0 1 17 23v-6a1 1 0 0 1 .45-.9z"/></g></svg>
