<svg focusable="false" xmlns="http://www.w3.org/2000/svg" width="24" height="24" viewBox="0 0 24 24"><title>Icons / Navigation / view-list</title><g fill="none" fill-rule="evenodd"><path d="M0 0h24v24H0z"/><path fill="currentColor" fill-rule="nonzero" d="M20 17c.55 0 1 .45 1 1 0 .51-.388.935-.884.993L20 19H4c-.55 0-1-.45-1-1 0-.51.388-.935.884-.993L4 17h16zm0-4c.55 0 1 .45 1 1 0 .51-.388.935-.884.993L20 15H4c-.55 0-1-.45-1-1 0-.51.388-.935.884-.993L4 13h16zM4 9h16c.55 0 1 .45 1 1 0 .51-.388.935-.884.993L20 11H4c-.55 0-1-.45-1-1 0-.51.388-.935.884-.993L4 9h16zm16-4c.55 0 1 .45 1 1s-.45 1-1 1H4c-.55 0-1-.45-1-1s.45-1 1-1z"/></g></svg>
