<svg focusable="false" xmlns="http://www.w3.org/2000/svg" width="24" height="24" viewBox="0 0 24 24"><title>Icons / Navigation / view-grid</title><g fill="none" fill-rule="evenodd"><path d="M0 0h24v24H0z"/><path fill="currentColor" fill-rule="nonzero" d="M10 13a1 1 0 0 1 1 1v4a1 1 0 0 1-1 1H6a1 1 0 0 1-1-1v-4a1 1 0 0 1 1-1h4zm8 0a1 1 0 0 1 1 1v4a1 1 0 0 1-1 1h-4a1 1 0 0 1-1-1v-4a1 1 0 0 1 1-1h4zm-8-8a1 1 0 0 1 1 1v4a1 1 0 0 1-1 1H6a1 1 0 0 1-1-1V6a1 1 0 0 1 1-1h4zm8 0a1 1 0 0 1 1 1v4a1 1 0 0 1-1 1h-4a1 1 0 0 1-1-1V6a1 1 0 0 1 1-1h4z"/></g></svg>
