<svg focusable="false" xmlns="http://www.w3.org/2000/svg" width="40" height="40" viewBox="0 0 40 40"><title>wallet-40</title><g fill="none" fill-rule="evenodd"><path d="M0 0h40v40H0z"/><path fill="var(--ukg_sys_color_featureIcon_light, #30CEBB)" fill-rule="nonzero" d="M26.5 21.006a1.5 1.5 0 1 1 0 3 1.5 1.5 0 0 1 0-3zm1.5-15 1.75 6-20-.21a.21.21 0 0 1-.05-.41L28 6.006z"/><path fill="var(--ukg_sys_color_featureIcon_dark, #005151)" fill-rule="nonzero" d="M34 18.006h-1v-4a3 3 0 0 0-3-3H10a3 3 0 0 0-3 3v17a3 3 0 0 0 3 3h20a3 3 0 0 0 3-3v-1a1 1 0 1 0-2 0v1a1 1 0 0 1-1 1H10a1 1 0 0 1-1-1v-17a1 1 0 0 1 1-1h20a1 1 0 0 1 1 1v4h-4.5a4.5 4.5 0 0 0 0 9H34a1 1 0 0 0 1-1v-7a1 1 0 0 0-1-1zm-1 7h-6.5a2.5 2.5 0 0 1 0-5H33v5z"/></g></svg>
