<svg focusable="false" xmlns="http://www.w3.org/2000/svg" width="24" height="24" viewBox="0 0 24 24"><title>Icons / Utility / warning-outline</title><g fill="none" fill-rule="evenodd"><path d="M0 0h24v24H0z"/><path fill="currentColor" fill-rule="nonzero" d="M12.581 3.248a2 2 0 0 1 .789.789l7.617 13.85a2 2 0 0 1-1.752 2.963H4a2 2 0 0 1-1.752-2.964l7.617-13.85a2 2 0 0 1 2.716-.788zm-.964 1.602-8 14h16l-8-14zm0 10a1.25 1.25 0 1 1 0 2.5 1.25 1.25 0 0 1 0-2.5zm0-6a1 1 0 0 1 .994.884l.006.116v3a1 1 0 0 1-1.993.117l-.007-.117v-3a1 1 0 0 1 1-1z"/></g></svg>
