<svg focusable="false" xmlns="http://www.w3.org/2000/svg" width="24" height="24" viewBox="0 0 24 24"><title>Icons / Utility / warning</title><g fill="none" fill-rule="evenodd"><path d="M0 0h24v24H0z"/><path fill="currentColor" fill-rule="nonzero" d="M12.581 3.248a2 2 0 0 1 .789.789l7.617 13.85a2 2 0 0 1-1.752 2.963H4a2 2 0 0 1-1.752-2.964l7.617-13.85a2 2 0 0 1 2.716-.788zm-.964 12.102a1.25 1.25 0 1 0 0 2.5 1.25 1.25 0 0 0 0-2.5zm0-7.5a1 1 0 0 0-1 1v4l.007.117a1 1 0 0 0 1.993-.117v-4l-.006-.116a1 1 0 0 0-.994-.884z"/></g></svg>
