<svg focusable="false" xmlns="http://www.w3.org/2000/svg" width="40" height="40" viewBox="0 0 40 40"><title>warning-40</title><g fill="none" fill-rule="evenodd"><path d="M0 0h40v40H0z"/><path fill="var(--ukg_sys_color_featureIcon_light, #30CEBB)" fill-rule="nonzero" d="M19.9 9.5c.2 0 .5.1.7.4l10.5 18.8c.2.3.1.6 0 .8-.1.2-.3.5-.7.5h-21c-.4 0-.6-.2-.7-.4-.1-.1-.2-.4 0-.8L19.2 9.9c.2-.4.6-.4.7-.4m0-2c-.9 0-1.9.5-2.4 1.4L7 27.8c-1 1.8.3 4.1 2.4 4.1h21.1c2.1 0 3.4-2.3 2.4-4.1L22.3 8.9c-.5-1-1.4-1.4-2.4-1.4Z"/><path fill="var(--ukg_sys_color_featureIcon_dark, #005151)" fill-rule="nonzero" d="M19.9 6c1.9 0 3.5 1 4.5 2.6l8 14.2c.3.5.1 1.1-.4 1.4-.5.3-1.1.1-1.4-.4l-8-14.2C22.1 8.6 21 8 19.9 8s-2.2.6-2.7 1.6L7.3 27.3c-.5 1-.5 2.1 0 3.1.6 1 1.5 1.5 2.7 1.5h19.8c1.1 0 2.1-.5 2.6-1.4.6-.9.6-2 .2-2.9-.2-.5 0-1.1.5-1.3.5-.2 1.1 0 1.3.5.8 1.6.7 3.4-.3 4.8-.9 1.4-2.5 2.3-4.3 2.3H10c-1.8 0-3.5-.9-4.4-2.5-.9-1.6-1-3.5-.1-5.1l9.9-17.7c.957-1.53 2.462-2.512 4.254-2.594L19.9 6Zm0 17.9a1.6 1.6 0 1 1 0 3.2 1.6 1.6 0 0 1 0-3.2Zm0-8.7c.7 0 1.1.5 1.1 1.1v5.4c0 .6-.4 1.1-1.1 1.1-.7 0-1.1-.5-1.1-1.1v-5.4c0-.7.5-1.1 1.1-1.1Z"/></g></svg>
