<svg focusable="false" xmlns="http://www.w3.org/2000/svg" width="24" height="24" viewBox="0 0 24 24"><title>Icons / Utility / zoom-in</title><g fill="none" fill-rule="evenodd"><path d="M0 0h24v24H0z"/><path fill="currentColor" fill-rule="nonzero" d="M14.728 13.315c1.13-1.55 1.63-3.58.98-5.74-.68-2.23-2.57-3.98-4.85-4.44a6.521 6.521 0 0 0-7.72 7.73c.46 2.29 2.21 4.18 4.44 4.85 2.16.65 4.19.15 5.74-.98l5.56 5.56a.996.996 0 1 0 1.41-1.41l-5.56-5.57zm-5.23.69c-2.49 0-4.5-2.01-4.5-4.5s2.01-4.5 4.5-4.5 4.5 2.01 4.5 4.5-2.01 4.5-4.5 4.5zm2-5.5h-1v-1c0-.55-.45-1-1-1s-1 .45-1 1v1h-1c-.55 0-1 .45-1 1s.45 1 1 1h1v1c0 .55.45 1 1 1s1-.45 1-1v-1h1c.55 0 1-.45 1-1s-.45-1-1-1z"/></g></svg>
